<?xml version="1.0" encoding="UTF-8" standalone="no"?>
<!-- Created with Inkscape (http://www.inkscape.org/) -->

<svg
   width="142.41071mm"
   height="128.46516mm"
   viewBox="0 0 142.41071 128.46516"
   version="1.1"
   id="svg1"
   inkscape:version="1.3 (0e150ed, 2023-07-21)"
   sodipodi:docname="apple.svg"
   xmlns:inkscape="http://www.inkscape.org/namespaces/inkscape"
   xmlns:sodipodi="http://sodipodi.sourceforge.net/DTD/sodipodi-0.dtd"
   xmlns="http://www.w3.org/2000/svg"
   xmlns:svg="http://www.w3.org/2000/svg">
  <sodipodi:namedview
     id="namedview1"
     pagecolor="#ffffff"
     bordercolor="#000000"
     borderopacity="0.25"
     inkscape:showpageshadow="2"
     inkscape:pageopacity="0.0"
     inkscape:pagecheckerboard="0"
     inkscape:deskcolor="#d1d1d1"
     inkscape:document-units="mm"
     inkscape:zoom="0.2102413"
     inkscape:cx="287.76458"
     inkscape:cy="214.03977"
     inkscape:window-width="1312"
     inkscape:window-height="449"
     inkscape:window-x="0"
     inkscape:window-y="25"
     inkscape:window-maximized="0"
     inkscape:current-layer="layer1" />
  <defs
     id="defs1" />
  <g
     inkscape:label="Layer 1"
     inkscape:groupmode="layer"
     id="layer1"
     style="display:inline"
     transform="translate(-29.53972,-91.939299)">
    <g
       id="g795"
       transform="matrix(0.26458333,0,0,0.26458333,7.0338746,56.503499)"
       style="display:inline">
      <path
         id="path785"
         d="m 392.48932,198.38674 c -139.01199,0 -221.70532,78.79999 -221.70532,192.94666 0,132.65333 122.31733,249.79999 221.70532,211.63999 99.388,38.16 221.704,-78.98666 221.704,-211.63999 0,-114.14667 -82.69333,-192.94666 -221.704,-192.94666"
         style="fill:#ffffff;fill-opacity:1;fill-rule:nonzero;stroke:none;stroke-width:0.133333" />
      <path
         id="path786"
         d="m 603.24932,300.00007 c 13.08,26.6 20.05733,57.29333 20.05733,91.33333 0,77.4 -40.55466,155.26666 -103.29866,198.38666 -8.84667,6.08 -17.81067,11.24 -26.832,15.48 -15.76534,4.56 -31.824,6.16 -47.67867,4.34667 -9.10933,-1.01334 -18.13066,-3.17334 -26.97733,-6.56 -1.63467,0.61333 -3.24133,1.18666 -4.876,1.74666 -1.636,0.52 -3.27067,1.02667 -4.90533,1.49334 -1.08,0.29333 -2.16,0.57333 -3.24,0.84 h -0.0587 c -13.052,3.24 -26.39467,3.97333 -39.68,2.48 -2.656,-0.29334 -5.31333,-0.66667 -7.97067,-1.10667 -8.37866,-1.49333 -16.7,-3.8 -24.93333,-6.86667 -1.37333,-0.52 -2.74533,-1.04 -4.11733,-1.6 -2.36533,-0.98666 -4.7,-2.01333 -7.036,-3.09333 l -0.0587,-0.0267 c -5.752,-2.66666 -11.416,-5.69333 -16.964,-9.10666 -2.59733,-1.61334 -5.196,-3.28 -7.76533,-5 -15.38667,-10.48 -29.81067,-23.56 -42.68667,-38.68 -34.30666,-40.32 -57.43066,-95.04 -57.43066,-152.73333 0,-38.4 9.372,-72.85333 27.15333,-101.57333 1.92667,-3.16 3.94133,-6.22667 6.07333,-9.22667 2.044,-2.86667 4.17467,-5.66667 6.39334,-8.41333 2.22,-2.74667 4.52666,-5.42667 6.97866,-8.05333 2.59867,-2.89334 5.34267,-5.66667 8.204,-8.32 3.09467,-3.01334 6.30667,-5.84 9.66534,-8.53334 0.7,-0.61333 1.40133,-1.16 2.10133,-1.72 12.23333,-9.72 26.044,-18.10666 41.372,-24.98666 h 0.0293 c 9.664,-4.36 19.97067,-8.12 30.832,-11.21334 2.45333,-0.73333 4.93467,-1.4 7.44533,-2.01333 0.70134,-0.21333 1.43067,-0.38667 2.16,-0.58667 3.24134,-0.76 6.512,-1.52 9.81067,-2.18666 14.59867,-3.01334 30.10267,-4.94667 46.45333,-5.73334 1.22534,-0.0533 2.452,-0.10666 3.67734,-0.14666 h 0.20533 c 4.32133,-0.17334 8.72933,-0.25334 13.168,-0.25334 1.98533,0 3.97067,0.0267 5.92667,0.0533 30.33466,0.49333 57.95599,4.78666 82.48133,12.46666 43.76666,18.86667 76.84666,49.4 96.32133,89.10667"
         style="fill:#ff2720;fill-opacity:1;fill-rule:nonzero;stroke:none;stroke-width:0.133333" />
      <path
         id="path787"
         d="m 603.24932,300.00007 c 13.08,26.6 20.05733,57.29333 20.05733,91.33333 0,77.4 -40.55466,155.26666 -103.29866,198.38666 -8.84667,6.08 -17.81067,11.24 -26.832,15.48 -15.76534,4.56 -31.824,6.16 -47.67867,4.34667 -9.10933,-1.01334 -18.13066,-3.17334 -26.97733,-6.56 -1.63467,0.61333 -3.24133,1.18666 -4.876,1.74666 -1.636,0.52 -3.27067,1.02667 -4.90533,1.49334 -1.08,0.29333 -2.16,0.57333 -3.24,0.84 -13.11067,3.24 -26.512,3.97333 -39.884,2.50666 -2.628,-0.28 -5.22534,-0.66666 -7.82534,-1.13333 -8.37866,-1.45333 -16.72933,-3.76 -24.93333,-6.86667 -1.37333,-0.52 -2.74533,-1.04 -4.11733,-1.6 -2.36533,-0.98666 -4.7,-2.01333 -7.036,-3.09333 l -0.0587,-0.0267 c -5.752,-2.66666 -11.416,-5.69333 -16.964,-9.10666 -2.59733,-1.61334 -5.196,-3.28 -7.76533,-5 -15.38667,-10.48 -29.81067,-23.56 -42.68667,-38.68 34.56934,19.96 74.65734,31.41333 117.46,31.41333 118.50933,0 216.49466,-87.70666 232.67066,-201.78666 1.576,-10.85333 2.364,-22.01333 2.364,-33.30667 0,-1.96 -0.028,-3.89333 -0.0867,-5.81333 -0.26266,-11.76 -1.40133,-23.29333 -3.38666,-34.57333"
         style="fill:#cc1f1f;fill-opacity:1;fill-rule:nonzero;stroke:none;stroke-width:0.133333" />
      <path
         id="path788"
         d="m 509.70132,574.72006 c -38.248,26.28 -78.71466,33.28 -113.95466,19.76 l -3.27067,-1.25333 -3.24133,1.25333 c -21.168,8.12 -44.23334,8.85333 -67.532,2.4 l -0.0587,-0.0267 c -15.504,-4.24 -31.09466,-11.65333 -46.36533,-22.13333 -57.956,-39.82667 -95.38666,-111.8 -95.38666,-183.38666 0,-48.81333 15.97066,-90.13333 44.73066,-121.13333 2.51067,-2.69334 5.10933,-5.32 7.824,-7.85333 2.832,-2.69334 5.78133,-5.29334 8.81867,-7.77334 3.38666,-2.77333 6.88933,-5.42666 10.54,-7.97333 15.47333,-10.85333 33.22533,-19.61333 52.93333,-26.09333 h 0.0293 c 10.48267,-3.45334 21.51867,-6.22667 33.08,-8.29334 2.97867,-0.56 5.98533,-1.05333 9.02267,-1.49333 0.38,-0.0533 0.788,-0.12 1.16666,-0.17333 3.388,-0.49334 6.804,-0.90667 10.27734,-1.29334 10.97866,-1.16 22.39466,-1.77333 34.16133,-1.77333 1.98533,0 4,0.0267 5.956,0.0533 6.51067,0.12 12.90533,0.41334 19.18267,0.90667 108.14533,8.29333 178.97733,70.8 186.74399,165.25333 0.496,5.76 0.72933,11.65333 0.72933,17.64 0,71.58666 -37.43066,143.55999 -95.38666,183.38666 z m 93.548,-274.71999 c -19.47467,-39.70667 -52.55467,-70.24 -96.32133,-89.10667 -22.656,-9.74666 -48.17467,-16.37333 -76.17467,-19.50666 -8.14533,-0.93334 -16.49733,-1.54667 -25.08,-1.86667 -4.35066,-0.14667 -8.73066,-0.22667 -13.19733,-0.22667 -16.32133,0 -31.94133,1.08 -46.832,3.17334 -3.62,0.50666 -7.212,1.05333 -10.716,1.69333 -2.39333,0.41333 -4.72933,0.85333 -7.06533,1.34667 -1.196,0.24 -2.39333,0.49333 -3.59067,0.73333 -38.716,8.4 -71.67866,24.17333 -97.60533,46.24 -2.804,2.30667 -5.51867,4.76 -8.11733,7.28 -2.51067,2.36 -4.90534,4.81333 -7.24134,7.32 -2.42266,2.57333 -4.75866,5.22667 -7.00666,7.97333 -27.47467,33.2 -42.628,76.12 -42.628,126.28 0,77.4 40.55466,155.26666 103.27066,198.38666 28.67067,19.68 58.656,29.73333 87.56133,29.73333 13.664,0 27.09467,-2.25333 39.97067,-6.77333 31.76667,11.17333 66.65733,8.46667 100.7,-7.48 9.02133,-4.24 17.98533,-9.4 26.832,-15.48 62.744,-43.12 103.29866,-120.98666 103.29866,-198.38666 0,-34.04 -6.97733,-64.73333 -20.05733,-91.33333"
         style="fill:#231f20;fill-opacity:1;fill-rule:nonzero;stroke:none;stroke-width:0.133333" />
      <path
         id="path789"
         d="m 384.34666,239.62674 c -54.204,57.58666 -138.95867,52.47999 -160.40133,50.11999 1.92533,-3.14666 3.95466,-6.22666 6.08933,-9.21333 9.264,-13.06667 20.40133,-24.82666 33.33467,-35.05333 l 120.97733,-5.85333"
         style="fill:#cc1f1f;fill-opacity:1;fill-rule:nonzero;stroke:none;stroke-width:0.133333" />
      <path
         id="path790"
         d="m 447.61732,241.48007 c 0,7.61333 -24.68133,13.78667 -55.128,13.78667 -30.44666,0 -55.128,-6.17334 -55.128,-13.78667 0,-7.62667 24.68134,-13.8 55.128,-13.8 30.44667,0 55.128,6.17333 55.128,13.8"
         style="fill:#231f20;fill-opacity:1;fill-rule:nonzero;stroke:none;stroke-width:0.133333" />
      <path
         id="path791"
         d="m 395.81999,254.56007 c -0.62933,-3.13333 -0.94933,-5.77333 -1.21067,-8.66667 -0.23333,-2.81333 -0.388,-5.65333 -0.376,-8.49333 -0.036,-5.68 0.42667,-11.37333 1.32934,-17.05333 1.80666,-11.34667 5.52133,-22.64 11.276,-33.02667 2.83866,-5.21333 6.15733,-10.21333 9.928,-14.85333 1.81866,-2.38667 3.87733,-4.54667 5.87733,-6.8 2.116,-2.09334 4.18,-4.30667 6.44267,-6.25334 7.74933,-6.97333 16.352,-12.92 25.38,-17.89333 2.152,-1.18667 4.85333,-0.29333 5.808,1.97333 l 8.69866,20.65334 c 0.904,2.14666 -0.14933,4.65333 -2.344,5.42666 -7.58266,2.70667 -14.81733,6.14667 -21.528,10.38667 -2.02266,1.2 -3.83866,2.64 -5.77333,3.97333 -1.79467,1.46667 -3.704,2.85334 -5.38933,4.46667 -3.52267,3.08 -6.73867,6.52 -9.65467,10.24 -5.89733,7.38667 -10.48533,16 -13.612,25.32 -1.56133,4.65333 -2.78267,9.48 -3.56933,14.4 -0.424,2.45333 -0.696,4.93333 -0.904,7.42667 -0.19867,2.42666 -0.27734,5.09333 -0.22134,7.22666 l -10.15733,1.54667"
         style="fill:#231f20;fill-opacity:1;fill-rule:nonzero;stroke:none;stroke-width:0.133333" />
      <path
         id="path792"
         d="m 364.85599,239.6534 c 0,0 -80.004,30.86667 -149.62933,9.10667 -83.27093,-26.01333 -117.100662,-72.85333 -117.100662,-72.85333 0,0 80.235332,-50.74667 167.844662,-26.02667 70.204,19.81333 98.88533,89.77333 98.88533,89.77333"
         style="fill:#ffffff;fill-opacity:1;fill-rule:nonzero;stroke:none;stroke-width:0.133333" />
      <path
         id="path793"
         d="m 86.833331,173.70674 c 0.130267,0.16 0.2344,0.34666 0.338,0.49333 -0.285867,-0.28 -0.338,-0.49333 -0.338,-0.49333"
         style="fill:#01982f;fill-opacity:1;fill-rule:nonzero;stroke:none;stroke-width:0.133333" />
      <path
         id="path794"
         d="m 373.08932,243.9734 c 0,0 -4.84666,3.01334 -13.51866,7.16 l -0.11734,0.0267 c -0.816,0.25333 -1.69333,0.54667 -2.59733,0.84 -16.61333,5.17333 -49.548,13.69333 -86.424,13.69333 -8.81733,0 -17.92666,-0.49333 -27.036,-1.62666 -3.64933,-0.44 -7.29866,-1.02667 -10.94933,-1.72 -3.708,-0.68 -7.44533,-1.46667 -11.152,-2.42667 -2.94933,-0.73333 -5.86933,-1.54667 -8.78933,-2.45333 -0.408,-0.12 -0.81734,-0.26667 -1.19734,-0.38667 -54.59733,-17.28 -88.43719,-43.14667 -105.89653,-59.78667 l -0.0292,-0.04 c -1.3432,-1.54666 -2.6572,-3.09333 -4,-4.69333 -2.190129,-2.6 -4.350529,-5.32 -6.511462,-8.09333 2.686533,-0.98667 5.372402,-1.94667 8.058932,-2.82667 0.93427,-0.34667 1.89787,-0.66667 2.83227,-1 2.27706,-0.72 4.49586,-1.42667 6.74373,-2.09333 0.37973,-0.12 0.78853,-0.24 1.16827,-0.34667 41.34333,-12.48 79.73666,-14.98667 96.23266,-15.42667 36.90533,0.85334 74.51067,7.97334 106.27733,25.64 h 0.0293 c 12.584,6.94667 24.26266,15.58667 34.56933,26.13334 8.38,8.52 15.884,18.28 22.30666,29.42666"
         style="fill:#09b532;fill-opacity:1;fill-rule:nonzero;stroke:none;stroke-width:0.133333" />
      <path
         id="path795"
         d="m 251.80533,246.60007 c -4.55467,-0.4 -9.11067,-0.98667 -13.66534,-1.74667 -3.85333,-0.64 -7.67866,-1.44 -11.47333,-2.37333 -2.94933,-0.69333 -5.84,-1.50667 -8.73067,-2.41333 -58.68533,-18.30667 -92.05786,-47.56 -105.43026,-61.52 l -0.11613,-0.12 c 23.06506,-11.82667 85.4304,-38.33334 151.09439,-19.8 21.54667,6.08 39.00667,17.37333 52.7,29.78666 h 0.0293 c 2.86133,2.57334 5.548,5.2 8.05866,7.82667 2.51067,2.6 4.876,5.2 7.06534,7.78667 1.48933,1.78666 2.91999,3.53333 4.26266,5.26666 0.78933,0.98667 1.51867,1.94667 2.248,2.92 5.752,7.64 10.132,14.73334 13.168,20.17334 0.38,0.66666 0.73067,1.33333 1.08,1.96 -3.50267,1.06666 -7.88267,2.36 -12.992,3.66666 l -0.0293,0.04 c -6.336,1.62667 -13.752,3.32 -21.98533,4.84 -16.292,2.98667 -35.708,5.13334 -55.824,4.32 -3.15467,-0.12 -6.30667,-0.32 -9.46,-0.61333 z m 123.06399,-6.50667 -1.576,-3.88 c -0.204,-0.53333 -1.31333,-3.18666 -3.416,-7.30666 -2.452,-4.84 -6.27733,-11.76 -11.56266,-19.65334 -1.05067,-1.54666 -2.16,-3.14666 -3.29867,-4.74666 -0.876,-1.22667 -1.81067,-2.49334 -2.744,-3.74667 -2.044,-2.70667 -4.23467,-5.48 -6.628,-8.29333 -16.84666,-20 -42.044,-41.42667 -77.19733,-51.34667 -90.48133,-25.52 -171.765996,24.93333 -175.181596,27.09333 l -8.203599,5.16 5.693199,7.85334 c 0.495867,0.70666 5.138534,7.01333 14.627596,16.02666 l 0.0292,0.04 c 17.45934,16.64 51.2992,42.50667 105.89653,59.78667 0.38,0.12 0.78934,0.26667 1.19734,0.38667 2.92,0.90666 5.84,1.72 8.78933,2.45333 3.70667,0.96 7.444,1.74667 11.152,2.42667 3.65067,0.69333 7.3,1.28 10.94933,1.72 9.10934,1.13333 18.21867,1.62666 27.036,1.62666 36.876,0 69.81067,-8.52 86.424,-13.69333 0.904,-0.29333 1.78133,-0.58667 2.59733,-0.84 l 0.11734,-0.0267 c 4.964,-1.61333 7.97066,-2.74666 8.55466,-2.98666 l 8.672,-3.32 -1.928,-4.73334"
         style="fill:#231f20;fill-opacity:1;fill-rule:nonzero;stroke:none;stroke-width:0.133333" />
    </g>
  </g>
</svg>
