<?xml version="1.0" encoding="UTF-8" standalone="no"?>
<!-- Created with Inkscape (http://www.inkscape.org/) -->

<svg
   width="159.5872mm"
   height="134.60783mm"
   viewBox="0 0 159.5872 134.60783"
   version="1.1"
   id="svg1"
   inkscape:version="1.3 (0e150ed, 2023-07-21)"
   sodipodi:docname="banana.svg"
   xmlns:inkscape="http://www.inkscape.org/namespaces/inkscape"
   xmlns:sodipodi="http://sodipodi.sourceforge.net/DTD/sodipodi-0.dtd"
   xmlns="http://www.w3.org/2000/svg"
   xmlns:svg="http://www.w3.org/2000/svg">
  <sodipodi:namedview
     id="namedview1"
     pagecolor="#ffffff"
     bordercolor="#000000"
     borderopacity="0.25"
     inkscape:showpageshadow="2"
     inkscape:pageopacity="0.0"
     inkscape:pagecheckerboard="0"
     inkscape:deskcolor="#d1d1d1"
     inkscape:document-units="mm"
     inkscape:zoom="0.2102413"
     inkscape:cx="302.0339"
     inkscape:cy="252.09129"
     inkscape:window-width="1312"
     inkscape:window-height="449"
     inkscape:window-x="0"
     inkscape:window-y="25"
     inkscape:window-maximized="0"
     inkscape:current-layer="layer1" />
  <defs
     id="defs1" />
  <g
     inkscape:label="Layer 1"
     inkscape:groupmode="layer"
     id="layer1"
     transform="translate(-25.399993,-81.227069)">
    <g
       id="g797"
       transform="matrix(0.26458333,0,0,0.26458333,-197.52617,-346.60576)">
      <path
         id="path260"
         d="m 942.64531,1651.0134 c 0,0 24.75467,34.5866 21.01867,66.9866 -4.63734,40.2134 -2.14667,72.6134 26.86133,105.0534 55.19729,61.7066 154.92399,84.48 234.13599,72.28 68.2293,-10.5067 146.632,-48.68 178.552,-113.4134 1.84,-3.7466 3.8133,-7.44 5.8267,-11.12 3.5333,-6.4666 8.8,-20.08 1.64,-31.5866 -8.32,-13.4134 -14.16,-14.4934 -28.4534,-9.08 -82.092,30.3866 -152.6786,75.9866 -250.164,49.84 -60.3866,-16.2134 -151.40929,-65.4267 -147.40529,-139.9467 l -12.66667,-10.7333 -29.34533,21.72"
         style="fill:#ffffff;fill-opacity:1;fill-rule:nonzero;stroke:none;stroke-width:0.133333" />
      <path
         id="path261"
         d="m 1418.92,1768.0934 v 0.6133 c -0.027,0.4667 -0.067,0.9333 -0.093,1.4 -0.08,0.7067 -0.1733,1.4267 -0.2933,2.1333 -0.5467,1.1067 -1.04,2.0934 -1.5067,2.9467 -2.3733,4.32 -4.0933,7.6267 -5.64,10.7733 -35.3866,71.7334 -121.9573,108.6134 -185.344,118.36 -13.2853,2.0534 -27.6493,3.1334 -42.628,3.1334 -55.532,0 -119.4146,-14.84 -168.204,-50.1067 l -0.1453,-0.093 c -0.4387,-0.3734 -0.9053,-0.72 -1.3427,-1.1334 -3.3,-2.7733 -6.4826,-5.6666 -9.5773,-8.64 -3.0947,-2.9466 -6.07332,-6.04 -8.93466,-9.2533 -3.416,-3.8267 -6.48133,-7.68 -9.196,-11.5067 -1.08133,-1.5466 -2.10266,-3.0933 -3.096,-4.6133 -0.992,-1.5467 -1.89733,-3.0933 -2.80266,-4.64 -0.876,-1.5467 -1.69334,-3.1333 -2.48134,-4.68 -0.38,-0.7867 -0.75866,-1.5467 -1.13866,-2.3333 -0.72934,-1.5734 -1.43067,-3.12 -2.07334,-4.6934 -0.64266,-1.5866 -1.22666,-3.16 -1.78133,-4.7333 -0.55467,-1.6133 -1.08,-3.1867 -1.54667,-4.7867 -0.61333,-2.1066 -1.168,-4.2133 -1.63466,-6.3333 -3.97067,-17.5867 -3.47467,-36.12 -1.10934,-56.7333 1.54667,-13.5467 -1.84,-27.48 -6.36533,-39.0934 l -0.0293,-0.093 c -6.248,-16.1467 -14.59867,-27.8267 -14.59867,-27.8267 l 3.06533,-2.24 v -0.027 l 7.38667,-5.4667 17.60667,-13.0533 1.284,-0.9334 8.496,10.72 7.56266,9.5467 c -0.38,7.1867 0.11734,13.7733 1.256,19.76 5.488,29.6933 25.86793,44.7333 25.86793,44.7333 11.6494,10.4534 24.0294,20.1734 37.0507,28.88 l 0.1467,0.08 c 24.4373,16.4134 51.124,29.2934 79.6773,36.9734 97.4893,26.16 168.088,-19.4534 250.1627,-49.84 0.2,-0.067 0.3733,-0.1467 0.5466,-0.2134 6.1067,-2.2666 10.6667,-3.2933 14.52,-2.6266 2.8534,0.4933 5.3734,1.9333 7.8534,4.4933 1.4533,1.4933 2.8933,3.36 4.4,5.64 0.3866,0.56 0.76,1.1733 1.1466,1.7867 2.7734,4.44 3.68,9.1866 3.5334,13.72"
         style="fill:#fcda01;fill-opacity:1;fill-rule:nonzero;stroke:none;stroke-width:0.133333" />
      <path
         id="path262"
         d="m 1418.9466,1768.0934 c 0,0.2 0,0.4133 -0.027,0.6133 -0.027,0.4667 -0.067,0.9333 -0.093,1.4 -0.053,0.6667 -0.1466,1.3467 -0.2266,1.9867 v 0.027 c -0.067,0.24 -0.093,0.4667 -0.1467,0.7067 0.027,-0.2133 0.053,-0.3867 0.08,-0.5867 -0.5467,1.1067 -1.04,2.0934 -1.5067,2.9467 -2.3733,4.32 -4.0933,7.6267 -5.64,10.7733 -35.3866,71.7334 -121.9573,108.6134 -185.344,118.36 -13.2853,2.0534 -27.6493,3.1334 -42.628,3.1334 -55.532,0 -119.4146,-14.84 -168.204,-50.1067 -0.496,-0.3733 -0.992,-0.7867 -1.488,-1.2267 -3.3,-2.7733 -6.4826,-5.6666 -9.5773,-8.64 -3.0947,-2.9733 -6.04399,-6.08 -8.90532,-9.2533 -3.44534,-3.8267 -6.48134,-7.68 -9.22534,-11.5067 -1.08133,-1.5466 -2.10266,-3.0933 -3.096,-4.6133 -0.992,-1.5467 -1.89733,-3.0933 -2.80266,-4.64 -0.876,-1.5467 -1.69334,-3.1333 -2.48134,-4.68 -0.38,-0.7867 -0.75866,-1.5467 -1.13866,-2.3333 -0.72934,-1.5734 -1.43067,-3.12 -2.07334,-4.6934 -0.64266,-1.5866 -1.22666,-3.16 -1.78133,-4.7333 -0.55467,-1.6133 -1.08,-3.1867 -1.54667,-4.7867 -0.61333,-2.1066 -1.168,-4.2133 -1.63466,-6.3333 -3.97067,-17.5867 -3.47467,-36.12 -1.10934,-56.7333 1.54667,-13.5467 -1.84,-27.48 -6.36533,-39.0934 l -0.0293,-0.093 c -6.248,-16.1467 -14.59867,-27.8267 -14.59867,-27.8267 l 3.06533,-2.24 v -0.027 l 4.81734,-3.5334 c 3.32933,9.4267 6.59866,17.6 8,21.5467 2.94933,8.3467 6.19066,16.4267 9.72266,24.2933 12.468,27.6667 28.67193,52.28 48.43863,73.16 31.0653,32.7867 70.9773,56.3867 119.2987,68.2 83.0653,20.3867 142.0426,-3.7333 196.94,-31 18.0933,-9 35.7066,-19.0133 52.72,-29.96 0.7066,-0.4666 1.44,-0.9066 2.1333,-1.3733 l 13.4933,-8.72 12.9334,-8.4133 h 0.027"
         style="fill:#febd01;fill-opacity:1;fill-rule:nonzero;stroke:none;stroke-width:0.133333" />
      <path
         id="path263"
         d="m 1391.0133,1729.12 c 0,0 -7.2933,12.04 -3.44,16.0934 3.8533,4.0666 10.1867,13.84 19.84,9.64 9.64,-4.2 -7.44,-29.1067 -16.4,-25.7334"
         style="fill:#231f20;fill-opacity:1;fill-rule:nonzero;stroke:none;stroke-width:0.133333" />
      <path
         id="path264"
         d="m 1401.0533,1766.4267 c -2.48,4.56 -4.36,8.0933 -6.0133,11.48 -1.4667,2.9733 -3.04,5.8667 -4.68,8.6933 -34.8267,59.7734 -110.712,91.04 -167.0907,99.7334 -69.4013,10.6933 -169.6933,-6.44 -225.95599,-69.36 -26.48133,-29.5867 -29.05067,-59.4267 -24.61333,-97.9334 0.496,-4.2933 0.55466,-8.5866 0.26266,-12.84 -1.22533,-18.6933 -8.992,-36.3866 -15.15333,-47.7733 -1.02133,-1.8933 -2.01333,-3.6533 -2.92,-5.1733 l 16.73067,-12.3467 3.796,3.24 v 1.2267 c 0.26266,50.28 39.18132,87.9466 81.51732,112.7066 l 0.1467,0.08 c 25.5466,14.92 52.32,25.1467 72.6133,30.6 81.5467,21.8667 143.56,-4 209.2,-31.4133 15.0933,-6.3067 30.7067,-12.8133 46.56,-18.68 0.56,-0.2133 1.08,-0.4133 1.5867,-0.6133 8.76,-3.24 10.3333,-2.84 14.9466,4.4 0.2934,0.4933 0.6134,1 0.96,1.5466 2.2534,3.6534 2.48,7.8534 1.9334,11.6534 -0.8,4.7866 -2.8667,8.9866 -3.8267,10.7733 z m 17.3733,-32.0267 c -11.6533,-18.7733 -23.28,-18.8933 -39.36,-12.7866 -16.1466,5.9466 -31.92,12.5466 -47.1853,18.92 -62.7147,26.1866 -121.9267,50.92 -197.4587,30.6266 -50.3653,-13.4933 -144.55462,-58.1866 -140.67196,-130.6533 l 0.23467,-4.5067 -21.60667,-18.3333 -42.364,31.36 5.22667,7.2667 c 0.232,0.32 22.68533,32.0933 19.38667,60.68 -4.90534,42.3066 -1.81067,77.5733 29.10933,112.1333 9.42933,10.5467 19.97069,19.8933 31.32799,28.1467 l 0.1453,0.093 c 48.7894,35.2667 112.672,50.1067 168.204,50.1067 14.9787,0 29.3427,-1.08 42.628,-3.1334 63.3867,-9.7466 149.9574,-46.6266 185.344,-118.36 1.5467,-3.1466 3.2667,-6.4533 5.64,-10.7733 0.4667,-0.8533 0.96,-1.84 1.5067,-2.9467 l 0.067,-0.12 v -0.027 c 3.8533,-8.24 8.6133,-23.56 -0.1734,-37.6934"
         style="fill:#231f20;fill-opacity:1;fill-rule:nonzero;stroke:none;stroke-width:0.133333" />
      <path
         id="path265"
         d="m 951.65864,1650.7467 c 0,0 16.176,45.6133 1.896,79.8533 -17.72133,42.5067 -25.19466,78.7067 -3.68666,123.2934 40.92533,84.84 142.78932,141.1066 233.22402,152.6933 77.8986,9.9867 175.628,-7.0667 230.8813,-67.8 3.2,-3.52 6.52,-6.9467 9.8667,-10.32 5.9066,-5.96 15.9333,-19.1867 11.7466,-34.0267 -4.88,-17.28 -10.92,-20.2933 -28.2533,-18.8666 -99.3107,7.3866 -190.8293,35.0266 -289.1733,-24.24 -60.92,-36.72 -144.94136,-119.16 -117.116,-199.3734 l -10.47202,-15.72 -38.91334,14.5067"
         style="fill:#ffffff;fill-opacity:1;fill-rule:nonzero;stroke:none;stroke-width:0.133333" />
      <path
         id="path266"
         d="m 1145.9253,2017.44 c 5.168,1.3067 10.3067,2.48 15.416,3.52 -5.1387,-1.04 -10.2773,-2.2133 -15.416,-3.52"
         style="fill:#fcda01;fill-opacity:1;fill-rule:nonzero;stroke:none;stroke-width:0.133333" />
      <path
         id="path267"
         d="m 1435.5333,1928.5867 c -0.067,0.1733 -0.12,0.32 -0.1733,0.4933 -1.84,2.4267 -3.6534,4.3867 -5.0534,5.7867 -3.92,3.9733 -6.8933,7.0667 -9.6133,10.04 -49.72,54.6533 -129.3373,73.3733 -196.1107,73.3733 -15.036,0 -29.4013,-0.96 -42.6573,-2.6533 -76.116,-9.76 -174.2173,-54.7733 -225.51732,-131.9467 l -0.0293,-0.053 c -2.18933,-3.8267 -4.23333,-7.7067 -6.13066,-11.68 -10.452,-21.64 -14.07334,-41.3467 -12.964,-60.7333 0.088,-2.0667 0.26266,-4.1467 0.496,-6.2134 0.29333,-2.84 0.70133,-5.6666 1.168,-8.4933 0.496,-2.84 1.08,-5.6667 1.72266,-8.5333 0.32134,-1.4 0.672,-2.8267 1.052,-4.2667 1.10934,-4.2533 2.39334,-8.5733 3.824,-12.8933 2.39467,-7.2534 5.22667,-14.6 8.38,-22.1734 5.92667,-14.1866 6.59867,-30.36 5.372,-44.4 l -0.0293,-0.32 v -0.12 c -0.55467,-6.28 -1.51867,-12.1466 -2.54,-17.2 -0.0587,-0.2266 -0.11733,-0.4933 -0.17467,-0.7333 -0.292,-1.5067 -0.61333,-2.9467 -0.93466,-4.2533 -0.0293,-0.2134 -0.088,-0.4134 -0.11734,-0.6134 -0.204,-0.8266 -0.408,-1.6133 -0.584,-2.3333 -0.84533,-3.36 -1.63466,-5.9867 -2.16,-7.68 -0.14666,-0.4667 -0.292,-0.88 -0.408,-1.2 -0.20533,-0.64 -0.32266,-1 -0.32266,-1 l 4.05866,-1.5067 6.39467,-2.3733 2.248,-0.84 26.01467,-9.6933 0.204,-0.093 5.89866,14.3734 5.28399,12.84 c -2.68665,7.76 -4.20399,15.12 -4.84665,22.04 -3.29867,34.16 14.21865,57 14.21865,57 5.5774,8.9066 11.504,17.6 17.8107,26.04 l 0.204,0.24 c 24.292,32.6933 53.9267,61.4533 89.0213,82.56 98.336,59.2666 189.84,31.6266 289.168,24.24 0.2267,-0.04 0.44,-0.04 0.64,-0.067 8.3867,-0.6133 14.08,-0.1733 18.2534,2.5733 2.24,1.4534 4.0533,3.5867 5.6266,6.5467 1.1467,2.0667 2.1067,4.5733 3.04,7.56 0.24,0.72 0.4667,1.48 0.7067,2.28 1.6,5.72 1.1067,11.1733 -0.44,16.08"
         style="fill:#fcda01;fill-opacity:1;fill-rule:nonzero;stroke:none;stroke-width:0.133333" />
      <path
         id="path268"
         d="m 1435.5333,1928.5867 c -0.067,0.1733 -0.12,0.32 -0.1733,0.4933 -1.84,2.4267 -3.6534,4.3867 -5.0534,5.7867 -3.92,3.9733 -6.8933,7.0667 -9.6133,10.04 -49.72,54.6533 -129.3373,73.3733 -196.1107,73.3733 -15.036,0 -29.4013,-0.96 -42.6573,-2.6533 -76.116,-9.76 -174.2173,-54.7733 -225.51732,-131.9467 l -0.0293,-0.053 c -2.18933,-3.8267 -4.23333,-7.7067 -6.13066,-11.68 -10.452,-21.64 -14.07334,-41.3467 -12.964,-60.7333 0.088,-2.0667 0.26266,-4.1467 0.496,-6.2134 0.29333,-2.84 0.672,-5.6666 1.168,-8.4933 0.496,-2.84 1.052,-5.6667 1.72266,-8.5333 0.32134,-1.4 0.672,-2.8267 1.052,-4.2667 1.08,-4.2533 2.364,-8.5733 3.824,-12.8933 2.39467,-7.2534 5.19734,-14.6 8.35067,-22.1734 5.92667,-14.1866 6.628,-30.36 5.40133,-44.4 l -0.0293,-0.32 v -0.027 c -0.584,-6.3467 -1.51867,-12.2134 -2.54,-17.2934 -0.0587,-0.2266 -0.11733,-0.4933 -0.17467,-0.7333 -0.292,-1.48 -0.61333,-2.92 -0.93466,-4.2533 -0.0293,-0.2134 -0.088,-0.4134 -0.11734,-0.6134 -0.204,-0.8266 -0.408,-1.6133 -0.584,-2.3333 -0.84533,-3.36 -1.63466,-5.9867 -2.16,-7.68 -0.14666,-0.4667 -0.292,-0.88 -0.408,-1.2 -0.20533,-0.64 -0.32266,-1 -0.32266,-1 l 4.05866,-1.48 v -0.027 l 6.39467,-2.3733 c 0.672,11.36 1.69333,21.3467 1.956,26.1067 0.496,8.7866 1.34267,17.4266 2.48133,25.96 4.73067,35.5866 14.86134,68.8133 30.45334,98.8533 23.64935,45.64 59.88265,83.9733 108.93335,112.12 84.4093,48.4 156.496,40.6133 225.08,28.0533 23.508,-4.32 46.748,-9.9466 69.6013,-16.9066 l 0.2134,-0.053 17.5466,-5.3466 16.7867,-5.1067"
         style="fill:#febd01;fill-opacity:1;fill-rule:nonzero;stroke:none;stroke-width:0.133333" />
      <path
         id="path269"
         d="m 1417.2533,1877.2267 c 0,0 -11.76,10.8667 -8.8267,16.52 2.9334,5.6533 6.7867,18.32 18.6534,16.7733 11.88,-1.56 1.04,-34.16 -9.8267,-33.2933"
         style="fill:#231f20;fill-opacity:1;fill-rule:nonzero;stroke:none;stroke-width:0.133333" />
      <path
         id="path270"
         d="m 1407.24,1932.64 c -2.0134,2.2267 -4.12,4.4134 -6.2534,6.4534 -57.08,56.1866 -151.4693,66.8133 -216.7253,58.4533 -79.5613,-10.1867 -184.29066,-60.72 -226.18799,-147.6133 -19.82533,-41.1067 -13.22667,-74.8 3.88267,-115.8267 2.30666,-5.5467 3.912,-11.3333 4.96266,-17.1333 3.47467,-19.48 0.76,-39.4267 -2.18933,-52.9067 -0.64267,-2.92 -1.28533,-5.52 -1.89733,-7.7733 l 24.17466,-8.9867 4.02934,6.04 c -0.11734,0.3467 -0.204,0.6667 -0.292,1.0267 -13.89734,47.7066 7.47466,94.3066 38.56932,132.2 l 0.204,0.24 c 26.1613,31.76 59.1533,57.4 83.9413,72.32 81.8987,49.3733 157.6054,40.5733 237.7814,31.2933 18.5066,-2.1333 37.64,-4.3467 56.84,-5.7867 1.0266,-0.08 1.9866,-0.1333 2.8933,-0.2266 10.7733,-0.6667 12.5333,0.9866 15.6267,11.7066 0.08,0.2667 0.1466,0.52 0.2266,0.7867 1.3734,4.8533 0.3867,9.64 -1.4533,13.72 -2.4,5.44 -6.28,9.6933 -8,11.4267 -4.12,4.1733 -7.24,7.44 -10.1333,10.5866 z m 37.1066,-40.6666 c -6.6266,-23.4667 -18.3866,-27.0667 -37.6933,-25.4934 -19.5067,1.4667 -38.8267,3.68 -57.52,5.84 -76.9893,8.9334 -149.7187,17.3467 -226.272,-28.7866 -51.096,-30.8 -140.52666,-109.84 -113.2267,-188.5867 l 1.4894,-4.28 -16.96402,-25.4933 -54.07334,20.1733 2.97867,8.44 c 0.14667,0.4133 14.80267,42.8 2.07333,73.3067 -18.51066,44.4133 -26.19066,83.6533 -3.47466,130.7466 4.32133,8.96 9.25466,17.5467 14.71466,25.7867 l 0.0293,0.053 c 51.30006,77.1734 149.40136,122.1867 225.51736,131.9467 13.256,1.6933 27.6213,2.6533 42.6573,2.6533 66.7734,0 146.3907,-18.72 196.1107,-73.3733 2.72,-2.9733 5.6933,-6.0667 9.6133,-10.04 1.4,-1.4 3.2134,-3.36 5.0534,-5.7867 6.3066,-8.12 13.4,-21.52 8.9866,-37.1066"
         style="fill:#231f20;fill-opacity:1;fill-rule:nonzero;stroke:none;stroke-width:0.133333" />
      <path
         id="path271"
         d="m 929.04798,1659.0667 c 0,0 -1.89467,48.36 -27.85734,74.8667 -32.21866,32.8933 -52.59066,63.7466 -49.15333,113.1333 6.54,93.96 80.268,184 159.95469,228.3067 68.3533,38 164.9146,58.4 238.6386,23.1066 4.604,-2.2 9.236,-4.3333 13.9187,-6.3733 7.6893,-3.3333 21.9133,-11.9067 23.524,-27.24 1.8747,-17.8533 -2.612,-22.8933 -19.2467,-28 -94.96,-29.9733 -190.204,-38.2533 -259.5493,-129.7733 -31.17466,-41.1334 -49.87066,-90.3067 -59.03199,-140.7867 0,0 -11.27733,-40.04 20.628,-76.8667 l 16.608,-25.88 c 3.03067,-4.7333 -0.76933,-10.8533 -6.34533,-10.24 l -52.088,5.7467"
         style="fill:#ffffff;fill-opacity:1;fill-rule:nonzero;stroke:none;stroke-width:0.133333" />
      <path
         id="path272"
         d="m 1297.1666,2065.64 -0.029,0.027 -0.2333,0.2933 -0.2934,0.3734 c -0.9626,1.1733 -1.984,2.2533 -3.0653,3.1866 -0.496,0.4667 -0.992,0.9067 -1.4893,1.3467 l -0.057,0.053 c -1.2266,1.0267 -2.452,1.9334 -3.6786,2.7734 -1.4307,1 -2.832,1.84 -4.176,2.5466 l -0.029,0.027 c -1.1973,0.6933 -2.364,1.2533 -3.416,1.7467 -0.32,0.12 -0.6133,0.2666 -0.904,0.3866 l -2.1906,0.96 c -1.46,0.64 -2.9187,1.28 -4.3507,1.9334 -1.6933,0.7866 -3.3573,1.5466 -5.0213,2.36 -0.496,0.2 -0.9627,0.44 -1.4307,0.6666 -6.716,3.28 -13.6347,6.08 -20.7,8.44 -1.7813,0.6134 -3.5627,1.1734 -5.344,1.6934 -4.1453,1.2533 -8.3493,2.3333 -12.584,3.3066 -1.2267,0.2934 -2.4813,0.5467 -3.7067,0.8134 -40.2933,8.3466 -84.0586,4.3466 -124.8186,-7.12 -3.2107,-0.9467 -6.452,-1.9067 -9.6347,-2.8934 -16,-5.0266 -31.416,-11.1866 -45.8973,-18.16 -5.7814,-2.7733 -11.416,-5.6933 -16.876,-8.7333 -19.912,-11.0933 -39.47469,-25.0267 -57.69336,-41.1733 -9.10933,-8.0534 -17.89733,-16.6667 -26.21866,-25.7467 -3.09467,-3.4133 -6.16134,-6.8933 -9.168,-10.4533 -2.97734,-3.5334 -5.89734,-7.12 -8.75867,-10.7734 -32.20533,-41.4266 -54.65733,-90.24 -58.13067,-140.1733 -1.19733,-17.28 0.496,-32.2933 4.64134,-45.8933 l 0.0293,-0.067 c 5.22667,-17.4 14.42267,-32.5467 26.452,-47.2667 1.57733,-1.8933 3.18267,-3.8 4.81867,-5.6666 0.788,-0.96 1.63466,-1.8934 2.51066,-2.8534 1.72267,-1.88 3.44534,-3.7733 5.22534,-5.6666 v -0.027 c 1.81066,-1.9067 3.62133,-3.7733 5.48933,-5.6667 5.92667,-6.04 10.59867,-13.2266 14.248,-20.7066 1.89867,-3.7867 3.504,-7.68 4.876,-11.5334 2.68667,-7.4133 4.55467,-14.7066 5.86933,-21.1333 0.0587,-0.32 0.116,-0.64 0.17467,-0.96 0.17467,-0.8267 0.32133,-1.6133 0.468,-2.3733 0,-0.1467 0.028,-0.2934 0.0573,-0.44 0.23334,-1.1867 0.40934,-2.36 0.584,-3.44 0.0587,-0.44 0.14667,-0.88 0.204,-1.32 0.0293,-0.2534 0.088,-0.5467 0.11734,-0.8134 0.0587,-0.3466 0.11733,-0.6933 0.14666,-1.0533 l 0.0573,-0.2533 c 0.088,-0.68 0.14666,-1.32 0.23333,-1.9334 0.0293,-0.3466 0.088,-0.6933 0.11733,-1.0533 0.14667,-1.16 0.26267,-2.2133 0.35067,-3.1467 0.0587,-0.7066 0.116,-1.32 0.14533,-1.84 0.176,-1.84 0.20534,-2.8666 0.20534,-2.8666 v -0.027 l 21.51733,0.4933 20,0.4667 0.088,8.32 0.11733,11.2133 0.0867,9.9067 c -10.39333,12 -16.17467,24.32 -19.29867,35.4933 -14.452,26.9867 -8.11733,51.4267 -7.76666,52.6534 l 0.176,0.7866 c 9.69333,53.4534 28.992,99.5334 57.31329,136.9334 54.0133,71.24 124.6707,90.3866 199.4733,110.68 18.1614,4.9066 36.9347,9.9866 55.5614,15.88 18.4826,5.6933 28.0586,13.3466 25.6066,37.4666"
         style="fill:#fcda01;fill-opacity:1;fill-rule:nonzero;stroke:none;stroke-width:0.133333" />
      <path
         id="path273"
         d="m 1296.9373,2065.96 c -5.212,6.3867 -12.4293,10.4 -17.1493,12.4534 -4.38,1.88 -8.72,3.8133 -12.984,5.92 -73.8627,35.8933 -170.9427,15.48 -239.576,-22.68 C 947.55064,2017.3467 873.80664,1927.32 867.28398,1833.36 c -3.45467,-49.3733 16.93466,-80.2533 49.136,-113.1466 25.95733,-26.4934 27.87333,-74.84 27.87333,-74.84 l 11.13867,0.2533 c -3.57867,10.8 -6.34,20.4533 -7.84534,24.96 -14.38,43.1733 -19.848,86.3733 -15.73866,128.1467 5.05866,51.1333 24.468,100.1866 59.60533,144.52 60.42129,76.2666 130.24929,95.7466 198.60399,109.5333 23.4893,4.7333 47.2413,8.1067 71.1307,10.1333 l 35.7493,3.04"
         style="fill:#febd01;fill-opacity:1;fill-rule:nonzero;stroke:none;stroke-width:0.133333" />
      <path
         id="path274"
         d="m 1277.432,2042.08 c 0,0 -14.944,5.7334 -14.3187,12.0667 0.628,6.3333 -0.4987,19.5333 11.1013,22.4933 11.5974,2.96 13.6267,-31.3333 3.2174,-34.56"
         style="fill:#231f20;fill-opacity:1;fill-rule:nonzero;stroke:none;stroke-width:0.133333" />
      <path
         id="path275"
         d="m 871.91198,1787.4534 0.0293,-0.067 c 8.14533,-16.5467 20.43867,-31.4667 35.76667,-47.0933 11.38666,-11.6134 18.51066,-26.7467 22.97733,-40.76 l 0.0587,-0.1734 c 4.088,-12.7866 5.89733,-24.64 6.74533,-32.0533 l 3.94133,-0.44 7.59067,-0.8533 28.02933,-3.0934 -13.48933,21.0534 c -32.672,38.16 -23.53333,79.16 -22.21867,84.32 10.248,56.12 30.65734,104.68 60.67196,144.32 57.7507,76.2133 131.3267,96.1466 209.2254,117.2533 17.9853,4.88 36.5546,9.9067 54.9186,15.7067 0.9934,0.2933 1.8974,0.5866 2.7454,0.88 10.5106,3.4533 11.3573,5.64 10.1013,17.4666 -0.029,0.1734 -0.029,0.3467 -0.059,0.52 -0.6706,4.76 -3.2693,8.6667 -6.3933,11.68 -4.2333,4.1467 -9.4013,6.6534 -11.62,7.6534 -4.496,1.92 -9.1387,4.0533 -14.248,6.48 -6.044,2.8933 -12.2347,5.3733 -18.512,7.5066 l -0.1747,0.053 c -71.6786,24.1466 -157.0506,-0.093 -211.5906,-30.4 -70.10269,-38.9734 -148.58269,-124.7467 -155.29869,-220.9867 -1.60533,-23.0933 2.39467,-41.8933 10.80267,-58.9733 z m 399.64802,240.72 c -18.6267,-5.8934 -37.4,-10.9734 -55.5614,-15.88 -74.8026,-20.2934 -145.46,-39.44 -199.4733,-110.68 -28.32132,-37.4 -47.61999,-83.48 -57.31332,-136.9334 l -0.176,-0.7866 c -0.35067,-1.2267 -6.68534,-25.6667 7.76666,-52.6534 2.80267,-5.2533 6.39334,-10.56 10.948,-15.8533 l 17.40267,-26.92 c 3.29867,-5.16 3.35733,-11.6133 0.116,-16.84 -3.24133,-5.2 -9.02133,-8.0267 -15.124,-7.36 l -14.336,1.5733 -10.832,1.2 -10.89067,1.2 -23.824,2.6267 -0.32133,7.8533 c 0,0.44 -2.01467,45.1067 -25.25467,68.84 -33.69333,34.3734 -55.35733,67.9734 -51.73733,120.12 7.18267,103.0134 90.364,194.3734 164.61199,235.6534 41.1973,22.8933 99.1827,42.4266 157.08,42.4266 30.832,0 61.664,-5.5466 89.9267,-19.0666 4.876,-2.3467 9.3133,-4.3867 13.6053,-6.2267 7.9707,-3.4667 26.7733,-13.7733 28.964,-34.6533 v -0.1467 l 0.029,-0.027 c 2.452,-24.12 -7.124,-31.7733 -25.6066,-37.4666"
         style="fill:#231f20;fill-opacity:1;fill-rule:nonzero;stroke:none;stroke-width:0.133333" />
      <path
         id="path276"
         d="m 915.88398,1680.76 c 0,0 -3.59334,-37.5866 11.61466,-45.44 15.20667,-7.84 54.58667,-24.1866 74.53736,-16.1466 19.9493,8.0266 9.0213,45.04 -9.76402,49.68 -18.78667,4.6266 -26.468,23.2 -76.388,11.9066"
         style="fill:#231f20;fill-opacity:1;fill-rule:nonzero;stroke:none;stroke-width:0.133333" />
    </g>
  </g>
</svg>
