<?xml version="1.0" encoding="UTF-8" standalone="no"?>
<!-- Created with Inkscape (http://www.inkscape.org/) -->

<svg
   width="140.91348mm"
   height="169.72842mm"
   viewBox="0 0 140.91348 169.72842"
   version="1.1"
   id="svg1"
   inkscape:version="1.3 (0e150ed, 2023-07-21)"
   sodipodi:docname="blueberries.svg"
   xmlns:inkscape="http://www.inkscape.org/namespaces/inkscape"
   xmlns:sodipodi="http://sodipodi.sourceforge.net/DTD/sodipodi-0.dtd"
   xmlns="http://www.w3.org/2000/svg"
   xmlns:svg="http://www.w3.org/2000/svg">
  <sodipodi:namedview
     id="namedview1"
     pagecolor="#ffffff"
     bordercolor="#000000"
     borderopacity="0.25"
     inkscape:showpageshadow="2"
     inkscape:pageopacity="0.0"
     inkscape:pagecheckerboard="0"
     inkscape:deskcolor="#d1d1d1"
     inkscape:document-units="mm"
     inkscape:zoom="0.2102413"
     inkscape:cx="263.98238"
     inkscape:cy="318.68144"
     inkscape:window-width="1312"
     inkscape:window-height="449"
     inkscape:window-x="0"
     inkscape:window-y="25"
     inkscape:window-maximized="0"
     inkscape:current-layer="layer1" />
  <defs
     id="defs1" />
  <g
     inkscape:label="Layer 1"
     inkscape:groupmode="layer"
     id="layer1"
     transform="translate(-34.660418,-63.764574)">
    <g
       id="g797"
       transform="matrix(0.26458333,0,0,0.26458333,-209.97693,-143.55941)">
      <path
         id="path602"
         d="m 1154.9173,1056.44 c 0,0 -165.29466,-26.6533 -102.544,-259.59994 0,0 179.152,92.15999 102.544,259.59994"
         style="fill:#ffffff;fill-opacity:1;fill-rule:nonzero;stroke:none;stroke-width:0.133333" />
      <path
         id="path603"
         d="m 1164.8453,1056.4934 c -1.8387,-0.52 -4.8453,-1.4667 -8.6707,-2.92 -8.5253,-3.2667 -21.1973,-9.1734 -34.4813,-19.04 -37.7813,-28.12 -80.38,-88.44002 -45.9853,-211.90668 0.8173,-3.06667 1.7226,-6.16 2.6853,-9.32 0.9053,-3 1.84,-6.06667 2.8907,-9.16 16.496,11.58667 38.6866,29.62667 58.1893,54.01333 33.256,41.54667 64.3507,109.45333 25.372,198.33335"
         style="fill:#01982f;fill-opacity:1;fill-rule:nonzero;stroke:none;stroke-width:0.133333" />
      <path
         id="path604"
         d="m 1121.6933,1034.5334 c -16.088,-8.6667 -34.832,-22.7734 -49.4307,-45.33335 -27.7666,-42.96 -32.468,-102.96 -14.0733,-178.42666 4.672,2.92 10.6867,6.85333 17.5187,11.85333 14.9186,10.97333 33.576,26.85333 49.8973,47.36 42.5693,53.42667 50.6267,112.57333 24,175.87998 -6.2773,-1.72 -16.4093,-5.1467 -27.912,-11.3333 z m 17.78,-176.37335 c -19.5027,-24.38666 -41.6933,-42.42666 -58.1893,-54.01333 -13.956,-9.78666 -23.8827,-14.92 -24.7587,-15.38666 l -10.0147,-5.17334 -2.92,10.89334 c -23.212,86.13333 -18.7146,154.97332 13.372,204.61332 36.2334,56.05332 94.0734,65.96002 96.496,66.33332 l 6.8614,1.1067 2.8906,-6.3067 c 0.584,-1.2533 1.1387,-2.5067 1.6347,-3.7333 38.9787,-88.88002 7.884,-156.78668 -25.372,-198.33335"
         style="fill:#231f20;fill-opacity:1;fill-rule:nonzero;stroke:none;stroke-width:0.133333" />
      <path
         id="path605"
         d="m 1157.8026,1059.1734 c 0,0 26.5254,-167.09335 285.5307,-116.62668 0,0 -98.7867,184.47998 -285.5307,116.62668"
         style="fill:#ffffff;fill-opacity:1;fill-rule:nonzero;stroke:none;stroke-width:0.133333" />
      <path
         id="path606"
         d="m 1435.2666,971.76005 c -12.4666,17.2 -32.1733,40.63995 -59.0666,61.71995 -31.9334,25.0267 -78.5667,49.6934 -138.0987,49.6934 -24.5547,0 -51.2693,-4.1734 -80.1173,-14.2667 0.5546,-1.9067 1.5186,-4.8533 3.0373,-8.5867 3.1827,-8.0666 8.8173,-19.8266 18.1013,-32.4933 29.3734,-40.06665 95.2987,-89.29332 236.6107,-60.41332 3.24,0.64 6.52,1.34667 9.84,2.06667 3.1867,0.73333 6.4267,1.46667 9.6933,2.28"
         style="fill:#01982f;fill-opacity:1;fill-rule:nonzero;stroke:none;stroke-width:0.133333" />
      <path
         id="path607"
         d="m 1364.9866,1019.1467 c -59.0026,46.2267 -125.0453,57.6933 -196.3746,34.1333 1.7226,-5.96 4.9346,-15.04 10.5106,-25.4533 8.584,-16.0667 22.8027,-35.38665 45.8987,-51.45332 47.6773,-33.16 116.152,-42.30666 203.672,-27.24 -3.1733,4.90667 -7.5333,11.18667 -12.96,18.28 -11.76,15.33334 -28.76,34.48002 -50.7467,51.73332 z m 80.0934,-85.54665 c -98.9734,-19.26666 -176.6427,-9.84 -230.8614,28.09333 -55.796,39.02662 -65.052,93.74662 -65.4013,96.05332 l -1.1973,7.4133 7.0653,2.5734 c 1.1093,0.4133 2.1893,0.7866 3.2987,1.1733 28.848,10.0933 55.5626,14.2667 80.1173,14.2667 59.532,0 106.1653,-24.6667 138.0987,-49.6934 26.8933,-21.08 46.6,-44.51995 59.0666,-61.71995 10.2534,-14.13333 15.6267,-24 16.0934,-24.90667 l 5.84,-10.88 -12.12,-2.37333"
         style="fill:#231f20;fill-opacity:1;fill-rule:nonzero;stroke:none;stroke-width:0.133333" />
      <path
         id="path608"
         d="m 1133.256,1214.4534 c 51.9666,31.32 69.7346,97.1333 39.684,147 -30.052,49.8533 -96.54,64.88 -148.508,33.56 -51.96669,-31.32 -69.73336,-97.12 -39.68269,-146.9867 30.05199,-49.8667 96.53999,-64.8933 148.50669,-33.5733"
         style="fill:#ffffff;fill-opacity:1;fill-rule:nonzero;stroke:none;stroke-width:0.133333" />
      <path
         id="path609"
         d="m 1180.7293,1366.16 c -2.5987,4.2934 -5.4307,8.3467 -8.4973,12.1467 -0.5827,0.4933 -1.1667,0.96 -1.78,1.4267 -1.752,1.3466 -3.5627,2.6533 -5.4307,3.9066 -1.256,0.8534 -2.54,1.6934 -3.8547,2.4934 -1.196,0.72 -2.4226,1.4266 -3.6493,2.0933 -6.5987,3.7067 -13.576,6.6267 -20.8173,8.8267 h -0.029 c -11.3573,3.44 -23.3573,4.9866 -35.4453,4.5733 -1.6933,-0.053 -3.416,-0.1733 -5.1093,-0.32 h -0.029 c -1.868,-0.12 -3.7666,-0.32 -5.6346,-0.5867 h -0.029 c -0.7293,-0.1066 -1.46,-0.2 -2.2186,-0.3466 -2.9787,-0.44 -5.9854,-1.0134 -8.9347,-1.72 -2.948,-0.7067 -5.8973,-1.5467 -8.788,-2.5067 -8.088,-2.6267 -16.0293,-6.2267 -23.6493,-10.8133 -0.2334,-0.1467 -0.468,-0.28 -0.7014,-0.4267 -2.948,-1.7867 -5.752,-3.68 -8.4666,-5.6933 -6.8907,-5.12 -13.08,-10.8934 -18.4814,-17.2 -2.016,-2.3334 -3.9133,-4.7334 -5.664,-7.1867 -1.9866,-2.72 -3.8253,-5.4933 -5.4906,-8.32 -19.64802,-32.8133 -21.37069,-74.1867 -0.904,-108.1467 2.1893,-3.6133 4.5546,-7.04 7.0946,-10.28 6.7734,-8.6666 14.8027,-16 23.6787,-21.8933 0.7587,-0.52 1.5467,-1.0267 2.336,-1.52 0.9333,-0.5867 1.8973,-1.1733 2.8613,-1.72 0.1174,-0.093 0.2627,-0.1733 0.408,-0.24 0.76,-0.4667 1.5774,-0.8933 2.3654,-1.3333 l 0.3506,-0.1867 c 0.8174,-0.4267 1.6347,-0.8667 2.4814,-1.3067 0.2333,-0.12 0.4666,-0.2666 0.7306,-0.3466 0.8174,-0.4134 1.664,-0.8267 2.5107,-1.2 2.0147,-0.96 4.0587,-1.84 6.1307,-2.6 0.6426,-0.2667 1.3146,-0.4934 1.9853,-0.76 0.5547,-0.2 1.0813,-0.4134 1.636,-0.5867 0.6707,-0.2267 1.3427,-0.4667 2.044,-0.6667 0.904,-0.32 1.8093,-0.5866 2.7147,-0.8533 0.9053,-0.2533 1.84,-0.52 2.744,-0.7467 0.6426,-0.2133 1.2853,-0.36 1.928,-0.5066 1.6933,-0.44 3.416,-0.8134 5.1386,-1.1334 2.336,-0.4666 4.7,-0.8533 7.0654,-1.1466 h 0.059 c 18.6267,1.2933 37.372,6.96 54.5694,17.32 56.1746,33.8666 75.3853,105.4 42.7733,159.5066"
         style="fill:#4243d4;fill-opacity:1;fill-rule:nonzero;stroke:none;stroke-width:0.133333" />
      <path
         id="path610"
         d="m 1180.7293,1366.16 c -2.5987,4.2934 -5.4307,8.3467 -8.4973,12.1467 -0.5827,0.4933 -1.1667,0.96 -1.78,1.4267 -1.752,1.3466 -3.5627,2.6533 -5.4307,3.9066 -1.256,0.8534 -2.54,1.6934 -3.8547,2.4934 -1.196,0.72 -2.4226,1.4266 -3.6493,2.0933 -6.5987,3.7067 -13.576,6.6267 -20.8173,8.8267 h -0.029 c -11.3573,3.44 -23.3573,4.9866 -35.4453,4.5733 -1.7227,-0.053 -3.416,-0.1733 -5.1093,-0.32 h -0.029 c -1.868,-0.12 -3.7666,-0.32 -5.6346,-0.5867 23.4746,-6.3866 44.3213,-21.16 57.6053,-43.1733 28.1467,-46.72 11.5333,-108.3867 -37.168,-137.72 -9.576,-5.7867 -19.6787,-9.88 -29.9267,-12.3867 -14.364,-3.48 -29.0506,-3.8266 -43.0653,-1.2533 h -0.059 c 0.7894,-0.52 1.5774,-1.0533 2.3947,-1.52 0.9333,-0.5867 1.8973,-1.1733 2.8613,-1.72 l 0.3494,-0.24 h 0.059 c 0.76,-0.4667 1.5774,-0.8933 2.3654,-1.3333 l 0.3506,-0.1867 c 0.8174,-0.4267 1.6347,-0.8667 2.4814,-1.3067 0.2333,-0.12 0.4666,-0.2666 0.7306,-0.3466 0.8174,-0.4134 1.664,-0.8267 2.5107,-1.2 2.0147,-0.96 4.0587,-1.84 6.1307,-2.6 0.6426,-0.2667 1.3146,-0.4934 1.9853,-0.76 0.5547,-0.2 1.0813,-0.4134 1.636,-0.5867 0.6707,-0.2267 1.3427,-0.4667 2.044,-0.6667 0.904,-0.32 1.8093,-0.5866 2.7147,-0.8533 0.9053,-0.2533 1.84,-0.52 2.744,-0.7467 0.6426,-0.2133 1.2853,-0.36 1.928,-0.5066 1.6933,-0.44 3.416,-0.8134 5.1386,-1.1334 2.336,-0.4666 4.7,-0.8533 7.0654,-1.1466 h 0.059 c 18.6267,1.2933 37.372,6.96 54.5694,17.32 56.1746,33.8666 75.3853,105.4 42.7733,159.5066"
         style="fill:#3524a7;fill-opacity:1;fill-rule:nonzero;stroke:none;stroke-width:0.133333" />
      <path
         id="path611"
         d="m 1096.116,1401.3067 h -0.029 c -2.7146,0.3867 -5.4306,0.64 -8.1746,0.76 -3.0654,0.1733 -6.132,0.2 -9.2267,0.067 -3.036,-0.12 -6.0733,-0.36 -9.1093,-0.76 -13.8387,-1.7867 -27.62,-6.4267 -40.4374,-14.16 -0.788,-0.4667 -1.5773,-0.9734 -2.336,-1.4667 -9.548,-6.0667 -17.7813,-13.4533 -24.5546,-21.7467 -1.956,-2.3733 -3.79602,-4.8266 -5.46002,-7.3333 -20.992,-30.7733 -23.97067,-71.1867 -4.23334,-103.9467 5.83867,-9.6933 13.22536,-17.9466 21.66396,-24.64 17.1387,-13.6 38.6574,-20.8133 60.8174,-20.8133 1.9853,0 3.9413,0.053 5.9266,0.1733 16.2334,0.9334 32.584,5.7867 47.592,14.8 47.5907,28.7067 64,89.0267 36.584,134.52 -15.2706,25.3734 -40.9933,40.8134 -69.0226,44.5467 z m 41.84,-194.6533 c -17.1974,-10.36 -35.9427,-16.0267 -54.5694,-17.32 h -0.059 c -42.132,-2.92 -83.79602,16.5066 -106.39336,53.9866 -30.77333,51.04 -15.38666,117.6934 33.72266,153.4667 2.9187,2.1333 5.9267,4.1467 9.08,6.04 0.2907,0.1733 0.584,0.3467 0.904,0.5333 4.8187,2.8534 9.7813,5.36 14.832,7.4934 14.92,6.28 30.5413,9.44 45.9573,9.5466 0.408,0.04 0.788,0.04 1.196,0.04 34.4534,0 67.7374,-14.84 89.6054,-42.1333 3.0666,-3.8 5.8986,-7.8533 8.4973,-12.1467 32.612,-54.1066 13.4013,-125.64 -42.7733,-159.5066"
         style="fill:#231f20;fill-opacity:1;fill-rule:nonzero;stroke:none;stroke-width:0.133333" />
      <path
         id="path612"
         d="m 1071.852,1333.4134 c 6.6146,3.9866 3.4866,18.04 7.3653,23.8933 4.212,6.36 18.1867,9.5333 18.7093,16.64 0.5374,7.32 -12.644,11.8533 -16.548,18.3333 -3.9053,6.48 -1.7586,20.2534 -8.4826,23.1867 -6.52,2.8533 -15.8574,-8.0133 -23.4414,-8.7733 -6.988,-0.6934 -17.9546,8.64 -24.5706,4.6533 -6.6147,-3.9867 -3.488,-18.04 -7.3667,-23.8933 -4.212,-6.36 -18.18532,-9.5334 -18.70932,-16.64 -0.53734,-7.32 12.64402,-11.8534 16.54932,-18.3334 3.904,-6.48 1.7573,-20.2533 8.4813,-23.1866 6.52,-2.8534 15.8574,8.0133 23.4414,8.7733 6.988,0.6933 17.956,-8.64 24.572,-4.6533"
         style="fill:#4243d4;fill-opacity:1;fill-rule:nonzero;stroke:none;stroke-width:0.133333" />
      <path
         id="path613"
         d="m 1053.4893,1363.88 c 5.592,3.3734 7.5027,10.4534 4.2693,15.8134 -3.232,5.36 -10.3866,6.9866 -15.9773,3.6133 -5.5907,-3.3733 -7.5027,-10.4533 -4.2693,-15.8133 3.2333,-5.36 10.3866,-6.9867 15.9773,-3.6134"
         style="fill:#231f20;fill-opacity:1;fill-rule:nonzero;stroke:none;stroke-width:0.133333" />
      <path
         id="path614"
         d="m 1083.7373,1377.7467 c -3.592,2.6533 -7.6507,5.6667 -10.1613,9.84 -1.576,2.6267 -2.4814,5.6 -3.0947,8.56 -0.3507,1.6933 -0.6133,3.3867 -0.876,5.0133 l -0.029,0.2134 c -0.204,1.3733 -0.496,3.24 -0.8174,4.6666 -1.372,-0.7066 -3.008,-1.72 -4.1746,-2.4266 -4.176,-2.56 -8.9054,-5.4534 -14.22,-5.9867 -0.5547,-0.053 -1.1094,-0.08 -1.664,-0.08 -4.6134,0 -9.0214,1.8133 -12.992,3.44 h -0.029 c -1.664,0.6667 -4.176,1.6933 -5.8106,2.08 -0.3507,-1.4133 -0.6134,-3.6533 -0.788,-5.4133 -0.029,-0.2267 -0.059,-0.4667 -0.088,-0.6934 -0.3507,-3.6266 -0.7294,-7.6266 -2.1894,-11.2133 -0.4386,-1.1733 -0.9933,-2.28 -1.6933,-3.3333 -2.9493,-4.4667 -7.7373,-7.2934 -11.9427,-9.8 -1.1666,-0.68 -2.832,-1.6667 -4.0866,-2.5467 1.1973,-1.0133 2.8026,-2.2133 3.912,-3.04 2.044,-1.5067 4.2333,-3.12 6.1906,-5.0133 1.5174,-1.44 2.8907,-3.0134 3.9707,-4.8267 2.5107,-4.1733 3.2693,-9.16 3.9707,-13.5733 0.204,-1.4 0.5253,-3.36 0.876,-4.8667 1.3426,0.6933 2.9773,1.6933 4.1453,2.3867 4.176,2.5733 8.9053,5.4666 14.2187,5.9866 5.1973,0.52 10.248,-1.52 14.6866,-3.3333 1.664,-0.6667 4.204,-1.72 5.8107,-2.0933 0.408,1.6 0.7,4.3466 0.876,6.1333 0.4667,4.7467 0.992,10.16 3.8827,14.5067 2.9786,4.4666 7.7373,7.2933 11.9413,9.8133 1.168,0.6933 2.832,1.6533 4.088,2.5333 -1.1973,1.0267 -2.8027,2.2267 -3.912,3.0667 z m 23.2693,-4.4667 c -0.6426,-8.7866 -8.4373,-13.4266 -14.16,-16.8133 -1.9853,-1.1733 -5.344,-3.16 -5.9573,-4.0667 -0.496,-0.9866 -0.8173,-4.2266 -1.0213,-6.3866 -0.3214,-3.3067 -0.7294,-7.24 -2.0147,-10.9467 -1.284,-3.68 -3.4453,-7.1333 -7.2987,-9.4667 -7.7373,-4.64 -16.2053,-1.2 -22.3946,1.32 -1.9854,0.8134 -5.0214,2.04 -5.9854,2.0667 -1.2266,-0.1467 -4.5546,-2.16 -6.54,-3.3867 -5.6346,-3.44 -13.372,-8.2 -21.46,-4.64 -8.584,3.7334 -10.0146,13.08 -11.0653,19.88 -0.2627,1.72 -0.6427,4.12 -1.0813,5.6667 -0.1454,0.56 -0.2907,0.9867 -0.4667,1.28 -0.672,1.08 -3.5333,3.2133 -5.4307,4.6133 -1.6933,1.2667 -3.56129,2.6667 -5.34262,4.2667 -2.36534,2.1333 -4.55467,4.64 -5.84,7.6533 -0.93334,2.1334 -1.42934,4.4934 -1.22534,7.1734 0.64134,8.8 8.46667,13.4133 14.15996,16.8 1.9854,1.1866 5.3427,3.1733 5.9854,4.08 0.3506,0.7066 0.6133,2.6 0.7893,4.4133 0.087,0.6933 0.1747,1.3733 0.232,1.96 0.6427,6.6533 1.548,15.7333 9.2853,20.4 7.7374,4.64 16.204,1.2 22.3947,-1.3067 1.9853,-0.8266 5.0213,-2.0533 5.9853,-2.08 1.2254,0.1467 4.5547,2.16 6.54,3.3867 4.2334,2.6 9.6347,5.9333 15.504,5.9333 1.956,0 3.9414,-0.3866 5.956,-1.2533 1.9854,-0.88 3.5907,-2.0533 4.876,-3.4267 2.452,-2.5333 3.8534,-5.8 4.7294,-9.08 0.7013,-2.5333 1.1093,-5.1066 1.46,-7.3866 0.088,-0.5467 0.1746,-1.1867 0.292,-1.8667 0.088,-0.5467 0.204,-1.1333 0.292,-1.6933 0.292,-1.4534 0.6133,-2.8 0.9626,-3.3867 0.672,-1.1067 3.5334,-3.2133 5.4307,-4.64 5.5187,-4.0933 13.1107,-9.72 12.4093,-19.0667"
         style="fill:#231f20;fill-opacity:1;fill-rule:nonzero;stroke:none;stroke-width:0.133333" />
      <path
         id="path615"
         d="m 1133.6906,1179.1334 c 24.5467,59.0933 90.4067,87.8933 147.1,64.3466 56.6894,-23.5466 82.756,-90.5466 58.2094,-149.64 -24.548,-59.08 -90.4067,-87.8933 -147.1014,-64.3466 -56.6946,23.56 -82.756,90.5466 -58.208,149.64"
         style="fill:#ffffff;fill-opacity:1;fill-rule:nonzero;stroke:none;stroke-width:0.133333" />
      <path
         id="path616"
         d="m 1356.6133,1153.08 v 0.027 c -4.5867,42.92 -30.9507,81.5733 -72.3227,98.7733 -14.3653,5.9867 -29.488,8.96 -44.7013,8.96 -16.2027,0 -32.5253,-3.4133 -48.0573,-10.1866 -29.956,-13.1067 -53.4894,-37.2534 -66.248,-68.0267 -1.08,-2.5733 -2.044,-5.1467 -2.92,-7.7467 -0.292,-2.12 -0.496,-4.2533 -0.6134,-6.36 -0.3493,-4.88 -0.3213,-9.7466 0.029,-14.6 0.088,-1.2533 0.176,-2.5066 0.3213,-3.7333 0.1173,-1.2 0.2333,-2.4 0.4093,-3.6267 0.3214,-2.3866 0.7294,-4.7866 1.196,-7.1466 0.2347,-1.2 0.4974,-2.36 0.7894,-3.56 v -0.027 c 0,-0.1867 0.059,-0.3333 0.116,-0.5067 0.292,-1.2266 0.6133,-2.4133 0.9346,-3.64 0.3214,-1.1733 0.672,-2.3333 1.0214,-3.48 l 0.088,-0.32 c 0.8173,-2.6933 1.752,-5.3733 2.8026,-8 1.052,-2.6266 2.1614,-5.2266 3.3867,-7.76 0.8187,-1.7333 1.6947,-3.4266 2.5987,-5.0933 0.8173,-1.48 1.6653,-2.9733 2.5693,-4.4267 l 0.029,-0.093 c 1.052,-1.8133 2.1907,-3.5867 3.3867,-5.3467 0.7307,-1.04 1.46,-2.1333 2.22,-3.1466 0.3213,-0.44 0.6413,-0.88 0.9627,-1.2934 9.7226,-13.1066 22.424,-24.52 37.752,-33.2266 39.416,-22.3867 86.044,-21.04 121.868,-0.32 11.6213,6.72 22.0733,15.4266 30.808,26.08 l 0.027,0.027 c 3.5334,4.32 6.8,8.96 9.72,13.8934 5.52,9.3466 9.52,19.16 12,29.1733 0.76,8.32 0.6667,16.6133 -0.1733,24.7333"
         style="fill:#4243d4;fill-opacity:1;fill-rule:nonzero;stroke:none;stroke-width:0.133333" />
      <path
         id="path617"
         d="m 1356.6133,1153.1067 c -4.5867,42.92 -30.9507,81.5733 -72.3227,98.7733 -14.3653,5.9867 -29.488,8.96 -44.7013,8.96 -16.2027,0 -32.5253,-3.4133 -48.0573,-10.1866 -29.956,-13.1067 -53.4894,-37.2534 -66.248,-68.0267 -1.08,-2.5733 -2.044,-5.1467 -2.92,-7.7467 0.4386,3.8667 0.4093,3.7734 -0.059,-0.1066 -0.8467,-6.9467 -1.0213,-13.9334 -0.5253,-20.8534 0.088,-1.2533 0.176,-2.5066 0.3213,-3.7333 0.4387,-4.8133 1.256,-9.6 2.3947,-14.3333 v -0.027 c 0,-0.1867 0.059,-0.3333 0.116,-0.5067 0.292,-1.2266 0.6133,-2.4133 0.9346,-3.64 0.3214,-1.1733 0.672,-2.3333 1.0214,-3.48 l 0.088,-0.32 c 2.2186,-7.1866 5.1386,-14.16 8.788,-20.8533 0.8173,-1.5067 1.6653,-3.0267 2.5986,-4.52 1.052,-1.8133 2.1907,-3.5867 3.3867,-5.3467 0.7307,-1.04 1.46,-2.1333 2.22,-3.1466 0.292,-0.4667 0.6413,-0.9334 0.992,-1.4 l -0.029,0.1066 c -6.1014,25.4667 -2.8027,52.88 11.4453,76.9467 30.248,51.0533 98.3653,67.7333 152.1747,37.16 4.9346,-2.8 9.576,-5.8933 13.8986,-9.2533 7.4734,-5.7867 14.0427,-12.3467 19.6427,-19.5067 6.1067,-7.7067 11.0667,-16.12 14.84,-24.96"
         style="fill:#3524a7;fill-opacity:1;fill-rule:nonzero;stroke:none;stroke-width:0.133333" />
      <path
         id="path618"
         d="m 1322.1306,1197.5734 c -10.5706,16.32 -25.84,29.6 -44.848,37.4933 -25.1093,10.4533 -52.9626,10.04 -78.4506,-1.12 -12.7894,-5.6 -24.2347,-13.5733 -33.84,-23.44 -9.6054,-9.8933 -17.4014,-21.6667 -22.8907,-34.8667 -9.8387,-23.6133 -11.212,-49.2533 -4.088,-73.04 l 0.029,-0.093 c 0.7894,-2.7733 1.7227,-5.4933 2.7747,-8.2 10.1013,-25.9333 29.46,-45.96 54.5693,-56.3867 12.232,-5.1066 24.9627,-7.5066 37.5467,-7.5066 26.16,0 51.7373,10.4 71.2987,28.76 11.0373,10.3066 20.1466,23.1866 26.3653,38.1733 14.3093,34.48 9.9227,71.9333 -8.4667,100.2267 z m 34.656,-69.2267 c -1.1066,-12.7333 -4.2,-25.52 -9.3733,-37.9867 -26.4507,-63.6533 -97.7787,-94.71995 -159.0053,-69.28 -29.7227,12.3467 -52.672,36 -64.5547,66.6 -5.6933,14.6534 -8.5253,30.04 -8.5253,45.48 0,13.9867 2.3066,28.0267 6.9773,41.6134 l 0.059,0.1066 c 0.876,2.6 1.84,5.1734 2.92,7.7467 12.7586,30.7733 36.292,54.92 66.248,68.0267 15.532,6.7733 31.8546,10.1866 48.0573,10.1866 15.2133,0 30.336,-2.9733 44.7013,-8.96 41.372,-17.2 67.736,-55.8533 72.3227,-98.7733 v -0.027 c 0.84,-8.12 0.9333,-16.4133 0.1733,-24.7333"
         style="fill:#231f20;fill-opacity:1;fill-rule:nonzero;stroke:none;stroke-width:0.133333" />
      <path
         id="path619"
         d="m 1268.1333,1123.28 c 2.64,6.36 9.7253,9.4667 15.8253,6.9334 6.0987,-2.5334 8.9027,-9.7467 6.2627,-16.1067 -2.6413,-6.36 -9.7267,-9.4533 -15.8267,-6.92 -6.0986,2.5333 -8.9026,9.7333 -6.2613,16.0933"
         style="fill:#231f20;fill-opacity:1;fill-rule:nonzero;stroke:none;stroke-width:0.133333" />
      <path
         id="path620"
         d="m 1308.2906,1140.8667 c 0.6427,1.52 1.576,3.72 2.0734,5.3467 -1.7227,0.2 -4.204,0.2 -5.8694,0.2 -4.6706,0.04 -9.956,0.067 -14.5986,1.9866 -4.6427,1.9334 -8.3787,5.64 -11.6787,8.9334 -1.196,1.2 -2.948,2.96 -4.3213,4.04 -0.788,-1.52 -1.6934,-3.7467 -2.3067,-5.2534 -1.9267,-4.7333 -4.116,-10.08 -8.232,-13.7866 -4,-3.6267 -9.256,-4.9334 -14.336,-6.2134 -2.016,-0.5333 -5.168,-1.32 -6.7453,-2.08 0.5546,-1.6666 2.22,-4.4666 3.3,-6.28 2.656,-4.4933 5.4293,-9.16 5.6933,-14.5333 0.2627,-5.52 -1.9853,-10.8667 -3.9707,-15.56 -0.6426,-1.4933 -1.5773,-3.72 -2.0733,-5.3467 1.7227,-0.1733 4.204,-0.2133 5.8973,-0.2133 4.6427,-0.027 9.928,-0.027 14.5694,-1.9467 4.6426,-1.9333 8.38,-5.6666 11.708,-8.96 1.168,-1.1733 2.9493,-2.92 4.292,-4.04 0.788,1.52 1.6933,3.7467 2.3066,5.2534 1.9267,4.7333 4.116,10.08 8.2334,13.7866 4,3.6267 9.256,4.9334 14.336,6.2134 2.0146,0.5333 5.168,1.32 6.7733,2.1066 -0.584,1.64 -2.248,4.44 -3.328,6.2534 -2.6573,4.4933 -5.4307,9.16 -5.6933,14.5333 -0.2627,5.5467 1.9853,10.8667 3.9706,15.56 z m 14.2187,-14.56 c 0.176,-1.1733 1.9853,-4.2133 3.1827,-6.2533 3.532,-5.96 8.3746,-14.1334 4.8173,-22.68 -3.5627,-8.56 -12.7587,-10.8934 -19.4747,-12.5867 -2.2773,-0.5867 -5.7226,-1.4667 -6.5973,-2.1067 -1.0227,-0.9066 -2.6,-4.8133 -3.5627,-7.1466 -2.744,-6.72 -6.16,-15.0934 -14.9493,-17.08 -9.372,-2.1067 -16.32,4.7866 -21.4013,9.84 -1.8974,1.8933 -4.496,4.4933 -5.8094,5.0133 -1.344,0.56 -4.9933,0.5867 -7.68,0.5867 -7.152,0.027 -16.9333,0.093 -22.072,8.2 -4.7893,7.6533 -1.256,15.9733 1.5467,22.6666 0.9933,2.3334 2.628,6.1867 2.5707,7.4667 -0.176,1.1733 -1.9867,4.24 -3.184,6.2533 -2.656,4.4934 -6.072,10.2134 -6.072,16.44 0,2.04 0.3786,4.1467 1.256,6.24 3.5613,8.5867 12.7586,10.8934 19.4733,12.6134 2.2773,0.56 5.7227,1.44 6.5987,2.08 1.0213,0.9333 2.628,4.8133 3.5626,7.1466 2.744,6.72 6.16,15.0934 14.948,17.08 1.1974,0.2667 2.3654,0.3867 3.4747,0.3867 7.6493,0 13.4893,-5.8133 17.9267,-10.2267 1.8986,-1.8933 4.496,-4.4666 5.8106,-5.0133 1.3427,-0.56 4.992,-0.5867 7.6787,-0.5867 7.1533,-0.027 16.9347,-0.067 22.0733,-8.2 4.788,-7.6533 1.284,-15.9733 -1.548,-22.6666 -0.9933,-2.3067 -2.628,-6.1867 -2.5693,-7.4667"
         style="fill:#231f20;fill-opacity:1;fill-rule:nonzero;stroke:none;stroke-width:0.133333" />
      <path
         id="path621"
         d="m 1144.5413,1103.0134 c 0,60.68 -47.1933,109.8666 -105.4093,109.8666 -58.21736,0 -105.41069,-49.1866 -105.41069,-109.8666 0,-60.68 47.19333,-109.86668 105.41069,-109.86668 58.216,0 105.4093,49.18668 105.4093,109.86668"
         style="fill:#ffffff;fill-opacity:1;fill-rule:nonzero;stroke:none;stroke-width:0.133333" />
      <path
         id="path622"
         d="m 1140.2906,1047.2934 c 8.5267,16.6133 13.3734,35.6 13.3734,55.7066 0,65.6134 -51.3867,118.9867 -114.54,118.9867 -4.9934,0 -9.8987,-0.3333 -14.7454,-1 h -0.028 c -1.052,-0.3733 -2.0733,-0.76 -3.096,-1.16 -1.2266,-0.5067 -2.452,-1 -3.6493,-1.5467 -1.1387,-0.5333 -2.3067,-1.0533 -3.416,-1.6133 -1.0227,-0.4933 -2.044,-1.0267 -3.0653,-1.5467 -0.2347,-0.12 -0.4667,-0.2666 -0.7014,-0.3733 -0.9626,-0.56 -1.956,-1.0933 -2.92,-1.6667 -1.0506,-0.6133 -2.1306,-1.2533 -3.1813,-1.9333 l -0.029,-0.027 c -1.0507,-0.6666 -2.1027,-1.3733 -3.1534,-2.0666 -2.04396,-1.3734 -4.05862,-2.8667 -5.98529,-4.4134 l -0.20533,-0.1466 c -0.93334,-0.76 -1.868,-1.5467 -2.80267,-2.3334 -0.72933,-0.6133 -1.45867,-1.2533 -2.16,-1.8666 l -0.176,-0.1734 c -0.23333,-0.2133 -0.46667,-0.44 -0.7,-0.6266 -0.788,-0.7467 -1.57733,-1.48 -2.336,-2.2667 -0.788,-0.76 -1.57733,-1.5467 -2.336,-2.3467 -0.584,-0.6 -1.196,-1.2533 -1.75067,-1.8933 -0.584,-0.6133 -1.168,-1.2533 -1.72266,-1.92 -2.86134,-3.28 -5.51867,-6.6933 -7.94267,-10.28 -0.46667,-0.6667 -0.93467,-1.3733 -1.40133,-2.08 l -0.14534,-0.2 c -0.876,-1.3733 -1.752,-2.8 -2.56933,-4.2267 -0.496,-0.8 -0.964,-1.5866 -1.37333,-2.4 -0.75867,-1.3733 -1.488,-2.7733 -2.18934,-4.2 -0.84666,-1.6666 -1.63466,-3.3866 -2.39466,-5.12 -5.576,-12.8133 -8.84534,-26.92 -9.31334,-41.7733 -0.0293,-1.2 -0.0573,-2.4 -0.0573,-3.6 0,-25.5067 8.34933,-49.0133 22.364,-67.6667 19.3,-25.6933 49.31326,-42.2 83.03596,-42.2 4.1467,0 8.2627,0.2667 12.292,0.7334 10.9787,1.3466 21.4307,4.4133 31.124,8.96 l 0.029,0.04 c 1.956,0.8933 3.8827,1.8933 5.752,2.9466 l 0.029,0.027 c 0.3506,0.1733 0.7,0.3467 1.0213,0.56 0.788,0.4267 1.5773,0.8667 2.336,1.3333 0.7013,0.44 1.4013,0.88 2.0733,1.32 1.46,0.9067 2.8907,1.8667 4.292,2.8534 0.5254,0.3866 1.08,0.76 1.6054,1.1733 0.8466,0.5867 1.6933,1.2267 2.5106,1.8667 0.876,0.68 1.752,1.3733 2.5987,2.1066 0.964,0.7867 1.9267,1.6 2.8613,2.4534 0.1467,0.1466 0.3214,0.2933 0.468,0.4 0.788,0.7333 1.5467,1.44 2.3067,2.16 0.904,0.88 1.8093,1.7866 2.6853,2.6933 0.584,0.5867 1.168,1.2 1.6934,1.8133 0.2333,0.2 0.4386,0.44 0.6133,0.64 0.584,0.6134 1.168,1.2534 1.7227,1.92 0.584,0.6534 1.1386,1.32 1.6933,1.96 0.5253,0.64 1.0507,1.28 1.576,1.9334 l 0.059,0.08 h -0.029"
         style="fill:#4243d4;fill-opacity:1;fill-rule:nonzero;stroke:none;stroke-width:0.133333" />
      <path
         id="path623"
         d="m 1140.2906,1047.2934 c 8.5267,16.6133 13.3734,35.6 13.3734,55.7066 0,65.6134 -51.3867,118.9867 -114.54,118.9867 -4.9934,0 -9.8987,-0.3333 -14.7454,-1 h -0.028 c -1.052,-0.3733 -2.0733,-0.76 -3.096,-1.16 -1.2266,-0.5067 -2.452,-1 -3.6493,-1.5467 -1.1387,-0.5333 -2.3067,-1.0533 -3.416,-1.6133 -1.0227,-0.4933 -2.044,-1.0267 -3.0653,-1.5467 -0.2347,-0.12 -0.4667,-0.2666 -0.7014,-0.3733 -0.9626,-0.56 -1.956,-1.0933 -2.92,-1.6667 -1.0506,-0.6133 -2.1306,-1.2533 -3.1813,-1.9333 l -0.029,-0.027 c -1.0507,-0.6666 -2.1027,-1.3733 -3.1534,-2.0666 -2.04396,-1.4134 -4.02929,-2.8667 -5.98529,-4.4134 l -0.20533,-0.1466 c -0.93334,-0.76 -1.868,-1.5467 -2.80267,-2.3334 -0.72933,-0.6133 -1.45867,-1.2533 -2.16,-1.8666 l -0.11733,-0.1467 -0.0587,-0.027 c -0.23333,-0.2133 -0.46667,-0.44 -0.7,-0.6266 -0.788,-0.7467 -1.57733,-1.48 -2.336,-2.2667 -0.788,-0.76 -1.57733,-1.5467 -2.336,-2.3467 -0.584,-0.6 -1.196,-1.2533 -1.75067,-1.8933 -0.584,-0.6133 -1.168,-1.2533 -1.72266,-1.92 -2.86134,-3.28 -5.51867,-6.6933 -7.94267,-10.28 -0.46667,-0.6667 -0.93467,-1.3733 -1.40133,-2.08 l -0.14534,-0.2 c -0.876,-1.3733 -1.752,-2.8 -2.56933,-4.2267 -0.496,-0.8 -0.964,-1.5866 -1.37333,-2.4 -0.816,-1.4266 -1.576,-2.8666 -2.27734,-4.32 -0.84533,-1.6666 -1.60533,-3.3333 -2.364,-5.0533 l 0.0573,0.053 c 17.57733,16.76 40.99329,26.9867 66.68659,26.9867 54.54,0 98.7734,-46.08 98.7734,-102.92 0,-11.2667 -1.7227,-22.1333 -4.992,-32.2933 -4.4094,-14.0134 -11.6507,-26.6934 -20.9934,-37.28 1.956,0.8933 3.8827,1.8933 5.752,2.9466 l 0.029,0.027 c 0.3506,0.1733 0.7,0.3467 1.0213,0.56 0.788,0.4267 1.5773,0.8667 2.336,1.3333 0.7013,0.44 1.4013,0.88 2.0733,1.32 1.46,0.9067 2.8907,1.8667 4.292,2.8534 0.5254,0.3866 1.08,0.76 1.6054,1.1733 0.8466,0.5867 1.6933,1.2267 2.5106,1.8667 0.876,0.68 1.752,1.3733 2.5987,2.1066 0.964,0.7867 1.9267,1.6 2.8613,2.4534 0.1467,0.1466 0.3214,0.2933 0.468,0.4 0.788,0.7333 1.5467,1.44 2.3067,2.16 0.904,0.88 1.8093,1.7866 2.6853,2.6933 0.584,0.5867 1.168,1.2 1.6934,1.8133 0.2333,0.2 0.4386,0.44 0.6133,0.64 0.584,0.6134 1.168,1.2534 1.7227,1.92 0.584,0.6534 1.1386,1.32 1.6933,1.96 0.5547,0.6667 1.08,1.3467 1.6053,2.0134"
         style="fill:#3524a7;fill-opacity:1;fill-rule:nonzero;stroke:none;stroke-width:0.133333" />
      <path
         id="path624"
         d="m 1039.124,1203.76 c -29.5774,0 -56.08802,-14.04 -73.78136,-36.08 l -0.088,-0.12 c -12.93333,-16.1466 -21.10933,-36.5866 -22.27733,-58.9733 -0.0867,-1.84 -0.14533,-3.72 -0.14533,-5.5867 0,-1.8666 0.0587,-3.7333 0.14533,-5.5733 2.77467,-52.96 44.848,-95.1467 96.14669,-95.1467 11.2693,0 22.1013,2.04 32.1453,5.7734 22.3067,8.2666 40.8467,24.9066 52.1467,46.28 7.6786,14.4266 12.028,31.04 12.028,48.6666 0,55.56 -43.2107,100.76 -96.32,100.76 z m 101.1666,-156.4666 -0.029,-0.08 c -19.2987,-37.5467 -57.4,-63.16002 -101.1373,-63.16002 -63.12402,0 -114.51069,53.37332 -114.51069,118.94662 0,60.4134 43.56133,110.4534 99.73729,117.9867 h 0.028 c 4.8467,0.6667 9.752,1 14.7454,1 63.1533,0 114.54,-53.3733 114.54,-118.9867 0,-20.1066 -4.8467,-39.0933 -13.3734,-55.7066"
         style="fill:#231f20;fill-opacity:1;fill-rule:nonzero;stroke:none;stroke-width:0.133333" />
      <path
         id="path625"
         d="m 1006.4906,1103.0134 c 0,6.5333 -5.0773,11.8266 -11.34129,11.8266 -6.26267,0 -11.34,-5.2933 -11.34,-11.8266 0,-6.5334 5.07733,-11.8134 11.34,-11.8134 6.26399,0 11.34129,5.28 11.34129,11.8134"
         style="fill:#231f20;fill-opacity:1;fill-rule:nonzero;stroke:none;stroke-width:0.133333" />
      <path
         id="path626"
         d="m 1027.5906,1106.92 c -3.824,2.8534 -8.1746,6.1334 -10.424,10.8267 -2.3053,4.8533 -2.248,10.4 -2.2186,15.3067 0,1.3333 0.029,3.2666 -0.087,4.7866 -1.4893,-0.4666 -3.3293,-1.2266 -4.6133,-1.7866 -4.1454,-1.6934 -8.8174,-3.5867 -13.69336,-3.5867 -4.84666,0 -9.51866,1.8933 -13.664,3.5867 -1.28533,0.56 -3.15333,1.32 -4.61333,1.7866 -0.11733,-1.52 -0.088,-3.4533 -0.088,-4.7866 0.0293,-4.9067 0.0587,-10.4534 -2.21867,-15.3067 -2.248,-4.6933 -6.59866,-7.9733 -10.452,-10.8267 -1.432,-1.08 -3.62133,-2.72 -4.78933,-3.92 1.168,-1.16 3.35733,-2.8 4.78933,-3.88 3.85334,-2.8933 8.204,-6.1333 10.452,-10.8266 2.27734,-4.8534 2.248,-10.4 2.21867,-15.3067 0,-1.3467 -0.0293,-3.2667 0.088,-4.7867 1.46,0.4667 3.328,1.2267 4.61333,1.7467 4.14534,1.6933 8.81734,3.6267 13.664,3.6267 4.87596,0 9.54796,-1.9334 13.69336,-3.6267 1.284,-0.52 3.124,-1.28 4.6133,-1.7467 0.116,1.52 0.087,3.44 0.087,4.7867 -0.029,4.9067 -0.087,10.4533 2.2186,15.3067 2.2494,4.6933 6.6,7.9333 10.424,10.8266 1.46,1.0534 3.6494,2.72 4.8174,3.88 -1.168,1.2 -3.3574,2.84 -4.8174,3.92 z m 10.92,-22.4 c -1.752,-1.3066 -4.38,-3.2666 -4.876,-4.0533 -0.5253,-1.1467 -0.496,-5.0267 -0.468,-7.36 0.029,-6.6267 0.088,-15.68 -7.0933,-20.7867 -7.6507,-5.4 -16.38,-1.8133 -22.7453,0.7867 -2.1894,0.9067 -5.48936,2.2533 -6.77336,2.2533 -1.256,0 -4.55466,-1.3466 -6.74533,-2.2533 -3.97067,-1.64 -8.87467,-3.6533 -13.868,-3.5867 -2.97733,0.027 -6.01467,0.7867 -8.876,2.8 -7.18267,5.1067 -7.124,14.16 -7.09467,20.7867 0.0293,2.3333 0.0587,6.2133 -0.40933,7.24 -0.584,0.9067 -3.21067,2.8933 -4.93333,4.1733 -4.14667,3.0934 -9.46,7.0667 -11.65067,12.9067 -0.64133,1.6933 -1.02133,3.5333 -1.02133,5.5733 0,2.0534 0.38,3.8934 1.02133,5.5867 1.98667,5.4 6.68667,9.1867 10.65733,12.2 0.32134,0.2267 0.672,0.4933 0.99334,0.7333 1.752,1.28 4.34933,3.24 4.87466,4.0534 0.52667,1.1066 0.49734,5.0266 0.468,7.3333 -0.0293,6.6267 -0.088,15.7067 7.09467,20.7867 2.92,2.0666 5.98533,2.8266 9.02133,2.8266 4.93467,0 9.78134,-1.9866 13.72267,-3.6133 2.19067,-0.88 5.48933,-2.2533 6.74533,-2.2533 1.284,0 4.58396,1.3733 6.77336,2.28 6.3653,2.6 15.0946,6.1866 22.7453,0.76 7.1813,-5.08 7.1227,-14.16 7.0933,-20.7867 -0.028,-2.3067 -0.057,-6.2267 0.4094,-7.2133 0.584,-0.9334 3.1826,-2.8934 4.9346,-4.1734 5.3427,-4 12.672,-9.4666 12.672,-18.52 0,-9.0133 -7.3293,-14.48 -12.672,-18.48"
         style="fill:#231f20;fill-opacity:1;fill-rule:nonzero;stroke:none;stroke-width:0.133333" />
    </g>
  </g>
</svg>
