<?xml version="1.0" encoding="UTF-8"?>
<svg xmlns="http://www.w3.org/2000/svg" xmlns:xlink="http://www.w3.org/1999/xlink" width="60px" height="60px" viewBox="0 0 60 60" version="1.1">
    <!-- Generator: Sketch 50 (54983) - http://www.bohemiancoding.com/sketch -->
    <title>023 - Bomb</title>
    <desc>Created with Sketch.</desc>
    <defs/>
    <g id="Page-1" stroke="none" stroke-width="1" fill="none" fill-rule="evenodd">
        <g id="023---Bomb" fill-rule="nonzero">
            <path d="M47.39,10.41 C48.3,9.91 49.29,9.46 50.37,9.1 C54.88,7.6 55,3.17 55,2.99 C55.02,1.89 55.91,1.01 57,1.01 L57.02,1.01 C58.11,1.02 59,1.9 59,3 C59,5.57 57.46,10.95 51.63,12.9 C51.12,13.07 50.64,13.26 50.18,13.48 L47.39,10.41 Z" id="Shape" fill="#FF9801"/>
            <path d="M38.821,15.377 C38.88,15.301 38.939,15.225 38.998,15.148 C39.832,14.045 40.914,12.284 41.331,10.241 C41.536,9.187 42.554,8.48 43.615,8.678 C44.944,8.933 46.755,9.626 48.565,11.436 C50.375,13.246 51.068,15.056 51.323,16.386 C51.521,17.447 50.814,18.465 49.76,18.67 C47.716,19.087 45.956,20.169 44.853,21.003 C44.776,21.061 44.7,21.12 44.624,21.18 L38.821,15.377 Z" id="Shape" fill="#607D8B"/>
            <circle id="Oval" fill="#7F8E94" cx="25" cy="35" r="24"/>
            <path d="M25,11 C24.496,11 23.997,11.021 23.5,11.051 C36.055,11.826 46,22.249 46,35 C46,47.751 36.055,58.174 23.5,58.949 C23.997,58.98 24.496,59 25,59 C38.255,59 49,48.255 49,35 C49,21.745 38.255,11 25,11 Z" id="Shape" fill="#545C60"/>
            <path d="M21.999,16.23 C21.514,16.23 21.088,15.876 21.012,15.381 C20.929,14.835 21.303,14.325 21.849,14.241 C22.897,14.08 23.957,13.999 25,13.999 C25.552,13.999 26,14.447 26,14.999 C26,15.551 25.552,15.999 25,15.999 C24.058,15.999 23.099,16.073 22.151,16.217 C22.1,16.225 22.048,16.229 21.998,16.229 L21.999,16.23 Z" id="Shape" fill="#F5F5F5"/>
            <path d="M6.669,28 C6.536,28 6.401,27.973 6.271,27.917 C5.765,27.697 5.532,27.108 5.752,26.602 C8.002,21.421 12.338,17.31 17.648,15.324 C18.166,15.13 18.742,15.392 18.935,15.91 C19.128,16.428 18.866,17.004 18.349,17.197 C13.544,18.994 9.621,22.713 7.585,27.399 C7.421,27.776 7.054,28.001 6.668,28.001 L6.669,28 Z" id="Shape" fill="#F5F5F5"/>
            <path d="M45.736,12.85 C45.345,12.459 44.713,12.459 44.322,12.85 C43.931,13.241 43.931,13.873 44.322,14.264 L45.736,15.678 C45.931,15.873 46.187,15.971 46.443,15.971 C46.699,15.971 46.955,15.873 47.15,15.678 C47.541,15.287 47.541,14.655 47.15,14.264 L45.736,12.85 Z" id="Shape" fill="#000000"/>
            <path d="M57,0.01 C55.375,0.01 54.03,1.339 54,2.986 C53.998,3.144 53.907,6.87 50.054,8.152 C49.187,8.441 48.327,8.822 47.481,9.252 C46.325,8.473 45.08,7.941 43.799,7.696 C42.207,7.398 40.661,8.455 40.352,10.041 C40.019,11.673 39.204,13.101 38.574,14.023 C34.662,11.483 30.003,10.001 25.001,10.001 C11.215,10 0,21.215 0,35 C0,48.785 11.215,60 25,60 C38.785,60 50,48.785 50,35 C50,29.998 48.518,25.339 45.978,21.427 C46.898,20.797 48.325,19.982 49.95,19.65 C51.546,19.339 52.602,17.793 52.304,16.197 C52.16,15.443 51.915,14.701 51.581,13.981 C51.703,13.936 51.819,13.89 51.947,13.847 C58.317,11.717 60,5.82 60,2.999 C60,1.367 58.667,0.025 57,0.01 Z M25,58 C12.318,58 2,47.682 2,35 C2,22.318 12.318,12 25,12 C37.682,12 48,22.318 48,35 C48,47.682 37.682,58 25,58 Z M49.56,17.689 C47.644,18.081 46,18.982 44.824,19.793 C43.492,18.061 41.94,16.509 40.208,15.177 C41.02,14 41.92,12.354 42.313,10.432 C42.415,9.911 42.918,9.567 43.427,9.661 C45.026,9.967 46.516,10.802 47.858,12.143 C49.2,13.484 50.035,14.975 50.34,16.569 C50.436,17.085 50.09,17.586 49.56,17.689 Z M51.314,11.951 C51.046,12.04 50.793,12.134 50.546,12.232 C50.17,11.71 49.749,11.206 49.272,10.729 C49.242,10.699 49.209,10.672 49.179,10.642 C49.679,10.419 50.182,10.218 50.686,10.05 C55.94,8.303 56,3.044 56,3.009 C56.01,2.459 56.458,2.01 57.011,2.01 C57.556,2.015 58,2.459 58,3 C58,5.323 56.603,10.183 51.313,11.951 L51.314,11.951 Z" id="Shape" fill="#000000"/>
        </g>
    </g>
</svg>
