<?xml version="1.0" encoding="UTF-8"?>
<svg xmlns="http://www.w3.org/2000/svg" xmlns:xlink="http://www.w3.org/1999/xlink" width="56px" height="56px" viewBox="0 0 56 56" version="1.1">
    <!-- Generator: Sketch 50 (54983) - http://www.bohemiancoding.com/sketch -->
    <title>023 - Bomb</title>
    <desc>Created with Sketch.</desc>
    <defs/>
    <g id="Page-1" stroke="none" stroke-width="1" fill="none" fill-rule="evenodd">
        <g id="023---Bomb" fill="#000000" fill-rule="nonzero">
            <path d="M55.011,0.01 C54.459,0.01 54.01,0.458 54,1.009 C54,1.044 53.939,6.302 48.686,8.05 C48.182,8.218 47.679,8.419 47.179,8.642 C47.21,8.672 47.242,8.699 47.272,8.729 C47.749,9.206 48.17,9.71 48.546,10.232 C48.792,10.134 49.046,10.041 49.314,9.951 C54.603,8.182 56.001,3.323 56.001,1 C56.001,0.459 55.557,0.015 55.012,0.01 L55.011,0.01 Z" id="Shape"/>
            <path d="M23,10 C10.318,10 0,20.318 0,33 C0,45.682 10.318,56 23,56 C35.682,56 46,45.682 46,33 C46,20.318 35.682,10 23,10 Z M16.351,15.196 C11.546,16.993 7.623,20.712 5.587,25.398 C5.423,25.775 5.056,26 4.67,26 C4.537,26 4.402,25.973 4.272,25.917 C3.766,25.697 3.533,25.108 3.753,24.602 C6.003,19.421 10.339,15.31 15.649,13.324 C16.167,13.13 16.743,13.392 16.936,13.91 C17.129,14.428 16.867,15.004 16.35,15.197 L16.351,15.196 Z M23,14 C22.058,14 21.099,14.074 20.151,14.218 C20.1,14.226 20.048,14.23 19.998,14.23 C19.513,14.23 19.087,13.876 19.011,13.381 C18.928,12.835 19.302,12.325 19.848,12.241 C20.896,12.08 21.956,11.999 22.999,11.999 C23.551,11.999 23.999,12.447 23.999,12.999 C23.999,13.551 23.551,13.999 22.999,13.999 L23,14 Z" id="Shape"/>
            <path d="M41.427,7.66 C40.918,7.566 40.414,7.91 40.313,8.431 C39.92,10.354 39.019,11.999 38.208,13.176 C39.94,14.508 41.492,16.06 42.824,17.792 C44,16.981 45.645,16.08 47.56,15.688 C48.09,15.585 48.436,15.084 48.34,14.568 C48.035,12.974 47.199,11.483 45.858,10.142 C44.517,8.801 43.026,7.965 41.427,7.66 Z M45.151,13.678 C44.956,13.873 44.7,13.971 44.444,13.971 C44.188,13.971 43.932,13.873 43.737,13.678 L42.323,12.264 C41.932,11.873 41.932,11.241 42.323,10.85 C42.714,10.459 43.346,10.459 43.737,10.85 L45.151,12.264 C45.542,12.655 45.542,13.287 45.151,13.678 Z" id="Shape"/>
        </g>
    </g>
</svg>
