<?xml version="1.0" encoding="UTF-8" standalone="no"?>
<!-- Created with Inkscape (http://www.inkscape.org/) -->

<svg
   width="138.34128mm"
   height="130.16386mm"
   viewBox="0 0 138.34128 130.16386"
   version="1.1"
   id="svg1"
   inkscape:version="1.3 (0e150ed, 2023-07-21)"
   sodipodi:docname="cherry.svg"
   xmlns:inkscape="http://www.inkscape.org/namespaces/inkscape"
   xmlns:sodipodi="http://sodipodi.sourceforge.net/DTD/sodipodi-0.dtd"
   xmlns="http://www.w3.org/2000/svg"
   xmlns:svg="http://www.w3.org/2000/svg">
  <sodipodi:namedview
     id="namedview1"
     pagecolor="#ffffff"
     bordercolor="#000000"
     borderopacity="0.25"
     inkscape:showpageshadow="2"
     inkscape:pageopacity="0.0"
     inkscape:pagecheckerboard="0"
     inkscape:deskcolor="#d1d1d1"
     inkscape:document-units="mm"
     inkscape:zoom="0.2102413"
     inkscape:cx="259.22594"
     inkscape:cy="247.33485"
     inkscape:window-width="1312"
     inkscape:window-height="449"
     inkscape:window-x="0"
     inkscape:window-y="25"
     inkscape:window-maximized="0"
     inkscape:current-layer="layer1" />
  <defs
     id="defs1" />
  <g
     inkscape:label="Layer 1"
     inkscape:groupmode="layer"
     id="layer1"
     transform="translate(-35.983332,-83.343735)">
    <g
       id="g797"
       transform="matrix(0.26458333,0,0,0.26458333,3.6131683,-345.21479)">
      <path
         id="path277"
         d="m 644.93465,1996.96 c -2.21867,33.5467 -23.59067,66.4 -55.824,85.72 -9.48933,5.72 -19.64933,10.1067 -30.19066,13.08 -8.75867,0.96 -17.868,0.96 -27.328,-0.08 -0.93334,-0.093 -1.89734,-0.2133 -2.86134,-0.36 -2.54,-0.32 -5.10933,-0.72 -7.70666,-1.2266 h -0.0293 c -11.24133,-2.12 -22.86133,-5.7734 -34.716,-11.12 0,0 -9.83866,-4.6934 -21.34266,-13.8667 l -0.088,-0.053 c -8.64267,-6.92 -18.248,-16.3867 -25.31333,-28.2667 -13.46,-22.6533 -12.788,-51.5067 3.85466,-71.9467 5.60534,-6.92 13.42934,-13.4266 24.29067,-17.9466 2.744,-1.1467 5.60533,-1.9867 8.46666,-2.8134 5.46134,-1.6266 22.27734,-8.2533 34.804,-31.0933 0,0 10.65734,-20.9067 33.10934,-30.7733 h 0.028 c 0.14666,-0.08 0.29333,-0.1467 0.468,-0.2 0.292,-0.1467 0.61333,-0.2667 0.90533,-0.4134 h 0.0587 c 0.37866,-0.1466 0.788,-0.32 1.19733,-0.4666 0.816,-0.32 1.664,-0.6134 2.50933,-0.9067 1.752,-0.5733 3.56267,-1.1067 5.46134,-1.5467 0.72933,-0.1733 1.488,-0.32 2.248,-0.44 1.4,-0.28 2.832,-0.4933 4.29066,-0.6666 1.13867,-0.1467 2.30667,-0.2267 3.47467,-0.2934 1.19733,-0.08 2.39467,-0.12 3.62133,-0.12 1.78134,0 3.59067,0.093 5.45867,0.24 8.176,0.6667 16.468,3.1467 24.52533,7.1867 l 0.088,0.053 c 28.26267,23.2934 49.48933,63.5067 46.54,108.32"
         style="fill:#f21626;fill-opacity:1;fill-rule:nonzero;stroke:none;stroke-width:0.133333" />
      <path
         id="path278"
         d="m 644.93465,1996.96 c -2.21867,33.5467 -23.59067,66.4 -55.824,85.72 -9.48933,5.72 -19.64933,10.1067 -30.19066,13.08 l -0.17467,0.067 c -7.56133,0.7867 -15.444,0.8667 -23.532,0.2 -1.19733,-0.093 -2.424,-0.2 -3.62133,-0.3467 -0.93334,-0.093 -1.89734,-0.2133 -2.86134,-0.36 -2.54,-0.32 -5.10933,-0.72 -7.70666,-1.2266 17.984,-3.6134 34.10133,-11.0934 47.50266,-21.16 24.35067,-18.1867 39.82533,-44.8534 41.60533,-71.92 3.504,-53.2534 -29.69333,-99.8134 -66.04399,-114.8 0.14666,-0.08 0.29333,-0.1467 0.468,-0.2 0.32133,-0.1467 0.64266,-0.2667 0.964,-0.4134 0.37866,-0.1466 0.788,-0.32 1.19733,-0.4666 0.816,-0.32 1.664,-0.6134 2.50933,-0.9067 1.752,-0.5733 3.56267,-1.1067 5.46134,-1.5467 0.72933,-0.1733 1.488,-0.32 2.248,-0.44 1.4,-0.28 2.832,-0.4933 4.29066,-0.6666 1.13867,-0.1467 2.30667,-0.2267 3.47467,-0.2934 1.19733,-0.08 2.39467,-0.12 3.62133,-0.12 1.78134,0 3.59067,0.093 5.45867,0.24 8.176,0.6667 16.468,3.1467 24.52533,7.1867 l 0.088,0.053 c 28.26267,23.2934 49.48933,63.5067 46.54,108.32"
         style="fill:#cc1f1f;fill-opacity:1;fill-rule:nonzero;stroke:none;stroke-width:0.133333" />
      <path
         id="path279"
         d="m 598.39465,1888.64 -0.088,-0.053 c -14.62666,-12.0667 -31.12266,-19.6 -47.152,-20.9333 -47.504,-3.9467 -69.92666,37.1066 -71.62,40.3733 -10.94933,19.9067 -25.22666,25.4267 -29.34266,26.6267 -2.716,0.8133 -6.07333,1.8133 -9.344,3.16 -11.15333,4.6133 -20.52533,11.56 -27.912,20.6133 -18.48133,22.7333 -20.35067,55.8133 -4.61333,82.3333 17.664,29.7467 49.31466,45.1334 50.832,45.8667 20.99199,9.4533 42.56933,14.1867 63.44533,14.1867 12.37866,0 24.52533,-1.6667 36.14533,-4.9867 l 0.17467,-0.067 c 10.54133,-2.9733 20.70133,-7.36 30.19066,-13.08 32.23333,-19.32 53.60533,-52.1733 55.824,-85.72 2.94933,-44.8133 -18.27733,-85.0266 -46.54,-108.32 z m 28.35067,107.12 c -1.81067,27.68 -19.82534,55.0134 -47.00667,71.3067 -3.15333,1.8933 -6.92,3.9333 -11.212,5.8667 -21.60666,9.7466 -56.99333,17.3466 -101.69333,-2.84 -0.0573,-0.027 -0.72933,-0.3467 -1.89733,-0.9867 l -0.088,-0.053 c -6.656,-3.6267 -28.37867,-16.5867 -40.876,-37.6134 -11.85333,-19.9333 -10.59867,-44.6666 3.09467,-61.52 5.46133,-6.7066 12.43866,-11.8533 20.73066,-15.2933 2.39467,-0.96 5.13867,-1.7867 7.53334,-2.48 7.47466,-2.2267 26.33466,-10.08 40.34933,-35.68 0.672,-1.32 16.55466,-31.16 49.78133,-30.8667 h 0.0587 c 1.34266,0.027 2.744,0.093 4.14533,0.2134 37.956,3.1466 80.81733,52.9066 77.08,109.9466"
         style="fill:#231f20;fill-opacity:1;fill-rule:nonzero;stroke:none;stroke-width:0.133333" />
      <path
         id="path280"
         d="m 380.41066,1961.16 c 6.42266,38.2267 -9.13867,83.9467 -38.744,113.8134 -13.956,14.04 -35.18267,29.0533 -65.168,34.5466 h -0.11733 c -8.7,0.2267 -17.89734,-0.36 -27.56134,-1.9066 -1.22666,-0.2 -2.45333,-0.4 -3.65066,-0.6667 -0.43734,-0.093 -0.87467,-0.1733 -1.284,-0.2667 l -0.17467,-0.027 c -1.168,-0.2267 -2.30667,-0.52 -3.44533,-0.8134 l -0.264,-0.093 c -1.05067,-0.2267 -2.10134,-0.5467 -3.152,-0.88 -2.74534,-0.8133 -5.46,-1.7467 -8.11734,-2.8267 -0.72933,-0.2933 -1.488,-0.6133 -2.21866,-0.9333 -0.78934,-0.32 -1.576,-0.6667 -2.36534,-1.0533 -0.788,-0.3467 -1.576,-0.7334 -2.336,-1.1067 -1.54666,-0.76 -3.06533,-1.5467 -4.55466,-2.4 h -0.0293 c -0.72933,-0.3733 -1.42933,-0.7867 -2.13066,-1.2267 -1.168,-0.64 -2.30667,-1.3333 -3.44534,-2.0933 -0.788,-0.4667 -1.576,-1 -2.36533,-1.5467 -1.168,-0.7333 -2.30667,-1.5466 -3.44533,-2.4 -0.55467,-0.4 -1.10934,-0.8133 -1.664,-1.2533 -2.10134,-1.52 -4.11734,-3.1867 -6.10133,-4.9333 -0.672,-0.56 -1.344,-1.1467 -1.98667,-1.76 -1.284,-1.16 -2.568,-2.36 -3.824,-3.5867 -0.64267,-0.64 -1.256,-1.2533 -1.86933,-1.8933 -0.72934,-0.7334 -1.42934,-1.4934 -2.13067,-2.2534 -0.23333,-0.2266 -0.46667,-0.4933 -0.672,-0.72 -38.336,-41.96 -50.77333,-111.04 -9.25467,-153.2666 8.64134,-8.7867 19.73734,-14.1867 31.56133,-16.84 8.61334,-1.9867 17.60534,-2.48 26.336,-1.8667 8.34934,0.6133 16.584,2.36 24.584,4.8667 6.89067,2.1333 19.708,5.32 34.832,5.08 12.904,-0.1734 25.83867,1.0266 38.30667,4.2666 1.51733,0.4134 3.09466,0.8134 4.64133,1.32 2.832,0.8134 5.69333,1.7734 8.584,2.8934 3.62133,1.36 7.24133,3 10.74533,4.8666 0.72934,0.3867 1.43067,0.76 2.13067,1.1734 0.70133,0.3733 1.372,0.7866 2.07333,1.2 0.7,0.4266 1.372,0.84 2.044,1.28 0.7,0.44 1.40134,0.9066 2.10134,1.4 7.32933,9.08 12.088,19.76 14.132,31.9066"
         style="fill:#f21626;fill-opacity:1;fill-rule:nonzero;stroke:none;stroke-width:0.133333" />
      <path
         id="path281"
         d="m 380.41066,1961.16 c 6.42266,38.2267 -9.13867,83.9467 -38.744,113.8134 -13.956,14.04 -35.18267,29.0533 -65.168,34.5466 h -0.11733 c -8.7,0.2267 -17.89734,-0.36 -27.56134,-1.9066 -1.22666,-0.2 -2.45333,-0.4 -3.65066,-0.6667 -0.43734,-0.093 -0.87467,-0.1733 -1.284,-0.2667 l -0.17467,-0.027 c -1.168,-0.2267 -2.30667,-0.52 -3.44533,-0.8134 l -0.264,-0.093 c -1.05067,-0.2267 -2.10134,-0.5467 -3.152,-0.88 -2.74534,-0.8133 -5.46,-1.7467 -8.11734,-2.8267 -0.72933,-0.2933 -1.488,-0.6133 -2.21866,-0.9333 -0.78934,-0.32 -1.576,-0.6667 -2.36534,-1.0533 -0.788,-0.3467 -1.576,-0.7334 -2.336,-1.1067 -1.54666,-0.7333 -3.06533,-1.52 -4.55466,-2.4 h -0.0293 c -0.72933,-0.3733 -1.42933,-0.7867 -2.13066,-1.2267 -1.168,-0.64 -2.30667,-1.3333 -3.44534,-2.0933 -0.788,-0.4667 -1.576,-1 -2.36533,-1.5467 -1.168,-0.7333 -2.30667,-1.5466 -3.44533,-2.4 -0.55467,-0.4 -1.10934,-0.8133 -1.664,-1.2533 -2.10134,-1.52 -4.11734,-3.1867 -6.10133,-4.9333 -0.672,-0.56 -1.344,-1.1467 -1.98667,-1.76 -1.31333,-1.1334 -2.59733,-2.3334 -3.824,-3.5867 -0.64267,-0.64 -1.256,-1.2533 -1.86933,-1.8933 -0.788,-0.7334 -1.488,-1.52 -2.21867,-2.28 l 0.088,0.027 c 0.17467,0.067 0.35067,0.12 0.52533,0.1734 4.93467,1.6933 9.98534,2.92 15.18267,3.7733 105.22533,16.7867 153.60533,-78.7467 143.64933,-137.9333 -0.292,-1.6267 -0.61334,-3.24 -1.02267,-4.7867 -1.69333,-7 -4.43733,-13.08 -8,-18.3867 l -0.0293,-0.067 c 2.83333,0.8533 5.72266,1.84 8.61333,2.96 3.62133,1.36 7.24133,3 10.74533,4.8666 0.72934,0.3867 1.43067,0.76 2.13067,1.1734 0.70133,0.3733 1.372,0.7866 2.07333,1.2 0.7,0.4266 1.372,0.84 2.044,1.28 0.7,0.44 1.40134,0.9066 2.10134,1.4 7.32933,9.08 12.088,19.76 14.132,31.9066"
         style="fill:#cc1f1f;fill-opacity:1;fill-rule:nonzero;stroke:none;stroke-width:0.133333" />
      <path
         id="path282"
         d="m 328.73199,2062.1334 c -17.72266,17.8666 -49.34266,37.48 -99.504,29.48 -14.27733,-2.28 -28.08666,-8.5467 -40.43733,-17.84 -0.408,-0.2934 -0.788,-0.5734 -1.19733,-0.8934 -18.30667,-14.1733 -33.19733,-35.0133 -41.168,-59.2133 -11.88267,-36.12 -5.4,-71.5333 17.37333,-94.6933 10.27734,-10.4534 26.18934,-16.2267 44.32,-16.2267 0.584,0 1.168,0 1.78133,0.027 1.51867,0.027 3.09467,0.08 4.64267,0.2 7.124,0.5333 14.71467,2.04 22.51067,4.4666 6.948,2.16 21.05066,5.72 37.72266,5.52 12.93467,-0.2 24.992,1.1467 35.85334,3.9467 15.3,3.9733 27.29999,9.9467 35.97066,17.92 8.584,7.8933 13.86933,17.6667 15.85467,29.3733 5.40133,32.1734 -8.468,72.44 -33.72267,97.9334 z M 380.41066,1961.16 c -2.044,-12.1466 -6.80267,-22.8266 -14.132,-31.9066 -11.18134,-13.92 -28.408,-24.0934 -51.06533,-29.9867 -12.46667,-3.2133 -26.16,-4.6933 -40.72934,-4.52 -14.13066,0.2267 -26.10266,-2.84 -32,-4.68 -9.13866,-2.8533 -18.10133,-4.64 -26.628,-5.2533 -26.10133,-1.8934 -49.80933,5.9066 -65.05066,21.4 -27.64907,28.12 -35.73707,70.4 -21.69333,113.1466 15.76666,47.9067 53.92666,83.32 97.22533,90.24 9.02266,1.44 17.548,2.1067 25.57733,2.1067 8.72933,0 16.876,-0.7867 24.46667,-2.1867 h 0.11733 c 29.98533,-5.4933 51.212,-20.5066 65.168,-34.5466 29.60533,-29.8667 45.16666,-75.5867 38.744,-113.8134"
         style="fill:#231f20;fill-opacity:1;fill-rule:nonzero;stroke:none;stroke-width:0.133333" />
      <path
         id="path283"
         d="m 284.41999,1921.0934 c -0.44266,2.88 -10.7,3.6933 -22.91333,1.8266 -12.212,-1.88 -21.75467,-5.7333 -21.312,-8.6133 0.44267,-2.88 10.7,-3.6933 22.91333,-1.8133 12.212,1.8666 21.75334,5.72 21.312,8.6"
         style="fill:#231f20;fill-opacity:1;fill-rule:nonzero;stroke:none;stroke-width:0.133333" />
      <path
         id="path284"
         d="m 257.88133,1917.28 c 1.304,-14.0933 3.82,-27.5466 6.87466,-41.0933 3.05867,-13.4933 6.86267,-26.8133 11.256,-39.96 8.75334,-26.2933 20.20134,-51.7467 34,-75.9867 6.92534,-12.1066 14.58667,-23.8 22.704,-35.2133 8.23467,-11.3067 17.064,-22.2267 26.44933,-32.68 18.864,-20.8133 40.14267,-39.56 63.16667,-55.9067 5.86,-4.1733 13.98667,-2.8 18.15067,3.0667 4.16266,5.8667 2.788,13.9867 -3.072,18.1467 -0.17334,0.12 -0.348,0.24 -0.524,0.36 l -0.12,0.067 c -22.23067,14.12 -43.056,30.5867 -61.85067,49.2534 -9.34933,9.3733 -18.236,19.2533 -26.612,29.5733 -8.26133,10.4133 -16.148,21.1733 -23.37333,32.4 -14.39867,22.4667 -26.732,46.4133 -36.53733,71.4267 -4.92,12.4933 -9.292,25.24 -12.94934,38.1866 -3.64266,12.8934 -6.816,26.1867 -8.71066,39.2 l -0.0293,0.2134 c -0.35466,2.4266 -2.60933,4.1066 -5.03733,3.7466 -2.348,-0.3333 -3.99733,-2.4666 -3.78533,-4.8"
         style="fill:#231f20;fill-opacity:1;fill-rule:nonzero;stroke:none;stroke-width:0.133333" />
      <path
         id="path285"
         d="m 420.14932,1663.4534 c -1.236,5.36 -2.35466,11.2933 -3.32933,17.0266 -0.94933,5.8 -1.85867,11.6267 -2.57333,17.4667 -1.49334,11.6933 -2.54,23.4667 -3.09734,35.24 -1.072,23.5467 -0.404,47.2267 3.22667,70.4133 1.77867,11.5867 4.212,23.0934 7.69867,34.24 3.484,11.12 7.58933,22.1067 13.09333,32.3467 5.464,10.2667 11.912,19.9867 19.48533,28.8133 7.724,8.6667 16.49333,16.3867 26.068,23.08 l -4.59333,7.1334 c -10.46933,-6.6534 -20.208,-14.5067 -28.88533,-23.4667 -8.524,-9.1067 -15.888,-19.24 -22.19867,-29.96 -6.35333,-10.72 -11.22267,-22.2 -15.42133,-33.8533 -4.2,-11.6667 -7.284,-23.68 -9.67467,-35.7867 -4.85333,-24.2133 -6.59467,-48.8667 -6.52667,-73.4267 0.056,-12.28 0.62134,-24.5466 1.656,-36.7866 0.48534,-6.1334 1.172,-12.24 1.90934,-18.36 0.78666,-6.1734 1.62266,-12.1067 2.82133,-18.5467 l 20.34133,4.4267"
         style="fill:#231f20;fill-opacity:1;fill-rule:nonzero;stroke:none;stroke-width:0.133333" />
      <path
         id="path286"
         d="m 489.87065,1752.8534 c 0,0 -31.46933,-9.32 -47.50533,-32.1734 -19.17866,-27.3333 -18.50266,-49.4266 -18.50266,-49.4266 0,0 36.18133,3.3333 56.97866,31.2933 16.66533,22.4 9.02933,50.3067 9.02933,50.3067"
         style="fill:#ffffff;fill-opacity:1;fill-rule:nonzero;stroke:none;stroke-width:0.133333" />
      <path
         id="path287"
         d="m 420.94932,1667.9467 -0.012,0.2267 c -0.02,-0.1467 0.012,-0.2267 0.012,-0.2267"
         style="fill:#01982f;fill-opacity:1;fill-rule:nonzero;stroke:none;stroke-width:0.133333" />
      <path
         id="path288"
         d="m 483.13199,1757.9334 c 0,0 -67.56933,-6.7467 -70.39467,-79.0267 -0.0547,-1.3067 -0.0787,-2.6267 -0.0893,-3.9733 1.42133,0.44 2.816,0.9066 4.192,1.3866 1.00533,0.36 1.99733,0.72 2.976,1.0934 15.45067,5.88 27.68267,14.08 32.78133,17.8 18.87467,15.2133 34.04267,36.56 30.53467,62.72"
         style="fill:#09b532;fill-opacity:1;fill-rule:nonzero;stroke:none;stroke-width:0.133333" />
      <path
         id="path289"
         d="m 434.58932,1682.7067 c 1.91867,8.0533 6.104,19.7333 15.232,32.7467 8.74134,12.4666 23.004,20.48 32.59867,24.7866 0.38933,-8.68 -0.81334,-21.4133 -8.88667,-32.2533 -11.27333,-15.16 -27.88666,-22.1467 -38.944,-25.28 z m 61.612,81.52 -8.91733,-2.64 c -1.40934,-0.4133 -34.71867,-10.5067 -52.37467,-35.6667 -20.68133,-29.48 -20.18133,-53.92 -20.15066,-54.9466 l 0.296,-9.68 9.64666,0.88 c 1.64134,0.16 40.488,4.08 63.44667,34.9333 19.096,25.6667 10.86666,56.84 10.508,58.16 l -2.45467,8.96"
         style="fill:#231f20;fill-opacity:1;fill-rule:nonzero;stroke:none;stroke-width:0.133333" />
      <path
         id="path290"
         d="m 296.97866,1638.88 c 0,0 29.436,-14.52 56.72266,-8.6133 32.636,7.0533 47.14134,23.7467 47.14134,23.7467 0,0 -28.84134,22.1066 -63.08667,15.6933 -27.44,-5.1467 -40.77733,-30.8267 -40.77733,-30.8267"
         style="fill:#ffffff;fill-opacity:1;fill-rule:nonzero;stroke:none;stroke-width:0.133333" />
      <path
         id="path291"
         d="m 405.22266,1654.4667 -0.14534,-0.1867 0.14534,0.1867"
         style="fill:#01982f;fill-opacity:1;fill-rule:nonzero;stroke:none;stroke-width:0.133333" />
      <path
         id="path292"
         d="m 284.13866,1656.1734 c 0,0 54.20266,-40.9067 105.33333,10.2666 0.92267,0.92 1.84,1.88 2.75733,2.8534 -1.34133,0.64 -2.676,1.2533 -4.01466,1.8266 -0.98267,0.4267 -1.956,0.8267 -2.93067,1.2134 -15.33333,6.1733 -29.88933,8.4533 -36.152,9.1866 -24.19333,1.6267 -49.81733,-3.7466 -64.99333,-25.3466"
         style="fill:#09b532;fill-opacity:1;fill-rule:nonzero;stroke:none;stroke-width:0.133333" />
      <path
         id="path293"
         d="m 311.02933,1643.1067 c 5.60933,6.64 15.12666,15.16 28.40266,17.64 18.42667,3.4533 35.41467,-2.6933 45.712,-7.8933 -6.86933,-4.6 -17.86533,-10.3334 -33.36667,-13.6934 -14.796,-3.1866 -30.74666,0.6 -40.74799,3.9467 z m 39.47333,36.88 c -4.66134,0 -9.484,-0.4133 -14.424,-1.3333 -31.44,-5.8934 -46.55467,-34.3734 -47.184,-35.5734 l -4.284,-8.2533 8.33867,-4.12 c 1.32,-0.6533 32.628,-15.84 62.67866,-9.3467 35.19333,7.6134 51.416,25.9067 52.09067,26.68 l 6.352,7.3067 -7.688,5.8933 c -1.13867,0.88 -24.86534,18.7467 -55.88,18.7467"
         style="fill:#231f20;fill-opacity:1;fill-rule:nonzero;stroke:none;stroke-width:0.133333" />
    </g>
  </g>
</svg>
