<?xml version="1.0" encoding="UTF-8" standalone="no"?>
<!-- Created with Inkscape (http://www.inkscape.org/) -->

<svg
   width="137.91847mm"
   height="152.42932mm"
   viewBox="0 0 137.91847 152.42932"
   version="1.1"
   id="svg1"
   inkscape:version="1.3 (0e150ed, 2023-07-21)"
   sodipodi:docname="coconut.svg"
   xmlns:inkscape="http://www.inkscape.org/namespaces/inkscape"
   xmlns:sodipodi="http://sodipodi.sourceforge.net/DTD/sodipodi-0.dtd"
   xmlns="http://www.w3.org/2000/svg"
   xmlns:svg="http://www.w3.org/2000/svg">
  <sodipodi:namedview
     id="namedview1"
     pagecolor="#ffffff"
     bordercolor="#000000"
     borderopacity="0.25"
     inkscape:showpageshadow="2"
     inkscape:pageopacity="0.0"
     inkscape:pagecheckerboard="0"
     inkscape:deskcolor="#d1d1d1"
     inkscape:document-units="mm"
     inkscape:zoom="0.2102413"
     inkscape:cx="259.22594"
     inkscape:cy="290.1428"
     inkscape:window-width="1312"
     inkscape:window-height="449"
     inkscape:window-x="0"
     inkscape:window-y="25"
     inkscape:window-maximized="0"
     inkscape:current-layer="layer1" />
  <defs
     id="defs1" />
  <g
     inkscape:label="Layer 1"
     inkscape:groupmode="layer"
     id="layer1"
     transform="translate(-36.247907,-72.231244)">
    <g
       id="g797"
       transform="matrix(0.26458333,0,0,0.26458333,-802.75287,-147.0755)">
      <path
         id="path514"
         d="m 3682.6132,1116.3467 c 0,148.7467 -104.72,270.2933 -236.68,278.48 -4.72,0.32 -9.4666,0.4667 -14.2666,0.4667 -23.7867,0 -46.8267,-3.68 -68.64,-10.5467 l -0.053,-0.027 c -7.8,-2.48 -15.48,-5.36 -22.96,-8.6266 -0.4133,-0.1867 -0.8266,-0.36 -1.2533,-0.5467 l -0.04,-0.027 c -92.5733,-41.0533 -157.9866,-141.6266 -157.9866,-259.1733 0,-53.8933 6.2933,-96.6 17.7733,-130.35998 l 0.053,-0.13334 c 0.9067,-2.72 2.1467,-5.26666 3.68,-7.64 1.64,-2.57333 3.6,-4.90666 5.8267,-6.97333 1.4533,-1.34667 3.0133,-2.57333 4.64,-3.68 l 172.68,-115.01333 c 0.88,-0.57333 1.76,-1.14667 2.64,-1.69333 2.6933,-1.65334 5.4533,-3.13334 8.24,-4.42667 1.5866,-0.74667 3.2133,-1.45333 4.8533,-2.06667 2.1733,-0.89333 4.3733,-1.64 6.6133,-2.30666 1.7067,-0.52 3.44,-0.96 5.1734,-1.34667 6.1733,-1.42667 12.4666,-2.16 18.76,-2.16 1.1733,0 2.3333,0.0267 3.5333,0.08 h 0.1067 c 1.16,0.0533 2.3333,0.13333 3.4933,0.22667 1.1467,0.10666 2.2533,0.21333 3.4,0.37333 l 0.3333,0.0533 c 1.1334,0.14667 2.2534,0.30667 3.4,0.50667 0.6934,0.13333 1.4,0.26667 2.0934,0.4 0.6933,0.12 1.4,0.28 2.0933,0.44 0.7067,0.14667 1.4,0.33333 2.1067,0.49333 0.6666,0.17334 1.3733,0.36 2.0666,0.56 0.68,0.18667 1.3734,0.4 2.0534,0.6 0.6933,0.21334 1.3733,0.44 2.04,0.68 0.4,0.0933 0.76,0.22667 1.12,0.38667 1.12,0.36 2.2,0.77333 3.2933,1.21333 1.1333,0.46667 2.28,0.96 3.4133,1.48 0.76,0.30667 1.48,0.66667 2.2267,1.06667 0.6533,0.28 1.28,0.61333 1.92,0.94667 0.6533,0.34666 1.3067,0.68 1.92,1.04 0.4133,0.21333 0.8267,0.44 1.2267,0.70666 0.6133,0.33334 1.2133,0.69334 1.8133,1.05334 0.88,0.54666 1.76,1.09333 2.64,1.69333 l 50.12,33.37333 c 0,0 0.2267,0.16 0.6667,0.46667 l 121.8933,81.17333 c 4.2,2.8 7.7733,6.42667 10.4667,10.62667 v 0.0267 c 1.5333,2.37334 2.7733,4.92 3.68,7.64 l 0.053,0.13334 0.093,0.28 c 0.3467,1.06666 0.7067,2.14666 1.0667,3.21333 10.7333,33.19994 16.6133,74.82664 16.6133,126.86664"
         style="fill:#ffffff;fill-opacity:1;fill-rule:nonzero;stroke:none;stroke-width:0.133333" />
      <path
         id="path515"
         d="m 3692.2932,1116.3467 c 0,122.28 -68.96,227.68 -166.9733,269.4267 -20.7867,6.2133 -42.6133,9.5066 -65.1333,9.5066 -4.8134,0 -9.5334,-0.1466 -14.2534,-0.4533 -16.2533,-1 -32.0933,-3.7067 -47.3466,-8 -9.72,-2.72 -19.24,-6.08 -28.5067,-10.0667 -94.08,-40.24 -160.8533,-141.6533 -160.8533,-260.4133 0,-35.2 2.6933,-65.5867 7.76,-91.84 0.6133,-3.3067 1.2933,-6.52 2,-9.6667 0.12,-0.6133 0.2533,-1.2 0.4,-1.7866 0.9333,-4.0134 1.92,-7.9067 2.9733,-11.7067 1.4134,-5.30665 2.9867,-10.43998 4.6534,-15.37332 l 0.067,-0.13333 c 0.8934,-2.70667 2.1334,-5.24 3.68,-7.62667 2.6534,-4.2 6.2667,-7.84 10.4667,-10.65333 l 172.68,-115.02666 c 1.72,-1.13334 3.4533,-2.21334 5.24,-3.21334 h 0.04 l 0.093,-0.0533 c 8.4,-4.76 17.4133,-7.90667 26.6533,-9.48 9.9067,-1.73333 20.0934,-1.64 29.9734,0.28 0.3466,0.12 0.6533,0.30667 0.9866,0.52 0.5334,0.25333 1.0534,0.56 1.5867,0.89333 0.6133,0.34667 1.2267,0.68 1.8133,1.08 1.0267,0.58667 2.04,1.24 3.0267,1.92 l 50.3733,33.53334 L 3656,959.50675 c 5.28,3.52 9.8533,8.14666 13.2533,13.42666 l 1.3867,2.16 0.16,0.25334 v 0.21333 c 1.1733,2.13333 2.16,4.32 2.96,6.58667 l 0.4,1.2 c 0.3333,0.98666 0.68,2 1.0133,3.02666 11.52,35.69329 17.12,78.15999 17.12,129.97329"
         style="fill:#91b708;fill-opacity:1;fill-rule:nonzero;stroke:none;stroke-width:0.133333" />
      <path
         id="path516"
         d="m 3670.6399,975.09338 -0.067,0.13334 c -1.72,3.92 -3.64,7.58666 -5.6533,11.05333 -2.16,3.76 -4.44,7.28 -6.8133,10.53333 -3.5867,4.96002 -7.3467,9.38662 -11.1467,13.30662 l -0.1867,0.1867 c -3.1866,4.0133 -7.1066,8.0267 -11.8933,11.8267 -2.72,2.16 -5.7467,4.2533 -9.04,6.2666 -0.84,0.4934 -1.7067,0.9867 -2.5333,1.48 -0.4667,0.2534 -0.8667,0.4667 -1.3067,0.7067 -0.4267,0.2267 -0.92,0.4667 -1.3867,0.72 -2.6533,1.3467 -5.4266,2.6533 -8.4,3.88 -0.12,0.04 -0.2133,0.067 -0.3333,0.1333 -0.2533,0.093 -0.4667,0.1467 -0.6267,0.24 -0.1466,0.067 -0.3333,0.16 -0.4933,0.2134 -0.093,0.04 -0.2133,0.067 -0.3333,0.1333 l 2.5866,1.88 3.4267,2.5067 c -0.8267,0.1466 -1.6667,0.2666 -2.52,0.4266 -9.1467,1.4267 -19.4,2.2534 -30.8533,2.2534 -0.5334,0.067 -1.0534,0.12 -1.5734,0.2133 -1.0533,0.16 -2.1066,0.28 -3.16,0.4 -1.5333,0.2267 -3.0533,0.3733 -4.6266,0.5333 -0.3067,0.027 -0.5867,0.053 -0.8934,0.093 -0.7466,0.093 -1.4533,0.1466 -2.2,0.1866 -1.7866,0.12 -3.6133,0.24 -5.4666,0.3334 -0.92,0.067 -1.7867,0.12 -2.7067,0.16 -2.8133,0.093 -5.68,0.1866 -8.68,0.1866 0,0 -0.093,0.053 -0.24,0.2134 l -0.2,0.093 -0.12,0.093 c -0.4533,0.3334 -1.1333,0.8267 -2.0933,1.44 -0.2534,0.1867 -0.5334,0.3734 -0.8,0.56 -0.16,0.093 -0.32,0.2134 -0.4667,0.3067 -0.9867,0.6533 -2.1333,1.4 -3.4933,2.2 -0.4,0.28 -0.8267,0.52 -1.2667,0.8 -0.4667,0.24 -0.96,0.52 -1.4133,0.8 -0.1334,0.12 -0.28,0.1867 -0.44,0.28 -0.3067,0.16 -0.6134,0.3067 -0.92,0.4933 -0.5334,0.3067 -1.0534,0.5867 -1.64,0.8934 -0.4667,0.2533 -0.9334,0.5333 -1.4534,0.7733 -0.28,0.16 -0.5866,0.3467 -0.8666,0.4933 l -0.1867,0.12 c -0.2667,0.1067 -0.4933,0.2267 -0.7333,0.3467 -0.5334,0.28 -1.0534,0.56 -1.6134,0.8 -0.64,0.3067 -1.2933,0.6533 -1.9466,0.96 -1.1734,0.5867 -2.44,1.1467 -3.7067,1.7333 -0.6133,0.24 -1.2,0.4934 -1.7867,0.7334 -0.7066,0.3066 -1.4133,0.6266 -2.1333,0.8933 -0.7067,0.3467 -1.4133,0.6267 -2.1867,0.8667 -0.68,0.28 -1.3333,0.5333 -2.0133,0.7733 -2.4,0.8933 -4.9333,1.76 -7.5333,2.5067 -0.7334,0.2133 -1.48,0.4 -2.2534,0.6133 -0.3733,0.093 -0.7333,0.2133 -1.1066,0.3067 -0.4,0.12 -0.8,0.28 -1.2667,0.3466 -1.1733,0.3067 -2.3467,0.5867 -3.5467,0.8267 -0.84,0.2133 -1.7066,0.3733 -2.6,0.56 -1.2933,0.24 -2.6,0.4667 -3.8933,0.68 -0.1867,0.067 -0.4,0.093 -0.5867,0.12 l -0.053,-0.027 c -16.4667,2.4667 -35.08,1.2 -53.4933,-8.4 l -0.027,0.027 -2.4133,-1.2933 c -0.4534,-0.28 -0.92,-0.52 -1.3867,-0.8 -0.6533,-0.3734 -1.2933,-0.8 -1.9467,-1.2 -0.7733,-0.4667 -1.5066,-1 -2.28,-1.4934 -0.4,-0.24 -0.84,-0.52 -1.24,-0.8266 -0.7733,-0.5334 -1.5733,-1.12 -2.3733,-1.6667 -0.7733,-0.5867 -1.5733,-1.1467 -2.3733,-1.76 -1.7734,1.32 -3.5867,2.5867 -5.3734,3.7333 -0.6,0.4 -1.2133,0.7467 -1.7733,1.1067 -0.5867,0.3733 -1.2,0.7467 -1.7867,1.12 -0.5866,0.36 -1.1733,0.68 -1.76,1.0133 -0.7066,0.4 -1.4133,0.7734 -2.1333,1.1467 -0.5467,0.28 -1.08,0.5867 -1.6,0.8667 -0.56,0.3066 -1.08,0.5466 -1.6133,0.8 -0.7334,0.3733 -1.5067,0.7066 -2.2534,1.0533 -1.04,0.4533 -2.0666,0.8933 -3.08,1.2933 -0.7733,0.3067 -1.52,0.6134 -2.32,0.8934 -0.9866,0.3733 -2,0.7466 -3.0266,1.08 -0.7734,0.28 -1.5067,0.4933 -2.2534,0.7466 -1.0133,0.3067 -2.0666,0.5867 -3.08,0.8267 -0.72,0.1867 -1.4533,0.4 -2.1733,0.56 -1.08,0.24 -2.1333,0.4667 -3.1733,0.68 -0.68,0.12 -1.2934,0.24 -1.9734,0.3733 -0.28,0.053 -0.4933,0.093 -0.7733,0.1467 l -0.093,-0.027 c -20.8534,3.3334 -40.2134,-1.4533 -54.8134,-7.44 l -0.027,-0.027 c -1.7067,-0.72 -3.4,-1.4267 -4.9733,-2.1734 h -0.04 c -1.5734,-0.7333 -3.08,-1.48 -4.5334,-2.2266 l -0.027,-0.027 c -2.1734,-1.08 -4.1734,-2.16 -5.96,-3.2133 -3.28,-1.88 -5.9334,-3.5734 -7.8534,-4.88 -0.5466,-0.4 -1.08,-0.7734 -1.5066,-1.08 -1.3867,-0.9867 -2.1067,-1.5334 -2.1067,-1.5334 -6.9467,0 -13.4533,-0.32 -19.5067,-0.9333 l -3.0266,-6.4267 c 0,0 -12.0534,2.44 -26.72,0.5867 -14.1334,-1.7867 -30.7467,-7.5867 -41.3467,-23.4667 0.12,-0.6133 0.2533,-1.2 0.4,-1.7866 0.9333,-4.0134 1.92,-7.9067 2.9733,-11.7067 1.4134,-5.30665 2.9867,-10.43998 4.6534,-15.37332 l 0.067,-0.13333 c 0.8934,-2.70667 2.1334,-5.24 3.68,-7.62667 2.6534,-4.2 6.2667,-7.84 10.4667,-10.65333 l 172.68,-115.02666 c 1.72,-1.13334 3.4533,-2.21334 5.24,-3.21334 h 0.04 l 0.093,-0.0533 c 8.4,-4.76 17.4133,-7.90667 26.6533,-9.48 9.9067,-1.73333 20.0934,-1.64 29.9734,0.28 0.3466,0.12 0.6533,0.30667 0.9866,0.52 0.5334,0.25333 1.0534,0.56 1.5867,0.89333 0.6133,0.34667 1.2267,0.68 1.8133,1.08 1.0267,0.58667 2.04,1.24 3.0267,1.92 l 50.3733,33.53334 122.3067,81.49333 c 5.28,3.52 9.8533,8.14666 13.2533,13.42666 l 1.3867,2.16"
         style="fill:#f4ece1;fill-opacity:1;fill-rule:nonzero;stroke:none;stroke-width:0.133333" />
      <path
         id="path517"
         d="m 3431.6666,1385.6134 c -4.9467,0 -9.8534,-0.1734 -14.8,-0.52 -15.84,-1.0534 -31.4934,-3.8534 -46.7867,-8.3334 -0.92,-0.28 -1.8533,-0.56 -2.7733,-0.84 l -1.3867,-0.4266 c -7.3867,-2.3467 -14.64,-5.0667 -21.5867,-8.0934 l -3.56,-1.5733 c -91.3999,-41.4667 -150.3466,-139.1733 -150.3466,-249.48 0,-42.4267 4.04,-79.3067 12.1067,-109.9333 1.48,-5.8 3.1466,-11.40002 4.9333,-16.73335 l 0.28,-0.77333 c 0.6533,-1.89334 1.52,-3.68 2.6533,-5.49334 0.6534,-1 1.36,-1.94666 2.1334,-2.85333 v -0.0267 c 0.2533,-0.28 0.4933,-0.56 0.7466,-0.82666 0.4534,-0.46667 0.8934,-0.93334 1.3867,-1.36 1.0133,-0.96 2.2267,-1.92 3.4267,-2.72 l 172.6533,-115.02667 c 0.8,-0.53333 1.5733,-1.02666 2.3733,-1.48 0.5867,-0.34666 1.1733,-0.72 1.7867,-1.05333 0.5866,-0.37333 1.1733,-0.70667 1.8,-1.02667 1.2266,-0.68 2.4666,-1.32 3.7333,-1.88 0.3333,-0.18666 0.68,-0.33333 1.0133,-0.46666 0.5334,-0.24 1.0934,-0.49334 1.6134,-0.70667 0.56,-0.21333 1.1066,-0.42667 1.6933,-0.64 0.5867,-0.25333 1.1733,-0.46667 1.8,-0.72 0.4,-0.14667 0.8267,-0.30667 1.2267,-0.42667 0.4,-0.16 0.8,-0.28 1.2,-0.4 0.96,-0.34666 1.9466,-0.62666 2.9066,-0.89333 0.4934,-0.16 1.0267,-0.28 1.52,-0.37333 1.2267,-0.34667 2.44,-0.62667 3.7067,-0.84 0.68,-0.12 1.36,-0.24 2.0267,-0.37334 h 0.04 c 4.6,-0.8 9.2266,-1.17333 13.9866,-1.04 0.52,-0.04 1.08,0 1.6,0.0267 h 0.28 c 0.96,0.0267 1.92,0.0933 2.88,0.18667 1.1067,0.0933 2.1867,0.21333 3.2934,0.37333 0.5066,0.0533 0.96,0.12 1.4533,0.21333 0.4933,0.0667 0.9867,0.14667 1.48,0.24 l 1.2133,0.22667 c 2.4667,0.42667 4.9067,1.01333 7.28,1.72 0.5334,0.16 1.0267,0.30667 1.5467,0.49333 1.24,0.37334 2.44,0.81334 3.64,1.26667 1.5867,0.58667 3.16,1.24 4.6667,1.94667 0.4933,0.21333 0.9866,0.46666 1.48,0.72 0.1866,0.08 0.3733,0.17333 0.56,0.26666 0.7066,0.34667 1.3866,0.68 2.1066,1.08 0.68,0.37334 1.3467,0.74667 2.0267,1.14667 0.5333,0.30667 1.0533,0.61333 1.5867,0.93333 0.76,0.49334 1.5333,0.98667 2.3066,1.48 l 83.4134,55.54667 89.2666,59.48 c 0.5867,0.4 1.1734,0.8 1.7334,1.26666 0.3066,0.24 0.6133,0.49334 0.92,0.77334 0.2266,0.14666 0.44,0.33333 0.6266,0.54666 0.3734,0.32 0.7067,0.65334 1.08,1.02667 0.4267,0.46667 0.8667,0.92 1.2934,1.41333 0.56,0.65334 1.08,1.36 1.5733,2.08 l 0.4667,0.70667 c 1.1466,1.78667 2,3.57333 2.6533,5.46667 l 0.28,0.8 c 0.3067,0.96 0.6133,1.92 0.8933,2.74666 0.4667,1.42667 0.9334,2.88 1.3334,4.36 0.9866,3.17334 1.9066,6.41332 2.7733,9.74662 8,30.5734 12.04,67.4534 12.04,109.7867 0,142.8133 -99.9467,260.9067 -227.64,268.8133 -4.48,0.3067 -9.08,0.4534 -13.6133,0.4534 m 243.5066,-399.24002 c -0.3333,-1.02666 -0.68,-2.04 -1.0133,-3.02666 l -0.4,-1.2 c -0.8,-2.26667 -1.7867,-4.45334 -2.96,-6.58667 l -0.2267,-0.33333 -1.32,-2.29334 c -3.4,-5.28 -7.9733,-9.90666 -13.2533,-13.42666 l -122.3067,-81.49333 -50.3733,-33.53334 c -0.9867,-0.68 -2,-1.33333 -3.0267,-1.92 -0.5866,-0.4 -1.2,-0.73333 -1.8133,-1.08 -0.5333,-0.33333 -1.0533,-0.64 -1.5867,-0.89333 -0.3333,-0.21333 -0.64,-0.4 -0.9866,-0.52 -1.2934,-0.74667 -2.6267,-1.42667 -3.9467,-2.04 -0.6133,-0.30667 -1.24,-0.58667 -1.8533,-0.86667 -1.2,-0.58666 -2.44,-1.10666 -3.68,-1.57333 -0.5867,-0.21333 -1.1734,-0.46667 -1.76,-0.68 -0.5867,-0.25333 -1.1734,-0.46667 -1.7867,-0.65333 -0.52,-0.21334 -1.0533,-0.4 -1.5733,-0.56 -0.5867,-0.17334 -1.1734,-0.36 -1.7334,-0.54667 -0.68,-0.25333 -1.36,-0.44 -2.0666,-0.62667 l -0.2534,-0.0533 -0.2133,-0.0667 c -0.3333,-0.0933 -0.7067,-0.21333 -1.08,-0.30666 -0.28,-0.0667 -0.52,-0.14667 -0.8,-0.21334 l -2.8133,-0.68 -0.12,-0.0267 c -0.8,-0.18667 -1.6,-0.37334 -2.44,-0.49334 -0.7067,-0.16 -1.4267,-0.32 -2.1334,-0.41333 -1.2,-0.21333 -2.3733,-0.4 -3.5733,-0.54667 -0.84,-0.13333 -1.68,-0.25333 -2.5067,-0.30666 -0.6133,-0.0667 -1.2666,-0.13334 -1.92,-0.18667 -0.8933,-0.0933 -1.7866,-0.16 -2.68,-0.18667 -0.5333,-0.0667 -1.0533,-0.0933 -1.5733,-0.0933 -0.5867,-0.04 -1.2133,-0.0667 -1.8,-0.04 -1.5333,-0.0533 -3.08,-0.0267 -4.6267,0 -6.1466,0.18667 -12.2266,0.96 -18.1866,2.36 -0.5334,0.12 -1.0534,0.24 -1.5734,0.33333 -0.4933,0.12 -0.9866,0.25334 -1.48,0.37334 -1.64,0.42666 -3.3066,0.92 -4.92,1.45333 -1.1733,0.36 -2.3466,0.77333 -3.48,1.22667 -0.5866,0.22666 -1.1466,0.44 -1.6666,0.65333 -0.96,0.33333 -1.8934,0.74667 -2.8134,1.10667 -0.8933,0.44 -1.7866,0.84 -2.6533,1.24 -0.5867,0.28 -1.1733,0.56 -1.76,0.82666 -0.5333,0.25334 -1.08,0.53334 -1.6133,0.81334 -0.8934,0.45333 -1.8134,0.96 -2.72,1.48 -2.0667,1.14666 -4.1067,2.37333 -6.08,3.70666 l -172.7733,115.08 c -2.0934,1.42667 -4.04,2.97333 -5.7734,4.57333 -2.8666,2.69334 -5.3733,5.65334 -7.4133,8.86667 -0.64,1.01333 -1.2267,2.04 -1.76,3.09333 -1.1067,1.97334 -2,4.01334 -2.72,6.08 l -0.24,0.68 c -12.32,36.22663 -18.32,79.88003 -18.32,133.49333 0,118.0267 63.56,222.7333 162.0667,267.2667 l 3.6399,1.6 c 6.76,2.9333 13.8,5.6266 20.9334,7.9733 l 3.8933,1.24 c 22.7333,7 46.32,10.56 70.1067,10.56 4.96,0 9.9733,-0.16 14.84,-0.4933 27.7066,-1.7067 54.1733,-8.1867 78.8133,-18.72 98.0133,-41.7467 166.9733,-147.1467 166.9733,-269.4267 0,-51.8133 -5.6,-94.28 -17.12,-129.97333"
         style="fill:#231f20;fill-opacity:1;fill-rule:nonzero;stroke:none;stroke-width:0.133333" />
      <path
         id="path518"
         d="m 3212.5333,980.56005 v -0.0267 c 0.2533,-0.28 0.4933,-0.56 0.7466,-0.82666 0.4534,-0.46667 0.8934,-0.93334 1.3867,-1.36 1.0133,-0.96 2.2267,-1.92 3.4267,-2.72 l 172.6533,-115.02667 c 0.8,-0.53333 1.5733,-1.02666 2.3733,-1.48 0.5867,-0.41333 1.2,-0.74666 1.7867,-1.05333 0.5866,-0.37333 1.1733,-0.70667 1.8,-1.02667 1.2266,-0.68 2.4666,-1.32 3.7333,-1.88 0.3333,-0.18666 0.68,-0.33333 1.0133,-0.46666 0.5334,-0.24 1.0934,-0.49334 1.6134,-0.70667 1.1333,-0.49333 2.32,-0.96 3.4933,-1.36 0.4,-0.14667 0.8267,-0.30667 1.2267,-0.42667 0.4,-0.16 0.8,-0.28 1.2,-0.4 0.96,-0.34666 1.9466,-0.62666 2.9066,-0.89333 0.4934,-0.16 1.0267,-0.28 1.52,-0.37333 1.2267,-0.34667 2.44,-0.62667 3.7067,-0.84 0.7067,-0.18667 1.4133,-0.30667 2.16,-0.42667 4.5733,-0.77333 9.2267,-1.14667 13.8933,-0.98667 0.52,-0.04 1.08,0 1.6,0.0267 h 0.28 c 0.96,0.0267 1.92,0.0933 2.88,0.18667 1.1067,0.0933 2.1867,0.21333 3.2934,0.37333 0.5066,0.0533 0.96,0.12 1.4533,0.21333 0.5333,0.0667 1.08,0.14667 1.6133,0.24 0.3734,0.0667 0.7334,0.13334 1.08,0.22667 2.4667,0.42667 4.9067,1.01333 7.28,1.72 0.5334,0.16 1.0267,0.30667 1.5467,0.49333 1.24,0.37334 2.44,0.81334 3.64,1.26667 1.5867,0.58667 3.16,1.24 4.6667,1.94667 0.4933,0.21333 0.9866,0.46666 1.48,0.72 0.1866,0.08 0.3733,0.17333 0.56,0.26666 0.7066,0.34667 1.3866,0.68 2.1066,1.08 0.68,0.37334 1.3467,0.74667 2.0267,1.14667 0.5333,0.30667 1.0533,0.61333 1.5867,0.93333 0.76,0.49334 1.5333,0.98667 2.3066,1.48 l 83.4134,55.54667 89.2666,59.48 c 0.5867,0.4 1.1734,0.8 1.7334,1.26666 0.3066,0.24 0.6133,0.49334 0.92,0.77334 0.2266,0.14666 0.44,0.33333 0.6266,0.54666 0.3734,0.32 0.7067,0.65334 1.08,1.02667 0.4267,0.46667 0.8667,0.92 1.2934,1.41333 -1.8534,8.65334 -9.72,32.09332 -41.6934,45.30662 -7.7066,3.2134 -16.8266,5.8 -27.6,7.44 -8.5866,1.3334 -17.9466,1.9734 -27.8533,1.9734 l -3.28,0.04 -2.5867,1.9733 c -0.2133,0.16 -21.9866,16.4933 -50.0933,20.72 -17.2267,2.6267 -33.2533,0.12 -47.68,-7.4133 -4.2533,-2.1867 -8.4533,-4.9067 -12.5067,-8.0534 l -5.8,-4.5733 -5.9333,4.44 c -11.1467,8.3467 -23.2133,13.5867 -35.88,15.6267 -39.5867,6.36 -74.0533,-20.3734 -74.3866,-20.6534 l -2.6534,-2.1066 h -3.3733 c -6.5733,0 -12.8133,-0.28 -18.6133,-0.8934 -10.0134,-0.92 -19.3334,-2.7466 -27.7334,-5.4 -17.6933,-5.5866 -31.3733,-14.7866 -40.6133,-27.36 -0.08,-0.12 -0.1733,-0.2533 -0.2667,-0.3733 -6.12,-8.42665 -8.7466,-16.45332 -9.8266,-20.78665 m 458.1066,-5.46667 -1.3867,-2.16 c -3.4,-5.28 -7.9733,-9.90666 -13.2533,-13.42666 l -122.3067,-81.49333 -50.3733,-33.53334 c -0.9867,-0.68 -2,-1.33333 -3.0267,-1.92 -0.5866,-0.4 -1.2,-0.73333 -1.8133,-1.08 -0.5333,-0.33333 -1.0533,-0.64 -1.5867,-0.89333 -0.3333,-0.21333 -0.64,-0.4 -0.9866,-0.52 -1.2934,-0.74667 -2.6267,-1.42667 -3.9467,-2.04 -0.6133,-0.30667 -1.24,-0.58667 -1.8533,-0.86667 -1.2,-0.58666 -2.44,-1.10666 -3.68,-1.57333 -0.5867,-0.21333 -1.1734,-0.46667 -1.76,-0.68 -0.5867,-0.25333 -1.1734,-0.46667 -1.7867,-0.65333 -0.52,-0.21334 -1.0533,-0.4 -1.5733,-0.56 -0.5867,-0.17334 -1.1734,-0.36 -1.7334,-0.54667 -0.68,-0.25333 -1.36,-0.44 -2.0666,-0.62667 l -0.2534,-0.0533 -0.2133,-0.0667 c -0.3333,-0.0933 -0.7067,-0.21333 -1.08,-0.30666 -0.28,-0.0667 -0.52,-0.14667 -0.8,-0.21334 l -2.8133,-0.68 -0.12,-0.0267 c -0.8,-0.18667 -1.6,-0.37334 -2.44,-0.49334 -0.7067,-0.16 -1.4267,-0.32 -2.1334,-0.41333 l -0.067,-0.0267 c -1.16,-0.21333 -2.3334,-0.37333 -3.5067,-0.52 -0.84,-0.13333 -1.68,-0.25333 -2.5067,-0.30666 -0.6133,-0.0667 -1.2666,-0.13334 -1.92,-0.18667 -0.8933,-0.0933 -1.7866,-0.16 -2.68,-0.18667 -0.5333,-0.0667 -1.0533,-0.0933 -1.5733,-0.0933 -0.5867,-0.04 -1.2133,-0.0667 -1.8,-0.04 -1.5333,-0.0533 -3.08,-0.0267 -4.6267,0 -6.6666,0.16 -13.3066,1.05333 -19.76,2.69333 -0.4933,0.12 -0.9866,0.25334 -1.48,0.37334 -1.64,0.42666 -3.3066,0.92 -4.92,1.45333 -1.1733,0.36 -2.3466,0.77333 -3.48,1.22667 -0.5866,0.22666 -1.1466,0.44 -1.6666,0.65333 -0.96,0.33333 -1.8934,0.74667 -2.8134,1.10667 -0.8933,0.44 -1.7866,0.84 -2.6533,1.24 -0.5867,0.28 -1.1733,0.56 -1.76,0.82666 -0.5333,0.25334 -1.08,0.53334 -1.6133,0.81334 -0.8934,0.45333 -1.8134,0.96 -2.72,1.48 -2.0667,1.14666 -4.1067,2.37333 -6.08,3.70666 l -172.7733,115.08 c -2.0934,1.42667 -4.04,2.97333 -5.7734,4.57333 -2.8666,2.69334 -5.3733,5.65334 -7.4133,8.86667 l -1.7867,2.84 0.027,0.25333 0.3067,3.08 c 0.04,0.4 0.6266,6 3.5866,13.96 1.4534,3.98667 3.4934,8.52006 6.3334,13.28006 1.32,2.2266 2.8,4.5066 4.5066,6.8 3,4.04 6.2934,7.8 9.9467,11.2933 10.7067,10.1867 24.24,17.9067 40.4133,23.04 9.7067,3.0533 20.3867,5.16 31.6934,6.24 5.4,0.5467 11.2,0.8533 17.2533,0.96 10.04,7.0933 45.2133,29.1733 86.72,22.5067 13.5466,-2.16 26.4533,-7.2534 38.5066,-15.1067 3.1467,2.1333 6.36,4.0533 9.6,5.7467 13.52,7.04 28.1334,10.6 43.5734,10.6 5.2133,0 10.56,-0.4134 15.96,-1.2134 27.2,-4.1066 48.76,-17.44 56.1733,-22.5333 9.76,-0.1333 19.0533,-0.8667 27.6667,-2.2 11.64,-1.7867 21.7466,-4.5733 30.4533,-8.0933 24.3333,-9.6667 38.1067,-24.6667 45.88,-37.8934 2.8133,-4.7866 4.8133,-9.29332 6.3067,-13.26666 v -0.04 c 3.0266,-8.30666 3.5466,-14.10666 3.5733,-14.29333 l 0.04,-3.4 v -0.21333 l -0.16,-0.25334"
         style="fill:#231f20;fill-opacity:1;fill-rule:nonzero;stroke:none;stroke-width:0.133333" />
      <path
         id="path519"
         d="m 3431.6666,1385.6134 c -4.9467,0 -9.8534,-0.1734 -14.8,-0.52 80.6,-10.6534 160.2133,-62.6267 194.64,-136.4934 27.9733,-59.96 23.6266,-135.0933 3.4933,-204.1466 v 0 0 c 24.3333,-9.6667 38.1067,-24.6667 45.88,-37.8934 v 0 c 8,30.5734 12.04,67.4534 12.04,109.7867 0,142.8133 -99.9467,260.9067 -227.64,268.8133 -4.48,0.3067 -9.08,0.4534 -13.6133,0.4534"
         style="fill:#87aa07;fill-opacity:1;fill-rule:nonzero;stroke:none;stroke-width:0.133333" />
      <path
         id="path520"
         d="m 3609.2132,1025.96 c -12.1866,-36.22662 -28.44,-70.18662 -46.2533,-98.59995 -2.28,-3.68 -4.6,-7.44 -6.9733,-11.21333 v 0 l 89.2666,59.48 c 0.5867,0.4 1.1734,0.8 1.7334,1.26666 0.3066,0.24 0.6133,0.49334 0.92,0.77334 0.2266,0.14666 0.44,0.33333 0.6266,0.54666 0.3734,0.32 0.7067,0.65334 1.08,1.02667 0.4267,0.46667 0.8667,0.92 1.2934,1.41333 -1.8534,8.65334 -9.72,32.09332 -41.6934,45.30662 v 0"
         style="fill:#e3dbd1;fill-opacity:1;fill-rule:nonzero;stroke:none;stroke-width:0.133333" />
      <path
         id="path521"
         d="m 3460.1866,1395.28 c -4.8134,0 -9.5334,-0.1466 -14.2534,-0.4533 -4.7333,0.3067 -9.4533,0.4533 -14.2666,0.4533 -23.7867,0 -46.8267,-3.6666 -68.6534,-10.52 7.8134,1.5467 16.5334,2.3334 25.9067,2.3334 3.1467,0 6.3733,-0.093 9.6667,-0.2667 6.08,-0.3467 12.2,-0.8933 18.28,-1.7333 v 0 c 4.9466,0.3466 9.8533,0.52 14.8,0.52 4.5333,0 9.1333,-0.1467 13.6133,-0.4534 127.6933,-7.9066 227.64,-126 227.64,-268.8133 0,-42.3333 -4.04,-79.2133 -12.04,-109.7867 2.8133,-4.7866 4.8133,-9.29328 6.3067,-13.26662 v -0.04 c 3.0266,-8.30666 3.5466,-14.10666 3.5733,-14.29333 l 0.04,-3.4 v 0 c 1.1733,2.13333 2.16,4.32 2.96,6.58667 l 0.4,1.2 c 0.3333,0.98666 0.68,2 1.0133,3.02666 11.52,35.69332 17.12,78.16002 17.12,129.97332 0,122.28 -68.96,227.68 -166.9733,269.4267 v 0 c -20.7867,6.2133 -42.6133,9.5066 -65.1333,9.5066"
         style="fill:#211d1e;fill-opacity:1;fill-rule:nonzero;stroke:none;stroke-width:0.133333" />
      <path
         id="path522"
         d="m 3614.9999,1044.4534 c -0.3467,-1.2667 -0.72,-2.4934 -1.08,-3.7334 -0.28,-0.9866 -0.6,-1.9466 -0.9067,-2.9333 -0.24,-0.8667 -0.52,-1.7333 -0.8,-2.6 -0.96,-3.08 -1.9733,-6.1733 -3,-9.2267 v 0 0 c 31.9734,-13.2133 39.84,-36.65328 41.6934,-45.30662 -0.4267,-0.49333 -0.8667,-0.94666 -1.2934,-1.41333 -0.3733,-0.37333 -0.7066,-0.70667 -1.08,-1.02667 -0.1866,-0.21333 -0.4,-0.4 -0.6266,-0.54666 -0.3067,-0.28 -0.6134,-0.53334 -0.92,-0.77334 -0.56,-0.46666 -1.1467,-0.86666 -1.7334,-1.26666 l -89.2666,-59.48 c -6.3334,-9.97333 -13.28,-19.85333 -22.6667,-26.70667 l -0.067,-0.0667 c -1.4533,-1.08 -2.9333,-2.06667 -4.5066,-2.98667 -0.2134,-0.16 -0.4,-0.28 -0.4934,-0.34667 -0.12,-0.0667 -0.1866,-0.12 -0.1866,-0.12 l 5.6266,-7.90666 122.3067,81.49333 c 5.28,3.52 9.8533,8.14666 13.2533,13.42666 l 1.3867,2.16 0.16,0.25334 v 0.21333 l -0.04,3.4 c -0.027,0.18667 -0.5467,5.98667 -3.5733,14.29333 v 0.04 c -1.4934,3.97334 -3.4934,8.48006 -6.3067,13.26666 v 0 c -7.7733,13.2267 -21.5467,28.2267 -45.88,37.8934 v 0"
         style="fill:#211d1e;fill-opacity:1;fill-rule:nonzero;stroke:none;stroke-width:0.133333" />
    </g>
  </g>
</svg>
