<?xml version="1.0" encoding="UTF-8" standalone="no"?>
<!-- Created with Inkscape (http://www.inkscape.org/) -->

<svg
   width="160.46985mm"
   height="130.19885mm"
   viewBox="0 0 160.46985 130.19885"
   version="1.1"
   id="svg1"
   inkscape:version="1.3 (0e150ed, 2023-07-21)"
   sodipodi:docname="grapes.svg"
   xmlns:inkscape="http://www.inkscape.org/namespaces/inkscape"
   xmlns:sodipodi="http://sodipodi.sourceforge.net/DTD/sodipodi-0.dtd"
   xmlns="http://www.w3.org/2000/svg"
   xmlns:svg="http://www.w3.org/2000/svg">
  <sodipodi:namedview
     id="namedview1"
     pagecolor="#ffffff"
     bordercolor="#000000"
     borderopacity="0.25"
     inkscape:showpageshadow="2"
     inkscape:pageopacity="0.0"
     inkscape:pagecheckerboard="0"
     inkscape:deskcolor="#d1d1d1"
     inkscape:document-units="mm"
     inkscape:zoom="0.2102413"
     inkscape:cx="302.0339"
     inkscape:cy="247.33485"
     inkscape:window-width="1312"
     inkscape:window-height="449"
     inkscape:window-x="0"
     inkscape:window-y="25"
     inkscape:window-maximized="0"
     inkscape:current-layer="layer1" />
  <defs
     id="defs1" />
  <g
     inkscape:label="Layer 1"
     inkscape:groupmode="layer"
     id="layer1"
     transform="translate(-24.870815,-83.34375)">
    <g
       id="g797"
       transform="matrix(0.26458333,0,0,0.26458333,-795.44686,48.149785)">
      <path
         id="path654"
         d="m 3329.1599,348.72007 c -4.12,-1.13334 -101.6,-29.13334 -170.64,-152.90667 l 22.3334,-12.45333 c 63.5333,113.89333 154.2133,140.45333 155.1199,140.72 l -6.8133,24.64"
         style="fill:#231f20;fill-opacity:1;fill-rule:nonzero;stroke:none;stroke-width:0.133333" />
      <path
         id="path655"
         d="m 3119.2266,225.26674 c -7.9333,2.13333 -15.9333,-3.12 -17.1733,-11.24 l -1.64,-10.70667 1.9333,12.64 c -1.08,-6.93333 3.2133,-13.54667 9.9867,-15.4 21.2266,-5.81333 66.48,-22.28 100.2133,-62.90667 4.2933,-5.17333 11.8533,-6.15999 17.32,-2.24 5.9733,4.30667 7.16,12.78667 2.4667,18.46667 -38.2267,46.25333 -88.4134,64.72 -113.1067,71.38667"
         style="fill:#231f20;fill-opacity:1;fill-rule:nonzero;stroke:none;stroke-width:0.133333" />
      <path
         id="path656"
         d="m 3606.3466,456.10673 c 44.04,-13.24 84.4133,10.90667 90.1866,53.92 5.7734,43 -25.24,88.6 -69.2666,101.82666 -44.04,13.22667 -84.4134,-10.90666 -90.1867,-53.92 -5.7733,-43.01333 25.24,-88.59999 69.2667,-101.82666"
         style="fill:#ffffff;fill-opacity:1;fill-rule:nonzero;stroke:none;stroke-width:0.133333" />
      <path
         id="path657"
         d="m 3687.9599,559.33339 c -1.5067,11.68 -5.28,22.64 -10.84,32.30667 -12.7867,13.52 -28.9067,24.05333 -47.0533,29.48 -8.8934,2.69333 -17.8534,3.98667 -26.6267,3.98667 -8.7067,0 -17.2,-1.29334 -25.16,-3.85334 l -0.093,-0.04 c -11.12,-6.29333 -20.72,-15.58666 -27.8267,-26.96 -3.96,-6.29333 -7.1333,-13.24 -9.3867,-20.68 l -0.067,-0.16 c -1.48,-4.97333 -2.56,-10.12 -3.2134,-15.49333 v -0.0667 c -0.1466,-1.10666 -0.2133,-2.22666 -0.3333,-3.37333 -1.2933,-15.89333 1.6,-31.14666 7.6533,-44.46666 0.4,-0.92 0.8667,-1.85334 1.3334,-2.74667 0.3066,-0.64 0.6133,-1.26667 0.9866,-1.88 0.3067,-0.68 0.68,-1.33333 1.0534,-1.97333 0.12,-0.21334 0.2133,-0.44 0.3333,-0.62667 0.56,-0.94667 1.12,-1.90667 1.7067,-2.84 12.3733,-19.66667 32.36,-33.37333 55.76,-35.6 2.6266,-0.24 5.2533,-0.33333 7.8133,-0.28 10.1067,0.16 19.8,2.50667 28.6933,6.70667 22.04,10.4 39,32.01333 44.28,58.85333 0.68,3.4 1.1734,6.89333 1.4534,10.44 0.52,6.57333 0.3733,13.02666 -0.4667,19.26666"
         style="fill:#b2e912;fill-opacity:1;fill-rule:nonzero;stroke:none;stroke-width:0.133333" />
      <path
         id="path658"
         d="m 3578.8132,531.0534 c -4.7866,35.91999 -28.4533,63.21333 -28.4533,63.21333 -6.6,-10.54667 -11.0533,-22.89334 -12.6533,-36.36 l -0.027,-0.04 c -0.12,-1.10667 -0.2133,-2.24 -0.32,-3.38667 -3.7067,-45.78666 27.12,-86.13333 68.8267,-90.12 12.92,-1.24 25.36,1.17334 36.5066,6.41334 -8.0666,18.38666 -25.3866,27.50666 -39.9466,32.02666 -12.7334,3.96 -22.1734,15.02667 -23.9334,28.25334"
         style="fill:#8ed014;fill-opacity:1;fill-rule:nonzero;stroke:none;stroke-width:0.133333" />
      <path
         id="path659"
         d="m 3571.2399,596.69339 c -5.2533,-3.38666 -9.8,-7.58666 -13.4667,-12.50666 -5.8666,-7.70667 -9.6933,-17.06667 -11.0933,-27.53334 -5.1467,-38.42666 22.8533,-79.37333 62.44,-91.29333 1.64,-0.48 3.24,-0.92 4.88,-1.29333 17.6933,-4.13333 34.7067,-1.64 48.3867,7.17333 13.5333,8.73334 22.2666,22.97334 24.56,40.08 0.8,6.08 0.8,12.22667 0.027,18.30667 -4.0133,32.36 -29.1466,62.93333 -62.5066,72.93333 -19.4134,5.84 -38.32,3.77333 -53.2267,-5.86667 z m 134.9067,-87.97333 c -3.08,-22.78666 -14.88,-41.90666 -33.28,-53.76 -12.4267,-8 -27.2134,-12.10666 -42.68,-12.10666 -8.7467,0 -17.7334,1.33333 -26.6267,3.98666 -48.32,14.50667 -82.44,64.93334 -76.08,112.37333 3.0533,22.81334 14.88,41.90667 33.2533,53.76 5.4,3.49334 11.2667,6.24 17.4534,8.24 l 0.093,0.04 c 7.96,2.56 16.4533,3.85334 25.16,3.85334 8.7733,0 17.7333,-1.29334 26.6267,-3.98667 18.1466,-5.42667 34.2666,-15.96 47.0533,-29.48 21.1867,-22.48 33.0133,-53.28 29.0267,-82.92"
         style="fill:#231f20;fill-opacity:1;fill-rule:nonzero;stroke:none;stroke-width:0.133333" />
      <path
         id="path660"
         d="m 3447.0799,448.1734 c 41.24,-19.81334 85.1467,-2.17334 98.0533,39.4 12.92,41.57333 -10.0533,91.31999 -51.2933,111.13333 -41.2533,19.8 -85.16,2.16 -98.0667,-39.41334 -12.9066,-41.55999 10.0534,-91.31999 51.3067,-111.11999"
         style="fill:#ffffff;fill-opacity:1;fill-rule:nonzero;stroke:none;stroke-width:0.133333" />
      <path
         id="path661"
         d="m 3498.0132,607.44006 c -12.6533,6.09333 -25.7466,9.12 -38.5333,9.12 -2.04,0 -4.08,-0.0933 -6.12,-0.25333 -5.3333,-1.78667 -10.3733,-4.2 -15.0267,-7.25334 h -0.04 c -4.9333,-3.21333 -9.3866,-7.10666 -13.28,-11.61333 -6.9466,-7.90667 -12.1066,-17.69333 -14.8533,-29 -0.2133,-0.73333 -0.4,-1.48 -0.5467,-2.25333 l -0.067,-0.0267 c -0.2134,-1.05333 -0.4,-2.10667 -0.6134,-3.14667 -6.8666,-39.39999 16.2934,-81.39999 52.7734,-98.69333 l 0.027,-0.04 c 3.24,-1.53333 6.6134,-2.86666 10.0667,-4.01333 13.84,-4.50667 27.48,-5.02667 39.84,-2.09333 9.5333,2.22666 18.3067,6.45333 25.7867,12.48 8.52,6.78666 15.4,15.86666 19.8533,26.73333 6.6,42.96 -18.04,90.26666 -59.2667,110.05333"
         style="fill:#b2e912;fill-opacity:1;fill-rule:nonzero;stroke:none;stroke-width:0.133333" />
      <path
         id="path662"
         d="m 3498.0132,607.44006 c -12.6533,6.09333 -25.7466,9.12 -38.5333,9.12 -2.04,0 -4.08,-0.0933 -6.12,-0.25333 -5.3333,-1.78667 -10.3733,-4.2 -15.0267,-7.25334 5.0267,-0.65333 9.72,-1.52 14.1067,-2.6 12.84,-3.14666 23.1333,-8.02666 31.3067,-13.98666 9.0533,-6.52 15.5733,-14.32 20.2,-22.45334 13.16,-23.02666 6.2133,-54.98666 -17.88,-66.07999 -31.44,-14.45334 -24.36,-39.61334 -24.36,-39.61334 l 0.027,-0.04 c 3.24,-1.53333 6.6134,-2.86666 10.0667,-4.01333 13.84,-4.50667 27.48,-5.02667 39.84,-2.09333 9.5333,2.22666 18.3067,6.45333 25.7867,12.48 8.52,6.78666 15.4,15.86666 19.8533,26.73333 6.6,42.96 -18.04,90.26666 -59.2667,110.05333"
         style="fill:#8ed014;fill-opacity:1;fill-rule:nonzero;stroke:none;stroke-width:0.133333" />
      <path
         id="path663"
         d="m 3483.7466,592.46673 c -16.2667,6.26666 -32.88,6.26666 -47.4267,-0.0533 -11.1733,-4.85333 -20.16,-13.16 -26.16,-23.97333 -2.0933,-3.73333 -3.8267,-7.74667 -5.16,-12.01333 -11.5067,-37.10667 9.24,-81.73333 46.2667,-99.52 10,-4.81333 20.2266,-7.22667 30.1733,-7.22667 8.0267,0 15.8667,1.6 23.16,4.78667 2.4667,1.05333 4.8133,2.28 7.04,3.70667 11.4533,7.10666 19.92,18.30666 24.24,32.26666 11.5467,37.12 -9.2,81.74667 -46.2267,99.53333 -1.9466,0.92 -3.92,1.78667 -5.9066,2.49334 z m 73.5333,-95.08 c -0.6533,-4.29333 -1.6133,-8.52 -2.9067,-12.69333 -6.8533,-22.13334 -21.8,-39.18667 -42.0266,-47.98667 -21.56,-9.38667 -46.2267,-8.42667 -69.4534,2.72 -45.3333,21.77333 -70.6133,76.82667 -56.3466,122.74666 6.8533,22.10667 21.8,39.18667 42.0266,47.98667 7.9334,3.46667 16.2667,5.49333 24.7867,6.14667 2.04,0.16 4.08,0.25333 6.12,0.25333 12.7867,0 25.88,-3.02667 38.5333,-9.12 41.2267,-19.78667 65.8667,-67.09333 59.2667,-110.05333"
         style="fill:#231f20;fill-opacity:1;fill-rule:nonzero;stroke:none;stroke-width:0.133333" />
      <path
         id="path664"
         d="m 3650.8799,427.9734 c -25.9067,42.34666 -78.7733,61.37333 -118.0667,42.48 -39.3066,-18.88 -50.16,-68.53334 -24.24,-110.88 25.9067,-42.34667 78.76,-61.36 118.0667,-42.48 39.2933,18.89333 50.1467,68.53333 24.24,110.88"
         style="fill:#ffffff;fill-opacity:1;fill-rule:nonzero;stroke:none;stroke-width:0.133333" />
      <path
         id="path665"
         d="m 3667.5199,416.26673 c -2.2533,5.70667 -5.0667,11.33333 -8.3733,16.77333 -10.44,17.04 -24.9467,30.62667 -41.28,39.92 -16.3734,9.33334 -34.56,14.38667 -52.32,14.38667 -12.7734,0 -25.3734,-2.61333 -36.9334,-8.17333 -4.3466,-2.10667 -8.4533,-4.54667 -12.2533,-7.34667 h -0.027 c -7.8533,-9.21333 -12.7866,-20.36 -14.7333,-32.42667 -0.8667,-5.13333 -1.1733,-10.44 -0.8933,-15.81333 0.027,-1.01333 0.093,-2.06667 0.1866,-3.09333 0.027,-0.36 0.053,-0.70667 0.093,-1.04 0.093,-1.02667 0.2133,-2.04 0.36,-3.06667 0.1333,-1.10667 0.32,-2.18667 0.4933,-3.26667 0.4133,-2.37333 0.9067,-4.76 1.5467,-7.13333 0.1333,-0.49333 0.2533,-0.98667 0.44,-1.52 0.093,-0.49333 0.24,-0.94667 0.4,-1.45333 0.027,-0.08 0.053,-0.21334 0.12,-0.33334 3.3733,-11.17333 9.08,-22.29333 17.1733,-32.57333 30.72,-38.97333 84.08,-51.42666 119.1333,-27.8 1.6934,1.14667 3.3067,2.34667 4.8534,3.68 7,5.65334 12.4666,12.56 16.4266,20.29334 0.093,0.14666 0.1867,0.33333 0.28,0.52 0.5734,1.2 1.1734,2.44 1.6934,3.66666 0.24,0.56 0.4666,1.12 0.6533,1.70667 0.3067,0.68 0.5467,1.38667 0.8,2.06667 0.5867,1.54666 1.08,3.14666 1.48,4.76 0.3067,1.01333 0.56,2.02666 0.8,3.08 0.3067,1.33333 0.56,2.69333 0.8,4.05333 0.2267,1.36 0.4,2.70667 0.56,4.10667 0.9333,8.4 0.4667,17.19999 -1.48,26.02666"
         style="fill:#b2e912;fill-opacity:1;fill-rule:nonzero;stroke:none;stroke-width:0.133333" />
      <path
         id="path666"
         d="m 3667.5199,416.26673 c -2.2533,5.70667 -5.0667,11.33333 -8.3733,16.77333 -10.44,17.04 -24.9467,30.62667 -41.28,39.92 -16.3734,9.33334 -34.56,14.38667 -52.32,14.38667 -12.7734,0 -25.3734,-2.61333 -36.9334,-8.17333 -4.3466,-2.10667 -8.4533,-4.54667 -12.2533,-7.34667 h -0.027 c -7.8533,-9.21333 -12.7866,-20.36 -14.7333,-32.42667 -0.8667,-5.13333 -1.1733,-10.44 -0.8933,-15.81333 0.027,-1.01333 0.093,-2.06667 0.1866,-3.09333 0.027,-0.36 0.053,-0.70667 0.093,-1.04 0.093,-1.02667 0.2133,-2.04 0.36,-3.06667 0.1333,-1.10667 0.32,-2.18667 0.4933,-3.26667 0.4133,-2.37333 0.9067,-4.76 1.5467,-7.13333 0.1333,-0.49333 0.2533,-0.98667 0.44,-1.52 0.093,-0.49333 0.24,-0.94667 0.4,-1.45333 0.027,0.16 0.027,0.34666 0.053,0.50666 2.1067,17.62667 6.3733,29.38667 21.72,39.70667 32.88,22.13333 82.84,10.46667 111.6267,-26.06667 6.2666,-7.90666 11.9866,-15.46666 16.3066,-23.09333 l 0.027,-0.0267 c 5.04,-8.89334 8.1867,-17.92 7.9733,-27.76 v -0.10667 c 0.093,0.22667 0.2134,0.41333 0.28,0.62667 0.5734,1.2 1.1734,2.44 1.6934,3.66666 0.24,0.53334 0.4666,1.05334 0.6533,1.61334 0.3067,0.70666 0.5867,1.41333 0.8,2.16 0.5867,1.54666 1.08,3.14666 1.48,4.76 0.3067,1.01333 0.56,2.02666 0.8,3.08 0.3067,1.33333 0.56,2.69333 0.8,4.05333 0.2267,1.36 0.4,2.70667 0.56,4.10667 0.9333,8.4 0.4667,17.19999 -1.48,26.02666"
         style="fill:#8ed014;fill-opacity:1;fill-rule:nonzero;stroke:none;stroke-width:0.133333" />
      <path
         id="path667"
         d="m 3537.0132,461.72006 c -14.7866,-7.09333 -25.5333,-19.76 -30.2,-35.6 -2.12,-7.22666 -2.96,-14.85333 -2.5333,-22.6 0,-0.28 0,-0.56 0.067,-0.84 0.8,-12.78666 5.0666,-25.90666 12.48,-38.03999 17.32,-28.32 47.8266,-45.18667 76.7066,-45.18667 10.0267,0 19.88,2.04 28.9067,6.36 9.56,4.61333 17.44,11.52 23.0667,20.17333 3.08,4.66667 5.4933,9.88 7.1333,15.46667 1.76,5.98667 2.6533,12.29333 2.6533,18.72 0,4.57333 -0.44,9.22667 -1.3333,13.86667 l -0.027,0.0267 c -1.8533,9.81333 -5.6533,19.64 -11.3066,28.86667 -23.3467,38.14666 -70.7467,55.56 -105.6134,38.78666 z m 134.2134,-105.75999 c -6.2667,-21.18667 -20.6,-38.08 -40.4,-47.58667 -43.6,-20.97333 -102.1467,-0.25333 -130.52,46.16 -14.92,24.37333 -19.3334,52.46666 -12.08,77.05333 4.88,16.52 14.6666,30.41333 28.1066,40.24 h 0.027 c 3.8,2.8 7.9067,5.24 12.2533,7.34667 11.56,5.56 24.16,8.17333 36.9334,8.17333 17.76,0 35.9466,-5.05333 52.32,-14.38667 16.3333,-9.29333 30.84,-22.88 41.28,-39.92 3.3066,-5.44 6.12,-11.06666 8.3733,-16.77333 7.9333,-19.94666 9.32,-41.18666 3.7067,-60.30666"
         style="fill:#231f20;fill-opacity:1;fill-rule:nonzero;stroke:none;stroke-width:0.133333" />
      <path
         id="path668"
         d="m 3317.9066,428.26673 c 41.2533,-19.81333 85.1466,-2.16 98.0666,39.4 12.9067,41.57333 -10.0666,91.33333 -51.3066,111.13333 -41.24,19.81333 -85.1467,2.17333 -98.0667,-39.4 -12.9066,-41.57333 10.0667,-91.32 51.3067,-111.13333"
         style="fill:#ffffff;fill-opacity:1;fill-rule:nonzero;stroke:none;stroke-width:0.133333" />
      <path
         id="path669"
         d="m 3368.8399,587.53339 c -6.1333,2.93334 -12.4133,5.18667 -18.7067,6.72 -11.4266,-0.17333 -22.1999,-3.08 -31.5866,-8.30666 -1.3333,-0.73334 -2.6,-1.50667 -3.8667,-2.33334 -6.6666,-4.36 -12.5333,-9.94666 -17.2933,-16.62666 -0.3067,-0.4 -0.5867,-0.8 -0.8667,-1.2 -4.88,-7.22667 -8.52,-15.62667 -10.56,-25.01334 l -0.053,-0.0533 c -0.1867,-1.02667 -0.4,-2.08 -0.6267,-3.16 -6.8533,-39.4 16.3067,-81.4 52.8133,-98.72 3.2667,-1.54666 6.6,-2.86666 10.0667,-4.01333 5.7733,-1.88 11.5467,-3.05333 17.2,-3.58667 9.9067,-0.96 19.48,0.16 28.2533,3.06667 9.5467,3.10667 18.16,8.33333 25.2267,15.4 2.6,4.69333 4.72,9.76 6.3867,15.10667 14.24,45.88 -11.0534,100.94666 -56.3867,122.71999"
         style="fill:#b2e912;fill-opacity:1;fill-rule:nonzero;stroke:none;stroke-width:0.133333" />
      <path
         id="path670"
         d="m 3368.8399,587.53339 c -6.1333,2.93334 -12.4133,5.18667 -18.7067,6.72 -11.4266,-0.17333 -22.1999,-3.08 -31.5866,-8.30666 -1.3333,-0.73334 -2.6,-1.50667 -3.8667,-2.33334 11.92,-1.54666 21.9867,-4.36 30.5467,-8.09333 17.2533,-7.57333 28.1866,-18.86667 35.08,-30.94667 13.1466,-23.03999 6.24,-54.99999 -17.88,-66.07999 -31.44,-14.45334 -24.3734,-39.58667 -24.3734,-39.58667 l 0.04,-0.0667 c 3.2667,-1.54666 6.6,-2.86666 10.0667,-4.01333 5.7733,-1.88 11.5467,-3.05333 17.2,-3.58667 9.9067,-0.96 19.48,0.16 28.2533,3.06667 9.5467,3.10667 18.16,8.33333 25.2267,15.4 2.6,4.69333 4.72,9.76 6.3867,15.10667 14.24,45.88 -11.0534,100.94666 -56.3867,122.71999"
         style="fill:#8ed014;fill-opacity:1;fill-rule:nonzero;stroke:none;stroke-width:0.133333" />
      <path
         id="path671"
         d="m 3345.2266,575.52006 c -13.1867,3.12 -26.3067,2.12 -38.08,-3 -3.4533,-1.50667 -6.7333,-3.36 -9.76,-5.53333 -10.0667,-7.13334 -17.5733,-17.65334 -21.52,-30.46667 -2.16,-6.96 -3.1867,-14.17333 -3.1867,-21.44 0,-31.46666 19.3334,-63.64 49.4134,-78.09333 10,-4.78667 20.2533,-7.2 30.1733,-7.2 4.44,0 8.8266,0.49333 13.0933,1.45333 3.4533,0.77334 6.8267,1.89334 10.0667,3.30667 15,6.54667 26.12,19.33333 31.3066,36.01333 11.52,37.08 -9.2266,81.73333 -46.2533,99.52 -5.04,2.41333 -10.16,4.22667 -15.2533,5.44 z m 80,-110.70666 c -1.6667,-5.34667 -3.7867,-10.41334 -6.3867,-15.10667 -8.0267,-14.78667 -20.32,-26.21333 -35.6667,-32.92 -21.5466,-9.38667 -46.2266,-8.4 -69.4533,2.76 -45.3333,21.76 -70.6133,76.82667 -56.3466,122.70666 6.8533,22.14667 21.8,39.18667 42.0533,48.02667 9.7867,4.25333 20.2267,6.38667 30.88,6.38667 6.5733,0 13.2133,-0.8 19.8266,-2.41334 6.2934,-1.53333 12.5734,-3.78666 18.7067,-6.72 45.3333,-21.77333 70.6267,-76.83999 56.3867,-122.71999"
         style="fill:#231f20;fill-opacity:1;fill-rule:nonzero;stroke:none;stroke-width:0.133333" />
      <path
         id="path672"
         d="m 3475.1732,200.0934 c 43.96,-13.48 84.48,10.42667 90.5334,53.4 6.04,42.98667 -24.68,88.74667 -68.64,102.24 -43.9467,13.48 -84.4667,-10.42667 -90.52,-53.41333 -6.04,-42.97333 24.68,-88.73333 68.6266,-102.22667"
         style="fill:#ffffff;fill-opacity:1;fill-rule:nonzero;stroke:none;stroke-width:0.133333" />
      <path
         id="path673"
         d="m 3576.0532,261.46674 c 1.4134,44.55999 -31.0666,89.67999 -76.1466,103.50666 -9.0267,2.78667 -18.16,4.13333 -27.0934,4.13333 -5.9866,0 -11.8533,-0.61333 -17.5066,-1.84 -9.88,-4.97333 -18.2134,-12.32 -24.2934,-21.53333 -5.5333,-8.33333 -9.24,-18.18667 -10.5733,-29.14667 -0.24,-1.76 -0.4,-3.52 -0.4933,-5.34666 -0.053,-1.10667 -0.053,-2.16 -0.08,-3.24 -0.32,-27.32 13.4933,-53.76 34.64,-71.48 12.5333,-10.53333 27.7066,-17.97333 44.04,-20.76 13.8666,-2.34667 26.92,-1.01333 38.3466,3.28 8.8667,3.30667 16.7067,8.4 23.16,14.90667 6.3334,6.4 11.3334,14.21333 14.5734,23.06666 0.5333,1.42667 0.9866,2.90667 1.4266,4.38667 0.12,0.44 0.24,0.84 0.3734,1.26667 -0.1334,-0.4 -0.2534,-0.8 -0.3734,-1.2"
         style="fill:#b2e912;fill-opacity:1;fill-rule:nonzero;stroke:none;stroke-width:0.133333" />
      <path
         id="path674"
         d="m 3499.9066,364.9734 c -9.0267,2.78667 -18.16,4.13333 -27.0934,4.13333 -5.9866,0 -11.8533,-0.61333 -17.5066,-1.84 -9.88,-4.97333 -18.2134,-12.32 -24.2934,-21.53333 -5.5333,-8.33333 -9.24,-18.18667 -10.5733,-29.14667 -0.24,-1.76 -0.4,-3.52 -0.4933,-5.34666 -0.053,-1.10667 -0.053,-2.16 -0.08,-3.24 -0.32,-27.32 13.4933,-53.76 34.64,-71.48 0,0 -10.96,32.48 14.36,48.48 20.04,12.65333 29.2133,44.06666 57.6533,33.65333 5.9333,-2.16 11.2667,-5.21333 16.0533,-8.98667 9.24,-7.22666 16.4267,-16.92 21.9867,-27.54666 4.2667,-8.08 7.5333,-16.66667 10.04,-25.06667 0.52,1.41334 1.0133,2.86667 1.4533,4.34667 v 0.0667 c 1.4134,44.55999 -31.0666,89.67999 -76.1466,103.50666"
         style="fill:#8ed014;fill-opacity:1;fill-rule:nonzero;stroke:none;stroke-width:0.133333" />
      <path
         id="path675"
         d="m 3440.9466,340.92007 c -9.1734,-5.86667 -16.2134,-14.24 -20.5067,-24.33334 -2.0933,-4.85333 -3.5467,-10.06666 -4.32,-15.6 -5.3733,-38.41333 22.3867,-79.50666 61.8933,-91.63999 19.3867,-5.93334 38.28,-3.96 53.2667,5.58666 1.9733,1.26667 3.8533,2.62667 5.6133,4.10667 10.44,8.70667 17.1734,21.18667 19.2134,35.81333 2.6533,18.86667 -2.72,38.42667 -13.5334,54.81333 -11.2,16.98667 -28.2533,30.64 -48.3466,36.81334 -19.3734,5.93333 -38.2934,3.94666 -53.28,-5.56 z m 135.1066,-79.45333 v -0.0667 c -0.093,-3.08 -0.3466,-6.2 -0.7733,-9.25333 -3.1867,-22.8 -15.1333,-41.81334 -33.6,-53.58667 -12.3467,-7.84 -26.9867,-11.85333 -42.2667,-11.85333 -8.9333,0 -18.0666,1.36 -27.0933,4.13333 -48.2267,14.8 -82.04,65.41333 -75.3733,112.84 3.2133,22.78666 15.16,41.81333 33.6266,53.57333 7.5334,4.78667 15.9067,8.16 24.7334,10.01333 5.6533,1.22667 11.52,1.84 17.5066,1.84 8.9334,0 18.0667,-1.34666 27.0934,-4.13333 45.08,-13.82667 77.56,-58.94667 76.1466,-103.50666"
         style="fill:#231f20;fill-opacity:1;fill-rule:nonzero;stroke:none;stroke-width:0.133333" />
      <path
         id="path676"
         d="m 3387.7466,298.04007 c 41.24,-19.8 85.1466,-2.16 98.0533,39.41333 12.92,41.56 -10.0533,91.32 -51.2933,111.13333 -41.2534,19.8 -85.16,2.16 -98.0667,-39.41333 -12.9066,-41.56 10.0667,-91.32 51.3067,-111.13333"
         style="fill:#ffffff;fill-opacity:1;fill-rule:nonzero;stroke:none;stroke-width:0.133333" />
      <path
         id="path677"
         d="m 3438.6932,457.30673 c -6.1466,2.96 -12.3466,5.21333 -18.6533,6.70667 -11.4267,-0.13334 -22.2,-3.02667 -31.5867,-8.28 -6.7866,-3.77334 -12.88,-8.74667 -17.9733,-14.78667 -1.1067,-1.33333 -2.1867,-2.69333 -3.1733,-4.12 -5.4134,-7.46667 -9.36,-16.33333 -11.52,-26.26667 l -0.027,-0.0667 c -0.2267,-1.01334 -0.44,-2.06667 -0.6267,-3.14667 -2.2266,-12.81333 -1.2933,-25.90666 2.2534,-38.36 8.3466,-29.17333 31.04,-54.68 60.6266,-64.38666 5.7734,-1.88 11.5467,-3.05334 17.16,-3.57334 9.9467,-0.96 19.52,0.14667 28.32,3.05334 9.5067,3.14666 18.0934,8.37333 25.1734,15.41333 2.5866,4.69333 4.72,9.76 6.3866,15.09333 14.2667,45.89334 -11.0266,100.94667 -56.36,122.72"
         style="fill:#b2e912;fill-opacity:1;fill-rule:nonzero;stroke:none;stroke-width:0.133333" />
      <path
         id="path678"
         d="m 3438.6932,457.30673 c -6.1466,2.96 -12.3466,5.21333 -18.6533,6.70667 -11.4267,-0.13334 -22.2,-3.02667 -31.5867,-8.28 -6.7866,-3.77334 -12.88,-8.74667 -17.9733,-14.78667 1.9733,0.49333 4.2667,1.01333 6.76,1.44 20.6667,3.65333 57.1067,3.09333 79.52,-37.48 18.3467,-33.26666 8.0667,-56.57333 -4.44,-70.6 -8.6267,-9.62666 -23.6533,-9.16 -32.1467,0.56 -24.96,28.65334 -62.7866,34.12 -62.7866,34.12 8.3466,-29.17333 31.04,-54.68 60.6266,-64.38666 5.7734,-1.88 11.5467,-3.05334 17.16,-3.57334 9.9467,-0.96 19.52,0.14667 28.32,3.05334 9.5067,3.14666 18.0934,8.37333 25.1734,15.41333 2.5866,4.69333 4.72,9.76 6.3866,15.09333 14.2667,45.89334 -11.0266,100.94667 -56.36,122.72"
         style="fill:#8ed014;fill-opacity:1;fill-rule:nonzero;stroke:none;stroke-width:0.133333" />
      <path
         id="path679"
         d="m 3377.2399,442.38673 -0.24,-0.0933 c -3.4533,-1.50667 -6.7067,-3.33334 -9.6933,-5.46667 -10.1067,-7.16 -17.64,-17.68 -21.6267,-30.53333 -11.5067,-37.08 9.24,-81.73333 46.2667,-99.52 9.9733,-4.78667 20.2266,-7.2 30.1333,-7.2 4.4533,0 8.84,0.49333 13.0933,1.45333 3.4667,0.77334 6.8267,1.88 10.1067,3.30667 14.9733,6.54667 26.0933,19.32 31.28,36 11.52,37.08 -9.24,81.74666 -46.2667,99.52 -17.9733,8.65333 -36.8,9.54666 -53.0533,2.53333 z m 117.8133,-107.8 c -1.6666,-5.33333 -3.8,-10.4 -6.3866,-15.09333 -8,-14.8 -20.2934,-26.21333 -35.6667,-32.92 -21.56,-9.38667 -46.2,-8.4 -69.4533,2.74667 -45.3334,21.77333 -70.6267,76.82666 -56.36,122.71999 6.8933,22.13334 21.8,39.18667 42.0666,48.01334 9.7867,4.26666 20.2534,6.4 30.9067,6.4 6.5733,0 13.24,-0.81334 19.88,-2.44 6.3067,-1.49334 12.5067,-3.74667 18.6533,-6.70667 45.3334,-21.77333 70.6267,-76.82666 56.36,-122.72"
         style="fill:#231f20;fill-opacity:1;fill-rule:nonzero;stroke:none;stroke-width:0.133333" />
      <path
         id="path680"
         d="m 3216.6666,320.4134 c 41.24,-19.8 85.1467,-2.16 98.0533,39.41333 12.92,41.56 -10.0533,91.32 -51.3066,111.12 -41.24,19.81333 -85.1467,2.17333 -98.0534,-39.4 -12.9066,-41.57333 10.0534,-91.32 51.3067,-111.13333"
         style="fill:#ffffff;fill-opacity:1;fill-rule:nonzero;stroke:none;stroke-width:0.133333" />
      <path
         id="path681"
         d="m 3267.6266,479.6934 c -6.1467,2.93333 -12.3867,5.18666 -18.6933,6.70666 -11.48,-0.16 -22.2534,-3.06666 -31.68,-8.34666 -3.8,-2.06667 -7.3467,-4.56 -10.6534,-7.4 -3.8933,-3.34667 -7.3733,-7.17334 -10.44,-11.46667 -5.3333,-7.46667 -9.32,-16.33333 -11.4533,-26.28 l -0.027,-0.0267 c -0.2533,-1.05333 -0.44,-2.09333 -0.6266,-3.14666 -7.4667,-42.92 20.6666,-88.93333 62.8533,-102.74667 5.7333,-1.88 11.48,-3.05333 17.0667,-3.57333 4.6666,-0.46667 9.24,-0.46667 13.68,-0.0267 5.0666,0.45334 9.9733,1.50667 14.6666,3.02667 9.5734,3.14667 18.16,8.4 25.2667,15.42667 2.5867,4.70666 4.72,9.76 6.3867,15.10666 14.2666,45.92 -11.0267,100.97333 -56.3467,122.74667"
         style="fill:#b2e912;fill-opacity:1;fill-rule:nonzero;stroke:none;stroke-width:0.133333" />
      <path
         id="path682"
         d="m 3267.6266,479.6934 c -6.1467,2.93333 -12.3867,5.18666 -18.6933,6.70666 -11.48,-0.16 -22.2534,-3.06666 -31.68,-8.34666 -3.8,-2.06667 -7.3467,-4.56 -10.6534,-7.4 5.8134,0.0533 11.8267,-0.37334 17.9067,-1.42667 23.2,-3.94667 47.6267,-16.68 65.2533,-43.97333 24.3334,-37.54667 5.56,-75.81333 -5.4933,-92.8 -3.7333,-5.77333 -6.6133,-9.06667 -6.6133,-9.06667 5.0666,0.45334 9.9733,1.50667 14.6666,3.02667 9.5734,3.14667 18.16,8.4 25.2667,15.42667 2.5867,4.70666 4.72,9.76 6.3867,15.10666 14.2666,45.92 -11.0267,100.97333 -56.3467,122.74667"
         style="fill:#8ed014;fill-opacity:1;fill-rule:nonzero;stroke:none;stroke-width:0.133333" />
      <path
         id="path683"
         d="m 3224.5066,469.22673 c -6.4533,-0.46667 -12.72,-2.01333 -18.6133,-4.57333 -3.4534,-1.48 -6.7067,-3.33334 -9.7334,-5.46667 -10.0666,-7.16 -17.56,-17.65333 -21.5466,-30.50667 -11.52,-37.11999 9.2266,-81.77333 46.2533,-99.51999 14.4267,-6.92 29.3733,-8.86667 43.1067,-5.74667 3.4933,0.73333 6.8933,1.85333 10.2,3.30667 3.6133,1.57333 6.9733,3.48 10.0933,5.73333 9.9067,7.13333 17.2667,17.57333 21.2133,30.24 11.52,37.12 -9.2266,81.73333 -46.2533,99.52 -11.52,5.53333 -23.4133,7.88 -34.72,7.01333 z m 99.4667,-112.28 c -1.6667,-5.34666 -3.8,-10.4 -6.3867,-15.10666 -8,-14.78667 -20.2933,-26.21334 -35.6667,-32.88 -9.8266,-4.26667 -20.2933,-6.38667 -30.9466,-6.38667 -12.7867,0 -25.84,3.01333 -38.5067,9.10667 -45.3333,21.77333 -70.6133,76.82666 -56.3467,122.74666 6.8534,22.13333 21.8,39.18667 42.0534,47.98667 9.7866,4.29333 20.2266,6.42666 30.9066,6.42666 6.5867,0 13.2267,-0.81333 19.8534,-2.44 6.3066,-1.52 12.5466,-3.77333 18.6933,-6.70666 45.32,-21.77334 70.6133,-76.82667 56.3467,-122.74667"
         style="fill:#231f20;fill-opacity:1;fill-rule:nonzero;stroke:none;stroke-width:0.133333" />
      <path
         id="path684"
         d="m 3420.3866,263.3734 c -8.12,48.45333 -50.2,84.46667 -93.9867,80.45333 -43.7866,-4 -72.6933,-46.52 -64.5733,-94.95999 8.12,-48.45334 50.2,-84.46667 93.9866,-80.45334 43.7867,4 72.6934,46.52 64.5734,94.96"
         style="fill:#ffffff;fill-opacity:1;fill-rule:nonzero;stroke:none;stroke-width:0.133333" />
      <path
         id="path685"
         d="m 3427.0799,218.0534 c 4.52,14.66667 5.56,30.78667 2.8533,46.93334 -4.24,25.25333 -16.9866,47.46666 -34.44,63.35999 -15.5333,14.14667 -34.7333,23.29334 -54.96,25.10667 -3,-0.28 -5.96,-0.77333 -8.9333,-1.48 -1.9066,-0.46667 -3.76,-0.98667 -5.6133,-1.6 -0.8933,-0.28 -1.8267,-0.62667 -2.6933,-0.96 -0.8,-0.28 -1.5734,-0.58667 -2.3467,-0.93333 -2.4667,-1.01334 -4.84,-2.18667 -7.1333,-3.52 -0.76,-0.42667 -1.5067,-0.85334 -2.2134,-1.32 -2.84,-1.76 -5.5333,-3.73334 -8.0666,-5.89334 -0.56,-0.50666 -1.1067,-1 -1.6667,-1.49333 -0.7467,-0.64 -1.4267,-1.32 -2.0933,-2 -0.6267,-0.58667 -1.2134,-1.21333 -1.8,-1.85333 -0.64,-0.65334 -1.2667,-1.36 -1.8534,-2.06667 -1.2266,-1.42667 -2.44,-2.90667 -3.5466,-4.45333 -0.52,-0.70667 -1.0534,-1.45334 -1.5467,-2.18667 -0.4933,-0.68 -0.92,-1.4 -1.3867,-2.10667 -2.72,-4.32 -5.04,-8.94666 -6.8933,-13.86666 -0.5733,-1.50667 -1.1067,-3.02667 -1.6,-4.6 -0.68,-2.18667 -1.2933,-4.44 -1.7867,-6.73334 -0.2133,-0.98666 -0.44,-2 -0.6266,-2.98666 -0.24,-1.21334 -0.4267,-2.41334 -0.5867,-3.61334 -0.1467,-0.96 -0.2667,-1.94666 -0.36,-2.90666 -0.067,-0.4 -0.093,-0.77334 -0.093,-1.14667 -1.1734,-11.73333 -0.067,-24.17333 3.64,-36.70666 12.0666,-40.86667 47.68,-68.89334 84.1733,-69.02667 5.4666,0 10.9333,0.58667 16.3733,1.89333 5.8933,1.38667 11.4267,3.54667 16.52,6.29334 4.48,2.44 8.6133,5.34666 12.3867,8.68 0.1866,0.14666 0.36,0.30666 0.5466,0.49333 0.28,0.21333 0.56,0.46667 0.8134,0.73333 0.52,0.50667 1.04,1 1.5733,1.52 1.5733,1.54667 3.0533,3.18667 4.44,4.88 0.56,0.61334 1.0533,1.26667 1.5467,1.92 1.2933,1.6 2.4666,3.29334 3.6133,5.05334 0.52,0.84 1.0533,1.66666 1.5467,2.53333 0.4266,0.72 0.8666,1.45333 1.2666,2.2 0.3334,0.58667 0.68,1.2 0.9467,1.81333 v 0.04"
         style="fill:#b2e912;fill-opacity:1;fill-rule:nonzero;stroke:none;stroke-width:0.133333" />
      <path
         id="path686"
         d="m 3427.0799,218.0534 c 4.52,14.66667 5.56,30.78667 2.8533,46.93334 -4.24,25.25333 -16.9866,47.46666 -34.44,63.35999 -15.5333,14.14667 -34.7333,23.29334 -54.96,25.10667 -3,-0.28 -5.96,-0.77333 -8.9333,-1.48 -1.9066,-0.46667 -3.76,-0.98667 -5.6133,-1.6 -0.8933,-0.28 -1.8267,-0.62667 -2.6933,-0.96 -0.8,-0.28 -1.5734,-0.58667 -2.3467,-0.93333 -2.4667,-1.01334 -4.84,-2.18667 -7.1333,-3.52 -0.76,-0.42667 -1.5067,-0.85334 -2.2134,-1.32 -2.84,-1.76 -5.5333,-3.73334 -8.0666,-5.89334 -0.56,-0.50666 -1.1067,-1 -1.6667,-1.49333 -0.7467,-0.64 -1.4267,-1.32 -2.0933,-2 -0.6267,-0.58667 -1.2134,-1.21333 -1.8,-1.85333 -0.64,-0.65334 -1.2667,-1.36 -1.8534,-2.06667 -1.2266,-1.42667 -2.44,-2.90667 -3.5466,-4.45333 -0.52,-0.70667 -1.0534,-1.45334 -1.5467,-2.18667 -0.4933,-0.68 -0.92,-1.4 -1.3867,-2.10667 -2.72,-4.32 -5.04,-8.94666 -6.8933,-13.86666 -0.5733,-1.50667 -1.1067,-3.02667 -1.6,-4.6 -0.68,-2.18667 -1.2933,-4.44 -1.7867,-6.73334 -0.2133,-0.98666 -0.44,-2 -0.6266,-2.98666 -0.24,-1.21334 -0.4267,-2.41334 -0.5867,-3.61334 -0.1467,-0.96 -0.2667,-1.94666 -0.36,-2.90666 -0.067,-0.4 -0.1333,-0.84 -0.16,-1.24 l 0.067,0.0933 c 8.7066,15.97333 17.1066,25.54667 35.5066,29.93333 39,9.25334 81.1867,-18.93333 94.1867,-62.94666 1.5466,-5.18667 2.96,-10.18667 4.1066,-15.06667 2.2267,-9.2 3.52,-17.93333 2.84,-26.28 -0.4,-4.96 -1.5066,-9.78666 -3.5466,-14.50666 l -0.04,-0.0667 c 0.2266,0.18667 0.4,0.37333 0.5866,0.56 0.28,0.21333 0.56,0.46667 0.8134,0.73333 0.52,0.50667 1.04,1 1.5733,1.52 1.5733,1.54667 3.0533,3.18667 4.44,4.88 0.56,0.61334 1.0533,1.26667 1.5467,1.92 1.2933,1.6 2.4666,3.29334 3.6133,5.05334 0.52,0.84 1.0533,1.66666 1.5467,2.53333 0.4266,0.72 0.8666,1.45333 1.2666,2.2 0.3334,0.58667 0.68,1.2 0.9467,1.81333 v 0.04"
         style="fill:#8ed014;fill-opacity:1;fill-rule:nonzero;stroke:none;stroke-width:0.133333" />
      <path
         id="path687"
         d="m 3327.2799,334.18673 c -16.8266,-1.54666 -31.8666,-9.88 -42.3333,-23.44 -0.7733,-0.98666 -1.48,-2 -2.2,-3.02666 -10.7467,-15.70667 -14.88,-36.34667 -11.36,-57.24 6.92,-41.32 41.0667,-72.69333 77.7333,-72.69333 1.9067,0 3.8533,0.0933 5.8,0.26666 3.6133,0.34667 7.16,1 10.5867,1.94667 12.5066,3.42667 23.5333,10.84 31.7466,21.49333 7.8134,10.16 12.6667,22.70667 14.24,36.16 0.92,7.81334 0.7067,15.93334 -0.6533,24.12 -7.28,43.48 -44.8,75.97333 -83.56,72.41333 z m 99.8,-116.13333 v -0.04 c -3.1467,-10.33333 -8.0267,-19.94666 -14.48,-28.34666 -13.8,-17.88 -33.6533,-28.86667 -55.92,-30.90667 -48.6,-4.48 -95.48,35.26667 -104.4,88.50667 -4.64,27.57333 1.6934,54.98666 17.3467,75.30666 13.7733,17.88 33.6267,28.88 55.8933,30.92 2.5067,0.21333 5,0.33333 7.48,0.33333 2.5333,0 5.0267,-0.12 7.5333,-0.37333 20.2267,-1.81333 39.4267,-10.96 54.96,-25.10667 17.4534,-15.89333 30.2,-38.10666 34.44,-63.35999 2.7067,-16.14667 1.6667,-32.26667 -2.8533,-46.93334"
         style="fill:#231f20;fill-opacity:1;fill-rule:nonzero;stroke:none;stroke-width:0.133333" />
    </g>
  </g>
</svg>
