<?xml version="1.0" encoding="UTF-8" standalone="no"?>
<!-- Created with Inkscape (http://www.inkscape.org/) -->

<svg
   width="129.89391mm"
   height="155.5305mm"
   viewBox="0 0 129.89391 155.5305"
   version="1.1"
   id="svg1"
   inkscape:version="1.3 (0e150ed, 2023-07-21)"
   sodipodi:docname="grapes2.svg"
   xmlns:inkscape="http://www.inkscape.org/namespaces/inkscape"
   xmlns:sodipodi="http://sodipodi.sourceforge.net/DTD/sodipodi-0.dtd"
   xmlns="http://www.w3.org/2000/svg"
   xmlns:svg="http://www.w3.org/2000/svg">
  <sodipodi:namedview
     id="namedview1"
     pagecolor="#ffffff"
     bordercolor="#000000"
     borderopacity="0.25"
     inkscape:showpageshadow="2"
     inkscape:pageopacity="0.0"
     inkscape:pagecheckerboard="0"
     inkscape:deskcolor="#d1d1d1"
     inkscape:document-units="mm"
     inkscape:zoom="0.2102413"
     inkscape:cx="244.95663"
     inkscape:cy="294.89924"
     inkscape:window-width="1312"
     inkscape:window-height="449"
     inkscape:window-x="0"
     inkscape:window-y="25"
     inkscape:window-maximized="0"
     inkscape:current-layer="layer1" />
  <defs
     id="defs1" />
  <g
     inkscape:label="Layer 1"
     inkscape:groupmode="layer"
     id="layer1"
     transform="translate(-40.216725,-70.643733)">
    <g
       id="g797"
       transform="matrix(0.26458333,0,0,0.26458333,-1207.0588,-340.47155)">
      <path
         id="path175"
         d="m 4962.5599,1772.9867 c 0.9733,-1.3733 2.16,-3.1467 3.2133,-4.8 1.0667,-1.68 2.12,-3.4133 3.1467,-5.1467 2.0533,-3.4933 4.0266,-7.04 5.88,-10.64 3.7466,-7.2133 7.0666,-14.64 10.0666,-22.1733 5.9867,-15.0667 10.4134,-30.68 13.2667,-46.4533 2.8533,-15.7734 3.9733,-31.7467 3.5067,-47.56 -0.5867,-15.8267 -2.8267,-31.48 -6.6134,-46.72 l 33,-6.6934 c 2.8,17.84 3.76,35.92 2.8134,53.8134 -1.04,17.8933 -3.9067,35.5733 -8.5867,52.6666 -4.68,17.0934 -11.0133,33.6134 -18.8933,49.2667 -3.9467,7.84 -8.2134,15.48 -12.92,22.8667 -2.3467,3.6933 -4.8,7.32 -7.3467,10.9066 -1.2933,1.7867 -2.6,3.5467 -3.9467,5.3067 -1.3733,1.7867 -2.68,3.4267 -4.32,5.3467 l -12.2666,-9.9867"
         style="fill:#231f20;fill-opacity:1;fill-rule:nonzero;stroke:none;stroke-width:0.133333" />
      <path
         id="path176"
         d="m 4920.4799,1601.08 c 0.2,-6.64 5.08,-11.7733 10.8533,-11.5066 h 0.1067 c 3.6133,0.2133 7.24,0.24 10.8666,0.28 7.2667,0.013 14.5467,-0.2534 21.8267,-0.7734 14.5467,-1.0133 29.0267,-3.2 43.3333,-6.24 14.3334,-2.96 28.36,-7.4 42.0267,-12.7733 l 10.1467,-4.3067 c 3.3466,-1.5333 6.5866,-3.3333 9.8666,-4.9733 l 4.8934,-2.5733 c 1.6,-0.9067 3.16,-1.9067 4.7333,-2.88 l 0.093,-0.067 c 5.0667,-3.1733 11.4134,-0.9467 14.0267,4.9867 l 0.3467,0.7866 c 2.76,6.28 0.1866,13.9467 -5.52,16.44 -10.9467,4.7734 -21.8667,9.2 -32.9867,12.8 -3.64,1.3467 -7.36,2.3334 -11.0267,3.48 -3.6933,1.0934 -7.36,2.32 -11.08,3.2134 l -11.1066,2.96 -11.16,2.5466 c -14.88,3.3067 -29.8667,5.8934 -44.9067,7.9734 -7.5333,0.9466 -15.0667,1.92 -22.6533,2.6266 -3.7867,0.4 -7.5867,0.72 -11.4,1.04 l -0.2267,0.013 c -6.1333,0.4933 -11.2933,-5.2534 -11.08,-12.3334 l 0.027,-0.72"
         style="fill:#231f20;fill-opacity:1;fill-rule:nonzero;stroke:none;stroke-width:0.133333" />
      <path
         id="path177"
         d="m 5015.9599,1871.9467 c 9.6533,-48.2667 57.2533,-82.5333 106.32,-76.5467 49.0666,6 81.0133,49.9867 71.3466,98.2667 -9.6533,48.2667 -57.2666,82.5467 -106.32,76.5467 -49.0666,-6 -81.0133,-49.9867 -71.3466,-98.2667"
         style="fill:#ffffff;fill-opacity:1;fill-rule:nonzero;stroke:none;stroke-width:0.133333" />
      <path
         id="path178"
         d="m 5172.4132,1892.8534 c -14.0133,40.5866 -54.44,67.1733 -95.44,65.4666 h -0.04 c -4.72,-0.1866 -9.48,-0.7333 -14.1733,-1.72 -0.12,0 -0.2134,-0.04 -0.3334,-0.067 l -0.04,0.027 c -1.1733,-0.24 -2.3066,-0.52 -3.48,-0.8266 -6.9466,-1.76 -13.44,-4.3334 -19.36,-7.5334 -12.8266,-6.9866 -23.04,-17.1066 -30.0533,-29.16 -5.3067,-15.3466 -6.4267,-32.1066 -3.0267,-49 9.4534,-47.28 52.2534,-82.48 99.6534,-84.8666 3.7066,0.4666 7.44,1.1466 11.12,2.08 12.0666,3.0533 22.6933,8.4933 31.4666,15.68 8.4267,6.8533 15.1867,15.32 20,24.8666 0.9067,1.72 1.7067,3.52 2.44,5.3067 7.5067,17.9067 8.4934,38.9067 1.2667,59.7467"
         style="fill:#a14ff7;fill-opacity:1;fill-rule:nonzero;stroke:none;stroke-width:0.133333" />
      <path
         id="path179"
         d="m 5168.7065,1827.8 c -1.2266,-0.6266 -2.4666,-1.2133 -3.6666,-1.76 -9.9467,-4.5733 -19.3334,-7.4133 -28.0667,-8.9333 -20.6,-3.5467 -42.3467,5.16 -55.1867,21.4933 -13.9333,17.7334 -10.28,40.2134 -8.6133,59.9067 0.4267,5.1867 0.7733,46.5067 -6.68,56.1067 -1.08,1.4266 -2.3067,2.16 -3.7333,1.9866 -0.12,0.027 -0.24,0 -0.3734,-0.04 -1.1733,-0.24 -2.3066,-0.52 -3.48,-0.8266 -6.9466,-1.76 -13.44,-4.3334 -19.36,-7.5334 -12.8266,-6.9866 -23.04,-17.1066 -30.0533,-29.16 -5.3067,-15.3466 -6.4267,-32.1066 -3.0267,-49 9.4534,-47.28 52.2534,-82.48 99.6534,-84.8666 3.7066,0.4666 7.44,1.1466 11.12,2.08 12.0666,3.0533 22.6933,8.4933 31.4666,15.68 8.4267,6.8533 15.1867,15.32 20,24.8666"
         style="fill:#8b40e5;fill-opacity:1;fill-rule:nonzero;stroke:none;stroke-width:0.133333" />
      <path
         id="path180"
         d="m 5184.1199,1891.7734 c -8.64,43.3333 -51.6,74.2133 -95.64,68.84 -3.9467,-0.4934 -7.8134,-1.2667 -11.5067,-2.2934 h -0.04 c -3.6133,-0.9866 -7.0667,-2.2133 -10.44,-3.7066 -11.64,-5.12 -21.64,-13.12 -29.1467,-23.4934 -11.8,-16.3333 -16.0266,-36.6533 -11.8933,-57.2533 8,-40.0533 45.24,-69.4533 85.64,-69.4533 3.3067,0 6.6667,0.1866 10,0.5866 17.2,2.1334 32.4533,9.48 43.9467,21.04 2.1866,2.2134 4.2533,4.56 6.1066,7.0667 0.4134,0.4667 0.7467,0.92 1.08,1.3867 11.8,16.3333 16.0267,36.6533 11.8934,57.28 z m 3.8,-68.64 c -15.0667,-20.8534 -37.9467,-34.0934 -64.4534,-37.3334 -5.8,-0.7066 -11.6,-0.8933 -17.3466,-0.6266 -47.4,2.3866 -90.2,37.5866 -99.6534,84.8666 -3.4,16.8934 -2.28,33.6534 3.0267,49 2.84,8.28 6.92,16.16 12.1733,23.4134 15.0667,20.88 37.9467,34.12 64.4667,37.36 4.08,0.4933 8.1867,0.7466 12.2667,0.7466 49.3733,0 94.92,-35.9733 104.7066,-84.9866 5.2267,-25.9734 -0.1733,-51.6934 -15.1866,-72.44"
         style="fill:#231f20;fill-opacity:1;fill-rule:nonzero;stroke:none;stroke-width:0.133333" />
      <path
         id="path181"
         d="m 4866.8399,1958.9734 c 45.7066,27.3866 61.44,85.12 35.1733,128.96 -26.28,43.84 -84.6133,57.1866 -130.3067,29.8 -45.6933,-27.3734 -61.44,-85.12 -35.16,-128.96 26.2667,-43.84 84.6134,-57.1867 130.2934,-29.8"
         style="fill:#ffffff;fill-opacity:1;fill-rule:nonzero;stroke:none;stroke-width:0.133333" />
      <path
         id="path182"
         d="m 4910.3065,2092.8934 c -2.84,4.7866 -6.0533,9.2666 -9.64,13.44 -11.1733,8.64 -24.1733,14.2933 -37.88,16.8266 -3.24,0.6534 -6.5466,1.08 -9.88,1.3334 -9.7066,0.7733 -19.5866,0.053 -29.28,-2.2 -13.8,-3.2134 -27.2,-9.5067 -39.16,-18.9867 -40.08,-31.84 -48.88,-87.92 -20.68,-127.1067 0.053,-0.1466 0.1867,-0.3066 0.2667,-0.4666 0.7467,-1.0134 1.52,-1.9734 2.2933,-2.96 1.6667,-2.1334 3.4267,-4.1334 5.28,-6.0534 9.08,-9.5066 19.9467,-16.6133 31.7734,-21.1466 14.2666,-5.4934 29.8666,-7.3467 45.36,-5.3734 7.9733,2.56 15.6933,6.0534 23.0666,10.4667 24.24,14.5467 41.6267,37.3067 48.9467,64.08 7.32,26.92 3.6133,54.68 -10.4667,78.1467"
         style="fill:#a14ff7;fill-opacity:1;fill-rule:nonzero;stroke:none;stroke-width:0.133333" />
      <path
         id="path183"
         d="m 4910.3065,2092.8934 c -2.84,4.7866 -6.0533,9.2666 -9.64,13.44 -11.1733,8.64 -24.1733,14.2933 -37.88,16.8266 -3.24,0.6534 -6.5466,1.08 -9.88,1.3334 6.64,-5.4134 12.2267,-10.88 16.8267,-16.3334 2.72,-3.16 5.0933,-6.3066 7.2,-9.4533 12.0667,-18 12.04,-41.7467 0.52,-60 -12.5067,-19.8267 -37.1467,-24.92 -58.12,-30.8133 -6.2933,-1.8 -60.8,-21.5067 -55.5467,-31.6934 0.053,-0.1466 0.1867,-0.3066 0.2667,-0.4666 0.7467,-1.0134 1.52,-1.9734 2.2933,-2.96 1.6667,-2.1334 3.4267,-4.1334 5.28,-6.0534 9.08,-9.5066 19.9467,-16.6133 31.7734,-21.1466 14.2666,-5.4934 29.8666,-7.3467 45.36,-5.3734 7.9733,2.56 15.6933,6.0534 23.0666,10.4667 24.24,14.5467 41.6267,37.3067 48.9467,64.08 7.32,26.92 3.6133,54.68 -10.4667,78.1467"
         style="fill:#8b40e5;fill-opacity:1;fill-rule:nonzero;stroke:none;stroke-width:0.133333" />
      <path
         id="path184"
         d="m 4869.7332,2108.16 c -8.24,5.5867 -17.64,9.6 -27.76,11.9467 -6.0533,1.3867 -12.2,2.0933 -18.3467,2.1867 -16.2666,0.1866 -32.4533,-4.2 -46.9333,-12.88 -19.9467,-11.9467 -34.2133,-30.6 -40.2133,-52.52 -5.96,-21.8 -2.96,-44.2267 8.3733,-63.1467 6.7067,-11.1867 15.84,-20.36 26.7733,-27.0267 7.5334,-4.6666 15.96,-8.0933 24.9467,-10.12 6.4,-1.4533 12.9067,-2.2 19.4,-2.2 15.8933,0 31.7067,4.3867 45.88,12.88 19.9467,11.9467 34.2533,30.6 40.2133,52.56 5.96,21.7734 2.9867,44.1867 -8.3733,63.12 -6.1067,10.2134 -14.2667,18.7334 -23.96,25.2 z m 51.04,-93.4133 c -7.32,-26.7733 -24.7067,-49.5333 -48.9467,-64.08 -7.3733,-4.4133 -15.0933,-7.9067 -23.0666,-10.4667 -18.24,-5.8666 -37.6667,-6.8 -56.5067,-2.48 -27.2,6.2134 -49.9333,22.5867 -64.0133,46.08 -14.08,23.4934 -17.7867,51.2667 -10.44,78.1867 7.2933,26.7733 24.68,49.5333 48.92,64.0533 17.2266,10.3067 36.4666,15.6134 55.8533,15.6134 7.9067,0 15.88,-0.8534 23.72,-2.68 21.68,-4.9467 40.52,-16.3334 54.3733,-32.64 3.5867,-4.1734 6.8,-8.6534 9.64,-13.44 14.08,-23.4667 17.7867,-51.2267 10.4667,-78.1467"
         style="fill:#231f20;fill-opacity:1;fill-rule:nonzero;stroke:none;stroke-width:0.133333" />
      <path
         id="path185"
         d="m 4905.3465,1906.84 c 40.12,-33.0266 99.9067,-30.3866 133.52,5.9067 33.6267,36.2933 28.3467,92.4933 -11.7733,125.5333 -40.1333,33.0267 -99.9067,30.3867 -133.5333,-5.92 -33.6134,-36.2933 -28.3334,-92.4933 11.7866,-125.52"
         style="fill:#ffffff;fill-opacity:1;fill-rule:nonzero;stroke:none;stroke-width:0.133333" />
      <path
         id="path186"
         d="m 5044.7732,1900.8934 c 14.0933,19.9733 17.68,43.76 12.0533,65.9333 -5.44,21.6133 -19.6,41.6667 -41.2266,55.24 -42.8,26.8 -99.1067,18.2533 -127.6267,-18.7333 l -0.04,-0.013 c -0.7333,-0.9466 -1.4267,-1.9066 -2.1333,-2.8933 -27.7867,-39.4 -14.72,-93.6533 29.1733,-121.1467 43.9067,-27.4933 102.0133,-17.8266 129.8,21.6134"
         style="fill:#a14ff7;fill-opacity:1;fill-rule:nonzero;stroke:none;stroke-width:0.133333" />
      <path
         id="path187"
         d="m 5044.7732,1900.8934 c 14.0933,19.9733 17.68,43.76 12.0533,65.9333 -4.8933,-11.84 -10.7466,-21.3733 -17.1466,-29.0267 -13.4,-16.0666 -36,-22.92 -56.9334,-17.88 -22.6933,5.4667 -35.1333,26.0667 -47.2133,43.1467 -3.6933,5.2267 -40.2667,49.64 -47.6,40.2533 -0.7333,-0.9466 -1.4267,-1.9066 -2.1333,-2.8933 -27.7867,-39.4 -14.72,-93.6533 29.1733,-121.1467 43.9067,-27.4933 102.0133,-17.8266 129.8,21.6134"
         style="fill:#8b40e5;fill-opacity:1;fill-rule:nonzero;stroke:none;stroke-width:0.133333" />
      <path
         id="path188"
         d="m 4911.5065,1914.32 c -18.0133,14.8134 -28.7466,35.0267 -30.2266,56.92 -1.36,20.2 5.52,39.5734 19.3866,54.5467 30.1467,32.5467 84.0934,34.7867 120.2667,5.0133 18,-14.8266 28.7333,-35.04 30.2133,-56.92 1.3734,-20.2133 -5.52,-39.5866 -19.3866,-54.5466 -30.1334,-32.5467 -84.0934,-34.8 -120.2534,-5.0134 z m 50.9067,156.68 c -28.4,0 -56.2667,-10.8 -75.96,-32.0533 -17.52,-18.92 -26.2267,-43.44 -24.4933,-69.0133 1.84,-27.2667 15.0666,-52.32 37.2266,-70.5734 43.96,-36.1866 109.8,-33.12 146.7867,6.8 17.5333,18.9334 26.2267,43.44 24.4933,69.0267 -1.84,27.2533 -15.0533,52.32 -37.2266,70.56 -20.5467,16.92 -45.8934,25.2533 -70.8267,25.2533"
         style="fill:#231f20;fill-opacity:1;fill-rule:nonzero;stroke:none;stroke-width:0.133333" />
      <path
         id="path189"
         d="m 4865.3065,1805.1734 c 50.6267,16.5733 78.76,69.3866 62.8534,117.96 -15.9067,48.5733 -69.84,74.5066 -120.4667,57.9333 -50.6267,-16.5867 -78.76,-69.4 -62.8533,-117.9733 15.9066,-48.5734 69.84,-74.5067 120.4666,-57.92"
         style="fill:#ffffff;fill-opacity:1;fill-rule:nonzero;stroke:none;stroke-width:0.133333" />
      <path
         id="path190"
         d="m 4942.4799,1924.7867 c -11.0134,22.9333 -30.8667,38.92 -53.96,46.1067 -22.48,7.04 -48,5.7466 -71.4267,-5.4934 -46.3067,-22.2533 -67.3067,-75.28 -48.16,-119.84 v -0.053 c 0.48,-1.1467 1.0133,-2.2533 1.5467,-3.4 21.72,-45.24 77.8533,-63.4267 125.36,-40.6133 47.5066,22.84 68.3866,78.0133 46.64,123.2933"
         style="fill:#a14ff7;fill-opacity:1;fill-rule:nonzero;stroke:none;stroke-width:0.133333" />
      <path
         id="path191"
         d="m 4942.4799,1924.7867 c -11.0134,22.9333 -30.8667,38.92 -53.96,46.1067 8.2933,-10.6267 13.9866,-20.8267 17.7066,-30.48 7.7867,-20.2267 2.4934,-43.3734 -12.8,-58.6267 -16.5866,-16.5467 -41.72,-16.0667 -63.48,-17.1867 -6.64,-0.3333 -65.8266,-7.6933 -61.0133,-19.0933 0.48,-1.1467 1.0133,-2.2533 1.5467,-3.4 21.72,-45.24 77.8533,-63.4267 125.36,-40.6133 47.5066,22.84 68.3866,78.0133 46.64,123.2933"
         style="fill:#8b40e5;fill-opacity:1;fill-rule:nonzero;stroke:none;stroke-width:0.133333" />
      <path
         id="path192"
         d="m 4834.2132,1809.8667 c -35.8933,0 -68.8667,21.7333 -80.1733,56.24 -14.2267,43.4267 11.2,90.8667 56.6666,105.7467 22.1067,7.2533 45.56,5.8 66.04,-4.0534 20.36,-9.7866 35.3467,-26.72 42.2134,-47.68 6.8666,-20.96 4.8,-43.48 -5.8267,-63.4133 -10.6933,-20.0667 -28.7467,-35.1067 -50.84,-42.3333 v 0 c -9.3333,-3.0534 -18.8,-4.5067 -28.08,-4.5067 z m 4.7333,185.9067 c -11.4666,0 -23.0133,-1.8267 -34.2666,-5.5067 -55.6134,-18.2133 -86.5867,-76.6133 -69.0534,-130.1867 17.5467,-53.5733 77.08,-82.3333 132.6934,-64.12 v 0 c 26.8666,8.8 48.8533,27.1467 61.9066,51.64 13.1334,24.6267 15.6667,52.5334 7.1334,78.5467 -8.52,26.0267 -27.0667,47.0133 -52.2134,59.1067 -14.5466,7 -30.2933,10.52 -46.2,10.52"
         style="fill:#231f20;fill-opacity:1;fill-rule:nonzero;stroke:none;stroke-width:0.133333" />
      <path
         id="path193"
         d="m 4916.0799,1725.4 c 13.4533,51.5467 -15.72,103.8 -65.1734,116.7067 -49.4533,12.92 -100.4533,-18.3867 -113.92,-69.9333 -13.4533,-51.5467 15.72,-103.7867 65.1734,-116.7067 49.4533,-12.92 100.4533,18.4 113.92,69.9333"
         style="fill:#ffffff;fill-opacity:1;fill-rule:nonzero;stroke:none;stroke-width:0.133333" />
      <path
         id="path194"
         d="m 4925.4399,1722.96 c 2.4133,9.2667 3.6133,18.6534 3.6133,27.9734 0,18.16 -4.5733,36.0133 -13.52,52.0266 -13.1867,23.6934 -34.44,40.6134 -59.9467,47.8667 -3.2666,0.2533 -6.52,0.3067 -9.72,0.1867 -0.8666,-0.027 -1.7066,-0.053 -2.5733,-0.12 -2.44,-0.1867 -4.84,-0.44 -7.2267,-0.8 -1.2933,-0.1867 -2.56,-0.4 -3.7866,-0.6534 -1.36,-0.24 -2.6934,-0.56 -4.0134,-0.8666 l -0.067,-0.027 c -1.24,-0.3067 -2.44,-0.6133 -3.64,-0.9867 -0.2534,-0.067 -0.5067,-0.16 -0.72,-0.2133 -0.92,-0.28 -1.8534,-0.56 -2.7467,-0.8667 -2.2533,-0.7733 -4.44,-1.6133 -6.6,-2.5733 h -0.04 c -1.9067,-0.8 -3.8,-1.6933 -5.6533,-2.6533 -1.08,-0.52 -2.16,-1.1067 -3.2,-1.6934 -2.7867,-1.6133 -5.5067,-3.3066 -8.0934,-5.1866 -0.6533,-0.4667 -1.2933,-0.9334 -1.92,-1.3867 -2.5333,-1.8933 -4.9333,-3.8933 -7.2533,-6.0533 -0.9333,-0.8667 -1.8533,-1.7334 -2.72,-2.6267 -0.9867,-0.9867 -1.9467,-1.9733 -2.9067,-3.0267 l -0.053,-0.067 -0.04,-0.027 c -2.7733,-3.0533 -5.4,-6.2933 -7.7733,-9.7333 -0.84,-1.1734 -1.6134,-2.3467 -2.3867,-3.52 -0.6133,-0.9467 -1.2,-1.9467 -1.76,-2.9334 -6.64,-11.2666 -11.1733,-24.1466 -12.9067,-38.0666 -6.1733,-49.5334 25.0134,-94.7067 70.72,-104.6 2.5334,-0.5467 5.0934,-0.9867 7.72,-1.32 10.0934,-1.2667 20.0134,-0.7467 29.4534,1.3866 3,0.6134 5.96,1.4267 8.84,2.4134 0.4266,0.12 0.8266,0.24 1.24,0.4 1.2933,0.4533 2.5866,0.92 3.8533,1.4533 1.2933,0.4933 2.5333,1.04 3.8,1.6 l 0.1467,0.067 c 1.2133,0.5866 2.3866,1.1333 3.56,1.76 1.2266,0.6133 2.44,1.2666 3.6133,1.9466 1.0133,0.5867 2,1.1734 2.9867,1.7867 0.44,0.24 0.8666,0.52 1.2666,0.8 2.08,1.3333 4.08,2.7467 6.0267,4.2667 l 0.067,0.027 c 1.08,0.84 2.16,1.6667 3.2,2.56 0.2266,0.1867 0.4666,0.3734 0.68,0.5867 9.52,11.8 16.5333,25.6933 20.48,40.8933"
         style="fill:#a14ff7;fill-opacity:1;fill-rule:nonzero;stroke:none;stroke-width:0.133333" />
      <path
         id="path195"
         d="m 4925.4399,1722.96 c 2.4133,9.2667 3.6133,18.6534 3.6133,27.9734 0,18.16 -4.5733,36.0133 -13.52,52.0266 -13.1867,23.6934 -34.44,40.6134 -59.9467,47.8667 -3.2666,0.2533 -6.52,0.3067 -9.72,0.1867 -0.8666,-0.027 -1.7066,-0.053 -2.5733,-0.12 -2.44,-0.1867 -4.84,-0.44 -7.2267,-0.8 -1.2933,-0.1867 -2.56,-0.4 -3.7866,-0.6534 -1.36,-0.24 -2.6934,-0.56 -4.0134,-0.8666 l -0.067,-0.027 c -1.24,-0.3067 -2.44,-0.6133 -3.64,-0.9867 -0.2534,-0.067 -0.5067,-0.16 -0.72,-0.2133 -0.92,-0.28 -1.8534,-0.56 -2.7467,-0.8667 -2.2533,-0.7733 -4.44,-1.6133 -6.6,-2.5733 h -0.04 c -1.9067,-0.8 -3.8,-1.6933 -5.6533,-2.6533 -1.08,-0.52 -2.16,-1.1067 -3.2,-1.6934 -2.7867,-1.6133 -5.5067,-3.3066 -8.0934,-5.1866 -0.6533,-0.4667 -1.2933,-0.9334 -1.92,-1.3867 -2.5333,-1.8933 -4.9333,-3.8933 -7.2533,-6.0533 -0.9333,-0.8667 -1.8533,-1.7334 -2.72,-2.6267 -0.9867,-0.9867 -1.9467,-1.9733 -2.9067,-3.0267 l -0.053,-0.067 -0.04,-0.027 c -2.8,-3.0533 -5.4267,-6.2933 -7.7733,-9.7333 -0.84,-1.1734 -1.6134,-2.3467 -2.3867,-3.52 -0.64,-0.9867 -1.2533,-1.9734 -1.84,-2.9867 l 0.08,0.053 c 16.84,12.6 30.3867,18.9334 52.4133,16.1867 46.6534,-5.8 79.5467,-50.24 73.4267,-99.2533 -1.08,-8.5867 -2.2267,-16.7067 -4.04,-24.2934 -2.2533,-9.36 -5.5333,-17.8533 -11.0267,-25.2 -1.9733,-2.6933 -4.2933,-5.2533 -6.9466,-7.6266 l -0.067,-0.067 c 0.44,0.16 0.8667,0.28 1.3067,0.4667 1.2933,0.4533 2.5866,0.92 3.8533,1.4533 1.2933,0.4933 2.5333,1.04 3.8,1.6 l 0.1467,0.067 c 1.2133,0.5866 2.3866,1.1333 3.56,1.76 1.2266,0.6133 2.44,1.2666 3.6133,1.9466 1.0133,0.5867 2,1.1734 2.9867,1.7867 0.44,0.24 0.8666,0.52 1.2666,0.8 2.08,1.3333 4.08,2.72 6.0267,4.2667 l 0.067,0.027 c 1.08,0.84 2.16,1.6667 3.2,2.56 0.1866,0.1334 0.4133,0.3067 0.6,0.4667 0.8533,0.7467 1.6933,1.48 2.52,2.2533 -0.8,-0.7066 -1.6,-1.4533 -2.44,-2.1333 9.52,11.8 16.5333,25.6933 20.48,40.8933"
         style="fill:#8b40e5;fill-opacity:1;fill-rule:nonzero;stroke:none;stroke-width:0.133333" />
      <path
         id="path196"
         d="m 4927.8132,1710.8534 c 1.2667,2.4133 2.44,4.88 3.4667,7.4133 -1.0534,-2.5333 -2.2267,-5 -3.4667,-7.4133"
         style="fill:#8b40e5;fill-opacity:1;fill-rule:nonzero;stroke:none;stroke-width:0.133333" />
      <path
         id="path197"
         d="m 4848.4532,1832.7334 c -21.3333,5.5866 -43.6933,2.1333 -62.9333,-9.6667 -0.96,-0.5867 -1.9067,-1.2 -2.8667,-1.8533 l -0.04,-0.027 c -17.88,-11.92 -30.6933,-30.1067 -36.2533,-51.4533 -5.8667,-22.5067 -2.9867,-45.8134 8.0666,-65.68 11.0267,-19.7334 28.84,-33.6534 50.1734,-39.2134 6.68,-1.76 13.44,-2.6 20.2,-2.6 1.24,0 2.4666,0.04 3.7066,0.093 13.56,0.6266 26.9334,4.7333 39.0267,12.1733 9.7067,5.96 18.04,13.68 24.6533,22.6933 0.093,0.16 0.2134,0.28 0.3067,0.44 6.48,8.9467 11.2933,19.1734 14.2,30.2267 5.9067,22.48 3.0267,45.8 -8.0533,65.6533 -11.0267,19.7334 -28.8534,33.6534 -50.1867,39.2134 z m 76.9867,-109.7734 c -3.9467,-15.2 -10.96,-29.0933 -20.48,-40.8933 l -0.08,-0.12 c -7.5734,-9.4133 -16.7467,-17.5067 -27.2134,-23.9333 -23.7733,-14.6 -51.48,-18.84 -77.9466,-11.92 -26.4934,6.92 -48.6,24.1466 -62.1867,48.52 -13.52,24.24 -17.04,52.64 -9.9067,80 7.1334,27.36 24.1067,50.4266 47.76,64.9466 16.3067,10.04 34.4667,15.16 52.84,15.16 8.3734,0 16.8,-1.08 25.1067,-3.24 0.7467,-0.1866 1.52,-0.4 2.2533,-0.6533 25.5067,-7.2533 46.76,-24.1733 59.9467,-47.8667 8.9467,-16.0133 13.52,-33.8666 13.52,-52.0266 0,-9.32 -1.2,-18.7067 -3.6133,-27.9734"
         style="fill:#231f20;fill-opacity:1;fill-rule:nonzero;stroke:none;stroke-width:0.133333" />
      <path
         id="path198"
         d="m 5059.5465,1775.0134 c 13.4667,51.5466 -15.7066,103.8 -65.16,116.7066 -49.4533,12.92 -100.4533,-18.4 -113.92,-69.9333 -13.4666,-51.5467 15.72,-103.8 65.1734,-116.7067 49.4533,-12.92 100.4533,18.4 113.9066,69.9334"
         style="fill:#ffffff;fill-opacity:1;fill-rule:nonzero;stroke:none;stroke-width:0.133333" />
      <path
         id="path199"
         d="m 5072.5465,1800.56 c 0,18.16 -4.56,36 -13.52,52.0267 -13.2133,23.6267 -34.3733,40.5467 -59.7866,47.8 -3.36,0.28 -6.6934,0.3467 -9.9734,0.2267 -0.8,-0.04 -1.6,-0.067 -2.4133,-0.1334 -1.1333,-0.053 -2.3067,-0.1466 -3.4533,-0.2666 -1.2,-0.1334 -2.3734,-0.28 -3.5467,-0.4667 -1.3867,-0.1867 -2.7467,-0.44 -4.1067,-0.7067 -2.72,-0.5333 -5.4133,-1.1733 -8.0666,-1.9866 -1.32,-0.4 -2.6267,-0.8 -3.92,-1.2667 -1.2934,-0.4533 -2.5867,-0.92 -3.8534,-1.4533 -0.6533,-0.24 -1.3333,-0.52 -1.9866,-0.8267 l -0.1867,-0.067 c -0.24,-0.093 -0.4533,-0.1866 -0.7067,-0.3066 -0.4933,-0.2134 -0.96,-0.4267 -1.4533,-0.68 -1.04,-0.4534 -2.12,-0.9867 -3.1733,-1.5467 -1.24,-0.6133 -2.44,-1.2533 -3.6134,-1.9333 -1.2,-0.68 -2.3733,-1.4 -3.56,-2.1334 -1.1333,-0.7466 -2.3066,-1.48 -3.4266,-2.2933 -1.1334,-0.7733 -2.2534,-1.6 -3.3334,-2.44 -2.1866,-1.6667 -4.32,-3.4533 -6.36,-5.3067 -0.9866,-0.8933 -1.9066,-1.7866 -2.8666,-2.72 -0.1867,-0.1466 -0.3467,-0.3333 -0.5334,-0.52 -0.8533,-0.8933 -1.76,-1.8266 -2.5866,-2.7866 -1.8267,-1.9734 -3.5867,-4.04 -5.2534,-6.2 -0.9866,-1.2667 -1.9466,-2.56 -2.8133,-3.8934 -1.3467,-1.9733 -2.6533,-3.9866 -3.8533,-6.0533 -6.64,-11.2667 -11.1734,-24.1467 -12.9067,-38.0667 -6.1733,-49.5333 24.9867,-94.72 70.68,-104.6266 2.5333,-0.56 5.0933,-0.9867 7.72,-1.3334 10.04,-1.2666 19.9467,-0.7333 29.3733,1.36 2.9867,0.6267 5.96,1.4534 8.8534,2.4134 l 0.04,0.027 c 0.1466,0.04 0.3066,0.093 0.4533,0.16 0.56,0.1467 1.0933,0.3734 1.64,0.5467 0.7067,0.2533 1.4267,0.5067 2.1067,0.8133 3.1466,1.2 6.2266,2.5867 9.2,4.16 0.7333,0.3734 1.48,0.7734 2.1866,1.2134 0.8667,0.4533 1.7334,0.9866 2.6,1.5066 0.7734,0.4667 1.5467,0.96 2.3067,1.4534 1.8267,1.1466 3.6133,2.4133 5.3867,3.7333 0.64,0.4667 1.2533,0.96 1.88,1.4533 0.96,0.7467 1.88,1.48 2.7733,2.28 l 0.04,0.04 c 9.44,11.8 16.4267,25.6534 20.3733,40.8267 2.44,9.2533 3.64,18.64 3.64,27.9733"
         style="fill:#a14ff7;fill-opacity:1;fill-rule:nonzero;stroke:none;stroke-width:0.133333" />
      <path
         id="path200"
         d="m 5068.9065,1772.5867 c 2.44,9.2533 3.64,18.64 3.64,27.9733 0,18.16 -4.56,36 -13.52,52.0267 -13.2133,23.6267 -34.3733,40.5467 -59.7866,47.8 -3.36,0.28 -6.6934,0.3467 -9.9734,0.2267 -0.8,-0.04 -1.6,-0.067 -2.4133,-0.1334 -1.1333,-0.053 -2.3067,-0.1466 -3.4533,-0.2666 -1.2,-0.1334 -2.3734,-0.28 -3.5467,-0.4667 -1.3867,-0.1867 -2.7467,-0.44 -4.1067,-0.7067 -2.72,-0.5333 -5.4133,-1.1733 -8.0666,-1.9866 -1.32,-0.4 -2.6267,-0.8 -3.92,-1.2667 -1.2934,-0.4533 -2.5867,-0.92 -3.8534,-1.4533 -0.6533,-0.24 -1.3333,-0.52 -1.9866,-0.8267 h -0.053 l -0.1333,-0.067 c -0.24,-0.093 -0.4533,-0.1866 -0.7067,-0.3066 -0.4933,-0.2134 -0.96,-0.4267 -1.4533,-0.68 -1.04,-0.4534 -2.12,-0.9867 -3.1733,-1.5467 -1.24,-0.6133 -2.44,-1.2533 -3.6134,-1.9333 -1.2,-0.68 -2.3733,-1.4 -3.56,-2.1334 -1.1333,-0.7466 -2.3066,-1.48 -3.4266,-2.2933 -1.1334,-0.7733 -2.2534,-1.6 -3.3334,-2.44 -2.1866,-1.6267 -4.32,-3.4267 -6.36,-5.3067 -0.9866,-0.8933 -1.9066,-1.7866 -2.8666,-2.72 -0.1867,-0.1466 -0.3467,-0.3333 -0.5334,-0.52 -0.92,-0.9333 -1.8133,-1.8533 -2.7066,-2.84 -1.8,-1.9466 -3.4934,-4.0133 -5.1334,-6.1466 -0.9866,-1.2667 -1.9466,-2.56 -2.8133,-3.8934 -1.4133,-1.9733 -2.7067,-4.0133 -3.9467,-6.12 l 0.093,0.067 c 16.8,12.6 37.9466,18.9333 59.9733,16.1867 46.68,-5.84 79.5467,-50.28 73.4533,-99.28 -0.1466,-1.2667 -0.3333,-2.5334 -0.5866,-3.8 -2.7734,-16.8934 -10,-32.0267 -20.1867,-44.16 -2.7467,-3.2667 -5.72,-6.36 -8.8933,-9.1734 0.1466,0.04 0.3066,0.093 0.4533,0.16 0.56,0.1467 1.0933,0.3734 1.64,0.5467 0.7067,0.2533 1.4267,0.5067 2.1067,0.8133 3.1466,1.2 6.2266,2.5867 9.2,4.16 0.7333,0.3734 1.48,0.7734 2.1866,1.2134 0.8667,0.4533 1.7334,0.9866 2.6,1.5066 0.7734,0.4667 1.5467,0.96 2.3067,1.4534 1.8533,1.1733 3.6533,2.44 5.3867,3.7333 0.64,0.4667 1.2533,0.96 1.88,1.4533 0.96,0.7467 1.88,1.48 2.7733,2.28 l 0.04,0.04 c 9.44,11.8 16.4267,25.6534 20.3733,40.8267"
         style="fill:#8b40e5;fill-opacity:1;fill-rule:nonzero;stroke:none;stroke-width:0.133333" />
      <path
         id="path201"
         d="m 4991.9199,1882.36 c -23.1867,6.0534 -46.84,1.1467 -65.8,-11.5866 l -0.12,-0.053 c -17.1067,-11.5466 -30.4267,-29.4666 -36.16,-51.3866 -12.08,-46.2934 14.04,-93.3467 58.24,-104.8934 6.6666,-1.7333 13.4533,-2.6 20.1866,-2.6 1.24,0 2.48,0.027 3.7067,0.093 13.56,0.6133 26.9333,4.76 39.0667,12.2 9.6666,5.96 18,13.64 24.6133,22.6933 4.6533,6.36 8.52,13.3733 11.3867,20.9067 1.24,3.1466 2.2933,6.3866 3.16,9.72 5.8666,22.52 2.9866,45.8266 -8.0934,65.6933 -11.0266,19.6933 -28.84,33.6267 -50.1866,39.2133 z m 76.9866,-109.7733 c -3.9466,-15.1733 -10.9333,-29.0267 -20.3733,-40.8267 l -0.04,-0.04 c -7.6,-9.48 -16.8,-17.6266 -27.32,-24.1066 -23.8133,-14.5734 -51.48,-18.84 -77.9733,-11.8934 -54.5334,14.24 -86.9067,71.8934 -72.1067,128.52 12.5333,47.9867 54.96,80.08 100.7867,80.08 8.28,0 16.6133,-1.0533 24.96,-3.2133 0.8,-0.2133 1.6,-0.44 2.4,-0.72 25.4133,-7.2533 46.5733,-24.1733 59.7866,-47.8 8.96,-16.0267 13.52,-33.8667 13.52,-52.0267 0,-9.3333 -1.2,-18.72 -3.64,-27.9733"
         style="fill:#231f20;fill-opacity:1;fill-rule:nonzero;stroke:none;stroke-width:0.133333" />
      <path
         id="path202"
         d="m 5191.7332,1758.8267 c -12.2933,-8.0267 -40.1867,-22.9733 -40.1867,-22.9733 30.4134,43.24 -2.92,143.0933 -2.92,143.0933 -117.72,-44.0667 -107.3066,-94.7733 -107.3066,-94.7733 -20.68,19.44 -21.84,42.4 -21.84,42.4 -65.3334,-88.2534 -13.7467,-145.0667 -13.7467,-145.0667 -20.7467,8.16 -40.7067,26.7867 -40.7067,26.7867 -1.32,-16.24 21.0134,-66.4534 56.9467,-70.88 h 4.8667 c 31.6933,-33.6134 94.5066,-3.76 94.5066,-3.76 -18.5066,1.3733 -30.6666,14.9333 -30.6666,14.9333 97.64,16.08 101.0533,110.24 101.0533,110.24"
         style="fill:#ffffff;fill-opacity:1;fill-rule:nonzero;stroke:none;stroke-width:0.133333" />
      <path
         id="path203"
         d="m 5201.4132,1758.4667 c 0.067,1.3867 -0.1867,2.72 -0.7067,3.9867 -3.4933,-3.0534 -6.76,-7.0667 -9.7333,-11.2134 l -0.027,-0.027 v -0.027 c -5.8933,-8.3733 -10.0933,-16.9867 -10.5066,-17.8 2.4133,7.32 4.1733,14.5867 5.3866,21.7467 0.7067,4.1333 1.2267,8.24 1.5734,12.32 -0.3467,-0.12 -0.6534,-0.3067 -0.96,-0.52 -3.96,-2.6 -9.6934,-5.96 -15.56,-9.3334 11.24,50.4667 -11.8934,120.8667 -13.0667,124.4134 -0.16,0.4666 -0.3467,0.9333 -0.6133,1.36 -4.1734,-1.9067 -8.1334,-3.8267 -11.92,-5.7067 l -0.093,-0.067 c -25.9733,-13.12 -43.7333,-26.4 -55.8,-38.88 l -0.04,-0.027 c -34.5866,-35.8134 -22.32,-65.0667 -22.32,-65.0667 -7.1066,5.7733 -12.2,12.04 -15.88,17.92 -2.8933,4.6533 -4.8666,9.04 -6.2266,12.68 -2.2267,6.0533 -2.72,10.1333 -2.72,10.1333 -4.1067,-6.48 -7.6667,-12.7866 -10.72,-18.8666 -1.6934,-3.36 -3.24,-6.6667 -4.6,-9.9067 -32.12,-74.8267 12.0133,-116.92 12.0133,-116.92 -11,-1.5067 -21.8933,0.44 -31.1333,3.3733 -14.8134,4.7467 -25.3734,12.1334 -25.3734,12.1334 0,-0.44 0.027,-0.8934 0.093,-1.36 l 0.027,-0.16 c 1.3867,-11.4534 19.1067,-32.24 41.2267,-45.24 2.4,-1.4134 4.88,-2.7467 7.3733,-3.9734 l 0.067,-0.04 c 8.8,-4.2533 18.0667,-7.0933 27.08,-7.56 l 4.8533,0.3734 c 2.4667,-1.8267 4.9334,-3.4 7.3734,-4.76 h 0.067 c 7.6934,-4.2934 15.2267,-6.4267 22.5067,-7.0667 17.7867,3.6667 31.2267,9.9333 32.4533,10.52 3.96,1.8933 6.1467,6.2133 5.3467,10.5333 -0.3467,1.8267 -1.2,3.4667 -2.3733,4.76 -1.8267,0.96 -2.5067,1.7334 -2.5067,1.7334 l 0.28,0.053 c -1.24,0.7467 -2.6933,1.2 -4.2,1.3333 -2.4133,0.1867 -4.72,0.6134 -6.88,1.2667 82.0667,27.0133 86.2133,112.96 86.24,113.88"
         style="fill:#50c42b;fill-opacity:1;fill-rule:nonzero;stroke:none;stroke-width:0.133333" />
      <path
         id="path204"
         d="m 5142.4399,1866.1467 c -22.92,-9.2 -40.1467,-18.5333 -53.0534,-27.4267 l -0.04,-0.027 c -29.7333,-20.44 -36.6533,-38.5067 -38.2,-47.1467 -0.5866,-3.44 -0.3333,-5.3733 -0.3333,-5.44 0.8267,-4.1333 -1.08,-8.3333 -4.7867,-10.4133 -1.48,-0.8 -3.0933,-1.2 -4.6933,-1.2 -2.4133,0 -4.8133,0.8933 -6.64,2.6266 -2.96,2.7734 -5.56,5.6134 -7.8133,8.4667 -5.04,6.1733 -8.5467,12.4133 -11.0534,18.0933 -41.9333,-70.32 -4.64,-113.76 -2.9333,-115.68 3.0267,-3.3066 3.36,-8.3066 0.8,-12.0133 -1.4533,-2.0933 -3.5867,-3.4533 -5.9333,-3.9467 -1.7867,-0.3733 -3.7334,-0.2533 -5.5867,0.4534 -6.88,2.72 -13.64,6.4533 -19.6933,10.32 l -0.093,0.067 0.12,-0.2266 c 8.0534,-15.8 22.0534,-33 40.08,-35.5734 h 4.2667 c 2.6533,0 5.2133,-1.08 7.04,-3.0266 15.1867,-16.12 40.2667,-14.36 58.9467,-9.88 -5.7467,3.9866 -9.08,7.6266 -9.36,7.9333 -2.3734,2.6267 -3.12,6.3333 -1.9467,9.6667 1.1733,3.3733 4.08,5.7733 7.5733,6.36 62.96,10.3866 83.3067,55.44 89.8534,81.8133 -11.1467,-6.3733 -22.1067,-12.24 -22.8534,-12.64 -3.9466,-2.0933 -8.8266,-1.2267 -11.8266,2.1333 -2.96,3.3734 -3.24,8.3067 -0.64,11.9867 20.2533,28.8 7.9333,92.6933 -1.2,124.72 z m -27.2667,-221.56 c 2.16,-0.6533 4.4667,-1.08 6.88,-1.2667 1.5067,-0.1333 2.96,-0.5866 4.2,-1.3333 0.8267,-0.4933 1.5733,-1.08 2.2267,-1.7867 1.1733,-1.2933 2.0266,-2.9333 2.3733,-4.76 0.8,-4.32 -1.3867,-8.64 -5.3467,-10.5333 -1.2266,-0.5867 -14.6666,-6.8533 -32.4533,-10.52 -21.7333,-4.5067 -49.96,-5.1333 -70.16,13.3333 h -0.92 c -0.4,0 -0.8,0.027 -1.1733,0.067 -41.2,5.0933 -67.1734,59.6533 -65.4134,81.3067 0.28,3.6666 2.6934,6.88 6.1467,8.24 3.4667,1.3333 7.3867,0.5866 10.1067,-1.9734 0.093,-0.067 3.9733,-3.68 9.9333,-8.28 -1.1333,3.7467 -2.1867,7.76 -2.9867,12.08 -4.6666,24.92 -2.72,64.7867 33.1334,113.1734 2.4,3.28 6.6133,4.6666 10.4933,3.4933 3.92,-1.1467 6.68,-4.64 6.9467,-8.7067 0.04,-0.5333 0.68,-9.4266 6.5866,-20.1733 8.8,21.3733 34.8267,53.12 109.4934,81.0667 1.08,0.4 2.2266,0.6133 3.4,0.6133 1.4266,0 2.84,-0.3067 4.1733,-0.96 1.9067,-0.8933 3.4533,-2.44 4.3867,-4.2933 0.2666,-0.4267 0.4533,-0.8934 0.6133,-1.36 1.1733,-3.5467 24.3067,-73.9467 13.0667,-124.4134 5.8666,3.3734 11.6,6.7334 15.56,9.3334 0.3066,0.2133 0.6133,0.4 0.96,0.52 2.8666,1.4533 6.2666,1.3866 9.1066,-0.2134 1.9467,-1.08 3.4,-2.8133 4.2,-4.7866 0.52,-1.2667 0.7734,-2.6 0.7067,-3.9867 -0.027,-0.92 -4.1733,-86.8667 -86.24,-113.88"
         style="fill:#231f20;fill-opacity:1;fill-rule:nonzero;stroke:none;stroke-width:0.133333" />
    </g>
  </g>
</svg>
