<?xml version="1.0" encoding="UTF-8" standalone="no"?>
<!-- Created with Inkscape (http://www.inkscape.org/) -->

<svg
   width="124.93971mm"
   height="140.81477mm"
   viewBox="0 0 124.93971 140.81477"
   version="1.1"
   id="svg1"
   inkscape:version="1.3 (0e150ed, 2023-07-21)"
   sodipodi:docname="kiwi.svg"
   xmlns:inkscape="http://www.inkscape.org/namespaces/inkscape"
   xmlns:sodipodi="http://sodipodi.sourceforge.net/DTD/sodipodi-0.dtd"
   xmlns="http://www.w3.org/2000/svg"
   xmlns:svg="http://www.w3.org/2000/svg">
  <sodipodi:namedview
     id="namedview1"
     pagecolor="#ffffff"
     bordercolor="#000000"
     borderopacity="0.25"
     inkscape:showpageshadow="2"
     inkscape:pageopacity="0.0"
     inkscape:pagecheckerboard="0"
     inkscape:deskcolor="#d1d1d1"
     inkscape:document-units="mm"
     inkscape:zoom="0.2102413"
     inkscape:cx="235.44375"
     inkscape:cy="266.3606"
     inkscape:window-width="1312"
     inkscape:window-height="449"
     inkscape:window-x="0"
     inkscape:window-y="25"
     inkscape:window-maximized="0"
     inkscape:current-layer="layer1" />
  <defs
     id="defs1" />
  <g
     inkscape:label="Layer 1"
     inkscape:groupmode="layer"
     id="layer1"
     transform="translate(-42.597909,-78.052082)">
    <g
       id="g797"
       transform="matrix(0.26458333,0,0,0.26458333,-598.47689,45.547126)">
      <path
         id="path688"
         d="m 2884.5999,388.9734 c 0,141.13333 -98.48,255.53333 -219.9733,255.53333 -69.2,0 -130.9333,-37.12 -171.1867,-95.13334 -30.52,-43.82666 -48.7866,-99.63999 -48.7866,-160.39999 0,-141.13333 98.4933,-255.56 219.9733,-255.56 25.5733,0 50.1067,5.08 72.9333,14.4 85.6534,34.92 147.04,129.73333 147.04,241.16"
         style="fill:#b0822a;fill-opacity:1;fill-rule:nonzero;stroke:none;stroke-width:0.133333" />
      <path
         id="path689"
         d="m 2858.6133,388.9734 c 0,124.46666 -86.8534,228.37333 -193.9867,228.37333 -107.1333,0 -193.9867,-103.90667 -193.9867,-228.37333 0,-124.46666 86.8534,-228.38666 193.9867,-228.38666 107.1333,0 193.9867,103.92 193.9867,228.38666"
         style="fill:#99c943;fill-opacity:1;fill-rule:nonzero;stroke:none;stroke-width:0.133333" />
      <path
         id="path690"
         d="m 2659.0533,633.94673 c -45.2534,0 -88.52,-15.82667 -125.1334,-45.76 -11.12,-9.09334 -21.3466,-19.29334 -30.6133,-30.42667 23.8267,19.04 51.12,32.46667 80.5067,38.62667 24.6,13.44 51.9733,20.96 80.8133,20.96 107.1333,0 193.9867,-103.90667 193.9867,-228.37333 0,-62.61333 -21.96,-120.01333 -57.44,-161.61333 -9.08,-18 -20.0534,-34.6 -32.6,-49.34667 36.1066,24.32 65.8133,60.65334 84.64,105.62667 13.8266,33.01333 20.8266,68.45333 20.8266,105.33333 0,127.65333 -87.4266,234.95999 -199.0666,244.27999 -5.2134,0.45334 -10.5734,0.69334 -15.92,0.69334"
         style="fill:#9e7526;fill-opacity:1;fill-rule:nonzero;stroke:none;stroke-width:0.133333" />
      <path
         id="path691"
         d="m 2664.6266,617.34673 c -28.84,0 -56.2133,-7.52 -80.8133,-20.96 11.8666,2.48 24.08,3.78666 36.5333,3.78666 116.0933,0 210.1733,-112.58666 210.1733,-247.41332 0,-45.49334 -10.7066,-88.44 -29.3466,-125.4 35.48,41.6 57.44,99 57.44,161.61333 0,124.46666 -86.8534,228.37333 -193.9867,228.37333"
         style="fill:#89b53c;fill-opacity:1;fill-rule:nonzero;stroke:none;stroke-width:0.133333" />
      <path
         id="path692"
         d="m 2672.8666,643.78673 c -5.5467,0.48 -11.16,0.72 -16.84,0.72 -124.56,0 -225.52,-114.4 -225.52,-255.53333 0,-141.13333 100.96,-255.56 225.52,-255.56 2.96,0 5.92,0.0667 8.84,0.21334 -9.9867,1.38666 -220.1733,33.72 -209.3467,280.46666 0,0 12.9467,207.31999 217.3467,229.69333"
         style="fill:#ffffff;fill-opacity:1;fill-rule:nonzero;stroke:none;stroke-width:0.133333" />
      <path
         id="path693"
         d="m 2659.0533,143.98674 c -118.5334,0 -214.9734,109.90666 -214.9734,244.98666 0,78.74666 33.5867,153.21333 89.84,199.21333 36.6134,29.93333 79.88,45.76 125.1334,45.76 5.3466,0 10.7066,-0.24 15.92,-0.69334 111.64,-9.32 199.0666,-116.62666 199.0666,-244.27999 0,-36.88 -7,-72.32 -20.8266,-105.33333 -34.5067,-82.44 -105.5867,-135.85333 -185.52,-139.44 l -0.3467,-0.0267 c -2.5467,-0.12 -5.2667,-0.18666 -8.2933,-0.18666 m 0,511.07999 c -50.1734,0 -98.0667,-17.46667 -138.5067,-50.52 -61.1067,-49.97334 -97.5867,-130.56 -97.5867,-215.57333 0,-146.73333 105.9067,-266.11999 236.0934,-266.11999 3.3333,0 6.36,0.0667 9.24,0.21333 l 0.093,0.0133 c 88.28,3.85334 166.5733,62.26667 204.32,152.4 14.9067,35.61333 22.4667,73.78666 22.4667,113.49333 0,67.37333 -22.3867,131.65333 -63.0134,180.98666 -40.7066,49.42667 -95.8933,79.37333 -155.3866,84.34667 -5.7867,0.50666 -11.76,0.76 -17.72,0.76"
         style="fill:#231f20;fill-opacity:1;fill-rule:nonzero;stroke:none;stroke-width:0.133333" />
      <path
         id="path694"
         d="m 2670.5599,265.2134 c 0,24.45333 -4.96,44.26667 -11.0666,44.26667 -6.12,0 -11.0667,-19.81334 -11.0667,-44.26667 0,-24.44 4.9467,-44.26666 11.0667,-44.26666 6.1066,0 11.0666,19.82666 11.0666,44.26666"
         style="fill:#80af22;fill-opacity:1;fill-rule:nonzero;stroke:none;stroke-width:0.133333" />
      <path
         id="path695"
         d="m 2700.3199,272.0534 c -6.1066,23.68 -15.8533,41.62667 -21.7733,40.10667 -5.9067,-1.53334 -5.76,-21.96 0.3467,-45.62667 6.1066,-23.68 15.8533,-41.62666 21.7733,-40.10666 5.9067,1.53333 5.76,21.96 -0.3467,45.62666"
         style="fill:#80af22;fill-opacity:1;fill-rule:nonzero;stroke:none;stroke-width:0.133333" />
      <path
         id="path696"
         d="m 2727.1999,298.9734 c -15.7866,18.66667 -32.36,30.6 -37.0266,26.65333 -4.6667,-3.94666 4.3466,-22.28 20.1333,-40.94666 15.7867,-18.66667 32.3733,-30.6 37.04,-26.65333 4.6667,3.94666 -4.3467,22.27999 -20.1467,40.94666"
         style="fill:#80af22;fill-opacity:1;fill-rule:nonzero;stroke:none;stroke-width:0.133333" />
      <path
         id="path697"
         d="m 2742.9733,331.90673 c -20.6934,13.01334 -40.12,19.37334 -43.3734,14.2 -3.2533,-5.17333 10.8934,-19.92 31.5867,-32.93333 20.7067,-13.01333 40.12,-19.37333 43.3733,-14.2 3.2534,5.17333 -10.8933,19.92 -31.5866,32.93333"
         style="fill:#80af22;fill-opacity:1;fill-rule:nonzero;stroke:none;stroke-width:0.133333" />
      <path
         id="path698"
         d="m 2753.0266,360.74673 c -23.2933,7.42667 -43.68,8.73334 -45.5333,2.92 -1.8667,-5.82666 15.5066,-16.57333 38.8,-24 23.2933,-7.44 43.68,-8.74666 45.5466,-2.92 1.8534,5.82667 -15.52,16.57334 -38.8133,24"
         style="fill:#80af22;fill-opacity:1;fill-rule:nonzero;stroke:none;stroke-width:0.133333" />
      <path
         id="path699"
         d="m 2755.5599,391.18673 c -24.4133,1.37334 -44.48,-2.45333 -44.8266,-8.54666 -0.3467,-6.10667 19.16,-12.17334 43.5733,-13.56 24.4133,-1.37334 44.48,2.45333 44.8267,8.54666 0.3466,6.10667 -19.16,12.17334 -43.5734,13.56"
         style="fill:#80af22;fill-opacity:1;fill-rule:nonzero;stroke:none;stroke-width:0.133333" />
      <path
         id="path700"
         d="m 2750.4133,421.28006 c -23.9867,-4.74666 -42.4534,-13.46666 -41.2667,-19.46666 1.1867,-6 21.5867,-7 45.5733,-2.24 23.9734,4.76 42.4534,13.48 41.2667,19.46666 -1.1867,6 -21.6,7 -45.5733,2.24"
         style="fill:#80af22;fill-opacity:1;fill-rule:nonzero;stroke:none;stroke-width:0.133333" />
      <path
         id="path701"
         d="m 2737.9066,449.14673 c -22.0267,-10.58667 -37.7467,-23.64 -35.0933,-29.14667 2.6533,-5.52 22.6533,-1.38666 44.6933,9.2 22.0267,10.6 37.7467,23.65334 35.0933,29.16 -2.64,5.50667 -22.6533,1.38667 -44.6933,-9.21333"
         style="fill:#80af22;fill-opacity:1;fill-rule:nonzero;stroke:none;stroke-width:0.133333" />
      <path
         id="path702"
         d="m 2718.8533,473.0134 c -18.6934,-15.76 -30.6534,-32.33334 -26.7067,-37 3.9333,-4.66667 22.28,4.32 40.9733,20.08 18.68,15.76 30.64,32.32 26.7067,37 -3.9467,4.66666 -22.2933,-4.32 -40.9733,-20.08"
         style="fill:#80af22;fill-opacity:1;fill-rule:nonzero;stroke:none;stroke-width:0.133333" />
      <path
         id="path703"
         d="m 2694.4266,491.36006 c -14.16,-19.93333 -21.6,-38.96 -16.6133,-42.49333 4.9733,-3.54667 20.4933,9.74667 34.6533,29.66667 14.1733,19.93333 21.6133,38.96 16.6267,42.49333 -4.9867,3.54667 -20.5067,-9.74667 -34.6667,-29.66667"
         style="fill:#80af22;fill-opacity:1;fill-rule:nonzero;stroke:none;stroke-width:0.133333" />
      <path
         id="path704"
         d="m 2666.1466,503.2534 c -2.76,-24.29334 -0.067,-44.54667 6,-45.24 6.08,-0.69334 13.24,18.44 15.9867,42.73333 2.76,24.29333 0.08,44.54666 -6,45.24 -6.0667,0.69333 -13.2267,-18.44 -15.9867,-42.73333"
         style="fill:#80af22;fill-opacity:1;fill-rule:nonzero;stroke:none;stroke-width:0.133333" />
      <path
         id="path705"
         d="m 2629.7599,503.84006 c 3.4,-24.21333 11.0534,-43.16 17.1067,-42.30666 6.0533,0.85333 8.2133,21.16 4.8133,45.37333 -3.4,24.21333 -11.0533,43.14666 -17.1066,42.30666 -6.0534,-0.85333 -8.2,-21.17333 -4.8134,-45.37333"
         style="fill:#80af22;fill-opacity:1;fill-rule:nonzero;stroke:none;stroke-width:0.133333" />
      <path
         id="path706"
         d="m 2601.2399,486.8934 c 9.3334,-22.6 21.48,-39.02667 27.12,-36.69334 5.6534,2.33334 2.6667,22.54667 -6.6666,45.14667 -9.3334,22.58667 -21.48,39.01333 -27.1334,36.68 -5.64,-2.33333 -2.6533,-22.53333 6.68,-45.13333"
         style="fill:#80af22;fill-opacity:1;fill-rule:nonzero;stroke:none;stroke-width:0.133333" />
      <path
         id="path707"
         d="m 2583.7999,451.90673 c 19.1067,-15.26667 37.68,-23.77333 41.4934,-19 3.8133,4.77333 -8.5734,21.01333 -27.6667,36.28 -19.0933,15.26667 -37.68,23.77333 -41.4933,19 -3.8134,-4.77333 8.5733,-21.02667 27.6666,-36.28"
         style="fill:#80af22;fill-opacity:1;fill-rule:nonzero;stroke:none;stroke-width:0.133333" />
      <path
         id="path708"
         d="m 2570.5599,424.38673 c 22.3067,-10.01333 42.4134,-13.61333 44.92,-8.04 2.5067,5.57333 -13.5466,18.21333 -35.8533,28.22667 -22.3067,10.01333 -42.4133,13.61333 -44.92,8.04 -2.5067,-5.58667 13.5467,-18.21334 35.8533,-28.22667"
         style="fill:#80af22;fill-opacity:1;fill-rule:nonzero;stroke:none;stroke-width:0.133333" />
      <path
         id="path709"
         d="m 2564.6133,394.42673 c 24.0933,-4.13333 44.4666,-2.58666 45.4933,3.44 1.04,6.01333 -17.6667,14.25333 -41.76,18.37333 -24.0933,4.13334 -44.4667,2.58667 -45.5067,-3.44 -1.0266,-6.01333 17.68,-14.25333 41.7734,-18.37333"
         style="fill:#80af22;fill-opacity:1;fill-rule:nonzero;stroke:none;stroke-width:0.133333" />
      <path
         id="path710"
         d="m 2566.3333,363.9334 c 24.36,2.02667 43.7066,8.6 43.2,14.69333 -0.5067,6.09334 -20.6667,9.38667 -45.04,7.36 -24.36,-2.01333 -43.7067,-8.6 -43.2,-14.68 0.5066,-6.09333 20.6666,-9.4 45.04,-7.37333"
         style="fill:#80af22;fill-opacity:1;fill-rule:nonzero;stroke:none;stroke-width:0.133333" />
      <path
         id="path711"
         d="m 2575.6133,334.84007 c 23.08,8.04 40.1733,19.24 38.16,25.01333 -2.0134,5.76 -22.36,3.92 -45.4534,-4.12 -23.08,-8.04 -40.1733,-19.24 -38.16,-25.01333 2.0134,-5.77334 22.36,-3.93334 45.4534,4.12"
         style="fill:#80af22;fill-opacity:1;fill-rule:nonzero;stroke:none;stroke-width:0.133333" />
      <path
         id="path712"
         d="m 2591.8533,308.9734 c 20.3466,13.56 34.1066,28.66667 30.72,33.74667 -3.4,5.09333 -22.64,-1.77334 -42.9867,-15.32 -20.3467,-13.56 -34.0933,-28.66667 -30.7067,-33.74667 3.3867,-5.09333 22.6267,1.77333 42.9734,15.32"
         style="fill:#80af22;fill-opacity:1;fill-rule:nonzero;stroke:none;stroke-width:0.133333" />
      <path
         id="path713"
         d="m 2614.0533,288.00007 c 16.32,18.2 25.8533,36.26666 21.3066,40.34666 -4.5466,4.08 -21.4666,-7.37333 -37.7866,-25.57333 -16.32,-18.21333 -25.8667,-36.28 -21.32,-40.36 4.56,-4.08 21.48,7.37333 37.8,25.58667"
         style="fill:#80af22;fill-opacity:1;fill-rule:nonzero;stroke:none;stroke-width:0.133333" />
      <path
         id="path714"
         d="m 2643.1866,265.58674 c 5.48,23.82666 5.0933,44.25333 -0.8667,45.62666 -5.96,1.36 -15.2266,-16.84 -20.7066,-40.66667 -5.48,-23.82666 -5.0934,-44.25333 0.8666,-45.62666 5.9467,-1.37333 15.2267,16.84 20.7067,40.66667"
         style="fill:#80af22;fill-opacity:1;fill-rule:nonzero;stroke:none;stroke-width:0.133333" />
      <path
         id="path715"
         d="m 2722.8133,388.9734 c 0,51.32 -28.5467,92.92 -63.76,92.92 -35.2134,0 -63.7467,-41.6 -63.7467,-92.92 0,-51.33333 28.5333,-92.93333 63.7467,-92.93333 35.2133,0 63.76,41.6 63.76,92.93333"
         style="fill:#e9f0a6;fill-opacity:1;fill-rule:nonzero;stroke:none;stroke-width:0.133333" />
      <path
         id="path716"
         d="m 2659.4666,277.5334 c -0.7333,0 -1.4533,-0.44 -1.92,-1.30667 -2.56,-4.66666 -6.7333,-12.94666 -6.7333,-17.23999 0,-2.41334 0.5866,-4.62667 1.5733,-6.44 1.56,-2.92 4.16,-4.82667 7.1067,-4.82667 4.7733,0 8.6666,5.04 8.6666,11.26667 0,4.29333 -4.16,12.57333 -6.72,17.23999 -0.32,0.61334 -0.7733,1 -1.2666,1.17334 -0.24,0.08 -0.4667,0.13333 -0.7067,0.13333"
         style="fill:#1c7b0a;fill-opacity:1;fill-rule:nonzero;stroke:none;stroke-width:0.133333" />
      <path
         id="path717"
         d="m 2667.0133,257.9334 c 0,-6.21333 -3.88,-11.25333 -8.6534,-11.25333 -2.96,0 -5.5466,1.89333 -7.1066,4.81333 -0.9867,1.82667 -1.5734,4.02667 -1.5734,6.44 0,4.30667 4.16,12.58667 6.72,17.25333 0.6267,1.14667 1.6934,1.53334 2.6267,1.16 0.4933,-0.17333 0.9467,-0.56 1.28,-1.16 2.56,-4.66666 6.7067,-12.94666 6.7067,-17.25333"
         style="fill:#231f20;fill-opacity:1;fill-rule:nonzero;stroke:none;stroke-width:0.133333" />
      <path
         id="path718"
         d="m 2664.8666,260.72007 c 0,-6.2 -3.88,-11.25333 -8.6667,-11.25333 -1.84,0 -3.5466,0.74666 -4.9466,2.02666 -0.9867,1.82667 -1.5734,4.02667 -1.5734,6.44 0,4.30667 4.16,12.58667 6.72,17.25333 0.6267,1.14667 1.6934,1.53334 2.6267,1.16 2.52,-4.78666 5.84,-11.78666 5.84,-15.62666"
         style="fill:#333333;fill-opacity:1;fill-rule:nonzero;stroke:none;stroke-width:0.133333" />
      <path
         id="path719"
         d="m 2701.4266,291.5734 c -0.08,0 -0.16,-0.0133 -0.24,-0.0133 -1,-0.08 -1.7867,-0.89334 -1.84,-2.2 -0.2667,-5.32 -0.3867,-14.58667 1.4933,-18.45334 1.0534,-2.17333 2.5467,-3.89333 4.24,-5.10666 1.7067,-1.22667 3.6,-1.92 5.4534,-1.92 1.0533,0 2.08,0.22667 3.04,0.69333 3.9733,1.94667 5.3733,7.41333 3.4133,12.65333 -2.2267,2.33334 -4.4533,4.82667 -6.68,7.45334 -0.5733,0.68 -1.1333,1.36 -1.6933,2.02666 -2.0534,1.66667 -4.12,3.18667 -5.7734,4.36 -0.4666,0.34667 -0.96,0.50667 -1.4133,0.50667"
         style="fill:#218d13;fill-opacity:1;fill-rule:nonzero;stroke:none;stroke-width:0.133333" />
      <path
         id="path720"
         d="m 2708.6133,286.70673 c 0.56,-0.66666 1.12,-1.34666 1.6933,-2.02666 2.2267,-2.62667 4.4533,-5.12 6.68,-7.45334 -0.16,0.42667 -0.3467,0.85334 -0.5467,1.26667 -1.1733,2.41333 -4.4666,5.49333 -7.8266,8.21333"
         style="fill:#1c7b0a;fill-opacity:1;fill-rule:nonzero;stroke:none;stroke-width:0.133333" />
      <path
         id="path721"
         d="m 2715.8666,277.0534 c 2.7333,-5.58667 1.44,-11.82666 -2.8533,-13.90666 -2.6534,-1.29334 -5.8267,-0.72 -8.5067,1.21333 -1.68,1.21333 -3.1733,2.93333 -4.2267,5.10666 -1.88,3.86667 -1.76,13.13334 -1.5066,18.45334 0.067,1.30666 0.8533,2.12 1.8533,2.2 0.52,0.0533 1.0933,-0.0933 1.6533,-0.49334 4.3467,-3.08 11.7067,-8.70666 13.5867,-12.57333"
         style="fill:#231f20;fill-opacity:1;fill-rule:nonzero;stroke:none;stroke-width:0.133333" />
      <path
         id="path722"
         d="m 2712.7199,278.6134 c 2.7067,-5.57333 1.44,-11.8 -2.8666,-13.90666 -1.6667,-0.8 -3.52,-0.88 -5.3467,-0.34667 -1.68,1.21333 -3.1733,2.93333 -4.2267,5.10666 -1.88,3.86667 -1.76,13.13334 -1.5066,18.45334 0.067,1.30666 0.8533,2.12 1.8533,2.2 4.36,-3.2 10.4,-8.04 12.0933,-11.50667"
         style="fill:#333333;fill-opacity:1;fill-rule:nonzero;stroke:none;stroke-width:0.133333" />
      <path
         id="path723"
         d="m 2734.4399,311.1734 c 2.0267,-4.05333 4.48,-8.24 6.68,-9.97333 1.9067,-1.48 4,-2.38667 6.04,-2.73334 0.6534,-0.10666 1.2934,-0.17333 1.92,-0.17333 2.3867,0 4.56,0.84 6.0267,2.52 -6.16,2.4 -13.28,5.93333 -20.6667,10.36"
         style="fill:#218d13;fill-opacity:1;fill-rule:nonzero;stroke:none;stroke-width:0.133333" />
      <path
         id="path724"
         d="m 2733.5866,320.2534 c -0.4533,0 -0.8667,-0.12 -1.1867,-0.33333 -0.8666,-0.50667 -1.2266,-1.58667 -0.7066,-2.78667 0.7333,-1.69333 1.68,-3.81333 2.7466,-5.96 7.3867,-4.42667 14.5067,-7.96 20.6667,-10.36 0.08,0.08 0.16,0.17333 0.24,0.28 2.9467,3.76 1.3733,9.92 -3.5333,13.76 -3.3734,2.65333 -12.4667,4.49333 -17.72,5.34667 -0.1734,0.04 -0.3467,0.0533 -0.5067,0.0533"
         style="fill:#1c7b0a;fill-opacity:1;fill-rule:nonzero;stroke:none;stroke-width:0.133333" />
      <path
         id="path725"
         d="m 2751.9466,313.32007 c 4.8933,-3.84 6.4667,-10.01334 3.52,-13.77334 -1.8267,-2.32 -4.92,-3.18666 -8.1867,-2.61333 -2.04,0.34667 -4.1333,1.24 -6.04,2.73333 -3.3733,2.64 -7.32,11.04 -9.4266,15.93334 -0.52,1.18666 -0.16,2.26666 0.7066,2.77333 0.44,0.29333 1.0267,0.41333 1.6934,0.29333 5.2666,-0.86666 14.3466,-2.70666 17.7333,-5.34666"
         style="fill:#231f20;fill-opacity:1;fill-rule:nonzero;stroke:none;stroke-width:0.133333" />
      <path
         id="path726"
         d="m 2748.4133,313.3334 c 4.8933,-3.82667 6.48,-9.98667 3.52,-13.76 -1.1467,-1.45333 -2.7734,-2.33333 -4.6534,-2.64 -2.04,0.34667 -4.1333,1.24 -6.04,2.73333 -3.3733,2.64 -7.32,11.04 -9.4266,15.93334 -0.52,1.18666 -0.16,2.26666 0.7066,2.77333 5.32,-0.96 12.8667,-2.66667 15.8934,-5.04"
         style="fill:#333333;fill-opacity:1;fill-rule:nonzero;stroke:none;stroke-width:0.133333" />
      <path
         id="path727"
         d="m 2763.2399,362.94673 c -3.1866,0 -7.52,-0.88 -11.32,-1.85333 0.36,-0.10667 0.7334,-0.22667 1.1067,-0.34667 8.1467,-2.6 15.5733,-5.6 21.7067,-8.66666 0.8666,4.62666 -3.2267,9.37333 -9.24,10.66666 -0.64,0.13334 -1.4134,0.2 -2.2534,0.2"
         style="fill:#218d13;fill-opacity:1;fill-rule:nonzero;stroke:none;stroke-width:0.133333" />
      <path
         id="path728"
         d="m 2751.9199,361.0934 c -1.7333,-0.44 -3.3466,-0.89333 -4.6933,-1.29333 -0.6667,-0.2 -1.1333,-0.56 -1.4,-1 -0.56,-0.84 -0.4133,-1.96 0.5867,-2.81334 4.0266,-3.48 11.24,-9.29333 15.4533,-10.2 1.0133,-0.21333 2.0267,-0.32 3,-0.32 1.2667,0 2.4933,0.17334 3.6267,0.50667 3.1733,0.92 5.5866,3.05333 6.2,5.93333 0.013,0.0667 0.027,0.12 0.04,0.17334 -6.1334,3.06666 -13.56,6.06666 -21.7067,8.66666 -0.3733,0.12 -0.7467,0.24 -1.1067,0.34667"
         style="fill:#1c7b0a;fill-opacity:1;fill-rule:nonzero;stroke:none;stroke-width:0.133333" />
      <path
         id="path729"
         d="m 2766.2799,361.4134 c 6.08,-1.30667 10.2,-6.16 9.2,-10.82667 -0.6266,-2.89333 -3.0266,-5.02666 -6.2133,-5.94666 -1.9867,-0.58667 -4.2667,-0.69334 -6.6267,-0.18667 -4.2,0.90667 -11.4133,6.72 -15.4533,10.2 -0.9867,0.85333 -1.1467,1.97333 -0.5867,2.81333 0.2667,0.44 0.7467,0.81334 1.4134,1 5.0933,1.52 14.0666,3.85334 18.2666,2.94667"
         style="fill:#231f20;fill-opacity:1;fill-rule:nonzero;stroke:none;stroke-width:0.133333" />
      <path
         id="path730"
         d="m 2763.1066,359.8934 c 6.0667,-1.30667 10.1867,-6.14667 9.1867,-10.84 -0.3867,-1.8 -1.48,-3.30667 -3.0267,-4.41333 -1.9867,-0.58667 -4.2667,-0.69334 -6.6267,-0.18667 -4.2,0.90667 -11.4133,6.72 -15.4533,10.2 -0.9867,0.85333 -1.1467,1.97333 -0.5867,2.81333 5.2134,1.45334 12.7467,3.22667 16.5067,2.42667"
         style="fill:#333333;fill-opacity:1;fill-rule:nonzero;stroke:none;stroke-width:0.133333" />
      <path
         id="path731"
         d="m 2773.5866,404.46673 c -5.6267,-1.85333 -12.0133,-3.53333 -18.8667,-4.89333 -2.1466,-0.42667 -4.2666,-0.8 -6.3466,-1.13333 4.12,-1.02667 9.5866,-2.16 13.52,-2.16 1.08,0 2.0266,0.08 2.8133,0.28 2.3467,0.57333 4.3467,1.66666 5.88,3.06666 1.5333,1.38667 2.6,3.06667 3,4.84"
         style="fill:#218d13;fill-opacity:1;fill-rule:nonzero;stroke:none;stroke-width:0.133333" />
      <path
         id="path732"
         d="m 2763.9999,413.8134 c -1.12,0 -2.28,-0.13334 -3.44,-0.42667 -4.1733,-1.02667 -11.2133,-7.04 -15.1466,-10.64 -0.5067,-0.46667 -0.7734,-1 -0.8134,-1.52 -0.1466,-1 0.4934,-1.93333 1.7467,-2.26666 0.6267,-0.17334 1.3067,-0.34667 2.0267,-0.52 2.08,0.33333 4.2,0.70666 6.3466,1.13333 6.8534,1.36 13.24,3.04 18.8667,4.89333 0.24,1.05333 0.24,2.14667 -0.027,3.21333 -0.92,3.74667 -4.8933,6.13334 -9.56,6.13334"
         style="fill:#1c7b0a;fill-opacity:1;fill-rule:nonzero;stroke:none;stroke-width:0.133333" />
      <path
         id="path733"
         d="m 2761.8399,412.5334 c 6.04,1.49333 11.8667,-1.06667 13.0134,-5.70667 0.7066,-2.86667 -0.52,-5.84 -2.9734,-8.05333 -1.5333,-1.4 -3.5466,-2.49333 -5.88,-3.06667 -4.1733,-1.04 -13.2133,1.02667 -18.36,2.4 -1.2666,0.32 -1.8933,1.26667 -1.76,2.26667 0.053,0.52 0.32,1.05333 0.8267,1.50666 3.92,3.61334 10.96,9.62667 15.1333,10.65334"
         style="fill:#231f20;fill-opacity:1;fill-rule:nonzero;stroke:none;stroke-width:0.133333" />
      <path
         id="path734"
         d="m 2759.6533,409.7734 c 6.0266,1.49333 11.8533,-1.05334 13,-5.70667 0.44,-1.8 0.1333,-3.62667 -0.7734,-5.29333 -1.5333,-1.4 -3.5466,-2.49333 -5.88,-3.06667 -4.1733,-1.04 -13.2133,1.02667 -18.36,2.4 -1.2666,0.32 -1.8933,1.26667 -1.76,2.26667 4.0534,3.58666 10.0534,8.48 13.7734,9.4"
         style="fill:#333333;fill-opacity:1;fill-rule:nonzero;stroke:none;stroke-width:0.133333" />
      <path
         id="path735"
         d="m 2752.9066,464.96006 c -2.6667,0 -5.6267,-1.06666 -8.1467,-3.16 -2.6666,-2.22666 -5.5866,-8.2 -7.64,-13.02666 0.2667,0.12 0.5334,0.25333 0.7867,0.37333 8.0933,3.89333 15.8933,6.90667 22.68,8.89333 -0.08,1.6 -0.6,3.09334 -1.6267,4.32 -1.44,1.73334 -3.64,2.6 -6.0533,2.6"
         style="fill:#218d13;fill-opacity:1;fill-rule:nonzero;stroke:none;stroke-width:0.133333" />
      <path
         id="path736"
         d="m 2760.5866,458.04006 c -6.7867,-1.98666 -14.5867,-5 -22.68,-8.89333 -0.2533,-0.12 -0.52,-0.25333 -0.7867,-0.37333 -0.48,-1.14667 -0.92,-2.22667 -1.2933,-3.18667 -0.2667,-0.64 -0.2667,-1.24 -0.08,-1.72 0.2533,-0.8 0.9867,-1.33333 1.9733,-1.33333 0.1867,0 0.3867,0.0267 0.6,0.0667 5.2267,1.02667 14.2534,3.12 17.56,5.88 1.84,1.54667 3.1734,3.4 3.9334,5.33334 0.5733,1.41333 0.84,2.85333 0.7733,4.22666"
         style="fill:#1c7b0a;fill-opacity:1;fill-rule:nonzero;stroke:none;stroke-width:0.133333" />
      <path
         id="path737"
         d="m 2746.2933,461.58673 c 4.7866,3.98667 11.1466,4.24 14.2,0.56 1.8933,-2.26667 2.0933,-5.48 0.8533,-8.54667 -0.7733,-1.92 -2.0933,-3.78666 -3.9467,-5.32 -3.2933,-2.76 -12.32,-4.86666 -17.5466,-5.89333 -1.28,-0.25333 -2.2667,0.32 -2.5734,1.28 -0.1866,0.48 -0.1866,1.08 0.067,1.72 1.96,4.96 5.6533,13.45333 8.9467,16.2"
         style="fill:#231f20;fill-opacity:1;fill-rule:nonzero;stroke:none;stroke-width:0.133333" />
      <path
         id="path738"
         d="m 2745.5466,458.14673 c 4.76,3.97333 11.1067,4.24 14.1867,0.56 1.1733,-1.42667 1.6933,-3.2 1.6133,-5.10667 -0.7733,-1.92 -2.0933,-3.78666 -3.9467,-5.32 -3.2933,-2.76 -12.32,-4.86666 -17.5466,-5.89333 -1.28,-0.25333 -2.2667,0.32 -2.5734,1.28 2.0534,5 5.3067,12.02667 8.2667,14.48"
         style="fill:#333333;fill-opacity:1;fill-rule:nonzero;stroke:none;stroke-width:0.133333" />
      <path
         id="path739"
         d="m 2709.8799,510.0134 c -2.9733,-0.88 -5.8,-3.4 -7.4133,-6.98667 -0.2533,-0.56 -0.4667,-1.24 -0.6267,-1.98667 2.7334,3.32 5.44,6.33334 8.04,8.97334"
         style="fill:#218d13;fill-opacity:1;fill-rule:nonzero;stroke:none;stroke-width:0.133333" />
      <path
         id="path740"
         d="m 2712.1466,510.34673 c -0.7467,0 -1.5067,-0.12 -2.2667,-0.33333 -2.6,-2.64 -5.3066,-5.65334 -8.04,-8.97334 -1.0266,-4.50666 -0.68,-11.94666 -0.32,-16.50666 0.04,-0.68 0.2934,-1.22667 0.68,-1.57334 0.36,-0.37333 0.84,-0.58666 1.36,-0.58666 0.48,0 1.0134,0.18666 1.5067,0.57333 4.2533,3.2 11.4533,9.04 13.2133,12.97333 0.9867,2.18667 1.36,4.44 1.2134,6.50667 -0.2267,3.30667 -1.8267,6.10667 -4.5067,7.32 -0.9067,0.4 -1.8667,0.6 -2.84,0.6"
         style="fill:#1c7b0a;fill-opacity:1;fill-rule:nonzero;stroke:none;stroke-width:0.133333" />
      <path
         id="path741"
         d="m 2703.9333,503.50673 c 2.5466,5.68 8.16,8.68 12.52,6.72 2.6933,-1.2 4.28,-4.01333 4.5066,-7.30667 0.1467,-2.06666 -0.2266,-4.32 -1.2133,-6.52 -1.76,-3.92 -8.96,-9.76 -13.2133,-12.97333 -1.04,-0.78667 -2.16,-0.70667 -2.8667,0.0133 -0.3867,0.36 -0.64,0.89334 -0.68,1.58667 -0.4267,5.30667 -0.8133,14.56 0.9467,18.48"
         style="fill:#231f20;fill-opacity:1;fill-rule:nonzero;stroke:none;stroke-width:0.133333" />
      <path
         id="path742"
         d="m 2704.7599,500.0934 c 2.5334,5.65333 8.1334,8.66666 12.5067,6.70666 1.68,-0.76 2.9333,-2.13333 3.6933,-3.88 0.1467,-2.06666 -0.2266,-4.32 -1.2133,-6.52 -1.76,-3.92 -8.96,-9.76 -13.2133,-12.97333 -1.04,-0.78667 -2.16,-0.70667 -2.8667,0.0133 -0.3333,5.4 -0.4933,13.14667 1.0933,16.65334"
         style="fill:#333333;fill-opacity:1;fill-rule:nonzero;stroke:none;stroke-width:0.133333" />
      <path
         id="path743"
         d="m 2654.1999,529.6534 c -0.067,0 -0.1333,0 -0.2133,0 -2.44,-0.08 -4.6133,-1.46667 -6.12,-3.62667 1.5333,-5.72 2.84,-12.2 3.8133,-19.12 0.2267,-1.58667 0.4267,-3.16 0.6,-4.70667 0.2267,-0.38666 0.44,-0.76 0.64,-1.10666 0.3467,-0.58667 0.8134,-0.97334 1.3067,-1.12 0.2133,-0.08 0.4267,-0.12 0.6533,-0.12 0.7467,0 1.48,0.46666 1.9334,1.36 2.4133,4.74666 6.3333,13.16 6.2,17.45333 -0.08,2.41333 -0.7334,4.6 -1.7734,6.38667 -1.6,2.8 -4.1733,4.6 -7.04,4.6"
         style="fill:#218d13;fill-opacity:1;fill-rule:nonzero;stroke:none;stroke-width:0.133333" />
      <path
         id="path744"
         d="m 2647.8666,526.02673 c -1.44,-2.08 -2.28,-4.85333 -2.1867,-7.89333 0.12,-3.97334 3.8934,-11.22667 6.6,-15.93334 -0.1733,1.54667 -0.3733,3.12 -0.6,4.70667 -0.9733,6.92 -2.28,13.4 -3.8133,19.12"
         style="fill:#1c7b0a;fill-opacity:1;fill-rule:nonzero;stroke:none;stroke-width:0.133333" />
      <path
         id="path745"
         d="m 2646.7866,519.2134 c -0.2,6.21333 3.5333,11.37333 8.3067,11.52 2.9466,0.0933 5.6133,-1.73334 7.2533,-4.6 1.04,-1.78667 1.6933,-3.97334 1.7733,-6.38667 0.1334,-4.30667 -3.7866,-12.70667 -6.2,-17.45333 -0.5866,-1.16 -1.64,-1.58667 -2.5866,-1.24 -0.4934,0.16 -0.96,0.53333 -1.3067,1.12 -2.7067,4.58666 -7.1067,12.74666 -7.24,17.04"
         style="fill:#231f20;fill-opacity:1;fill-rule:nonzero;stroke:none;stroke-width:0.133333" />
      <path
         id="path746"
         d="m 2649.0266,516.4934 c -0.1867,6.2 3.52,11.36 8.3067,11.50666 1.8533,0.0533 3.5733,-0.62666 5.0133,-1.86666 1.04,-1.78667 1.6933,-3.97334 1.7733,-6.38667 0.1334,-4.30667 -3.7866,-12.70667 -6.2,-17.45333 -0.5866,-1.16 -1.64,-1.58667 -2.5866,-1.24 -2.6667,4.70666 -6.1867,11.6 -6.3067,15.44"
         style="fill:#333333;fill-opacity:1;fill-rule:nonzero;stroke:none;stroke-width:0.133333" />
      <path
         id="path747"
         d="m 2591.8533,505.6134 c -1.1334,0 -2.24,-0.25334 -3.2667,-0.78667 -4.2267,-2.22667 -5.32,-8.49333 -2.4267,-14 2,-3.81333 9.5334,-9.2 13.9734,-12.14667 0.4533,-0.32 0.9333,-0.46666 1.3733,-0.46666 0.093,0 0.2,0.0133 0.2933,0.0267 1,0.10667 1.76,0.94667 1.7734,2.25334 0.013,0.30666 0.013,0.62666 0.013,0.94666 -0.8,1.77334 -1.5867,3.58667 -2.3467,5.45334 -2.6266,6.34666 -4.7466,12.49333 -6.32,18.12 -1.0133,0.4 -2.0533,0.6 -3.0666,0.6"
         style="fill:#218d13;fill-opacity:1;fill-rule:nonzero;stroke:none;stroke-width:0.133333" />
      <path
         id="path748"
         d="m 2594.9199,505.0134 c 1.5734,-5.62667 3.6934,-11.77334 6.32,-18.12 0.76,-1.86667 1.5467,-3.68 2.3467,-5.45334 0.053,5.42667 -0.1867,13.86667 -2.08,17.45334 -1.12,2.13333 -2.6667,3.81333 -4.3867,4.97333 -0.7066,0.48 -1.44,0.86667 -2.2,1.14667"
         style="fill:#1c7b0a;fill-opacity:1;fill-rule:nonzero;stroke:none;stroke-width:0.133333" />
      <path
         id="path749"
         d="m 2586.6799,492.28006 c -2.8933,5.50667 -1.8,11.77334 2.4267,14 2.6133,1.37334 5.8,0.89334 8.5333,-0.96 1.72,-1.16 3.2667,-2.84 4.3867,-4.97333 2,-3.8 2.16,-13.08 2.0667,-18.4 -0.013,-1.30667 -0.7734,-2.14667 -1.7734,-2.25333 -0.52,-0.08 -1.1066,0.0533 -1.6666,0.44 -4.44,2.94666 -11.9734,8.33333 -13.9734,12.14666"
         style="fill:#231f20;fill-opacity:1;fill-rule:nonzero;stroke:none;stroke-width:0.133333" />
      <path
         id="path750"
         d="m 2589.8799,490.8134 c -2.88,5.49333 -1.8,11.76 2.44,13.98666 1.6267,0.86667 3.48,1 5.32,0.52 1.72,-1.16 3.2667,-2.84 4.3867,-4.97333 2,-3.8 2.16,-13.08 2.0667,-18.4 -0.013,-1.30667 -0.7734,-2.14667 -1.7734,-2.25333 -4.4666,3.06666 -10.6533,7.72 -12.44,11.12"
         style="fill:#333333;fill-opacity:1;fill-rule:nonzero;stroke:none;stroke-width:0.133333" />
      <path
         id="path751"
         d="m 2559.9466,458.24006 c -2.6533,0 -5.04,-1.01333 -6.4933,-3 -0.3334,-0.42666 -0.5867,-0.89333 -0.8,-1.38666 6.2133,-1.36 13.56,-3.69334 21.36,-6.86667 -2.0134,3.6 -4.3067,7.08 -6.3467,8.58667 -1.9467,1.42666 -4.0667,2.26666 -6.12,2.54666 -0.5467,0.08 -1.08,0.12 -1.6,0.12"
         style="fill:#218d13;fill-opacity:1;fill-rule:nonzero;stroke:none;stroke-width:0.133333" />
      <path
         id="path752"
         d="m 2552.6533,453.8534 c -1.6,-3.81334 0.2933,-8.98667 4.7466,-12.25334 3.4534,-2.54666 12.5867,-4.10666 17.8667,-4.8 0.1467,-0.0267 0.2933,-0.04 0.4267,-0.04 0.5066,0 0.9333,0.13334 1.2666,0.37334 0.8534,0.53333 1.1734,1.61333 0.6134,2.8 -0.92,1.98666 -2.1734,4.54666 -3.56,7.05333 -7.8,3.17333 -15.1467,5.50667 -21.36,6.86667"
         style="fill:#1c7b0a;fill-opacity:1;fill-rule:nonzero;stroke:none;stroke-width:0.133333" />
      <path
         id="path753"
         d="m 2557.2266,443.1334 c -5.0133,3.68 -6.7733,9.8 -3.9467,13.65333 1.7467,2.37333 4.8267,3.33333 8.0934,2.86667 2.0533,-0.28 4.1733,-1.12 6.12,-2.54667 3.4666,-2.54667 7.6666,-10.81333 9.92,-15.64 0.5466,-1.17333 0.2266,-2.26667 -0.6134,-2.8 -0.44,-0.29333 -1.0133,-0.44 -1.6933,-0.33333 -5.28,0.70666 -14.4133,2.25333 -17.88,4.8"
         style="fill:#231f20;fill-opacity:1;fill-rule:nonzero;stroke:none;stroke-width:0.133333" />
      <path
         id="path754"
         d="m 2560.7466,443.22673 c -5,3.66667 -6.7733,9.77333 -3.9333,13.64 1.0933,1.48 2.6933,2.41333 4.56,2.78667 2.0533,-0.28 4.1733,-1.12 6.12,-2.54667 3.4666,-2.54667 7.6666,-10.81333 9.92,-15.64 0.5466,-1.17333 0.2266,-2.26667 -0.6134,-2.8 -5.36,0.8 -12.96,2.28 -16.0533,4.56"
         style="fill:#333333;fill-opacity:1;fill-rule:nonzero;stroke:none;stroke-width:0.133333" />
      <path
         id="path755"
         d="m 2541.6133,400.0934 c -0.027,-0.0933 -0.04,-0.18667 -0.067,-0.26667 -0.8533,-4.70666 3.4133,-9.44 9.5333,-10.54666 0.52,-0.10667 1.12,-0.14667 1.7734,-0.14667 4.6,0 11.9733,2.18667 16.4,3.65333 0.5066,0.16 0.8933,0.42667 1.16,0.74667 -1.9067,0.25333 -3.84,0.56 -5.8,0.89333 -8.56,1.46667 -16.4534,3.45334 -23,5.66667"
         style="fill:#218d13;fill-opacity:1;fill-rule:nonzero;stroke:none;stroke-width:0.133333" />
      <path
         id="path756"
         d="m 2551.5999,406.5734 c -1.4266,0 -2.7866,-0.22667 -4.0266,-0.62667 -3.0534,-0.98667 -5.3467,-3.08 -5.96,-5.85333 6.5466,-2.21333 14.44,-4.2 23,-5.66667 1.96,-0.33333 3.8933,-0.64 5.8,-0.89333 0.08,0.0933 0.1466,0.18667 0.2133,0.29333 0.5333,0.85334 0.3467,1.97334 -0.68,2.78667 -4.1333,3.36 -11.52,8.94666 -15.76,9.72 -0.88,0.16 -1.7333,0.24 -2.5867,0.24"
         style="fill:#1c7b0a;fill-opacity:1;fill-rule:nonzero;stroke:none;stroke-width:0.133333" />
      <path
         id="path757"
         d="m 2550.2533,390.58673 c -6.12,1.10667 -10.3867,5.84 -9.52,10.54667 0.52,2.89333 2.8666,5.10666 6.0133,6.12 1.9733,0.64 4.2533,0.82666 6.6133,0.38666 4.24,-0.77333 11.6267,-6.36 15.7734,-9.71999 1.0133,-0.81334 1.2,-1.93334 0.6666,-2.78667 -0.2533,-0.45333 -0.72,-0.82667 -1.3733,-1.04 -5.0533,-1.68 -13.9467,-4.28 -18.1733,-3.50667"
         style="fill:#231f20;fill-opacity:1;fill-rule:nonzero;stroke:none;stroke-width:0.133333" />
      <path
         id="path758"
         d="m 2553.3733,392.20007 c -6.0934,1.12 -10.36,5.82666 -9.5067,10.54666 0.3333,1.81333 1.3733,3.36 2.88,4.50667 1.9733,0.64 4.2533,0.82666 6.6133,0.38666 4.24,-0.77333 11.6267,-6.36 15.7734,-9.71999 1.0133,-0.81334 1.2,-1.93334 0.6666,-2.78667 -5.16,-1.61333 -12.64,-3.61333 -16.4266,-2.93333"
         style="fill:#333333;fill-opacity:1;fill-rule:nonzero;stroke:none;stroke-width:0.133333" />
      <path
         id="path759"
         d="m 2556.4799,355.88007 c -1.3466,0 -2.5466,-0.10667 -3.4933,-0.37334 -2.32,-0.65333 -4.2933,-1.81333 -5.7733,-3.25333 -2.12,-2.02667 -3.2534,-4.62667 -2.9334,-7.16 5.8934,3.34667 13.28,6.73333 21.5334,9.74667 -3.1467,0.57333 -6.56,1.04 -9.3334,1.04"
         style="fill:#218d13;fill-opacity:1;fill-rule:nonzero;stroke:none;stroke-width:0.133333" />
      <path
         id="path760"
         d="m 2565.8133,354.84007 c -8.2534,-3.01334 -15.64,-6.4 -21.5334,-9.74667 0.04,-0.33333 0.1067,-0.65333 0.2,-0.97333 1.0134,-3.61334 4.84,-5.85334 9.3334,-5.85334 1.2533,0 2.5466,0.17334 3.8533,0.53334 4.1333,1.16 10.9867,7.4 14.8,11.12 0.4933,0.48 0.7467,1.01333 0.7733,1.53333 0.1067,1 -0.5466,1.92 -1.8266,2.21333 -1.5867,0.37334 -3.5334,0.8 -5.6,1.17334"
         style="fill:#1c7b0a;fill-opacity:1;fill-rule:nonzero;stroke:none;stroke-width:0.133333" />
      <path
         id="path761"
         d="m 2556.3466,339.6134 c -5.9867,-1.66667 -11.8933,0.70667 -13.1733,5.32 -0.8,2.84 0.3333,5.85333 2.72,8.13333 1.4933,1.44 3.4666,2.6 5.7866,3.25334 4.1334,1.16 13.24,-0.62667 18.4267,-1.84 1.2667,-0.28 1.9333,-1.21334 1.8267,-2.21334 -0.04,-0.52 -0.28,-1.05333 -0.7867,-1.53333 -3.8,-3.72 -10.6533,-9.96 -14.8,-11.12"
         style="fill:#231f20;fill-opacity:1;fill-rule:nonzero;stroke:none;stroke-width:0.133333" />
      <path
         id="path762"
         d="m 2558.4533,342.44007 c -5.9867,-1.66667 -11.88,0.70666 -13.1734,5.32 -0.4933,1.77333 -0.24,3.61333 0.6134,5.30666 1.4933,1.44 3.4666,2.6 5.7866,3.25334 4.1334,1.16 13.24,-0.62667 18.4267,-1.84 1.2667,-0.28 1.9333,-1.21334 1.8267,-2.21334 -3.9334,-3.70666 -9.7867,-8.78666 -13.48,-9.82666"
         style="fill:#333333;fill-opacity:1;fill-rule:nonzero;stroke:none;stroke-width:0.133333" />
      <path
         id="path763"
         d="m 2589.5599,307.46673 c -7.6,-4.89333 -14.96,-8.81333 -21.3066,-11.48 0.2,-0.30666 0.4133,-0.58666 0.6533,-0.86666 1.44,-1.61334 3.5333,-2.41334 5.8133,-2.41334 2.7734,0 5.8134,1.16 8.36,3.41334 2.2667,2.01333 4.64,6.89333 6.48,11.34666"
         style="fill:#218d13;fill-opacity:1;fill-rule:nonzero;stroke:none;stroke-width:0.133333" />
      <path
         id="path764"
         d="m 2589.6133,315.58673 c -0.2134,0 -0.44,-0.0267 -0.68,-0.08 -5.1867,-1.18666 -14.1467,-3.56 -17.36,-6.41333 -1.8134,-1.6 -3.0667,-3.50667 -3.7867,-5.45333 -1,-2.72 -0.8933,-5.52 0.4667,-7.65334 6.3466,2.66667 13.7066,6.58667 21.3066,11.48 0.76,1.86667 1.44,3.65334 1.96,5.12 0.24,0.65334 0.2267,1.25334 0.027,1.73334 -0.28,0.77333 -0.9867,1.26666 -1.9333,1.26666"
         style="fill:#1c7b0a;fill-opacity:1;fill-rule:nonzero;stroke:none;stroke-width:0.133333" />
      <path
         id="path765"
         d="m 2581.5466,296.28007 c -4.6533,-4.13334 -11.0133,-4.57334 -14.1867,-1 -1.9466,2.21333 -2.2533,5.41333 -1.1066,8.52 0.7066,1.94666 1.9733,3.85333 3.7733,5.45333 3.2133,2.85333 12.1733,5.22667 17.3733,6.41333 1.2667,0.29334 2.2667,-0.24 2.6134,-1.18666 0.2,-0.48 0.2133,-1.08 -0.027,-1.73334 -1.8,-5.01333 -5.2267,-13.61333 -8.44,-16.46666"
         style="fill:#231f20;fill-opacity:1;fill-rule:nonzero;stroke:none;stroke-width:0.133333" />
      <path
         id="path766"
         d="m 2582.1866,299.7334 c -4.64,-4.12 -10.9733,-4.56 -14.16,-0.98667 -1.2267,1.38667 -1.8,3.14667 -1.7733,5.05334 0.7066,1.94666 1.9733,3.85333 3.7733,5.45333 3.2133,2.85333 12.1733,5.22667 17.3733,6.41333 1.2667,0.29334 2.2667,-0.24 2.6134,-1.18666 -1.9067,-5.06667 -4.9467,-12.18667 -7.8267,-14.74667"
         style="fill:#333333;fill-opacity:1;fill-rule:nonzero;stroke:none;stroke-width:0.133333" />
      <path
         id="path767"
         d="m 2620.2266,285.12007 c -0.4933,0 -1.04,-0.18667 -1.5467,-0.6 -4.1466,-3.34667 -11.1733,-9.4 -12.8133,-13.37334 -0.92,-2.22666 -1.2133,-4.49333 -1,-6.55999 0.32,-3.29334 2,-6.04 4.72,-7.17334 0.8533,-0.34666 1.7333,-0.50666 2.6267,-0.50666 2.6533,0 5.3866,1.44 7.44,3.89333 0.5466,3.16 1.2,6.41333 1.96,9.74666 0.4,1.72 0.8133,3.41334 1.24,5.08 -0.1067,2.69334 -0.3467,5.34667 -0.5734,7.4 -0.067,0.68 -0.3466,1.21334 -0.7333,1.56 -0.36,0.34667 -0.8133,0.53334 -1.32,0.53334"
         style="fill:#218d13;fill-opacity:1;fill-rule:nonzero;stroke:none;stroke-width:0.133333" />
      <path
         id="path768"
         d="m 2622.8533,275.62673 c -0.4267,-1.66666 -0.84,-3.36 -1.24,-5.08 -0.76,-3.33333 -1.4134,-6.58666 -1.96,-9.74666 0.8933,1.06667 1.6666,2.32 2.2533,3.72 1,2.42666 1.1333,6.84 0.9467,11.10666"
         style="fill:#1c7b0a;fill-opacity:1;fill-rule:nonzero;stroke:none;stroke-width:0.133333" />
      <path
         id="path769"
         d="m 2620.4533,263.98674 c -2.3867,-5.74667 -7.8934,-8.92 -12.32,-7.09334 -2.72,1.12 -4.3867,3.88 -4.72,7.16 -0.2134,2.06667 0.08,4.33333 1,6.56 1.6533,3.97333 8.6666,10.02667 12.8133,13.37333 1.0133,0.82667 2.1467,0.77334 2.8667,0.0667 0.3866,-0.34667 0.6666,-0.86667 0.7333,-1.56 0.5867,-5.29333 1.2667,-14.53333 -0.3733,-18.50666"
         style="fill:#231f20;fill-opacity:1;fill-rule:nonzero;stroke:none;stroke-width:0.133333" />
      <path
         id="path770"
         d="m 2619.5199,267.38673 c -2.3733,-5.73333 -7.88,-8.91999 -12.3066,-7.09333 -1.7067,0.70667 -2.9867,2.04 -3.8,3.76 -0.2134,2.06667 0.08,4.33333 1,6.56 1.6533,3.97333 8.6666,10.02667 12.8133,13.37333 1.0133,0.82667 2.1467,0.77334 2.8667,0.0667 0.5066,-5.38667 0.8933,-13.12 -0.5734,-16.66667"
         style="fill:#333333;fill-opacity:1;fill-rule:nonzero;stroke:none;stroke-width:0.133333" />
    </g>
  </g>
</svg>
