<?xml version="1.0" encoding="UTF-8" standalone="no"?>
<!-- Created with Inkscape (http://www.inkscape.org/) -->

<svg
   width="118.98834mm"
   height="118.98212mm"
   viewBox="0 0 118.98834 118.98212"
   version="1.1"
   id="svg1"
   inkscape:version="1.3 (0e150ed, 2023-07-21)"
   sodipodi:docname="lemon.svg"
   xmlns:inkscape="http://www.inkscape.org/namespaces/inkscape"
   xmlns:sodipodi="http://sodipodi.sourceforge.net/DTD/sodipodi-0.dtd"
   xmlns="http://www.w3.org/2000/svg"
   xmlns:svg="http://www.w3.org/2000/svg">
  <sodipodi:namedview
     id="namedview1"
     pagecolor="#ffffff"
     bordercolor="#000000"
     borderopacity="0.25"
     inkscape:showpageshadow="2"
     inkscape:pageopacity="0.0"
     inkscape:pagecheckerboard="0"
     inkscape:deskcolor="#d1d1d1"
     inkscape:document-units="mm"
     inkscape:zoom="0.2102413"
     inkscape:cx="225.93087"
     inkscape:cy="223.55265"
     inkscape:window-width="1312"
     inkscape:window-height="449"
     inkscape:window-x="0"
     inkscape:window-y="25"
     inkscape:window-maximized="0"
     inkscape:current-layer="layer1" />
  <defs
     id="defs1" />
  <g
     inkscape:label="Layer 1"
     inkscape:groupmode="layer"
     id="layer1"
     transform="translate(-45.508336,-88.899999)">
    <g
       id="g797"
       transform="matrix(0.26458333,0,0,0.26458333,-402.09154,48.370104)">
      <path
         id="path771"
         d="m 2098.7866,173.56007 c -5.08,-0.04 -11.4,0.48 -18.92,2.06667 -9.5067,2 -19.7733,2.12 -28.52,1.57333 -10.3733,-0.64 -20.5333,-2.92 -30.4267,-6.13333 -74.4399,-24.22667 -169.4133,1.25333 -239.7333,71.57333 -70.3333,70.33333 -95.8,165.33333 -71.56,239.78666 3.0534,9.37333 5.2267,19.01333 5.9467,28.84 0.6667,9.06667 0.6667,20.02667 -1.48,30.13333 -1.5867,7.50667 -2.0933,13.82667 -2.0667,18.90667 0.067,10.56 10,21.25333 20.3867,21.90666 5.5333,0.34667 12.5067,0.0667 20.8133,-1.69333 10.1067,-2.13333 21.0534,-2.13333 30.1334,-1.46667 9.8266,0.72 19.4533,2.88 28.8266,5.93334 74.4534,24.25333 169.4667,-1.21334 239.8,-71.54667 70.32,-70.32 95.7867,-165.29333 71.5733,-239.74666 -3.2133,-9.88 -5.4933,-20.05333 -6.1466,-30.41333 -0.5467,-8.74667 -0.4267,-19.01333 1.5866,-28.53333 1.7467,-8.29334 2.04,-15.28 1.6934,-20.81334 -0.6534,-10.37333 -11.3467,-20.32 -21.9067,-20.37333"
         style="fill:#ffffff;fill-opacity:1;fill-rule:nonzero;stroke:none;stroke-width:0.133333" />
      <path
         id="path772"
         d="m 2131.9733,270.94673 c 26.0933,80.22667 -2.84,177.86667 -73.72,248.76 -53.5867,53.57333 -122.4267,83.17333 -187.5067,83.17333 -21.0533,0 -41.6933,-3.09333 -61.32,-9.45333 -9.48,-3.12 -18.24,-4.90667 -26.7066,-5.54667 -10.6,-0.76 -19.8934,-0.32 -27.6534,1.30667 -6.1333,1.29333 -12.0933,1.96 -17.8133,2.01333 -2.2133,-2.62667 -3.9067,-5.74667 -4.7333,-8.98667 -0.4267,-1.52 -0.6667,-3.06666 -0.6667,-4.61333 0,-1.37333 0.027,-2.82667 0.12,-4.37333 0.2,-4.21334 0.7867,-9.02667 1.9467,-14.54667 0.1866,-0.81333 0.3333,-1.64 0.48,-2.45333 0.1066,-0.52 0.2,-1.08 0.2533,-1.64 0.12,-0.64 0.2133,-1.30667 0.2933,-1.94667 0.1467,-1.02667 0.2667,-2.05333 0.3467,-3.06667 0.12,-1.02666 0.1867,-2.04 0.24,-3.06666 h 0.027 c 0.3866,-6.25334 0.24,-12.44 -0.1734,-17.96 -0.7066,-9.84 -2.8933,-19.46667 -5.9333,-28.84 -24.2533,-74.45333 1.2267,-169.46666 71.5733,-239.79999 70.3067,-70.30667 165.28,-95.76 239.7333,-71.56 9.8667,3.21333 20.0267,5.49333 30.4267,6.13333 8.72,0.54667 19,0.44 28.52,-1.57333 4.12,-0.88 7.88,-1.44 11.2667,-1.73334 0.5333,-0.0533 1.0533,-0.08 1.5466,-0.14666 0.9067,-0.0533 1.8134,-0.10667 2.6667,-0.10667 1.1867,-0.0933 2.36,-0.0933 3.44,-0.0933 0.32,0 0.64,0 0.96,0.0533 0.2133,0 0.4133,0 0.64,0.04 0.44,0.0267 0.88,0.08 1.3467,0.2 0.96,0.17333 1.96,0.41333 2.92,0.73333 0.64,0.2 1.28,0.46667 1.8933,0.72 0.44,0.21334 0.88,0.41334 1.32,0.65334 0.3467,0.17333 0.7067,0.34666 1.0267,0.54666 0.2933,0.17334 0.5733,0.34667 0.84,0.53334 0.3466,7.09333 -0.2667,14.6 -1.8934,22.26666 -1.5733,7.38667 -2.0533,16.18667 -1.44,26.13334 0.56,8.88 2.4534,18.13333 5.7334,28.23999"
         style="fill:#fddd0c;fill-opacity:1;fill-rule:nonzero;stroke:none;stroke-width:0.133333" />
      <path
         id="path773"
         d="m 2140.4933,211.2134 -0.08,-0.97333 c 0.053,0.32 0.08,0.64 0.1066,0.97333 0.067,0.64 0.067,1.30667 0.093,1.97334 -0.027,-0.66667 -0.093,-1.33334 -0.12,-1.97334"
         style="fill:#fddd0c;fill-opacity:1;fill-rule:nonzero;stroke:none;stroke-width:0.133333" />
      <path
         id="path774"
         d="m 2131.9733,270.94673 c 26.0933,80.22667 -2.84,177.86667 -73.72,248.76 -53.5867,53.57333 -122.4267,83.17333 -187.5067,83.17333 -21.0533,0 -41.6933,-3.09333 -61.32,-9.45333 -9.48,-3.12 -18.24,-4.90667 -26.7066,-5.54667 -10.6,-0.76 -19.8934,-0.32 -27.6534,1.30667 -6.1333,1.29333 -12.0933,1.96 -17.8133,2.01333 -2.2133,-2.62667 -3.9067,-5.74667 -4.7333,-8.98667 -0.4267,-1.52 -0.6667,-3.06666 -0.6667,-4.61333 0,-1.37333 0.027,-2.82667 0.12,-4.37333 0.2,-4.21334 0.7867,-9.02667 1.9467,-14.54667 0.1866,-0.81333 0.3333,-1.64 0.48,-2.45333 0.1066,-0.52 0.2,-1.08 0.2533,-1.64 0.12,-0.64 0.2133,-1.30667 0.2933,-1.94667 0.1467,-1.02667 0.24,-2.05333 0.3467,-3.06667 0.093,-1.02666 0.1867,-2.04 0.24,-3.06666 h 0.027 c 3.8266,-0.24 8.0933,-0.73334 12.7866,-1.72 10.1334,-2.13334 21.0534,-2.13334 30.16,-1.46667 9.8134,0.70667 19.4534,2.89333 28.7867,5.93333 74.48,24.25334 169.4933,-1.22666 239.8266,-71.55999 41.4,-41.41334 67.24,-91.33333 76.56,-140.61333 l 0.027,-0.0933 c 3.1467,-16.70666 4.4133,-33.30666 3.7067,-49.52 -0.6934,-17.13333 -3.5867,-33.81333 -8.6934,-49.51999 -0.56,-1.65334 -1.0933,-3.34667 -1.56,-5.04 -2.4133,-8.26667 -4.08,-16.73334 -4.6133,-25.37334 -0.32,-5.14666 -0.4,-10.77333 -0.027,-16.50666 0.9067,-0.0533 1.8134,-0.10667 2.6667,-0.10667 1.1867,-0.0667 2.3333,-0.0933 3.4133,-0.0667 0.32,0 0.6667,0 0.9867,0.0267 0.2133,0 0.44,0.04 0.64,0.0667 0.44,0.0267 0.88,0.08 1.3467,0.17333 0.96,0.17333 1.96,0.41333 2.92,0.73333 0.64,0.2 1.28,0.46667 1.8933,0.72 0.44,0.21334 0.88,0.41334 1.32,0.65334 0.3467,0.17333 0.6667,0.34666 1.0267,0.54666 0.2933,0.17334 0.5466,0.34667 0.84,0.50667 v 0.0267 c 0.3466,7.09333 -0.2667,14.6 -1.8934,22.26666 -1.5733,7.38667 -2.0533,16.18667 -1.44,26.13334 0.56,8.88 2.4534,18.13333 5.7334,28.23999"
         style="fill:#febd01;fill-opacity:1;fill-rule:nonzero;stroke:none;stroke-width:0.133333" />
      <path
         id="path775"
         d="m 1814.92,576.57339 c -10.8934,-3.56 -21,-5.62666 -30.92,-6.36 -3.8,-0.26666 -7.48,-0.41333 -11.0134,-0.41333 -7.88,0 -15.12,0.68 -21.6,2.05333 -6.48,1.37334 -12.6666,1.89334 -18.4266,1.50667 -0.32,-0.0267 -0.6667,-0.0533 -0.9867,-0.13333 -5.44,-1 -11.04,-7.42667 -11.0667,-12.97334 -0.067,-5.25333 0.5867,-10.97333 1.8667,-17.01333 1.9867,-9.41333 2.5333,-20.38666 1.64,-32.61333 -0.7333,-9.93333 -2.8133,-20.04 -6.3733,-30.92 -24.08,-73.96 3.16,-164.56 69.4,-230.81333 66.2266,-66.21333 156.7866,-93.45333 230.7466,-69.4 11.56,3.74667 22.2267,5.90667 32.6133,6.54667 11.56,0.73333 21.96,0.14667 30.8934,-1.74667 6.04,-1.29333 11.8266,-1.93333 17.0533,-1.88 4.76,0.04 10.16,4.14667 12.2267,8.76 0.4933,1.08 0.8266,2.22667 0.88,3.30667 0.3466,5.77333 -0.1467,11.97333 -1.52,18.45333 -1.8934,8.93334 -2.48,19.32 -1.7467,30.88 0.64,10.4 2.7733,21.05334 6.5333,32.61333 6.28,19.30667 9.0534,39.74667 8.5867,60.56 l -0.027,0.0933 c -1.3733,58.97333 -29.0533,121.18666 -77.96,170.09333 -66.2533,66.25333 -156.8399,93.46666 -230.7999,69.39999 z m 317.0533,-305.62666 c -3.28,-10.10666 -5.1734,-19.35999 -5.7334,-28.23999 -0.6133,-9.94667 -0.1333,-18.74667 1.44,-26.13334 1.6267,-7.66666 2.24,-15.17333 1.8934,-22.26666 v -0.0267 c -0.027,-0.33333 -0.027,-0.62667 -0.053,-0.90667 -0.4666,-7.48 -4.36,-14.6 -10.0133,-19.92 -5.6667,-5.28 -13.12,-8.69333 -20.68,-8.76 -6.56,-0.0533 -13.52,0.73334 -20.7867,2.25334 -7.3866,1.57333 -16.1733,2.04 -26.1333,1.42666 -8.8667,-0.54666 -18.1333,-2.45333 -28.2267,-5.72 -80.2399,-26.10666 -177.8666,2.82667 -248.7599,73.72 -70.92,70.92 -99.8534,168.58666 -73.72,248.81333 3.12,9.49333 4.9066,18.25333 5.5466,26.72 0.76,10.6 0.32,19.88 -1.32,27.65333 -1.5466,7.29333 -2.3066,14.30667 -2.24,20.81333 0.08,15.12 13.7467,29.74667 28.6667,30.68 1.7867,0.12 3.56,0.18667 5.4,0.14667 5.72,-0.0533 11.68,-0.72 17.8133,-2.01333 7.76,-1.62667 17.0534,-2.06667 27.6534,-1.30667 8.4666,0.64 17.2266,2.42667 26.7066,5.54667 19.6267,6.36 40.2667,9.45333 61.32,9.45333 65.08,0 133.92,-29.6 187.5067,-83.17333 70.88,-70.89333 99.8133,-168.53333 73.72,-248.76"
         style="fill:#231f20;fill-opacity:1;fill-rule:nonzero;stroke:none;stroke-width:0.133333" />
    </g>
  </g>
</svg>
