<?xml version="1.0" encoding="UTF-8" standalone="no"?>
<!-- Created with Inkscape (http://www.inkscape.org/) -->

<svg
   width="107.5063mm"
   height="168.48331mm"
   viewBox="0 0 107.5063 168.48331"
   version="1.1"
   id="svg1"
   inkscape:version="1.3 (0e150ed, 2023-07-21)"
   sodipodi:docname="mango.svg"
   xmlns:inkscape="http://www.inkscape.org/namespaces/inkscape"
   xmlns:sodipodi="http://sodipodi.sourceforge.net/DTD/sodipodi-0.dtd"
   xmlns="http://www.w3.org/2000/svg"
   xmlns:svg="http://www.w3.org/2000/svg">
  <sodipodi:namedview
     id="namedview1"
     pagecolor="#ffffff"
     bordercolor="#000000"
     borderopacity="0.25"
     inkscape:showpageshadow="2"
     inkscape:pageopacity="0.0"
     inkscape:pagecheckerboard="0"
     inkscape:deskcolor="#d1d1d1"
     inkscape:document-units="mm"
     inkscape:zoom="0.2102413"
     inkscape:cx="202.14867"
     inkscape:cy="318.68144"
     inkscape:window-width="1312"
     inkscape:window-height="449"
     inkscape:window-x="0"
     inkscape:window-y="25"
     inkscape:window-maximized="0"
     inkscape:current-layer="layer1" />
  <defs
     id="defs1" />
  <g
     inkscape:label="Layer 1"
     inkscape:groupmode="layer"
     id="layer1"
     transform="translate(-51.329165,-64.293748)">
    <g
       id="g797"
       transform="matrix(0.26458333,0,0,0.26458333,7.7367767,-147.1646)">
      <path
         id="path627"
         d="m 565.25599,1172.0267 c -4.52534,20.0267 -11.56134,39.8 -18.364,58.8933 -14.80267,41.6 -28.788,80.88 -19.212,123.1467 4.672,20.5067 10.94933,48.24 -10.71467,68.2133 -0.292,0.053 -0.584,0.1067 -0.876,0.1734 -11.82533,2.28 -25.60667,0.9866 -39.27067,-2.08 -5.89733,-1.3334 -11.76533,-3 -17.45866,-4.84 l -0.11733,-0.027 c -0.584,-0.2133 -1.168,-0.3867 -1.752,-0.5867 -3.47467,-1.1733 -6.89067,-2.4 -10.16,-3.6533 -1.636,-0.64 -3.24134,-1.28 -4.78934,-1.8933 -0.788,-0.3467 -1.576,-0.68 -2.364,-0.96 -2.27733,-0.9734 -4.49733,-1.9334 -6.59866,-2.8934 -3.53334,-1.6133 -6.80267,-3.1866 -9.69334,-4.64 -1.664,-0.8533 -3.32933,-1.7333 -4.964,-2.6 -1.63466,-0.88 -3.24133,-1.7866 -4.84666,-2.72 -1.46,-0.8133 -2.89067,-1.6666 -4.32134,-2.5066 -0.408,-0.2667 -0.81733,-0.5334 -1.22533,-0.7867 -1.31467,-0.8 -2.628,-1.6133 -3.91333,-2.4533 -1.54667,-1 -3.06534,-1.9867 -4.584,-3.04 -1.46,-1 -2.92,-2.0134 -4.35067,-3.04 -1.83867,-1.3067 -3.64933,-2.6534 -5.42933,-4 -1.14,-0.9067 -2.27867,-1.7734 -3.41734,-2.68 C 316.26533,1320.9867 282.39599,1225.2 273.49199,1137.2 c -1.928,-19.0666 -1.86933,-38.92 0.34934,-58.5733 1.256,-11.0667 3.18266,-22.0667 5.84,-32.88 0.75866,-3.24 1.60533,-6.48 2.54,-9.6533 1.34266,-4.6534 2.80266,-9.2667 4.40933,-13.7867 1.95467,-5.4933 4.116,-10.8667 6.452,-16.12 10.97733,-24.54665 26.42267,-46.38665 46.68533,-62.89332 4.088,-3.34666 8.38,-6.48 12.876,-9.33333 l 0.23333,-0.21333 0.26267,-0.10667 c 2.19067,-1.44 4.43867,-2.77333 6.716,-4.02666 1.372,-0.8 2.77333,-1.56 4.17467,-2.22667 0.99333,-0.56 1.98533,-1.05333 3.008,-1.54667 14.27733,-6.94666 30.248,-11.65333 48,-13.66666 13.40133,-1.52 25.956,-1.45334 37.72266,0 9.63467,3.26666 18.88933,7.58666 27.64933,12.93333 6.80267,4.12 13.34267,8.88 19.53334,14.22666 27.00666,23.32 47.67733,57.42667 59.824,98.62662 12.84666,43.6534 14.86133,92.52 5.488,134.0667"
         style="fill:#fcda01;fill-opacity:1;fill-rule:nonzero;stroke:none;stroke-width:0.133333" />
      <path
         id="path628"
         d="m 367.04932,925.84005 c -0.0547,22.33333 -5.604,117.27995 -93.19333,152.79995 7.172,-63.64 36.784,-125.42662 93.19333,-152.79995"
         style="fill:#febd01;fill-opacity:1;fill-rule:nonzero;stroke:none;stroke-width:0.133333" />
      <path
         id="path629"
         d="m 565.25599,1172.0267 c -4.52534,20.0267 -11.56134,39.8 -18.364,58.8933 -14.80267,41.6 -28.788,80.88 -19.212,123.1467 4.672,20.5067 10.94933,48.24 -10.71467,68.2133 -0.292,0.053 -0.584,0.1067 -0.876,0.1734 -11.82533,2.28 -25.60667,0.9866 -39.27067,-2.08 -5.89733,-1.3334 -11.76533,-3 -17.45866,-4.84 -0.61333,-0.2 -1.256,-0.4134 -1.86933,-0.6134 -3.47467,-1.1733 -6.89067,-2.4 -10.16,-3.6533 -1.636,-0.64 -3.24134,-1.28 -4.78934,-1.8933 -0.788,-0.3467 -1.576,-0.68 -2.364,-0.96 -2.27733,-1 -4.49733,-1.96 -6.59866,-2.8934 -3.53334,-1.6133 -6.80267,-3.1866 -9.69334,-4.64 -1.664,-0.8533 -3.32933,-1.7333 -4.964,-2.6 -1.63466,-0.88 -3.24133,-1.7866 -4.84666,-2.72 -1.46,-0.8133 -2.89067,-1.6666 -4.32134,-2.5066 -0.408,-0.2667 -0.81733,-0.5334 -1.22533,-0.7867 -1.31467,-0.8 -2.628,-1.6133 -3.91333,-2.4533 -1.54667,-1 -3.06534,-1.9867 -4.584,-3.04 -1.46,-1 -2.92,-2.0134 -4.35067,-3.04 -1.83867,-1.3067 -3.64933,-2.6534 -5.42933,-4 -1.14,-0.9067 -2.27867,-1.7734 -3.41734,-2.68 28.964,11.5866 68.788,21.4533 90.19067,4.4933 19.62,-15.56 15.79466,-37.8667 10.452,-61.32 -15.67867,-69.3333 27.504,-130.1467 39.94133,-196.6133 7.15333,-38.3067 5.22667,-80.7467 -5.92667,-119.4667 -1.81066,-6.33332 -3.85333,-12.55998 -6.13066,-18.65332 -8.468,-22.57333 -20.02934,-43.30666 -34.94934,-60.38666 6.80267,4.12 13.34267,8.88 19.53334,14.22666 27.00666,23.32 47.67733,57.42667 59.824,98.62662 12.84666,43.6534 14.86133,92.52 5.488,134.0667"
         style="fill:#febd01;fill-opacity:1;fill-rule:nonzero;stroke:none;stroke-width:0.133333" />
      <path
         id="path630"
         d="m 546.77465,1167.8534 c -4.26266,18.92 -11.09466,38.1333 -17.72133,56.7333 -15.06667,42.3067 -30.628,86.04 -19.82533,133.6933 5.168,22.8934 7.708,40.0267 -7.124,51.7867 -9.928,7.8933 -25.81067,8.44 -42.744,5.4667 l -0.11733,-0.027 c -20.584,-3.68 -42.71467,-12.6133 -57.46,-20.12 -113.54667,-57.6133 -139.416,-198.3333 -145.284,-256.1733 -2.94933,-29.1067 -1.25467,-58.8667 5.168,-86.6 0.55467,-2.3067 1.10933,-4.5867 1.72267,-6.8667 1.08,-4.1333 2.30666,-8.2267 3.59066,-12.2267 1.48934,-4.4933 3.06667,-8.9333 4.84667,-13.2533 14.01467,-35.01332 37.02267,-64.29332 69.40133,-81.17332 3.67867,-1.92 7.504,-3.70666 11.44533,-5.28 l 0.204,-0.0667 0.26267,-0.10667 c 2.16133,-0.88 4.38,-1.69333 6.628,-2.45333 1.19733,-0.44 2.45333,-0.82667 3.67867,-1.2 1.168,-0.37333 2.336,-0.73333 3.53333,-1.05333 7.212,-2.01334 14.77333,-3.48 22.71467,-4.37334 5.46,-0.61333 10.83333,-0.93333 16.088,-0.93333 31.64933,0 60,10.92 83.24133,31.34666 9.72266,8.53334 18.53866,18.74667 26.336,30.52 10.86,16.34666 19.70666,35.73336 26.21866,57.84006 12,40.64 13.868,86.04 5.196,124.52 z M 559.76799,1037.96 c -12.14667,-41.19995 -32.81734,-75.30662 -59.824,-98.62662 -6.19067,-5.34666 -12.73067,-10.10666 -19.53334,-14.22666 -8.76,-5.34667 -18.01466,-9.66667 -27.64933,-12.93333 -20.23333,-6.82667 -42.16133,-9.05334 -65.168,-6.45334 -6.56933,0.73334 -12.964,1.84 -19.18266,3.30667 -0.40934,0.08 -0.81734,0.17333 -1.22667,0.29333 h -0.0573 c -1.89867,0.46667 -3.76667,0.93334 -5.60667,1.48 -1.80933,0.46667 -3.59067,1.02667 -5.372,1.61334 -0.70133,0.2 -1.40133,0.44 -2.10267,0.66666 -6.948,2.33334 -13.63466,5.13334 -20.05733,8.41334 -4.11733,2.06666 -8.088,4.34666 -11.97066,6.8 -23.24134,14.65333 -42.57067,35.97333 -57.28534,63.38666 -6.62666,12.34665 -12.17466,25.77335 -16.52533,39.93335 -1.19733,3.7733 -2.27733,7.6266 -3.26933,11.5066 -0.964,3.6267 -1.81067,7.3334 -2.57067,11.04 -0.32,1.3467 -0.61333,2.68 -0.84533,4.0267 -5.28534,26.72 -6.68667,55.0133 -3.85467,82.92 6.16133,60.9333 33.664,209.3467 155.532,271.1867 9.92666,5.0533 49.052,23.7066 83.56133,23.7066 13.84,0 26.92,-3.0133 37.10933,-11.0933 1.08133,-0.88 2.132,-1.76 3.096,-2.6267 21.664,-19.9733 15.38667,-47.7066 10.71467,-68.2133 -9.576,-42.2667 4.40933,-81.5467 19.212,-123.1467 6.80266,-19.0933 13.83866,-38.8666 18.364,-58.8933 9.37333,-41.5467 7.35866,-90.4133 -5.488,-134.0667"
         style="fill:#231f20;fill-opacity:1;fill-rule:nonzero;stroke:none;stroke-width:0.133333" />
      <path
         id="path631"
         d="m 357.14799,912.49339 c 0,0 -183.73333,-18.73334 -182.90933,146.48001 0,0 163.00533,-7.96 182.90933,-146.48001"
         style="fill:#ffffff;fill-opacity:1;fill-rule:nonzero;stroke:none;stroke-width:0.133333" />
      <path
         id="path632"
         d="m 358.13332,947.88005 v 0.0267 c -13.22666,37.02666 -38.97733,66.95995 -75.91199,88.18665 -5.98534,3.4666 -12.26267,6.68 -18.832,9.6533 -0.40934,0.2133 -0.84667,0.3867 -1.28534,0.5867 -6.68533,2.9733 -13.31333,5.5733 -19.73733,7.8266 -12.46667,4.32 -24.204,7.36 -34.27733,9.4934 h -0.0573 c -18.01466,1.84 -30.16133,1.3333 -30.16133,1.3333 1.81067,-9.92 4.14667,-19.24 6.94934,-27.9067 v -0.027 c 20.73066,-64.63999 66.48133,-95.62665 105.95599,-110.47998 l 0.0867,-0.0267 c 37.22667,-13.98667 68.876,-13.64 68.876,-13.64 0.672,12.70667 0.0587,24.32 -1.60534,34.97333"
         style="fill:#01982f;fill-opacity:1;fill-rule:nonzero;stroke:none;stroke-width:0.133333" />
      <path
         id="path633"
         d="m 345.25732,924.73339 c -1.10933,4.93333 -2.452,9.71999 -4.02933,14.35999 -0.46667,1.42667 -0.96267,2.84 -1.46,4.2 -9.22533,25 -24.84666,46.02667 -46.68533,62.89332 -6.51067,5.08 -13.60667,9.76 -21.256,14.08 -5.372,3 -11.00667,5.8667 -16.93467,8.52 -2.248,1 -4.46666,1.96 -6.68533,2.8267 -26.248,10.8133 -50.97866,15.1866 -64.292,16.88 0.17467,-3.88 0.468,-7.7067 0.90534,-11.4134 v -0.027 c 3.62133,-32.44 15.99999,-58.40002 36.96266,-77.46668 20.11733,-18.30667 45.636,-27.96 68.99333,-33.01333 l 0.0867,-0.0267 c 0.43867,-0.0933 0.848,-0.18667 1.256,-0.24 15.796,-3.29333 30.51067,-4.49333 41.86933,-4.81333 2.54,-0.0933 4.904,-0.12 7.06533,-0.12 1.78,0 3.416,0.0267 4.93467,0.0533 -0.23467,1.12 -0.468,2.22667 -0.73067,3.30667 z m 22.39467,-20.68 -1.40133,-0.14667 -4.73067,-0.49333 -1.13867,-0.12 -2.27733,-0.22667 c -0.32133,-0.0267 -1.284,-0.12 -2.832,-0.24 -2.36533,-0.17333 -6.10267,-0.37333 -10.89067,-0.46667 -9.89733,-0.17333 -24.37999,0.21334 -40.93466,2.57334 -3.70667,0.52 -7.50267,1.14666 -11.38667,1.86666 -5.60533,1.10667 -11.35733,2.42667 -17.19733,4.02667 -4.26133,1.17333 -8.55467,2.52 -12.84533,4.04 -18.45334,6.48 -36.964,16.17333 -52.90534,30.65333 -29.66399,26.92 -44.58399,65.10665 -44.35066,113.49335 l 0.0587,9.8933 9.86933,-0.4667 c 0.96267,-0.067 14.16,-0.76 33.34266,-4.7866 h 0.0573 c 10.07333,-2.1334 21.81066,-5.1734 34.27733,-9.4934 6.424,-2.2533 13.052,-4.8533 19.73733,-7.8266 0.43867,-0.2 0.876,-0.3734 1.28534,-0.5867 6.56933,-2.9733 12.84666,-6.1867 18.832,-9.6533 36.93466,-21.2267 62.68533,-51.16002 75.91199,-88.18668 v -0.0267 c 2.07334,-5.8 3.85467,-11.73333 5.31334,-17.89333 0.20533,-0.85333 0.40933,-1.72 0.584,-2.6 0.43866,-1.93333 0.84666,-3.88 1.19733,-5.86667 0.204,-1 0.38,-1.98666 0.55467,-3.01333 0.26266,-1.54667 0.496,-3.09333 0.73066,-4.66667 l 0.52534,-3.68 0.14533,-0.84 0.35067,-2.49333 0.40933,-2.73333 -0.292,-0.04"
         style="fill:#231f20;fill-opacity:1;fill-rule:nonzero;stroke:none;stroke-width:0.133333" />
      <path
         id="path634"
         d="m 201.14266,811.09339 c 0,0 33.57333,143.26666 157.80133,99.76 0,0 -48.304,-120.70667 -157.80133,-99.76"
         style="fill:#ffffff;fill-opacity:1;fill-rule:nonzero;stroke:none;stroke-width:0.133333" />
      <path
         id="path635"
         d="m 362.54266,906.57339 c -123.06667,18.82666 -161.752,-97.52 -161.752,-97.52 13.31467,-5.37334 25.664,-8.32 37.10933,-9.28 h 0.0293 c 33.28533,3 63.88266,18.85333 90.10133,46.88 6.65733,7.13333 12.43866,14.4 17.37333,21.32 l 0.116,0.14666 c 11.796,20.90667 17.02267,38.45334 17.02267,38.45334"
         style="fill:#01982f;fill-opacity:1;fill-rule:nonzero;stroke:none;stroke-width:0.133333" />
      <path
         id="path636"
         d="m 368.41066,909.02672 -0.672,-1.69333 c -0.0293,-0.0667 -0.0867,-0.24 -0.204,-0.50667 -0.0587,-0.10667 -0.088,-0.22667 -0.14534,-0.37333 -0.26266,-0.58667 -0.64266,-1.42667 -1.13866,-2.54667 -1.28534,-2.88 -3.47467,-7.44 -6.54,-13.10667 -3.53334,-6.45333 -8.264,-14.30666 -14.19067,-22.68 l -0.116,-0.14666 c -4.93467,-6.92 -10.716,-14.18667 -17.37333,-21.32 -26.21867,-28.02667 -56.816,-43.88 -90.10133,-46.88 h -0.0293 c -12.496,-1.17333 -25.40133,-0.50667 -38.53999,2.01333 l -9.69334,1.86667 2.248,9.6 c 0.70134,2.94666 17.28533,71.56 70.10267,101.61333 0.496,0.28 0.992,0.57333 1.488,0.84 3.56266,1.96 7.18266,3.68 10.89066,5.2 5.60534,2.28 11.38667,4.05333 17.344,5.30667 0.116,0.04 0.23334,0.0667 0.37867,0.0933 7.18267,1.49333 14.628,2.25333 22.248,2.25333 2.512,0 5.08,-0.0933 7.65067,-0.26666 7.532,-0.46667 15.29866,-1.66667 23.23999,-3.56 3.38667,-0.78667 6.77334,-1.72 10.21867,-2.77334 1.48933,-0.44 2.97867,-0.93333 4.496,-1.46666 0.70133,-0.2 1.40267,-0.46667 2.10267,-0.69334 l 1.548,-0.53333 2.16,-0.76 1.05066,-0.37333 4.584,-1.61334 z M 237.69599,867.16005 c -12.93466,-17.81333 -20.584,-37.02666 -24.38,-48.33333 37.63467,-4.08 71.38667,9.44 100.496,40.36 14.68667,15.58667 24.788,32.29333 30.56933,43.17333 0.496,0.93334 0.964,1.84 1.40134,2.69334 -5.576,1.54666 -11.036,2.68 -16.34933,3.41333 -13.256,1.89333 -25.752,1.34667 -37.37334,-1.66667 -6.744,-1.72 -13.19733,-4.29333 -19.35733,-7.64 -14.51067,-7.94666 -26.04267,-19.65333 -35.00667,-32"
         style="fill:#231f20;fill-opacity:1;fill-rule:nonzero;stroke:none;stroke-width:0.133333" />
      <path
         id="path637"
         d="m 364.38132,921.70672 c -2.48933,-7.44 -3.87066,-15.12 -4.43733,-23.04 -0.58267,-7.89333 -0.18667,-15.98667 1.22533,-24.04 0.31067,-2.04 0.676,-4.06667 1.23467,-6.04 0.524,-2 0.96667,-4.04 1.588,-6.02667 1.37333,-3.90666 2.636,-7.96 4.53333,-11.73333 2.17334,-5.04 4.95734,-9.78667 8.06,-14.36 2.672,-3.94667 8.29734,-4.46667 11.64267,-1.06667 l 6.33867,6.42667 c 3.068,3.10667 2.83333,8.13333 -0.44667,11.01333 -2.94533,2.58667 -5.756,5.37334 -8.20267,8.50667 -2.28533,2.52 -4.052,5.4 -6.024,8.24 -0.92,1.44 -1.68933,2.97333 -2.55866,4.49333 -0.9,1.49334 -1.63467,3.06667 -2.33067,4.66667 -2.95467,6.36 -5.184,13.22667 -6.52667,20.38667 -1.368,7.12 -1.976,14.61333 -1.51333,21.96 l -2.58267,0.61333"
         style="fill:#231f20;fill-opacity:1;fill-rule:nonzero;stroke:none;stroke-width:0.133333" />
    </g>
  </g>
</svg>
