<?xml version="1.0" encoding="UTF-8" standalone="no"?>
<!-- Created with Inkscape (http://www.inkscape.org/) -->

<svg
   width="133.14558mm"
   height="147.43333mm"
   viewBox="0 0 133.14558 147.43333"
   version="1.1"
   id="svg1"
   inkscape:version="1.3 (0e150ed, 2023-07-21)"
   sodipodi:docname="melon.svg"
   xmlns:inkscape="http://www.inkscape.org/namespaces/inkscape"
   xmlns:sodipodi="http://sodipodi.sourceforge.net/DTD/sodipodi-0.dtd"
   xmlns="http://www.w3.org/2000/svg"
   xmlns:svg="http://www.w3.org/2000/svg">
  <sodipodi:namedview
     id="namedview1"
     pagecolor="#ffffff"
     bordercolor="#000000"
     borderopacity="0.25"
     inkscape:showpageshadow="2"
     inkscape:pageopacity="0.0"
     inkscape:pagecheckerboard="0"
     inkscape:deskcolor="#d1d1d1"
     inkscape:document-units="mm"
     inkscape:zoom="0.2102413"
     inkscape:cx="249.71307"
     inkscape:cy="280.62992"
     inkscape:window-width="1312"
     inkscape:window-height="449"
     inkscape:window-x="0"
     inkscape:window-y="25"
     inkscape:window-maximized="0"
     inkscape:current-layer="layer1" />
  <defs
     id="defs1" />
  <g
     inkscape:label="Layer 1"
     inkscape:groupmode="layer"
     id="layer1"
     transform="translate(-38.629141,-74.877077)">
    <g
       id="g797"
       transform="matrix(0.26458333,0,0,0.26458333,-1003.5293,-346.36745)">
      <path
         id="path205"
         d="m 4432.7732,1897.7334 c 0,76.9466 -35.8666,145.4933 -91.7866,189.88 h -0.027 c -5.7733,4.5866 -11.76,8.92 -17.96,12.9733 -10.8933,7.1333 -22.4267,13.4133 -34.4533,18.72 -0.3467,0.16 -0.6534,0.2933 -1,0.44 -20.5067,9.0133 -42.52,15.24 -65.52,18.2133 -2.9734,0.3867 -5.9334,0.7334 -8.9334,0.9867 -7.4533,0.7333 -14.9866,1.08 -22.64,1.08 -7.64,0 -15.1733,-0.3467 -22.6266,-1.08 -3,-0.2533 -5.96,-0.6 -8.9334,-0.9867 -23,-3 -44.9866,-9.2266 -65.52,-18.2133 -0.3466,-0.1467 -0.6533,-0.28 -1,-0.44 -12.0266,-5.3067 -23.5333,-11.6133 -34.4266,-18.72 -6.2,-4.0533 -12.1867,-8.3867 -17.96,-12.9733 h -0.027 c -55.92,-44.3867 -91.7867,-112.9334 -91.7867,-189.88 0,-78.8 37.6,-150.6 95.8534,-196.3467 h 0.027 c 5.9867,-4.68 12.1334,-9.0933 18.5067,-13.2133 11.1467,-7.2 22.8533,-13.4667 35.0933,-18.7467 0.24,-0.1067 0.4934,-0.2133 0.7334,-0.32 20.5333,-8.8 42.4933,-14.76 65.4133,-17.3867 3.0267,-0.3333 6.0667,-0.6266 9.12,-0.8666 5.8,-0.44 11.6267,-0.6534 17.5333,-0.6534 5.92,0 11.7734,0.2134 17.5734,0.6534 3.0533,0.24 6.0933,0.5333 9.12,0.8666 22.92,2.6267 44.88,8.5867 65.4133,17.3867 0.24,0.1067 0.4933,0.2133 0.7333,0.32 12.24,5.28 23.9467,11.5467 35.0934,18.7467 6.3733,4.12 12.5733,8.5333 18.5333,13.2133 58.2533,45.7467 95.8533,117.5467 95.8533,196.3467"
         style="fill:#ffffff;fill-opacity:1;fill-rule:nonzero;stroke:none;stroke-width:0.133333" />
      <path
         id="path206"
         d="m 4442.0932,1897.7334 c 0,77.2133 -34.7333,149.0933 -95.2933,197.16 l -2.6133,2.0133 c -5.2267,4.0667 -10.6267,7.92 -16.0934,11.4933 -11.3066,7.3867 -23.36,13.92 -35.8,19.44 l -0.84,0.3867 c -21.8133,9.56 -44.7333,15.9067 -68.24,18.9733 -2.1466,0.2934 -4.4533,0.56 -6.9866,0.8 -7.36,-0.027 -14.6267,-0.36 -21.8134,-1.0666 -3,-0.24 -5.9333,-0.6 -8.9333,-1.0134 -17.76,-2.32 -34.88,-6.5333 -51.2133,-12.4666 -4.84,-1.76 -9.6134,-3.6534 -14.3067,-5.7067 -0.3333,-0.1733 -0.6533,-0.2933 -1.0133,-0.4667 -5.52,-2.4133 -10.92,-5.08 -16.2134,-7.9333 -6.2266,-3.32 -12.28,-6.9467 -18.1866,-10.7733 -6.2134,-4.0667 -12.1734,-8.4 -17.96,-13 h -0.04 c -1.04,-0.84 -2.0667,-1.6667 -3.1067,-2.5334 -6.5333,-5.3066 -12.7733,-11 -18.68,-17 -1.4533,-1.4933 -2.9067,-2.9733 -4.3067,-4.48 -2.1333,-2.2666 -4.2133,-4.5733 -6.2266,-6.92 -11.6134,-13.3066 -21.7334,-27.8533 -30.2,-43.4666 -0.92,-1.6667 -1.8,-3.3467 -2.6667,-5.08 -0.68,-1.3067 -1.36,-2.64 -2.0133,-4 -1.04,-2.1067 -2.0267,-4.2134 -3,-6.36 -0.8,-1.7467 -1.5734,-3.4934 -2.32,-5.28 -12.4134,-29.0934 -19.2667,-61.12 -19.2667,-94.7334 0,-66.1733 26.5067,-127.3866 69.4933,-172.3866 v -0.027 c 8.2267,-8.6133 17.04,-16.6 26.36,-23.96 h 0.04 c 5.9867,-4.6667 12.1334,-9.0533 18.52,-13.1867 3.7467,-2.4266 7.5734,-4.7466 11.4534,-6.9733 7.64,-4.36 15.5066,-8.28 23.64,-11.7867 0.24,-0.093 0.5066,-0.2 0.7333,-0.2933 10.1333,-4.36 20.6133,-7.9867 31.3867,-10.8933 2.5733,-0.72 5.1866,-1.3734 7.8,-1.9867 2.5333,-0.5733 5.0533,-1.1333 7.6,-1.6133 3.9866,-0.8 7.9866,-1.48 12.0533,-2.04 2.1733,-0.3334 4.3733,-0.6267 6.56,-0.8667 0.5733,-0.053 1.1333,-0.12 1.6933,-0.1733 2.44,-0.2667 4.9334,-0.48 7.4,-0.68 2.64,-0.2134 5.3067,-0.36 7.9467,-0.48 3.2133,-0.1467 6.3867,-0.2134 9.6267,-0.2134 0.5066,0 0.9733,0 1.48,0.04 h 1.9333 c 1.6667,0.027 3.2933,0.053 4.92,0.1467 3.0933,0.08 6.1467,0.2667 9.24,0.5067 3.0267,0.2266 6.08,0.4933 9.1067,0.8533 9.2133,1.04 18.2666,2.64 27.1066,4.76 13.2134,3.1067 26.0134,7.36 38.2934,12.64 0.24,0.093 0.5066,0.2 0.7466,0.2933 0.4534,0.2134 0.8934,0.3867 1.3334,0.6 5.64,2.4667 11.2,5.16 16.6266,8.0667 1.28,0.6933 2.5867,1.4 3.8534,2.1067 4.52,2.5333 8.9466,5.1733 13.28,7.9866 l 1.6,1.08 c 59.88,48.9467 95.5066,123.52 95.5066,200.4934"
         style="fill:#c4f27c;fill-opacity:1;fill-rule:nonzero;stroke:none;stroke-width:0.133333" />
      <path
         id="path207"
         d="m 4094.1866,1773.2534 c 17.28,-37.1734 43,-71.6934 74.4266,-99.8534 l 0.24,-0.2 0.48,-0.4266 c 3.48,-3.1067 7.28,-6.3334 12.36,-10.4667 3.4934,-2.8933 7.2,-5.6933 10.7867,-8.4 l 2.0667,-1.5467 c 1.0933,-0.84 1.3733,-2.3733 0.6533,-3.5333 -0.7333,-1.1733 -2.24,-1.5867 -3.4667,-0.96 -4.8666,2.48 -9.76,5.1867 -14.5466,8.0267 -3.8667,2.3066 -7.8934,4.8933 -12.9334,8.32 l -0.32,0.1866 -0.7733,0.5334 c -36.0267,24.8266 -66.3067,59.0666 -87.56,99.04 -21.1067,39.6 -32.6,84.3466 -33.2267,129.4133 -0.7733,45.4 9.4667,90.4667 29.64,130.3333 20.4134,40.3734 50.24,75.04 86.2534,100.2534 l 0.84,0.5866 0.2933,0.1867 c 4.9067,3.3733 9.4933,6.3467 14,9.0533 5.5333,3.2934 11.0667,6.2 15.7467,8.6 0.3733,0.2 0.7866,0.2934 1.2133,0.2934 h 0.1867 l 0.12,-0.013 c 1.3866,-0.093 2.4,-1.2533 2.4133,-2.6533 0,-0.9333 -0.5067,-1.76 -1.2533,-2.24 -1.4267,-1.0667 -2.8534,-2.1333 -4.2667,-3.2 -3.1867,-2.36 -6.4667,-4.8133 -9.5733,-7.3867 -4.8667,-3.8933 -9.2134,-7.5866 -13.2934,-11.28 l -0.52,-0.48 -0.24,-0.1866 c -31.4266,-28.48 -56.68,-63.2 -73.0533,-100.48 -16.8,-37.8134 -25.2933,-79.6534 -24.5733,-121.0134 0.5466,-40.96 10.1866,-82.64 27.88,-120.5066"
         style="fill:#7daa13;fill-opacity:1;fill-rule:nonzero;stroke:none;stroke-width:0.133333" />
      <path
         id="path208"
         d="m 4350.8532,1876.5867 c -3.5733,-47.88 -19.24,-94.2533 -45.32,-134.12 -26.2933,-40.64 -61.88,-73.2667 -102.8933,-94.36 -1.2267,-0.6267 -2.7467,-0.2133 -3.48,0.96 -0.72,1.1867 -0.4267,2.72 0.6933,3.5467 36.7334,27.0266 67.5734,61.5466 89.2,99.84 21.96,39.0533 35.1067,82.56 38.0267,125.84 3.08,44.4666 -4.1467,89.1866 -20.9067,129.3333 -16.3466,39.9733 -42.6533,77.1867 -76.12,107.68 l -0.2266,0.1733 -0.5067,0.48 c -3.9333,3.56 -8.1867,7.1734 -13.0133,11.0667 -3.1734,2.6533 -6.5734,5.1867 -9.8667,7.6533 -1.2533,0.92 -2.5067,1.8667 -3.7467,2.8 -1.1066,0.84 -1.3866,2.3734 -0.6533,3.5334 0.5067,0.8 1.3733,1.2533 2.2533,1.2533 0.4134,0 0.8267,-0.093 1.2134,-0.2933 6.0933,-3.1067 10.9866,-5.7867 15.4,-8.4267 4.2666,-2.56 8.7466,-5.4533 13.68,-8.84 l 0.2933,-0.1867 0.8267,-0.5733 c 38.32,-26.8267 69.4266,-64.0933 89.96,-107.7467 20.1733,-42.7866 28.88,-91.0533 25.1866,-139.6133"
         style="fill:#7daa13;fill-opacity:1;fill-rule:nonzero;stroke:none;stroke-width:0.133333" />
      <path
         id="path209"
         d="m 4216.2266,2148 c -7.36,-0.027 -14.6267,-0.36 -21.8134,-1.0666 -3,-0.24 -5.9333,-0.6 -8.9333,-1.0134 -17.76,-2.32 -34.88,-6.5333 -51.2133,-12.4666 -4.84,-1.76 -9.6134,-3.6534 -14.3067,-5.7067 -0.3333,-0.1733 -0.6533,-0.2933 -1.0133,-0.4667 -5.52,-2.4133 -10.92,-5.08 -16.2134,-7.9333 -6.2266,-3.32 -12.28,-6.9467 -18.1866,-10.7733 -6.2134,-4.0667 -12.1734,-8.4 -17.96,-13 h -0.04 c -1.04,-0.84 -2.0667,-1.6667 -3.1067,-2.5334 -6.5333,-5.3066 -12.7733,-11 -18.68,-17 -1.4533,-1.4933 -2.9067,-2.9733 -4.3067,-4.48 -2.1333,-2.2666 -4.2133,-4.5733 -6.2266,-6.92 -11.6134,-13.3066 -21.7334,-27.8533 -30.2,-43.4666 -0.92,-1.6667 -1.8,-3.3467 -2.6667,-5.08 -0.68,-1.3067 -1.36,-2.64 -2.0133,-4 -1.04,-2.1067 -2.0267,-4.2134 -3,-6.36 -0.8,-1.7467 -1.5734,-3.4934 -2.32,-5.28 6.8533,9.5333 14.4533,18.4666 22.68,26.7733 6.44,6.56 13.3066,12.7067 20.52,18.44 h 0.027 c 5.4267,4.3333 11.0667,8.4 16.8934,12.2 5.5466,3.6267 11.28,7.0133 17.12,10.16 4.96,2.6933 10.0666,5.1867 15.2666,7.48 0.32,0.12 0.6534,0.2667 0.9467,0.4133 8.8533,3.8534 18.0133,7.1867 27.4,9.9067 13.1067,14.32 27.6533,27.1333 43.3867,38.1467 l 0.84,0.5866 0.2933,0.1867 c 4.9067,3.3733 9.4933,6.3467 14,9.0533 5.5333,3.2934 11.0667,6.2 15.7467,8.6 0.3733,0.2 0.7866,0.2934 1.2133,0.2934 h 0.1867 l 0.12,-0.013 c 1.3866,-0.093 2.4,-1.2533 2.4133,-2.6533 0,-0.9333 -0.5067,-1.76 -1.2533,-2.24 -1.4267,-1.0667 -2.8534,-2.1333 -4.2667,-3.2 -3.1867,-2.36 -6.4667,-4.8133 -9.5733,-7.3867 -4.8667,-3.8933 -9.2134,-7.5866 -13.2934,-11.28 l -0.52,-0.48 -0.24,-0.1866 c -8.2,-7.44 -15.9866,-15.2934 -23.3066,-23.52 0.013,0 0.013,0 0.027,0.013 2.8134,0.4667 5.64,0.88 8.4934,1.2667 2.7866,0.3866 5.6,0.72 8.4,0.9866 7.0266,0.6534 14.12,1 21.3066,1 7.1867,0 14.28,-0.3466 21.32,-1 2.8134,-0.2666 5.6134,-0.6 8.4,-0.9866 19.5334,-2.52 38.36,-7.5334 56.0134,-14.72 0.013,0 0.013,0 0.013,0 -10.4,13.1466 -21.9733,25.5466 -34.5467,37.0133 l -0.2266,0.1733 -0.5067,0.48 c -3.9333,3.56 -8.1867,7.1734 -13.0133,11.0667 -3.1734,2.6533 -6.5734,5.1867 -9.8667,7.6533 -1.2533,0.92 -2.5067,1.8667 -3.7467,2.8 -1.1066,0.84 -1.3866,2.3734 -0.6533,3.5334 0.5067,0.8 1.3733,1.2533 2.2533,1.2533 0.4134,0 0.8267,-0.093 1.2134,-0.2933 6.0933,-3.1067 10.9866,-5.7867 15.4,-8.4267 4.2666,-2.56 8.7466,-5.4533 13.68,-8.84 l 0.2933,-0.1867 0.8267,-0.5733 c 24.64,-17.2533 46.3066,-38.8267 64.0933,-63.64 v 0 c 1.28,-0.8 2.56,-1.6133 3.8,-2.44 5.8533,-3.8 11.4933,-7.8667 16.8933,-12.2 h 0.027 c 52.64,-41.7733 86.4267,-106.28 86.4267,-178.72 0,-35.44 -8.08,-69.3733 -22.5334,-99.8533 -10.5466,-22.2667 -24.4666,-42.6934 -41.1466,-60.5067 -8.2,-8.8133 -17.08,-16.9867 -26.5734,-24.44 -1.8133,-1.4133 -3.6266,-2.7867 -5.4666,-4.1467 5.64,2.4667 11.2,5.16 16.6266,8.0667 1.28,0.6933 2.5867,1.4 3.8534,2.1067 4.52,2.5333 8.9466,5.1733 13.28,7.9866 l 1.6,1.08 c 59.88,48.9467 95.5066,123.52 95.5066,200.4934 0,77.2133 -34.7333,149.0933 -95.2933,197.16 l -2.6133,2.0133 c -5.2267,4.0667 -10.6267,7.92 -16.0934,11.4933 -11.3066,7.3867 -23.36,13.92 -35.8,19.44 l -0.84,0.3867 c -21.8133,9.56 -44.7333,15.9067 -68.24,18.9733 -2.1466,0.2934 -4.4533,0.56 -6.9866,0.8"
         style="fill:#a6da59;fill-opacity:1;fill-rule:nonzero;stroke:none;stroke-width:0.133333" />
      <path
         id="path210"
         d="m 4190.3599,2142.6934 c -0.4267,0 -0.84,-0.093 -1.2133,-0.2934 -4.68,-2.4 -10.2134,-5.3066 -15.7467,-8.6 -4.5067,-2.7066 -9.0933,-5.68 -14,-9.0533 l -0.2933,-0.1867 -0.84,-0.5866 c -15.7334,-11.0134 -30.28,-23.8267 -43.3867,-38.1467 v 0.013 c 8.4,2.4534 17,4.4134 25.7467,5.8934 7.32,8.2266 15.1066,16.08 23.3066,23.52 l 0.24,0.1866 0.52,0.48 c 4.08,3.6934 8.4267,7.3867 13.2934,11.28 3.1066,2.5734 6.3866,5.0267 9.5733,7.3867 1.4133,1.0667 2.84,2.1333 4.2667,3.2 0.7466,0.48 1.2533,1.3067 1.2533,2.24 -0.013,1.4 -1.0267,2.56 -2.4133,2.6533 l -0.12,0.013 h -0.1867"
         style="fill:#6a990e;fill-opacity:1;fill-rule:nonzero;stroke:none;stroke-width:0.133333" />
      <path
         id="path211"
         d="m 4204.2932,2142.2667 c -0.88,0 -1.7466,-0.4533 -2.2533,-1.2533 -0.7333,-1.16 -0.4533,-2.6934 0.6533,-3.5334 1.24,-0.9333 2.4934,-1.88 3.7467,-2.8 3.2933,-2.4666 6.6933,-5 9.8667,-7.6533 4.8266,-3.8933 9.08,-7.5067 13.0133,-11.0667 l 0.5067,-0.48 0.2266,-0.1733 c 12.5734,-11.4667 24.1467,-23.8667 34.5467,-37.0133 1.9067,-0.7734 3.76,-1.5734 5.6267,-2.3734 0.3333,-0.1466 0.6266,-0.2933 0.96,-0.4133 9.9066,-4.4 19.4933,-9.4667 28.6133,-15.2 -17.7867,24.8133 -39.4533,46.3867 -64.0933,63.64 l -0.8267,0.5733 -0.2933,0.1867 c -4.9334,3.3867 -9.4134,6.28 -13.68,8.84 -4.4134,2.64 -9.3067,5.32 -15.4,8.4267 -0.3867,0.2 -0.8,0.2933 -1.2134,0.2933"
         style="fill:#6a990e;fill-opacity:1;fill-rule:nonzero;stroke:none;stroke-width:0.133333" />
      <path
         id="path212"
         d="m 4335.1599,2080.3067 c -5.5867,4.4533 -11.3733,8.64 -17.2533,12.4667 -10.48,6.8933 -21.64,12.9466 -33.24,18.08 l -0.84,0.3866 c -16.9467,7.4267 -34.7067,12.7734 -52.9334,15.9467 -3.3466,0.6 -6.7333,1.0933 -10.12,1.5467 -2.32,0.32 -4.8133,0.5866 -7.6266,0.8533 -0.3334,0.04 -0.6267,0.067 -0.9467,0.093 -3.2133,0.3334 -5.8533,0.5067 -8.4933,0.6267 -4.2534,0.2667 -8.7067,0.4133 -13.36,0.4133 -2.76,0 -5.4667,-0.027 -8.1334,-0.1466 -4.5733,-0.1467 -9.0533,-0.4534 -13.5733,-0.8934 -0.7333,-0.053 -1.48,-0.1466 -2.1867,-0.24 -2.2266,-0.2 -4.3066,-0.44 -6.36,-0.7066 -21.7066,-2.8534 -42.8933,-8.7334 -62.7866,-17.4 l -1.16,-0.5334 c -11.1334,-4.9333 -22.1467,-10.8933 -32.7067,-17.7466 l -0.3867,-0.28 c -5.88,-3.8267 -11.6666,-8.0134 -17.2533,-12.4667 l -1.7467,-1.36 c -55.04,-44.5067 -86.5733,-110.44 -86.5733,-181.2133 0,-72.1867 33.76,-142.1067 90.4267,-187.56 l 1.9066,-1.4534 c 5.9867,-4.72 11.84,-8.88 17.8134,-12.7333 10.7466,-6.9467 22.08,-13 33.84,-18.0533 l 0.5866,-0.2667 c 20.04,-8.6 41.1734,-14.2133 62.8267,-16.7067 1.68,-0.1866 3.3467,-0.36 4.9467,-0.48 l 0.2666,-0.027 c 1.2267,-0.12 2.3867,-0.24 3.5334,-0.2934 3.7466,-0.3066 7.5733,-0.48 11.4666,-0.6 1.7734,-0.027 3.56,-0.053 5.3734,-0.053 0.5333,0.027 1.04,0 1.6266,0.027 h 0.7467 c 2.5867,0.027 5.32,0.093 8.2533,0.24 2.0534,0.08 4.0934,0.2 6.2934,0.3866 0.8,0.053 1.6266,0.12 2.4933,0.1734 1.96,0.1733 4.0133,0.3866 6.2,0.6266 2.4667,0.2934 4.9333,0.5867 7.36,0.9734 1.2533,0.1866 2.4667,0.36 3.6933,0.5733 17.7467,2.96 35.12,8.0133 51.6134,15.1067 l 0.8666,0.3866 c 11.5734,4.96 22.92,11.0134 33.72,17.9867 6.1467,3.9733 12.1467,8.2533 17.84,12.7067 21.0267,16.5066 38.92,36.3333 53.24,58.4 25.08,38.68 39.0667,84.1866 39.0667,130.64 0,70.4533 -31.24,136.0533 -85.7733,180.56 z m 11.4267,-383.0667 c -1.3067,-1.1066 -2.6134,-2.1466 -3.92,-3.1866 -6.1467,-4.8 -12.6134,-9.44 -19.24,-13.7067 -11.6934,-7.5467 -23.9467,-14.08 -36.3334,-19.4133 l -0.8533,-0.36 c -21.1467,-9.0534 -43.3467,-15.0534 -66.0933,-17.88 -0.6534,-0.08 -1.3067,-0.1467 -1.96,-0.2267 -3.4134,-0.3867 -6.52,-0.6933 -9.3734,-0.8667 -2.32,-0.2133 -4.6933,-0.36 -6.8666,-0.4133 -3.1067,-0.1867 -6.1334,-0.24 -8.72,-0.2667 -3.2134,-0.093 -6.44,-0.067 -9.5867,0.027 -3.8933,0.12 -7.6933,0.3333 -11.3733,0.6267 -3.0267,0.2 -6.2,0.5333 -9.5334,0.8933 -23.4133,2.6933 -46.3066,8.7867 -68.16,18.1333 l -0.5866,0.2934 c -12.5867,5.4133 -24.8534,11.9733 -36.4534,19.4533 -5.6133,3.6133 -11.08,7.48 -16.6666,11.72 l -2.5734,1.9867 c -62.2533,48.8933 -99.4266,125.04 -99.4266,203.68 0,77.2133 34.7333,149.0933 95.32,197.16 l 2.56,2.0133 h 0.027 c 5.2267,4.0667 10.6267,7.9333 16.0934,11.4933 11.52,7.5067 23.5466,14.04 35.6266,19.3867 l 1.16,0.4933 c 21.6934,9.48 44.5867,15.8534 68.0134,18.92 2.9333,0.3867 5.9866,0.7067 9.2266,1 7.6267,0.7734 15.2934,1.1334 23.5734,1.1334 4.92,0 9.8,-0.1467 14.2533,-0.4134 2.7867,-0.1466 5.7467,-0.36 9.2267,-0.72 0.7733,-0.053 1.5466,-0.1466 2.28,-0.2 2.5333,-0.24 4.84,-0.5066 6.9866,-0.8 23.5067,-3.0666 46.4267,-9.4133 68.24,-18.9733 l 0.84,-0.3867 c 12.44,-5.52 24.4934,-12.0533 35.8,-19.44 5.4667,-3.56 10.8667,-7.4266 16.0934,-11.4933 l 2.6133,-2.0133 c 60.56,-48.0667 95.2933,-119.9467 95.2933,-197.16 0,-76.9734 -35.6266,-151.5467 -95.5066,-200.4934"
         style="fill:#231f20;fill-opacity:1;fill-rule:nonzero;stroke:none;stroke-width:0.133333" />
      <path
         id="path213"
         d="m 4304.7332,1596.3334 c -11.1466,-2.52 -22.6533,-4.2 -34.5733,-4.2267 -11.8667,-0.053 -24.1867,1.4133 -36.1467,5.5333 -11.9466,4.0934 -23.4933,10.8 -32.9333,19.9467 -4.7333,4.5867 -8.96,9.6667 -12.64,15.2 -1.8267,2.76 -3.5067,5.64 -5.0533,8.64 -0.7734,1.52 -1.48,3.0533 -2.1734,4.68 l -0.1466,0.36 c -7.24,2.3467 -11.9867,6.2 -11.9867,10.5867 0,7.16 12.64,12.96 28.24,12.96 15.5867,0 28.24,-5.8 28.24,-12.96 0,-3.6267 -3.2533,-6.9067 -8.48,-9.2534 1.7333,-3.2666 3.7733,-6.4133 6.1333,-9.32 5.4,-6.76 12.4667,-12.24 20.6667,-16.2533 8.2133,-4.0267 17.5867,-6.44 27.4,-7.5867 9.8133,-1.2 20.0533,-0.9866 30.3467,0.08 h 0.08 c 4.6266,0.48 8.9866,-2.5466 10.0533,-7.2133 1.1467,-5.0267 -2.0267,-10.0267 -7.0267,-11.1733"
         style="fill:#231f20;fill-opacity:1;fill-rule:nonzero;stroke:none;stroke-width:0.133333" />
    </g>
  </g>
</svg>
