<?xml version="1.0" encoding="UTF-8" standalone="no"?>
<!-- Created with Inkscape (http://www.inkscape.org/) -->

<svg
   width="132.99449mm"
   height="147.14023mm"
   viewBox="0 0 132.99449 147.14023"
   version="1.1"
   id="svg1"
   inkscape:version="1.3 (0e150ed, 2023-07-21)"
   sodipodi:docname="orange.svg"
   xmlns:inkscape="http://www.inkscape.org/namespaces/inkscape"
   xmlns:sodipodi="http://sodipodi.sourceforge.net/DTD/sodipodi-0.dtd"
   xmlns="http://www.w3.org/2000/svg"
   xmlns:svg="http://www.w3.org/2000/svg">
  <sodipodi:namedview
     id="namedview1"
     pagecolor="#ffffff"
     bordercolor="#000000"
     borderopacity="0.25"
     inkscape:showpageshadow="2"
     inkscape:pageopacity="0.0"
     inkscape:pagecheckerboard="0"
     inkscape:deskcolor="#d1d1d1"
     inkscape:document-units="mm"
     inkscape:zoom="0.2102413"
     inkscape:cx="249.71307"
     inkscape:cy="280.62992"
     inkscape:window-width="1312"
     inkscape:window-height="449"
     inkscape:window-x="0"
     inkscape:window-y="25"
     inkscape:window-maximized="0"
     inkscape:current-layer="layer1" />
  <defs
     id="defs1" />
  <g
     inkscape:label="Layer 1"
     inkscape:groupmode="layer"
     id="layer1"
     transform="translate(-38.629169,-74.877082)">
    <g
       id="g796"
       transform="matrix(0.26458333,0,0,0.26458333,-192.75706,54.366711)">
      <path
         id="path776"
         d="m 1368.08,415.06673 c 0,-115.69333 -99.028,-209.47999 -221.188,-209.47999 -122.16,0 -221.19069,93.78666 -221.19069,209.47999 0,115.69333 99.03069,209.48 221.19069,209.48 122.16,0 221.188,-93.78667 221.188,-209.48"
         style="fill:#ffffff;fill-opacity:1;fill-rule:nonzero;stroke:none;stroke-width:0.133333" />
      <path
         id="path777"
         d="m 1377.1866,415.08006 c 0,88.25334 -55.388,164.46667 -134.9493,198.94667 -21.7813,6.82666 -45.1093,10.50666 -69.3133,10.50666 -1.5187,0 -3.036,0 -4.556,-0.0533 -1.1387,0 -2.248,-0.04 -3.3574,-0.0933 -1.7226,-0.0267 -3.416,-0.12 -5.1093,-0.2 -0.904,-0.0667 -1.8387,-0.12 -2.744,-0.17334 -0.6427,-0.04 -1.3147,-0.0933 -1.956,-0.14666 -1.4013,-0.0933 -2.804,-0.21334 -4.204,-0.36 -0.5547,-0.0533 -1.0813,-0.08 -1.6067,-0.14667 -3.2706,-0.32 -6.5106,-0.72 -9.752,-1.18667 -1.956,-0.26666 -3.912,-0.58666 -5.868,-0.90666 -1.752,-0.29334 -3.4746,-0.61334 -5.2266,-0.97334 -5.488,-1.04 -10.8614,-2.26666 -16.1747,-3.70666 -1.752,-0.46667 -3.504,-0.96 -5.2267,-1.48 -1.6346,-0.46667 -3.2706,-0.96 -4.9053,-1.49334 -2.2773,-0.73333 -4.496,-1.49333 -6.7147,-2.28 -1.256,-0.44 -2.4826,-0.86666 -3.708,-1.33333 -1.664,-0.61333 -3.3293,-1.26667 -4.9933,-1.93333 -1.664,-0.64 -3.2987,-1.34667 -4.9333,-2.04 -0.5267,-0.21334 -1.0227,-0.44 -1.548,-0.68 -0.7294,-0.32 -1.46,-0.64 -2.1614,-0.96 -0.7,-0.29334 -1.4013,-0.61334 -2.1013,-0.96 -1.2853,-0.58667 -2.5693,-1.2 -3.8547,-1.81334 -4.7586,-2.30666 -9.4306,-4.76 -13.9853,-7.41333 -1.0507,-0.58667 -2.1013,-1.2 -3.1533,-1.86667 -0.876,-0.46666 -1.7227,-1 -2.5694,-1.52 -0.8466,-0.53333 -1.6933,-1.05333 -2.54,-1.61333 -1.7226,-1.08 -3.416,-2.18667 -5.1386,-3.32 -1.8094,-1.22667 -3.62,-2.48 -5.372,-3.77333 -0.4667,-0.32 -0.9347,-0.64 -1.4014,-1.01334 -1.5186,-1.08 -3.036,-2.22666 -4.5253,-3.36 -0.176,-0.14666 -0.38,-0.29333 -0.584,-0.46666 -1.6053,-1.22667 -3.212,-2.52 -4.788,-3.8 -1.6653,-1.37334 -3.3293,-2.77334 -4.964,-4.22667 -0.7013,-0.58667 -1.4013,-1.2 -2.0733,-1.84 -3.5027,-3.09333 -6.9187,-6.37333 -10.2187,-9.72 -1.46,-1.49333 -2.8907,-2.98667 -4.292,-4.50667 -1.6347,-1.74666 -3.24,-3.53333 -4.788,-5.34666 -1.3133,-1.50667 -2.62799,-3.02667 -3.85466,-4.61334 -0.408,-0.46666 -0.788,-0.93333 -1.19733,-1.42666 -1.05067,-1.28 -2.072,-2.6 -3.06533,-3.90667 -1.956,-2.57333 -3.88267,-5.2 -5.69334,-7.85333 -0.93466,-1.29333 -1.78,-2.57333 -2.628,-3.85333 -0.37866,-0.56 -0.75866,-1.12 -1.10933,-1.69334 -1.10933,-1.69333 -2.18933,-3.42666 -3.24,-5.14666 -0.088,-0.10667 -0.14667,-0.22667 -0.23467,-0.37334 -1.13866,-1.90666 -2.248,-3.8 -3.328,-5.72 l -0.17466,-0.32 -0.0293,-0.04 c -16.32133,-29.18666 -25.548,-62.48 -25.548,-97.8 0,-7.21333 0.38,-14.30666 1.13867,-21.31999 0.876,-7.97334 2.16133,-15.82667 3.97067,-23.50667 0.38,-1.72 0.78933,-3.44 1.22666,-5.16 4.23334,-16.34667 10.48267,-31.97333 18.51067,-46.57333 1.86933,-3.38667 3.82533,-6.72 5.89867,-9.98667 2.48133,-4 5.13866,-7.94667 7.912,-11.76 0.72933,-1.02667 1.46,-2.02667 2.21866,-3.01333 0.64267,-0.88 1.31467,-1.72 1.956,-2.57334 1.95734,-2.53333 4,-5.01333 6.07332,-7.46666 21.2266,-25 48.4093,-45.22667 79.504,-58.86667 4.408,-1.92 8.9333,-3.73333 13.488,-5.4 4.0293,-1.42666 8.088,-2.8 12.2053,-4.02666 0.8173,-0.26667 1.6347,-0.49334 2.4813,-0.73334 3.212,-0.96 6.452,-1.81333 9.752,-2.62666 0.964,-0.22667 1.956,-0.46667 2.92,-0.66667 l 0.1747,-0.0267 c 1.8987,-0.44 3.7667,-0.85333 5.6933,-1.2 0.6134,-0.12 1.1974,-0.24 1.8107,-0.36 2.072,-0.4 4.1453,-0.74666 6.2187,-1.10666 3.796,-0.61334 7.62,-1.16 11.4746,-1.6 4.496,-0.53334 8.992,-0.90667 13.576,-1.14667 0.876,-0.0533 1.7814,-0.10667 2.6574,-0.14667 3.416,-0.13333 6.8613,-0.22666 10.336,-0.22666 8.6706,0 17.196,0.46666 25.6053,1.4 h 0.029 c 1.2254,0.14666 2.452,0.29333 3.6787,0.44 1.08,0.12 2.1307,0.26666 3.212,0.44 1.4893,0.2 2.9773,0.41333 4.4373,0.64 1.3134,0.2 2.628,0.44 3.9427,0.66666 1.3707,0.24 2.744,0.50667 4.0867,0.76 0.9346,0.17334 1.8973,0.34667 2.832,0.58667 1.0226,0.2 2.0733,0.44 3.0946,0.66667 1.7814,0.38666 3.5334,0.78666 5.256,1.22666 2.832,0.70667 5.6054,1.44 8.3494,2.25334 1.548,0.44 3.0666,0.88 4.5546,1.37333 h 0.029 c 79.6506,34.42667 135.1546,110.68 135.1546,199.03999"
         style="fill:#fc8108;fill-opacity:1;fill-rule:nonzero;stroke:none;stroke-width:0.133333" />
      <path
         id="path778"
         d="m 1135.1813,205.58674 c 0,0 -0.052,1.09333 -0.312,3.12 -0.052,0.44 -0.1293,0.93333 -0.208,1.45333 -3.1747,21.4 -57.4053,119.48 -176.58799,154.94666 6.71333,-26.02666 18.58,-50.14666 34.532,-71.36 0.65067,-0.85333 1.30133,-1.72 1.95067,-2.54666 43.38002,-30.73333 98.91202,-62.58667 119.07862,-75.77333 2.1347,-1.41334 4.7107,-2.78667 7.3387,-4.04 6.9733,-3.33334 14.208,-5.8 14.208,-5.8"
         style="fill:#ff6600;fill-opacity:1;fill-rule:nonzero;stroke:none;stroke-width:0.133333" />
      <path
         id="path779"
         d="m 1377.1866,415.08006 c 0,88.25334 -55.388,164.46667 -134.9493,198.94667 -21.7813,6.82666 -45.1093,10.50666 -69.3133,10.50666 -1.5187,0 -3.036,0 -4.556,-0.0533 -1.1387,0 -2.248,-0.04 -3.3574,-0.0933 -1.7226,-0.0267 -3.416,-0.12 -5.1093,-0.2 h -0.029 c -0.904,-0.0667 -1.8094,-0.12 -2.7147,-0.17334 -0.6427,-0.04 -1.3147,-0.0933 -1.956,-0.14666 -1.4013,-0.0933 -2.804,-0.21334 -4.204,-0.36 -0.5547,-0.0533 -1.0813,-0.08 -1.6067,-0.14667 -3.2706,-0.32 -6.5106,-0.72 -9.752,-1.18667 -1.956,-0.26666 -3.912,-0.58666 -5.868,-0.90666 -1.752,-0.29334 -3.4746,-0.61334 -5.2266,-0.97334 -5.488,-1.04 -10.8614,-2.26666 -16.1747,-3.70666 -1.752,-0.46667 -3.504,-0.96 -5.2267,-1.48 -1.6346,-0.46667 -3.2706,-0.96 -4.9053,-1.49334 -2.2773,-0.73333 -4.496,-1.49333 -6.7147,-2.28 -1.256,-0.44 -2.4826,-0.86666 -3.708,-1.33333 -1.664,-0.61333 -3.3293,-1.26667 -4.9933,-1.93333 -1.664,-0.64 -3.2987,-1.34667 -4.9333,-2.04 -0.5267,-0.21334 -1.0227,-0.44 -1.548,-0.68 l -0.2334,-0.08 c -0.6426,-0.29334 -1.2853,-0.58667 -1.928,-0.88 -0.7,-0.29334 -1.4013,-0.61334 -2.1013,-0.96 -1.2853,-0.58667 -2.5693,-1.2 -3.8547,-1.81334 -4.7586,-2.30666 -9.4306,-4.76 -13.9853,-7.41333 -1.0507,-0.58667 -2.1013,-1.2 -3.1533,-1.86667 -0.876,-0.46666 -1.7227,-1 -2.5694,-1.52 -0.8466,-0.53333 -1.6933,-1.05333 -2.54,-1.61333 -1.7226,-1.08 -3.416,-2.18667 -5.1386,-3.32 -1.8094,-1.22667 -3.62,-2.48 -5.372,-3.77333 -0.4667,-0.32 -0.9347,-0.64 -1.4014,-1.01334 -1.5186,-1.08 -3.036,-2.22666 -4.5253,-3.36 -0.176,-0.14666 -0.38,-0.29333 -0.584,-0.46666 -1.6053,-1.22667 -3.212,-2.52 -4.788,-3.8 -1.6653,-1.37334 -3.3293,-2.77334 -4.964,-4.22667 -0.7013,-0.58667 -1.4013,-1.2 -2.0733,-1.84 -3.5027,-3.09333 -6.9187,-6.37333 -10.2187,-9.72 -1.46,-1.49333 -2.8907,-2.98667 -4.292,-4.50667 -1.6347,-1.74666 -3.24,-3.53333 -4.788,-5.34666 -1.3133,-1.50667 -2.62799,-3.02667 -3.85466,-4.61334 -0.408,-0.46666 -0.788,-0.93333 -1.19733,-1.42666 -1.05067,-1.28 -2.072,-2.6 -3.06533,-3.90667 -1.956,-2.57333 -3.88267,-5.2 -5.69334,-7.85333 -0.93466,-1.29333 -1.78,-2.57333 -2.628,-3.85333 -0.37866,-0.56 -0.75866,-1.12 -1.10933,-1.69334 -1.10933,-1.69333 -2.18933,-3.42666 -3.24,-5.14666 -0.088,-0.10667 -0.14667,-0.22667 -0.23467,-0.37334 -1.13866,-1.90666 -2.248,-3.8 -3.328,-5.72 l -0.17466,-0.32 c 37.02132,44.76 94.16002,73.45333 158.27732,73.45333 111.6187,0 202.1253,-87.06666 202.1253,-194.47999 0,-46.01333 -16.5786,-88.29333 -44.3173,-121.57333 -15.3573,-18.42667 -34.1013,-34.10667 -55.3573,-46.16 l -0.116,-0.0667 c -12.3507,-6.97333 -25.5187,-12.72 -39.3574,-17.10666 1.2254,0.14666 2.452,0.29333 3.6787,0.44 1.08,0.12 2.1307,0.26666 3.212,0.44 1.4893,0.2 2.9773,0.41333 4.4373,0.64 1.3134,0.2 2.628,0.44 3.9427,0.66666 1.3707,0.24 2.744,0.50667 4.0867,0.76 0.9346,0.17334 1.8973,0.34667 2.832,0.58667 1.0226,0.2 2.0733,0.44 3.0946,0.66667 1.7814,0.38666 3.5334,0.78666 5.256,1.22666 2.832,0.70667 5.6054,1.44 8.3494,2.25334 1.548,0.44 3.0666,0.88 4.5546,1.37333 h 0.029 c 79.6506,34.42667 135.1546,110.68 135.1546,199.03999"
         style="fill:#ff6600;fill-opacity:1;fill-rule:nonzero;stroke:none;stroke-width:0.133333" />
      <path
         id="path780"
         d="m 1146.88,615.45339 c -23.2414,0 -45.6054,-3.56 -66.54,-10.10666 l -0.2334,-0.08 c -84.32129,-26.48 -145.28396,-101.76 -145.28396,-190.18667 0,-34.22666 9.13867,-66.49333 25.196,-94.69333 1.46,-2.57333 3.008,-5.10666 4.584,-7.58666 2.36534,-3.77334 4.84667,-7.41334 7.44534,-11.01334 2.97866,-4.05333 6.07333,-8.02666 9.34266,-11.85333 25.31466,-29.86666 59.50396,-52.76 98.74536,-65.08 3.912,-1.22666 7.8533,-2.33333 11.8533,-3.36 4.496,-1.13333 9.0507,-2.13333 13.6347,-2.97333 1.4893,-0.29333 2.9493,-0.56 4.4386,-0.81333 2.5694,-0.41334 5.168,-0.78667 7.796,-1.14667 2.832,-0.37333 5.664,-0.66667 8.5547,-0.93333 2.336,-0.22667 4.6707,-0.4 7.036,-0.52 4.4387,-0.26667 8.9053,-0.41334 13.4307,-0.41334 56.788,0 108.4373,21.2 146.5093,55.62667 40.4107,36.52 65.584,87.90666 65.584,144.75999 0,110.48 -95.1307,200.37333 -212.0933,200.37333 z m 95.152,-399.41332 h -0.029 c -24.116,-10.45333 -50.4506,-17.05333 -78.1306,-18.94667 -5.6054,-0.41333 -11.2694,-0.61333 -16.992,-0.61333 h -1.0214 c -4.38,0.0267 -8.7306,0.14667 -13.052,0.44 -1.2253,0.0267 -2.4226,0.10667 -3.6493,0.2 -3.592,0.26667 -7.1827,0.61333 -10.744,1.02667 -3.796,0.42666 -7.592,0.98666 -11.3293,1.6 -64.1747,10.65333 -119.29869,46.62666 -153.45869,96.63999 -2.36533,3.41334 -4.61333,6.89334 -6.74533,10.42667 -1.98534,3.33333 -3.88267,6.68 -5.69334,10.10667 -0.84666,1.50666 -1.63466,3.05333 -2.42266,4.64 -14.18934,28.34666 -22.16,60.08 -22.16,93.51999 0,120.52 103.29862,218.56 230.27602,218.56 33.9853,0 66.3066,-7 95.3573,-19.61333 79.5613,-34.48 134.9493,-110.69333 134.9493,-198.94667 0,-88.35999 -55.504,-164.61332 -135.1546,-199.03999"
         style="fill:#231f20;fill-opacity:1;fill-rule:nonzero;stroke:none;stroke-width:0.133333" />
      <path
         id="path781"
         d="m 1136.972,150.6934 c 0,0 -229.45069,-49.53333 -252.35069,160.25333 0,0 207.12799,12.74667 252.35069,-160.25333"
         style="fill:#ffffff;fill-opacity:1;fill-rule:nonzero;stroke:none;stroke-width:0.133333" />
      <path
         id="path782"
         d="m 1140.1946,151.5734 c -0.6426,10.38667 -1.8693,20.17334 -3.68,29.34667 v 0.0267 c -2.248,5.54666 -4.7,10.94666 -7.3573,16.17333 -1.664,3.26667 -3.3867,6.45333 -5.2267,9.57333 -0.8466,1.54667 -1.7813,3.06667 -2.7146,4.58667 l -0.059,0.0933 c -1.0507,1.74667 -2.16,3.49334 -3.2987,5.18667 -26.7453,40.76 -67.7666,70.62666 -121.22662,87.8 -4.75867,1.54666 -9.48934,2.92 -14.16,4.17333 -6.07334,1.64 -12.05867,3.06667 -17.86934,4.26667 -4.14533,0.88 -8.204,1.66666 -12.14533,2.33333 -3.85467,0.66667 -7.62133,1.25333 -11.27067,1.78667 -17.80933,2.48 -32.84666,3.2 -43.036,3.32 h -0.0293 c -6.248,-0.58667 -9.81067,-1.13334 -9.81067,-1.13334 0.81867,-2.69333 1.66534,-5.37333 2.512,-7.97333 1.51734,-4.49333 3.06534,-8.88 4.75867,-13.13333 l 0.0293,-0.0933 c 38.6283,-99.9467 117.66426,-132.7867 175.47366,-142.97337 h 0.029 c 31.6493,-5.58666 56.9053,-4.38666 65.7227,-3.68 2.1906,0.17334 3.3586,0.32 3.3586,0.32"
         style="fill:#01982f;fill-opacity:1;fill-rule:nonzero;stroke:none;stroke-width:0.133333" />
      <path
         id="path783"
         d="m 1011.4053,279.60007 c -3.5027,1.45333 -7.124,2.82666 -10.7733,4.12 -2.97736,1.10666 -5.98536,2.13333 -9.05069,3.12 -3.416,1.10666 -6.804,2.13333 -10.19067,3.09333 -4.992,1.4 -9.956,2.65333 -14.80266,3.77333 -4.408,1.01334 -8.75867,1.89334 -12.96267,2.68 -25.37333,4.70667 -46.86133,5.57334 -58.68667,5.64 0.204,-1.34666 0.40934,-2.69333 0.64267,-4.02666 l 0.0293,-0.0933 c 7.94134,-48.37333 28.81734,-85.05333 62.16,-109.07999 34.97867,-25.25334 78.24799,-32.78667 113.31339,-33.89334 h 0.029 c 3.2707,-0.0933 6.4533,-0.14666 9.5773,-0.14666 19.2107,0 35.1814,1.77333 44.7294,3.17333 -4.6707,15.06667 -10.7734,29 -18.336,41.78667 -2.1014,3.58666 -4.3214,7.06666 -6.6854,10.48 -2.132,3.16 -4.38,6.25333 -6.7746,9.22666 -0.5254,0.70667 -1.0507,1.37334 -1.6347,2.04 -4.788,5.96 -9.9853,11.6 -15.5907,16.93334 -17.8106,16.93333 -39.4746,30.69333 -64.9933,41.17333 z M 1138.88,141.78674 c -0.7307,-0.14667 -4.176,-0.86667 -9.7227,-1.72 -29.1093,-4.56 -116.7587,-13.10667 -181.98532,33.93333 -40.87467,29.48 -64.96267,75.24 -71.62,135.96 l -1.02134,9.49333 9.51867,0.58667 c 0.55467,0.0267 4.232,0.22666 10.39333,0.22666 1.13867,0 2.36534,0 3.67867,-0.0267 h 0.0293 c 10.18934,-0.12 25.22667,-0.84 43.036,-3.32 3.64934,-0.53334 7.416,-1.12 11.27067,-1.78667 3.94133,-0.66667 8,-1.45333 12.14533,-2.33333 5.81067,-1.2 11.796,-2.62667 17.86934,-4.26667 4.67066,-1.25333 9.40133,-2.62667 14.16,-4.17333 53.46005,-17.17334 94.48135,-47.04 121.22665,-87.8 1.1387,-1.69333 2.248,-3.44 3.2987,-5.18667 l 0.059,-0.0933 c 0.9333,-1.52 1.868,-3.04 2.7146,-4.58667 1.84,-3.12 3.5627,-6.30666 5.2267,-9.57333 2.6573,-5.22667 5.1093,-10.62667 7.3573,-16.17333 v -0.0267 c 1.6054,-3.94667 3.096,-7.92 4.4667,-12.04 1.7813,-5.16 3.388,-10.48 4.7893,-15.88 l 2.424,-9.2 -9.3146,-2.01333"
         style="fill:#231f20;fill-opacity:1;fill-rule:nonzero;stroke:none;stroke-width:0.133333" />
      <path
         id="path784"
         d="m 1146.3413,213.12007 c 0.04,-2.48 0.097,-5.52 -0.035,-8.30667 -0.063,-2.84 -0.216,-5.69333 -0.4853,-8.54666 -0.5013,-5.68 -1.208,-11.32 -2.3733,-16.88 -2.0867,-11.12 -5.692,-21.84 -10.3814,-31.89334 -2.428,-5.01333 -5.164,-9.82666 -8.172,-14.47999 -3.124,-4.57334 -6.4506,-9.01334 -10.1546,-13.16 -3.7627,-4.10667 -7.644,-8.12 -12.0094,-11.70667 -2.068,-1.90667 -4.3733,-3.57333 -6.5986,-5.32 -1.0907,-0.90667 -2.3094,-1.66667 -3.4747,-2.49333 -0.5667,-0.426671 -1.22,-0.746671 -1.716,-1.280004 -0.18,-0.36 -0.14,-1 0.1973,-2.08 0.3054,-1.026667 0.94,-2.52 2.0214,-4.666667 l 7.7173,-10.733333 c 1.732,-1.693333 3.0173,-2.733333 3.9747,-3.306666 0.9893,-0.626667 1.6813,-0.826667 2.152,-0.72 0.8066,0.373333 1.4573,0.973333 2.192,1.453333 1.4226,1.013333 2.8853,1.973333 4.24,3.093333 2.7466,2.173334 5.5466,4.293334 8.1266,6.666667 5.3134,4.586666 10.0867,9.746666 14.6107,15.053337 4.3773,5.41333 8.396,11.09333 11.844,17.05333 3.3973,5.97333 6.3227,12.13333 8.7013,18.44 4.7094,12.64 7.1454,25.72 7.7947,38.61333 0.2093,6.46667 0.059,12.88 -0.6493,19.22667 -0.3547,3.17333 -0.8267,6.32 -1.42,9.46666 -0.6707,3.17334 -0.572,3.65334 -1.668,7.05334 l -14.4347,-0.54667"
         style="fill:#231f20;fill-opacity:1;fill-rule:nonzero;stroke:none;stroke-width:0.133333" />
    </g>
  </g>
</svg>
