<?xml version="1.0" encoding="UTF-8" standalone="no"?>
<!-- Created with Inkscape (http://www.inkscape.org/) -->

<svg
   width="130.23453mm"
   height="145.98836mm"
   viewBox="0 0 130.23453 145.98836"
   version="1.1"
   id="svg1"
   inkscape:version="1.3 (0e150ed, 2023-07-21)"
   sodipodi:docname="peach.svg"
   xmlns:inkscape="http://www.inkscape.org/namespaces/inkscape"
   xmlns:sodipodi="http://sodipodi.sourceforge.net/DTD/sodipodi-0.dtd"
   xmlns="http://www.w3.org/2000/svg"
   xmlns:svg="http://www.w3.org/2000/svg">
  <sodipodi:namedview
     id="namedview1"
     pagecolor="#ffffff"
     bordercolor="#000000"
     borderopacity="0.25"
     inkscape:showpageshadow="2"
     inkscape:pageopacity="0.0"
     inkscape:pagecheckerboard="0"
     inkscape:deskcolor="#d1d1d1"
     inkscape:document-units="mm"
     inkscape:zoom="0.2102413"
     inkscape:cx="244.95663"
     inkscape:cy="275.87348"
     inkscape:window-width="1312"
     inkscape:window-height="449"
     inkscape:window-x="0"
     inkscape:window-y="25"
     inkscape:window-maximized="0"
     inkscape:current-layer="layer1" />
  <defs
     id="defs1" />
  <g
     inkscape:label="Layer 1"
     inkscape:groupmode="layer"
     id="layer1"
     transform="translate(-39.952035,-75.406249)">
    <g
       id="g797"
       transform="matrix(0.26458333,0,0,0.26458333,-1209.593,-145.35671)">
      <path
         id="path294"
         d="m 4950.5332,921.12005 c 0,0 -109.6933,-109.93333 -216.4667,-27.04 -0.3466,0.25334 -0.12,0.82667 0.3067,0.73334 5.1733,-1.04 21.2667,-2.49334 49.32,10.30666 34.8,15.88 97.2133,73.33333 166.84,16"
         style="fill:#ffffff;fill-opacity:1;fill-rule:nonzero;stroke:none;stroke-width:0.133333" />
      <path
         id="path295"
         d="m 4964.1332,908.16005 c -2.44,2 -4.8533,3.85334 -7.2933,5.58667 -2.7734,2 -5.56,3.82667 -8.3067,5.46667 -0.9867,0.61333 -1.9733,1.17333 -2.96,1.73333 h -0.027 c -11.8666,6.62667 -23.48,10.18667 -34.7066,11.50667 -47.3734,5.59999 -87.9467,-28.62667 -113.5467,-40.29334 -10.3467,-4.72 -19.0933,-7.50666 -26.2267,-9.08 h -0.027 c -7.84,-1.76 -13.7734,-2.04 -17.88,-1.82666 -2.28,0.0933 -4.0134,0.34666 -5.1867,0.58666 -0.4,0.0933 -0.6533,-0.45333 -0.3067,-0.73333 16.36,-12.72 32.8267,-20.88 48.9067,-25.62667 h 0.04 c 28.56,-4.82666 58.6933,-0.84 89.48,12.09334 29.3733,12.36 51.9467,29.68 63.28,39.41333 1.0133,-3 2.16,-5.96 3.4267,-8.86667 7.2933,5.98667 11.3333,10.04 11.3333,10.04"
         style="fill:#50c42b;fill-opacity:1;fill-rule:nonzero;stroke:none;stroke-width:0.133333" />
      <path
         id="path296"
         d="m 4787.7199,896.29339 c -9.6667,-4.41334 -18.1334,-7.25334 -25.3867,-9.04 2.8667,-1.52 5.7733,-2.90667 8.7067,-4.17334 h 0.027 c 33.0134,-14.45333 68.84,-13.73333 107,2.16 25.88,10.77334 46.4134,26.16 57.2267,35.24 -8.28,5.58667 -16.4667,9.48 -24.4533,11.97334 -2.32,0.74666 -4.6134,1.33333 -6.8934,1.82666 -6.12,1.38667 -12.1333,1.94667 -18.0666,1.88 -28.96,-0.24 -55.1467,-15.53333 -76.4534,-28 -7.7866,-4.54666 -15.1333,-8.86666 -21.7066,-11.86666 z m 169.68,18.01333 c -0.067,-0.0933 -0.28,-0.28 -0.56,-0.56 -1.08,-1.08 -3.64,-3.49333 -7.4667,-6.76 -11.3333,-9.73333 -33.9067,-27.05333 -63.28,-39.41333 -30.7867,-12.93334 -60.92,-16.92 -89.48,-12.09334 h -0.04 c -24.12,4.04 -47.12,14.38667 -68.4533,30.93334 -3.7067,2.90666 -4.9467,7.93333 -2.9734,12.22666 1.9467,4.26667 6.5467,6.58667 11.1467,5.65334 3.6133,-0.70667 17.48,-2.18667 43.3867,9.64 5.6933,2.58666 12.2933,6.45333 19.96,10.96 12.32,7.22666 27.5733,16.11999 44.8666,22.45333 4.9734,1.85333 10.0934,3.45333 15.3734,4.74666 8.68,2.13334 17.76,3.42667 27.1466,3.42667 h 0.093 c 0.64,0 1.2933,0 1.9733,-0.0533 5.8,-0.0667 11.7333,-0.72 17.76,-1.94667 4.3467,-0.86667 8.7067,-2.10667 13.1467,-3.68 h 0.04 c 2.84,-0.98667 5.68,-2.13333 8.52,-3.42667 1.3333,-0.61333 2.68,-1.22666 4.0133,-1.94666 3.5467,-1.76 7.1067,-3.8 10.68,-6.08 0.44,-0.28 0.8667,-0.56 1.2667,-0.84 0.56,-0.33334 1.08,-0.70667 1.64,-1.08 3.4933,-2.34667 7.0133,-4.96 10.5333,-7.86667 l 7,-5.74666 1.24,-1.01334 -7.5333,-7.53333"
         style="fill:#231f20;fill-opacity:1;fill-rule:nonzero;stroke:none;stroke-width:0.133333" />
      <path
         id="path297"
         d="m 5184.5065,1199.76 c 22.9867,-48.96 29.0934,-105.2933 6.64,-156.08 -28.44,-64.31995 -92.3333,-108.06662 -162.5733,-111.30661 -28.5333,-1.32 -55.8667,3.86666 -80.5867,14.18666 -7.88,-1.38667 -15.92,-2.34667 -24.1333,-2.72 -101.88,-4.69333 -182.84,72.55995 -190.8667,172.90665 -9.4133,117.5333 93.72,209.0933 194.12,250.9333 28.8534,12.0267 61.5067,11.7467 90.0667,-0.9466 61.3733,-27.2934 117.6533,-84.4934 153.0267,-140.7867 5.2933,-8.4267 10.08,-17.1867 14.3066,-26.1867"
         style="fill:#ffffff;fill-opacity:1;fill-rule:nonzero;stroke:none;stroke-width:0.133333" />
      <path
         id="path298"
         d="m 5028.5465,867.24005 c -8.7066,2.68 -17.08,6.17334 -24.8933,10.65334 -2.3467,1.24 -4.4667,2.77333 -6.72,4.17333 -2.1067,1.57333 -4.3333,3.05333 -6.3333,4.78667 -4.1467,3.29333 -7.9334,7.04 -11.4267,11.08 -6.0267,6.85333 -10.96,14.76 -14.8,23.34666 -0.24,0.52 -0.4533,1.05334 -0.68,1.57334 -0.4267,0.98666 -0.8267,2.01333 -1.2267,3.02666 -0.7466,1.88 -1.4266,3.82667 -2.04,5.8 v 0.04 c -1.1066,3.33333 -2.04,6.76 -2.7466,10.25333 -0.067,0.30667 -0.12,0.64 -0.1867,0.94667 -0.1867,0.81333 -0.3333,1.61333 -0.4933,2.44 -0.28,1.64 -0.52,3.30667 -0.7467,4.97333 -0.1467,1.14667 -0.28,2.32 -0.36,3.49334 -0.1333,1.64 -0.2267,3.28 -0.2533,4.69333 l -11.5867,1.2 c -0.027,-0.24 -0.053,-0.49333 -0.08,-0.73333 -0.1867,-1.17334 -0.32,-2.29334 -0.44,-3.33334 -0.1867,-1.94666 -0.3067,-3.84 -0.4,-5.77333 -0.067,-1.36 -0.067,-2.76 -0.067,-4.10667 v -0.44 c -0.027,-1.69333 0,-3.42666 0.093,-5.09333 0.04,-0.61333 0.067,-1.24 0.093,-1.85333 l 0.04,-0.30667 c 0.027,-0.68 0.053,-1.36 0.12,-2.04 0.24,-3.45333 0.68,-6.92 1.24,-10.34666 0.2667,-1.57334 0.5733,-3.12 0.8933,-4.69334 v -0.0533 h 0.027 c 0.2533,-1.24 0.52,-2.45333 0.8,-3.68 0.84,-3.45333 1.8267,-6.89333 3,-10.28 1.0133,-3 2.16,-5.96 3.4267,-8.86667 2.0666,-4.76 4.48,-9.41333 7.2266,-13.89333 3.4934,-5.74667 7.5067,-11.24 12.0134,-16.30667 2.16,-2.6 4.6,-4.94666 6.9733,-7.38666 2.5067,-2.25334 4.9733,-4.65334 7.6267,-6.72 9.1066,-7.50667 19.1466,-13.77334 29.6133,-18.93334 2.5067,-1.24 5.5067,-0.0933 6.4533,2.53334 l 8.7734,23.8 c 0.9333,2.50666 -0.4,5.25333 -2.9334,6.02666"
         style="fill:#231f20;fill-opacity:1;fill-rule:nonzero;stroke:none;stroke-width:0.133333" />
      <path
         id="path299"
         d="m 5193.2665,1203.8667 h 0.027 c -4.36,9.2933 -9.3867,18.4267 -14.88,27.2267 -40.7333,64.7866 -99.5333,118.8 -157.3067,144.4933 -1.5733,0.7067 -3.1466,1.36 -4.76,1.9733 -11.0533,1.0534 -22.2666,0.4667 -33.2266,-1.72 -7.32,-1.4933 -14.5467,-3.68 -21.52,-6.5866 -3.3067,-1.3867 -6.64,-2.8134 -9.9467,-4.32 h -0.027 c -4.1733,-1.88 -8.3733,-3.8667 -12.5333,-5.8934 -0.56,-0.2533 -1.12,-0.5333 -1.6667,-0.84 h -0.067 c -92.0267,-45.7066 -178.52,-131.8 -169.8667,-239.88 6.08,-76.1466 54.2267,-139.01328 121.6,-162.85328 0.4667,-0.16 0.92,-0.34667 1.4267,-0.46667 11.1066,-3.85333 22.7466,-6.61333 34.8266,-8.21333 1.0534,-0.12 2.1334,-0.28 3.2134,-0.37334 3.9866,-0.46666 8,-0.8 12.0666,-0.98666 0.84,-0.0267 1.64,-0.0667 2.44,-0.0933 2.76,-0.0933 5.4667,-0.12 8.2134,-0.0933 1.92,0 3.84,0.0667 5.72,0.12 0.4666,0.04 0.8933,0.04 1.36,0.0667 1.2666,0.0667 2.56,0.12 3.8266,0.21333 0.2134,0 0.4667,0.04 0.68,0.0667 1.2667,0.0667 2.56,0.18666 3.8267,0.30666 1.5467,0.12 3.0533,0.30667 4.5733,0.49334 1.76,0.18666 3.52,0.44 5.28,0.68 h 0.067 l 0.053,0.0267 h 0.04 c 1.9334,0.28 3.8534,0.58667 5.7734,0.93334 1.2,-0.49334 2.4,-0.98667 3.6133,-1.45334 1.08,-0.42666 2.16,-0.82666 3.24,-1.24 1.64,-0.61333 3.24,-1.17333 4.9067,-1.76 h 0.027 l 0.093,-0.0267 h 0.04 c 0.8533,-0.30667 1.76,-0.61334 2.6533,-0.89334 h 0.027 l 0.1866,-0.0667 c 1.08,-0.33334 2.1334,-0.68 3.2134,-0.98667 2.28,-0.70667 4.5733,-1.36 6.88,-1.94667 1.1733,-0.30666 2.32,-0.58666 3.4933,-0.86666 3.4933,-0.85334 7.0133,-1.6 10.56,-2.21334 1.24,-0.22666 2.4667,-0.44 3.7067,-0.65333 1.1466,-0.16 2.32,-0.34667 3.4533,-0.49333 3.12,-0.44 6.28,-0.8 9.4533,-1.08 2.4667,-0.21334 4.9734,-0.37334 7.48,-0.49334 1.3867,-0.0667 2.7734,-0.12 4.1334,-0.16 1.5466,-0.0267 3.08,-0.0533 4.6266,-0.0533 2.9334,0 5.8667,0.0933 8.84,0.21333 12.2,0.56 24.2,2.34667 35.88,5.28 44.2534,19.57334 80.96,55.18667 101.0134,100.5066 21.9866,49.72 19.6,108.0267 -6.7334,164.1067"
         style="fill:#f96753;fill-opacity:1;fill-rule:nonzero;stroke:none;stroke-width:0.133333" />
      <path
         id="path300"
         d="m 5186.6532,1253.8534 c 2.6,-3.4534 5.0933,-6.9734 7.56,-10.4667 -2.44,3.4933 -4.9333,6.9867 -7.56,10.4667"
         style="fill:#f95332;fill-opacity:1;fill-rule:nonzero;stroke:none;stroke-width:0.133333" />
      <path
         id="path301"
         d="m 5193.2932,1203.8667 c -4.36,9.2933 -9.3867,18.4267 -14.88,27.2267 -40.7333,64.7866 -99.5333,118.8 -157.3067,144.4933 -1.5733,0.7067 -3.1466,1.36 -4.76,1.9733 -11.0533,1.0534 -22.2666,0.4667 -33.2266,-1.72 -7.32,-1.4933 -14.5467,-3.68 -21.52,-6.5866 -3.3067,-1.3867 -6.64,-2.8134 -9.9467,-4.32 h -0.027 c -4.1733,-1.88 -8.3733,-3.8667 -12.5333,-5.8934 -0.5867,-0.28 -1.1467,-0.56 -1.7333,-0.84 h 0.067 c 18.24,1.88 36.8667,-0.9866 53.9467,-8.5866 57.4667,-25.5334 110.1467,-79.1067 143.28,-131.8267 4.9333,-7.8667 9.4133,-16.0533 13.4,-24.48 21.4933,-45.8667 27.24,-98.6 6.2133,-146.16 -26.6533,-60.21332 -86.4666,-101.19998 -152.2133,-104.22665 -0.44,-0.0267 -0.84,-0.0267 -1.2667,-0.0267 h -0.093 c -1.2,-0.0667 -2.4133,-0.0933 -3.6133,-0.12 l 0.1866,-0.0667 c 1.08,-0.33334 2.1334,-0.68 3.2134,-0.98667 2.28,-0.70667 4.5733,-1.36 6.88,-1.94667 1.1733,-0.30666 2.32,-0.58666 3.4933,-0.86666 3.4933,-0.85334 7.0133,-1.6 10.56,-2.21334 1.24,-0.22666 2.4667,-0.44 3.7067,-0.65333 1.1466,-0.16 2.32,-0.34667 3.4533,-0.49333 3.12,-0.44 6.28,-0.8 9.4533,-1.08 2.4667,-0.21334 4.9734,-0.37334 7.48,-0.49334 1.3867,-0.0667 2.7734,-0.12 4.1334,-0.16 1.5466,-0.0267 3.08,-0.0533 4.6266,-0.0533 2.9334,0 5.8667,0.0933 8.84,0.21333 12.2,0.56 24.2,2.34667 35.88,5.28 44.2534,19.57334 80.96,55.18667 101.0134,100.50666 21.9866,49.72 19.6,108.0267 -6.7334,164.1067 h 0.027"
         style="fill:#f95332;fill-opacity:1;fill-rule:nonzero;stroke:none;stroke-width:0.133333" />
      <path
         id="path302"
         d="m 5204.6932,1227.52 c 1.32,-2.1066 2.6133,-4.24 3.88,-6.36 -1.2267,2.16 -2.5333,4.2934 -3.8533,6.3867 -2.2,3.52 -4.48,7.0133 -6.8934,10.5333 2.3467,-3.52 4.64,-7.04 6.8667,-10.56"
         style="fill:#f95332;fill-opacity:1;fill-rule:nonzero;stroke:none;stroke-width:0.133333" />
      <path
         id="path303"
         d="m 4997.0399,942.77338 c -4.9467,1.6 -9.8,3.4 -14.5467,5.38667 -6.6667,-1.17333 -13.4533,-2.05333 -20.32,-2.52 11.3067,-2.09333 22.9733,-3.09333 34.8667,-2.86667"
         style="fill:#f7725c;fill-opacity:1;fill-rule:nonzero;stroke:none;stroke-width:0.133333" />
      <path
         id="path304"
         d="m 4951.6532,1364.9334 h -0.027 c -7.1066,-1.3334 -14.08,-3.4 -20.8133,-6.2134 -92.6133,-38.6 -197.48,-124.9066 -188.1867,-241.2 6.8,-85.0666 66.4267,-149.49328 144.4,-161.99995 h 0.093 c 1.1066,-0.21333 2.2533,-0.36 3.4,-0.52 5.3733,-0.74667 10.8,-1.26667 16.3333,-1.48 2.4933,-0.16 5,-0.21333 7.4933,-0.21333 h 0.6534 c 2.7866,0 5.5866,0.0533 8.4,0.21333 6.52,0.30667 13.28,1.01333 20.1333,2.13333 0.8933,0.14667 1.8267,0.30667 2.7467,0.45334 l 2.8133,0.50666 2.6267,-1.12 c 0.4666,-0.18666 0.92,-0.37333 1.3866,-0.56 0.9334,-0.36 1.8534,-0.73333 2.7867,-1.10666 4.28,-1.66667 8.64,-3.18667 13.0533,-4.50667 1.36,-0.44 2.72,-0.8 4.08,-1.17333 1.1734,-0.34667 2.3467,-0.65334 3.52,-0.96 h 0.067 0.027 c 2.8133,-0.70667 5.6133,-1.36 8.4533,-1.90667 0.093,0 0.2267,-0.04 0.3467,-0.0667 1.3866,-0.25333 2.8133,-0.56 4.2,-0.77333 1.3866,-0.25333 2.8133,-0.46667 4.2266,-0.68 0.1334,-0.0267 0.2534,-0.0267 0.3734,-0.0667 h 0.027 l 0.093,-0.0267 h 0.04 c 1.2,-0.18667 2.4,-0.33334 3.6133,-0.49334 0.8933,-0.0933 1.7867,-0.18666 2.68,-0.28 h 0.093 c 8.96,-0.98666 18.0934,-1.29333 27.36,-0.86666 0.1867,0 0.3734,0.04 0.56,0.04 66.4134,3.26666 126.64,44.68 153.5867,105.50668 8.84,20.0133 13.2533,41.6266 13.2533,64.0133 0,27.4267 -6.64,55.9867 -19.8,84.0667 -4.0133,8.5466 -8.64,17.0133 -13.76,25.1333 -38.7333,61.6667 -94.3466,112.8933 -148.76,137.1067 -19.32,8.5866 -40.9066,10.96 -61.5733,7.04 z M 5199.9999,1039.76 c -20.0534,-45.31995 -56.76,-80.93328 -101.0134,-100.50662 -21.8666,-9.66666 -45.5466,-15.43999 -69.9733,-16.55999 -3.0533,-0.14667 -6.12,-0.21334 -9.1467,-0.21334 -1.8133,0 -3.64,0.04 -5.4666,0.0933 -1.4134,0.04 -2.84,0.0933 -4.2534,0.16 -3.2133,0.14666 -6.4266,0.4 -9.64,0.70666 -1.5733,0.16 -3.1733,0.34667 -4.76,0.52 -2.84,0.34667 -5.68,0.74667 -8.52,1.24 -8.12,1.38667 -16.0533,3.24 -23.84,5.58667 -0.9866,0.28 -1.9733,0.58667 -2.96,0.89333 -0.4933,0.16 -0.9866,0.32 -1.48,0.49334 -4.08,1.35999 -8.12,2.81333 -12.08,4.38666 -0.24,-0.0267 -0.4533,-0.0933 -0.7066,-0.0933 -0.9334,-0.17334 -1.8267,-0.30667 -2.7467,-0.42667 -4.2667,-0.65333 -8.4933,-1.14667 -12.6667,-1.45333 -2.16,-0.18667 -4.32,-0.33334 -6.4533,-0.42667 -6.8267,-0.30667 -13.6133,-0.28 -20.3467,0.12 -6.08,0.33333 -12.1066,0.96 -18.0666,1.88 -9.0134,1.36 -17.84,3.37333 -26.4934,6.02667 h -0.027 c -5.04,1.50666 -9.9734,3.24 -14.8534,5.16 -21.12,8.42666 -40.7066,20.65333 -57.84,36.44 -36.72,33.77329 -59.2266,80.74669 -63.3333,132.18669 -10.1333,126.6133 101.44,219.56 200.04,260.6266 15.2267,6.3734 31.4933,9.5467 47.7067,9.5467 15.44,0 30.8133,-2.8667 45.2666,-8.5867 1.6134,-0.6133 3.1867,-1.2666 4.76,-1.9733 57.7734,-25.6933 116.5734,-79.7067 157.3067,-144.4933 5.4933,-8.8 10.52,-17.9334 14.88,-27.2267 h -0.027 c 26.3334,-56.08 28.72,-114.3867 6.7334,-164.1067"
         style="fill:#231f20;fill-opacity:1;fill-rule:nonzero;stroke:none;stroke-width:0.133333" />
      <path
         id="path305"
         d="m 4885.3599,1258.8267 c -2.5334,0 -5.0667,-0.9867 -6.96,-2.96 -37.96,-39.3467 -57.4934,-91.08 -54.9734,-145.68 4.9867,-108.3733 97.2,-192.46665 205.6,-187.49331 5.3334,0.25333 9.4667,4.77333 9.2267,10.12 -0.2533,5.34666 -4.7867,9.53333 -10.12,9.22666 -97.8133,-4.49333 -180.8533,71.33335 -185.36,169.03995 -2.2667,49.2134 15.3333,95.8667 49.56,131.3467 3.72,3.84 3.6,9.9733 -0.2533,13.6933 -1.8667,1.8134 -4.2934,2.7067 -6.72,2.7067"
         style="fill:#231f20;fill-opacity:1;fill-rule:nonzero;stroke:none;stroke-width:0.133333" />
    </g>
  </g>
</svg>
