<?xml version="1.0" encoding="UTF-8" standalone="no"?>
<!-- Created with Inkscape (http://www.inkscape.org/) -->

<svg
   width="101.42577mm"
   height="164.70386mm"
   viewBox="0 0 101.42577 164.70386"
   version="1.1"
   id="svg1"
   inkscape:version="1.3 (0e150ed, 2023-07-21)"
   sodipodi:docname="pear2.svg"
   xmlns:inkscape="http://www.inkscape.org/namespaces/inkscape"
   xmlns:sodipodi="http://sodipodi.sourceforge.net/DTD/sodipodi-0.dtd"
   xmlns="http://www.w3.org/2000/svg"
   xmlns:svg="http://www.w3.org/2000/svg">
  <sodipodi:namedview
     id="namedview1"
     pagecolor="#ffffff"
     bordercolor="#000000"
     borderopacity="0.25"
     inkscape:showpageshadow="2"
     inkscape:pageopacity="0.0"
     inkscape:pagecheckerboard="0"
     inkscape:deskcolor="#d1d1d1"
     inkscape:document-units="mm"
     inkscape:zoom="0.2102413"
     inkscape:cx="192.63579"
     inkscape:cy="309.16856"
     inkscape:window-width="1312"
     inkscape:window-height="449"
     inkscape:window-x="0"
     inkscape:window-y="25"
     inkscape:window-maximized="0"
     inkscape:current-layer="layer1" />
  <defs
     id="defs1" />
  <g
     inkscape:label="Layer 1"
     inkscape:groupmode="layer"
     id="layer1"
     transform="translate(-54.23956,-66.145824)">
    <g
       id="g797"
       transform="matrix(0.26458333,0,0,0.26458333,-405.79353,-342.21312)">
      <path
         id="path253"
         d="m 2064.7999,2056.5467 c -15.5866,42.2533 -47.4133,75.56 -86.8133,93.8667 -14.52,4.4 -29.76,6.7466 -45.28,6.7466 -1.6533,0 -3.3066,-0.027 -4.96,-0.08 -1.2933,-0.027 -2.5866,-0.08 -3.84,-0.1733 -0.1466,0 -0.2533,-0.027 -0.4,-0.027 -0.5866,-0.027 -1.1733,-0.053 -1.76,-0.1066 -0.9866,-0.053 -1.9333,-0.1467 -2.8933,-0.2267 -4.7067,-0.4133 -9.3467,-1.0667 -13.9733,-1.9333 -0.8134,-0.1334 -1.6267,-0.28 -2.44,-0.44 -0.9867,-0.1734 -1.96,-0.4 -2.9467,-0.6267 -0.9733,-0.2267 -1.96,-0.44 -2.9333,-0.6667 -0.9867,-0.2266 -1.9734,-0.48 -2.92,-0.7333 -1.0667,-0.28 -2.1067,-0.56 -3.1334,-0.84 -0.8133,-0.2267 -1.6266,-0.48 -2.44,-0.7333 -5.92,-1.76 -11.6933,-3.8667 -17.32,-6.2667 -1.1466,-0.5067 -2.32,-1.0133 -3.48,-1.5467 -0.2133,-0.1066 -0.44,-0.2266 -0.6666,-0.3333 -1.4534,-0.68 -2.92,-1.3733 -4.3467,-2.1067 -1.4533,-0.6933 -2.88,-1.4533 -4.28,-2.2133 -33.4933,-18.04 -60.4133,-47.8267 -73.9467,-84.5867 -25.7866,-69.9733 -5.8933,-154.68 31.7734,-216.3333 10.5866,-18.5467 20.7333,-37.5733 29.8933,-56.7067 11.12,-23.1733 11.0667,-49.1866 21.8533,-72.2133 6.1467,-13.12 16.3734,-23.7067 28.6667,-30.8 8.1333,-4.68 17.1867,-7.8133 26.5467,-9.1333 0.8133,-0.1067 1.6533,-0.2267 2.4666,-0.3067 1.56,-0.1733 3.1067,-0.28 4.6667,-0.3333 0.9333,-0.027 1.88,-0.067 2.8133,-0.067 4.8667,0 9.7467,0.5067 14.48,1.4933 14.6267,8.04 26.7334,20.3734 33.8,35.44 5.7334,12.2534 8.5734,25.0267 11.32,37.4134 2.72,12.2666 5.2934,23.9066 10.48,34.72 8.52,17.7333 18.4667,36.5866 29.56,56.0666 34.6667,56.7734 61.36,145.32 32.4533,223.7867"
         style="fill:#5da901;fill-opacity:1;fill-rule:nonzero;stroke:none;stroke-width:0.133333" />
      <path
         id="path254"
         d="m 2032.3466,1832.76 c 34.6667,56.7734 61.36,145.32 32.4533,223.7867 -15.5866,42.2533 -47.4133,75.56 -86.8133,93.8667 -14.52,4.4 -29.76,6.7466 -45.28,6.7466 -1.6533,0 -3.3066,-0.027 -4.96,-0.08 -1.2933,-0.027 -2.5866,-0.08 -3.84,-0.1733 -0.1466,0 -0.2533,-0.027 -0.4,-0.027 -0.5866,-0.027 -1.1733,-0.053 -1.76,-0.1066 -0.9866,-0.053 -1.9333,-0.1467 -2.8933,-0.2267 -4.7067,-0.4133 -9.3467,-1.0667 -13.9733,-1.9333 -0.8134,-0.1334 -1.6267,-0.28 -2.44,-0.44 -0.9867,-0.1734 -1.96,-0.4 -2.9467,-0.6267 -0.9733,-0.2267 -1.96,-0.44 -2.9333,-0.6667 -0.9867,-0.2266 -1.9734,-0.48 -2.92,-0.7333 -1.0667,-0.28 -2.1067,-0.56 -3.1334,-0.84 -0.8133,-0.2267 -1.6266,-0.48 -2.44,-0.7333 -5.92,-1.76 -11.6933,-3.8667 -17.32,-6.2667 -1.12,-0.48 -2.24,-0.9867 -3.3333,-1.52 -0.28,-0.1067 -0.56,-0.2267 -0.8133,-0.36 -1.4534,-0.68 -2.92,-1.3733 -4.3467,-2.1067 -1.4533,-0.6933 -2.88,-1.4533 -4.28,-2.2133 5.2133,0.5333 10.48,0.8133 15.7733,0.8133 65.6534,0 125.9867,-42 148.7067,-103.6533 25.7866,-69.96 5.88,-154.6667 -31.8,-216.32 -10.5733,-18.52 -20.7067,-37.5733 -29.9067,-56.72 -11.0933,-23.1333 -11.04,-49.1467 -21.8266,-72.1733 -1.2534,-2.6934 -2.6934,-5.2934 -4.3067,-7.76 -3.3067,-5.1867 -7.32,-9.8667 -11.8533,-13.96 0.8133,-0.1067 1.6533,-0.2267 2.4666,-0.3067 1.5334,-0.1467 3.1067,-0.28 4.6667,-0.3333 0.9333,-0.027 1.88,-0.067 2.8133,-0.067 4.8667,0 9.7467,0.5067 14.48,1.4933 14.6267,8.04 26.7334,20.3734 33.8,35.44 5.7334,12.2534 8.5734,25.0267 11.32,37.4134 2.72,12.2666 5.2934,23.9066 10.48,34.72 8.52,17.7333 18.4667,36.5866 29.56,56.0666"
         style="fill:#5c8c09;fill-opacity:1;fill-rule:nonzero;stroke:none;stroke-width:0.133333" />
      <path
         id="path255"
         d="m 2048.3999,2050.4934 c -21.5733,58.56 -78.0399,97.9333 -140.4933,97.9333 -13.9066,0 -27.4933,-1.96 -40.4933,-5.64 l -0.1467,-0.027 c -45.3066,-12.8933 -83.1066,-46.8 -99.8666,-92.2666 -26.76,-72.6667 -1.5067,-155.4667 31.0533,-208.7334 l 0.1067,-0.2266 c 11.32,-19.84 21.4933,-39.12 30.2133,-57.28 6.0533,-12.64 8.96,-25.7734 11.8,-38.4934 2.6533,-11.9733 5.1467,-23.2933 10.08,-33.8 8.3467,-17.8133 25.84,-30.7333 45.56,-34.4933 3.84,-0.6933 7.7333,-1.0933 11.6933,-1.0933 9.2934,0 18.44,2.1066 26.7067,5.92 13.3067,6.1066 24.4,16.56 30.5333,29.6666 4.9334,10.5067 7.4267,21.8267 10.0934,33.8 2.8266,12.72 5.7466,25.8534 11.8,38.4934 8.7066,18.16 18.8533,37.4133 30.1733,57.28 l 0.1466,0.2266 c 32.56,53.2667 57.8,136.0667 31.04,208.7334 z M 2032.3466,1832.76 c -11.0933,-19.48 -21.04,-38.3333 -29.56,-56.0666 -5.1866,-10.8134 -7.76,-22.4534 -10.48,-34.72 -2.7466,-12.3867 -5.5866,-25.16 -11.32,-37.4134 -7.0666,-15.0666 -19.1733,-27.4 -33.8,-35.44 -11.88,-6.5333 -25.4133,-10.2266 -39.28,-10.2266 -30.9066,0 -60.3066,18.3466 -73.08,45.6666 -5.7466,12.2534 -8.5733,25.0267 -11.32,37.4134 -2.7466,12.2666 -5.3066,23.9066 -10.5066,34.72 -8.52,17.76 -18.44,36.6266 -29.5334,56.0666 -34.6666,56.7734 -61.3733,145.32 -32.48,223.7867 24.0934,65.4 87.1734,109.36 156.92,109.36 24.6534,0 48.5067,-5.4933 70.08,-15.4933 39.4,-18.3067 71.2267,-51.6134 86.8133,-93.8667 28.9067,-78.4667 2.2134,-167.0133 -32.4533,-223.7867"
         style="fill:#231f20;fill-opacity:1;fill-rule:nonzero;stroke:none;stroke-width:0.133333" />
      <path
         id="path256"
         d="m 1914.0933,1672.7067 c -0.027,-2.3733 -0.093,-5.2533 0.04,-7.92 0.053,-2.7067 0.2,-5.4267 0.4667,-8.1467 0.4666,-5.4133 1.1466,-10.8 2.2533,-16.0933 2,-10.6133 5.4267,-20.84 9.9067,-30.4267 2.32,-4.7733 4.92,-9.3733 7.7866,-13.8 2.9867,-4.3733 6.16,-8.5866 9.6934,-12.5466 3.5866,-3.92 7.28,-7.7467 11.4533,-11.1734 1.96,-1.8133 4.16,-3.4 6.28,-5.08 1.04,-0.8533 2.2133,-1.5866 3.32,-2.36 0.5467,-0.4133 1.16,-0.72 1.64,-1.2266 0.1733,-0.3334 0.1333,-0.96 -0.1867,-1.9867 -0.2933,-0.9733 -0.9066,-2.4 -1.9333,-4.4533 l -7.36,-10.2267 c -1.6533,-1.6267 -2.88,-2.6133 -3.7867,-3.16 -0.9466,-0.5867 -1.6,-0.7733 -2.0533,-0.68 -0.7733,0.36 -1.3867,0.92 -2.0933,1.3733 -1.36,0.9734 -2.7467,1.8934 -4.04,2.96 -2.6267,2.08 -5.2934,4.0934 -7.7467,6.36 -5.0667,4.3734 -9.6267,9.2934 -13.9333,14.3467 -4.1734,5.1733 -8.0134,10.5867 -11.2934,16.2667 -3.24,5.6933 -6.04,11.5733 -8.3066,17.5866 -4.4934,12.0534 -6.8134,24.5334 -7.4267,36.8267 -0.2,6.16 -0.053,12.28 0.6133,18.3333 0.3334,3.0267 0.7867,6.0267 1.36,9.0134 0.64,3.04 0.5467,3.4933 1.5867,6.7466 l 13.76,-0.5333"
         style="fill:#231f20;fill-opacity:1;fill-rule:nonzero;stroke:none;stroke-width:0.133333" />
      <path
         id="path257"
         d="m 1927.84,1600.52 c 0,0 193.4399,-10.96 185.2133,163.0267 0,0 -170.52,-16.1733 -185.2133,-163.0267"
         style="fill:#ffffff;fill-opacity:1;fill-rule:nonzero;stroke:none;stroke-width:0.133333" />
      <path
         id="path258"
         d="m 2108.9866,1769.72 c 0,0 -7.5067,-0.04 -19.5333,-1.2933 h -0.027 c -17.12,-3.6667 -41.8933,-10.6533 -67.4267,-23.5067 -50.9333,-25.6666 -84.1466,-64.5333 -97.3733,-113.4933 -0.6666,-9.52 -0.56,-19.6933 0.48,-30.6 0,0 0.9867,0.027 2.8,0.1733 8.04,0.6134 32.4,3.3067 60.84,14.2267 l 0.053,0.04 c 43.5199,16.7467 96.6399,52.8133 115.6133,130.3467 1.3733,5.5466 2.5466,11.2933 3.5333,17.2933 0.36,2.24 0.7333,4.5067 1.04,6.8133"
         style="fill:#037f20;fill-opacity:1;fill-rule:nonzero;stroke:none;stroke-width:0.133333" />
      <path
         id="path259"
         d="m 1988.7466,1615.2267 0.053,0.04 c 26.4533,5.96 56.5733,17.5867 79.3599,40.1467 22.6934,22.48 34.88,52.8 36.2534,90.2 0.12,2.6133 0.1466,5.2133 0.1466,7.88 -33.9066,-5.7734 -149.6133,-33.5734 -166.8133,-144.3467 10.7867,0.1733 29.7067,1.32 51,6.08 z m 91.7067,27.7467 c -56.52,-55.9867 -149.1867,-51.3867 -153.1067,-51.2 l -9.1066,0.5333 0.8933,9.08 c 1.04,10.4 2.8933,20.4267 5.4933,30.04 13.2267,48.96 46.44,87.8267 97.3733,113.4933 25.5334,12.8534 50.3067,19.84 67.4267,23.5067 h 0.027 c 13.3066,2.8533 22,3.72 22.7866,3.84 l 9.1067,0.84 0.44,-9.1333 c 2.3867,-50.7467 -11.52,-91.44 -41.3333,-121"
         style="fill:#231f20;fill-opacity:1;fill-rule:nonzero;stroke:none;stroke-width:0.133333" />
    </g>
  </g>
</svg>
