<?xml version="1.0" encoding="UTF-8" standalone="no"?>
<!-- Created with Inkscape (http://www.inkscape.org/) -->

<svg
   width="97.571404mm"
   height="140.75999mm"
   viewBox="0 0 97.571404 140.75999"
   version="1.1"
   id="svg1"
   inkscape:version="1.3 (0e150ed, 2023-07-21)"
   sodipodi:docname="pear.svg"
   xmlns:inkscape="http://www.inkscape.org/namespaces/inkscape"
   xmlns:sodipodi="http://sodipodi.sourceforge.net/DTD/sodipodi-0.dtd"
   xmlns="http://www.w3.org/2000/svg"
   xmlns:svg="http://www.w3.org/2000/svg">
  <sodipodi:namedview
     id="namedview1"
     pagecolor="#ffffff"
     bordercolor="#000000"
     borderopacity="0.25"
     inkscape:showpageshadow="2"
     inkscape:pageopacity="0.0"
     inkscape:pagecheckerboard="0"
     inkscape:deskcolor="#d1d1d1"
     inkscape:document-units="mm"
     inkscape:zoom="0.2102413"
     inkscape:cx="183.12291"
     inkscape:cy="266.3606"
     inkscape:window-width="1312"
     inkscape:window-height="449"
     inkscape:window-x="0"
     inkscape:window-y="25"
     inkscape:window-maximized="0"
     inkscape:current-layer="layer1" />
  <defs
     id="defs1" />
  <g
     inkscape:label="Layer 1"
     inkscape:groupmode="layer"
     id="layer1"
     transform="translate(-56.356337,-78.052083)">
    <g
       id="g797"
       transform="matrix(0.26458333,0,0,0.26458333,-1004.1888,54.815643)">
      <path
         id="path645"
         d="m 4346.0932,420.12006 0.013,-0.0133 c -39.5067,-65.25333 -53.3734,-124.10666 -58.24,-156.74666 -1.0267,-6.88 -1.56,-13.8 -2.04,-20.73333 -0.1334,-2 -0.3334,-3.97334 -0.5867,-5.93334 -0.013,-0.16 -0.013,-0.25333 -0.013,-0.25333 h -0.027 c -6.0667,-45.66667 -45.1333,-80.92 -92.4533,-80.92 -47.3334,0 -86.4,35.25333 -92.4667,80.92 h -0.027 c 0,0 0,0.0933 0,0.25333 -0.2533,1.96 -0.4533,3.93334 -0.6,5.93334 -0.4666,6.93333 -1.0133,13.85333 -2.04,20.73333 -4.8666,32.64 -18.7333,91.49333 -58.24,156.74666 l 0.013,0.0133 c -13.4134,19.46667 -21.2934,43.02667 -21.3467,68.44 -0.1467,66.44 54.4133,121.33333 120.84,121.57333 10.5067,0.04 20.68,-1.25333 30.4,-3.73333 15.4267,-3.92 31.4933,-3.92 46.92,0 9.72,2.48 19.9067,3.77333 30.4,3.73333 66.4267,-0.24 120.9867,-55.13333 120.8533,-121.57333 -0.053,-25.41333 -7.9466,-48.97333 -21.36,-68.44"
         style="fill:#ffffff;fill-opacity:1;fill-rule:nonzero;stroke:none;stroke-width:0.133333" />
      <path
         id="path646"
         d="m 4377.1332,488.56006 c 0.093,48.82667 -26.7066,91.58667 -66.4266,114.18667 -0.8,0.32 -1.5734,0.6 -2.3734,0.84 -2.7733,0.98666 -5.6533,1.85333 -8.52,2.6 -9.64,2.53333 -19.7066,3.92 -30.08,3.94666 -2.72,0.0267 -5.4,-0.0533 -8.0933,-0.24 -0.7733,-0.04 -1.5467,-0.0933 -2.3067,-0.16 -0.56,-0.0267 -1.12,-0.0933 -1.7066,-0.16 h -0.067 c -1.1733,-0.0933 -2.3467,-0.24 -3.52,-0.4 -1.2267,-0.14666 -2.4933,-0.33333 -3.7333,-0.52 -3.7334,-0.58666 -7.3734,-1.33333 -10.9867,-2.25333 -11.4933,-2.93333 -23.32,-3.68 -34.9867,-2.25333 h -0.04 c -3.9733,0.49333 -7.9333,1.22666 -11.88,2.25333 -2.3866,0.61333 -4.8266,1.14667 -7.2666,1.6 -1.2267,0.25333 -2.4667,0.46667 -3.7067,0.65333 -1.2267,0.18667 -2.4933,0.37334 -3.7333,0.52 -1.76,0.25334 -3.52,0.44 -5.28,0.56 -0.7734,0.0667 -1.5467,0.12 -2.32,0.16 -2.68,0.18667 -5.36,0.26667 -8.08,0.24 -2.0667,0 -4.1467,-0.0533 -6.1734,-0.18666 -1.0266,-0.0533 -2.08,-0.12 -3.0933,-0.21334 -0.5867,-0.0267 -1.1467,-0.0933 -1.6933,-0.16 h -0.04 c -0.4267,-0.0267 -0.8667,-0.0533 -1.2934,-0.12 -1.0133,-0.0933 -2.0133,-0.21333 -3.0266,-0.37333 -0.8934,-0.0933 -1.7867,-0.21333 -2.6534,-0.36 -0.56,-0.0933 -1.08,-0.16 -1.6133,-0.28 -0.8533,-0.13333 -1.6933,-0.28 -2.56,-0.44 -1.1467,-0.21333 -2.32,-0.45333 -3.4533,-0.73333 -1.0267,-0.22667 -2.0134,-0.44 -3,-0.72 -1.0134,-0.24 -2.04,-0.49334 -3.0267,-0.8 -0.6133,-0.14667 -1.2,-0.30667 -1.7867,-0.52 -0.8,-0.21334 -1.6133,-0.44 -2.3866,-0.70667 -0.92,-0.28 -1.8134,-0.58667 -2.7067,-0.90667 -0.68,-0.21333 -1.4,-0.45333 -2.08,-0.73333 -0.6667,-0.21333 -1.32,-0.49333 -2,-0.74667 -0.52,-0.18666 -1.0533,-0.4 -1.5733,-0.61333 -0.7467,-0.28 -1.48,-0.58667 -2.2267,-0.93333 -0.8933,-0.36 -1.7867,-0.77334 -2.68,-1.17334 -1.9467,-0.85333 -3.8933,-1.81333 -5.7733,-2.8 -1.36,-0.72 -2.72,-1.45333 -4.0534,-2.2 l -0.12,-0.0533 c -7.5733,-4.29333 -14.6133,-9.38667 -21.0666,-15.17333 -0.7334,-0.68 -1.5067,-1.36 -2.2534,-2.06667 -0.7333,-0.70667 -1.48,-1.41333 -2.2133,-2.13333 -0.7467,-0.70667 -1.4533,-1.44 -2.1733,-2.18667 -0.7067,-0.70667 -1.4134,-1.48 -2.0934,-2.22667 -19.92,-21.70666 -32.12,-50.57333 -32.0533,-82.01333 0.067,-25.41333 7.96,-48.97333 21.3733,-68.42666 l -0.04,-0.04 c 39.5334,-65.24 53.4,-124.10667 58.28,-156.74666 1.0134,-6.85334 1.5334,-13.8 2.0267,-20.72 0.1333,-2 0.3467,-3.97334 0.5867,-5.92 0,-0.18667 0,-0.25334 0,-0.25334 l 0.04,-0.0267 c 3.76,-28.38667 20.28,-52.77334 43.6666,-67.13334 3.9467,-2.44 8.08,-4.6 12.4134,-6.4 6.08,-2.58666 12.4666,-4.53333 19.1466,-5.77333 0.9467,-0.17333 1.9067,-0.33333 2.8667,-0.49333 0.8933,-0.14667 1.8267,-0.28 2.7467,-0.4 h 0.027 c 0.4667,-0.0667 0.96,-0.12 1.4534,-0.14667 0.44,-0.0667 0.8933,-0.0933 1.36,-0.16 2.88,-0.24 5.8133,-0.4 8.7733,-0.4 10.0933,0 19.8533,1.6 28.9333,4.57333 24.4267,14.36 42.5867,38.56 48.6934,67.44 l 1.3866,8.42667 c 0.2534,2.01333 0.4667,4.01333 0.6,5.98667 0.2134,3.28 0.4534,6.68 0.8,10.06666 0.28,3.30667 0.64,6.64 1.1334,9.92 4.3866,29.26667 17.5733,88.09333 56.9466,153.13333 14.8267,21.70667 22.6934,47.12 22.76,73.49333"
         style="fill:#ee303c;fill-opacity:1;fill-rule:nonzero;stroke:none;stroke-width:0.133333" />
      <path
         id="path647"
         d="m 4319.2932,599.20006 c 2.6934,-1.22667 5.32,-2.56 7.88,-3.94667 -2.56,1.41334 -5.1866,2.74667 -7.88,3.94667"
         style="fill:#d12435;fill-opacity:1;fill-rule:nonzero;stroke:none;stroke-width:0.133333" />
      <path
         id="path648"
         d="m 4354.3732,415.06673 c -39.3733,-65.04 -52.56,-123.86666 -56.9466,-153.13333 -0.4934,-3.28 -0.8534,-6.61333 -1.1334,-9.92 -0.3466,-3.38666 -0.5866,-6.78666 -0.8,-10.06666 -0.1333,-1.97334 -0.3466,-3.97334 -0.6,-5.98667 l -1.3866,-8.42667 c -6.1067,-28.88 -24.2667,-53.08 -48.6934,-67.44 -9.08,-2.97333 -18.84,-4.57333 -28.9333,-4.57333 -2.96,0 -5.8933,0.16 -8.7733,0.4 -0.4667,0.0667 -0.92,0.0933 -1.36,0.16 -0.4934,0.0267 -0.9867,0.08 -1.4534,0.14667 h -0.027 c -0.92,0.12 -1.8534,0.25333 -2.7467,0.4 -0.96,0.16 -1.92,0.32 -2.8667,0.49333 -6.68,1.24 -13.0666,3.18667 -19.1466,5.77333 6.04,19.74667 19.7333,52.32 47.92,73.88 14.2266,10.86667 23.84,26.65334 28.0933,44.05333 7.6,31.08 21.8933,72.26667 48.7067,116.57334 v 0.0267 c 12.6266,18.32 20.1066,40.54667 20.1333,64.48 0.12,62.62667 -51.2933,114.38666 -113.92,114.6 -9.88,0.0267 -19.48,-1.17334 -28.6533,-3.52 -14.5067,-3.70667 -29.64,-3.70667 -44.2267,0 -9.16,2.34666 -18.7333,3.54666 -28.6533,3.52 -12.44,-0.0267 -24.4534,-2.13334 -35.6934,-5.93334 0.68,0.74667 1.3867,1.52 2.0934,2.22667 0.72,0.74667 1.4266,1.48 2.1733,2.18667 0.7333,0.72 1.48,1.42666 2.2133,2.13333 0.7467,0.70667 1.52,1.38667 2.2534,2.06667 6.4533,5.78666 13.4933,10.88 21.0666,15.17333 l 0.12,0.0533 c 1.3334,0.74667 2.6934,1.48 4.0534,2.2 1.88,0.98667 3.8266,1.94667 5.7733,2.8 0.8933,0.4 1.7867,0.81334 2.68,1.17334 0.7467,0.34666 1.48,0.65333 2.2267,0.93333 0.52,0.21333 1.0533,0.42667 1.5733,0.61333 0.68,0.25334 1.3333,0.53334 2,0.74667 0.68,0.28 1.4,0.52 2.08,0.73333 0.8933,0.32 1.7867,0.62667 2.7067,0.90667 0.7733,0.26667 1.5866,0.49333 2.3866,0.70667 0.5867,0.21333 1.1734,0.37333 1.7867,0.52 0.9867,0.30666 2.0133,0.56 3.0267,0.8 0.9866,0.28 1.9733,0.49333 3,0.72 1.1333,0.28 2.3066,0.52 3.4533,0.73333 0.8667,0.16 1.7067,0.30667 2.56,0.44 0.5333,0.12 1.0533,0.18667 1.6133,0.28 0.8667,0.14667 1.76,0.26667 2.6534,0.36 1.0133,0.16 2.0133,0.28 3.0266,0.37333 0.4267,0.0667 0.8667,0.0933 1.2934,0.12 h 0.04 c 0.5466,0.0667 1.1066,0.13334 1.6933,0.16 1.0133,0.0933 2.0667,0.16 3.0933,0.21334 2.0267,0.13333 4.1067,0.18666 6.1734,0.18666 2.72,0.0267 5.4,-0.0533 8.08,-0.24 0.7733,-0.04 1.5466,-0.0933 2.32,-0.16 1.76,-0.12 3.52,-0.30666 5.28,-0.56 1.24,-0.14666 2.5066,-0.33333 3.7333,-0.52 1.24,-0.18666 2.48,-0.4 3.7067,-0.65333 2.44,-0.45333 4.88,-0.98667 7.2666,-1.6 3.9467,-1.02667 7.9067,-1.76 11.88,-2.25333 h 0.04 c 11.6667,-1.42667 23.4934,-0.68 34.9867,2.25333 3.6133,0.92 7.2533,1.66667 10.9867,2.25333 1.24,0.18667 2.5066,0.37334 3.7333,0.52 1.1733,0.16 2.3467,0.30667 3.52,0.4 h 0.067 c 0.5866,0.0667 1.1466,0.13334 1.7066,0.16 0.76,0.0667 1.5334,0.12 2.3067,0.16 2.6933,0.18667 5.3733,0.26667 8.0933,0.24 10.3734,-0.0267 20.44,-1.41333 30.08,-3.94666 2.8667,-0.74667 5.7467,-1.61334 8.52,-2.6 0.8,-0.24 1.5734,-0.52 2.3734,-0.84 39.72,-22.6 66.52,-65.36 66.4266,-114.18667 -0.067,-26.37333 -7.9333,-51.78666 -22.76,-73.49333"
         style="fill:#d12435;fill-opacity:1;fill-rule:nonzero;stroke:none;stroke-width:0.133333" />
      <path
         id="path649"
         d="m 4246.5732,600.44006 c -0.16,0 -0.28,0.0267 -0.4266,0.0267 -9.3334,0 -18.6,-1.17334 -27.5467,-3.45334 -8.4667,-2.13333 -17.1733,-3.21333 -25.8533,-3.21333 -8.7067,0 -17.3867,1.08 -25.84,3.21333 -9.12,2.30667 -18.5334,3.45334 -27.9867,3.42667 -12.5067,-0.0267 -24.5467,-2.16 -35.7867,-6.02667 l -0.12,-0.0533 c -43.8533,-15.10667 -75.3866,-56.88 -75.2933,-105.77333 0.04,-22.6 6.8267,-44.4 19.64,-62.98667 l 6.4267,-10.90666 c 36.4133,-63.76 49.0666,-120.77333 53.4266,-149.92 1.08,-7.41333 1.6667,-14.97333 2.0934,-21.49333 0.1333,-1.78667 0.3066,-3.58667 0.56,-5.34667 l 0.027,-0.21333 c 4.2934,-32.52 27.2667,-58.73333 57.2,-68.42667 8.12,-2.65333 16.7334,-4.08 25.6534,-4.08 8.0933,0 15.9733,1.17334 23.44,3.4 30.9466,9.08 54.9333,35.73334 59.4133,68.98667 l 0.027,0.33333 c 0.2266,1.76 0.4,3.56 0.5333,5.34667 0.4933,6.85333 1.0133,14.10667 2.12,21.49333 4.36,29.12 16.96,85.97333 53.24,149.61333 l 6.6133,11.21333 c 12.7867,18.58667 19.5734,40.38667 19.64,62.98667 0.12,61.45333 -49.7466,111.64 -111.2,111.85333 z m 107.8,-185.37333 c -39.3733,-65.04 -52.56,-123.86666 -56.9466,-153.13333 -0.9867,-6.66666 -1.5067,-13.53333 -1.9334,-19.98666 -0.1333,-1.97334 -0.3466,-3.97334 -0.6,-5.98667 l -1.3866,-8.42667 c -6.1067,-28.88 -24.2667,-53.08 -48.6934,-67.44 -13.2133,-7.81333 -28.2933,-12.73333 -44.2266,-13.93333 -2.5867,-0.21333 -5.2134,-0.30667 -7.84,-0.30667 -3.2134,0 -6.4267,0.16 -9.5734,0.46667 -44.7066,4.16 -82.0133,37.33333 -91.2133,81.4 l -1.4,8.26667 c -0.24,2.01333 -0.4267,4.02666 -0.5467,5.96 -0.4666,6.42666 -0.96,13.25333 -1.9733,19.98666 -4.36,29.26667 -17.5467,88.06667 -56.92,153.10666 -14.8533,21.73334 -22.72,47.14667 -22.76,73.52 -0.1467,72.10667 58.3733,130.98667 130.5067,131.26667 11.12,0.0667 22.1333,-1.32 32.7866,-4.04 13.8134,-3.49334 28.3867,-3.49334 42.16,0 10.52,2.68 21.4,4.04 32.3334,4.04 h 0.4933 c 23.28,-0.0933 45.1467,-6.29334 64.0667,-17.08 39.72,-22.6 66.52,-65.36 66.4266,-114.18667 -0.067,-26.37333 -7.9333,-51.78666 -22.76,-73.49333"
         style="fill:#231f20;fill-opacity:1;fill-rule:nonzero;stroke:none;stroke-width:0.133333" />
      <path
         id="path650"
         d="m 4185.1066,157.62674 c -0.24,-0.76 -0.3467,-1.18667 -0.48,-1.69334 -0.1334,-0.52 -0.24,-0.97333 -0.3467,-1.44 -0.2133,-0.94666 -0.3867,-1.88 -0.52,-2.8 -0.3333,-1.86666 -0.4533,-3.69333 -0.6,-5.54666 -0.12,-3.69334 -0.04,-7.44 0.6,-11.12 1.1067,-7.4 3.8,-14.6 7.5867,-21.12 l 3.0933,-4.69333 c 1.0133,-1.61334 2.3067,-2.90667 3.4667,-4.37334 2.3066,-2.98666 5.0266,-5.359997 7.6666,-7.933331 2.7067,-2.466666 5.6134,-4.506666 8.48,-6.773333 0.5467,-0.373333 1.1067,-0.733333 1.6667,-1.093333 3.8533,-2.493333 9.04,-1.013334 11.0133,3.133333 l 5.04,10.506664 c 1.88,3.93334 0.08,8.64 -3.9333,10.32 -2.2267,1.28 -4.6933,2.38667 -6.8267,3.77334 -2.0666,1.45333 -4.36,2.77333 -6.1466,4.48 -0.9067,0.84 -2.0267,1.56 -2.8134,2.48 l -2.5466,2.69333 c -3.1334,3.76 -5.6667,8.01333 -7.2534,12.72 -0.8666,2.33333 -1.32,4.8 -1.7066,7.29333 -0.093,1.24 -0.2534,2.52 -0.24,3.73333 -0.027,0.64 -0.013,1.24 0.013,1.82667 0.013,0.29333 0.027,0.6 0.04,0.84 0.027,0.25333 0.053,0.58667 0.027,0.58667 l -15.28,4.2"
         style="fill:#231f20;fill-opacity:1;fill-rule:nonzero;stroke:none;stroke-width:0.133333" />
      <path
         id="path651"
         d="m 4346.1332,275.50673 c -162.5466,-33.51999 -131.28,-154.23999 -131.28,-154.23999 27.5467,-3.44 98.0667,24.45333 112.1734,96.74666 1.4,7.2 2.8933,14.4 4.9333,21.42667 6.84,23.84 11.5467,32.64 14.4,35.69333 0.1467,0.16 -0.013,0.41333 -0.2267,0.37333"
         style="fill:#ffffff;fill-opacity:1;fill-rule:nonzero;stroke:none;stroke-width:0.133333" />
      <path
         id="path652"
         d="m 4355.3332,270.88007 c -4.72,-1.10667 -9.2933,-2.30667 -13.68,-3.6 -13.1866,-3.77333 -24.8266,-8.25333 -35.0533,-13.22667 -73.4267,-35.57333 -75.68,-96.70666 -73.1867,-121.69333 0.44,-4.41333 1.0267,-7.69333 1.4,-9.50666 0.2134,-1.05334 0.36,-1.61334 0.36,-1.61334 10.2,-1.26666 26.3734,1.88 43.3334,10.13334 26.12,16.98666 50.2666,44.98666 58.0133,84.78666 1.52,7.78667 2.9067,14.30667 4.7333,20.6 7.6,26.44 11.7334,31.28 12.16,31.74666 0.7734,0.70667 1.4267,1.52 1.92,2.37334"
         style="fill:#01982f;fill-opacity:1;fill-rule:nonzero;stroke:none;stroke-width:0.133333" />
      <path
         id="path653"
         d="m 4223.0399,130.72007 c 3.1467,0.21334 6.64,0.74667 10.3733,1.64 29.4,6.76 73.7467,34.28 84.0934,87.50667 1.64,8.30666 3.12,15.29333 5.16,22.24 2.2533,7.86666 4.28,14.17333 6.1333,19.26666 -7.8,-2.16 -15.2133,-4.6 -22.2,-7.32 -31.3333,-12.06666 -54.2533,-29.49333 -68.4,-51.97333 -17.88,-28.46667 -16.8267,-58.14667 -15.16,-71.36 z m 132.2933,140.16 c -0.4933,-0.85334 -1.1466,-1.66667 -1.92,-2.37334 -0.4266,-0.46666 -4.56,-5.30666 -12.16,-31.74666 -1.8266,-6.29333 -3.2133,-12.81333 -4.7333,-20.6 -7.7467,-39.8 -31.8933,-67.8 -58.0133,-84.78666 -23.56,-15.34667 -48.7334,-21.74667 -64.8534,-19.73334 -3.92,0.49334 -7.16,3.36 -8.1866,7.18667 -0.4934,1.94667 -12.0134,48.14666 16.16,93.22666 22.76,36.48 64.2533,61.05333 123.3333,73.09333 0.64,0.13334 1.32,0.18667 1.9733,0.18667 3.5867,0 6.9734,-1.97333 8.64,-5.28 1.52,-2.98667 1.36,-6.41333 -0.24,-9.17333"
         style="fill:#231f20;fill-opacity:1;fill-rule:nonzero;stroke:none;stroke-width:0.133333" />
    </g>
  </g>
</svg>
