<?xml version="1.0" encoding="UTF-8" standalone="no"?>
<!-- Created with Inkscape (http://www.inkscape.org/) -->

<svg
   width="144.67509mm"
   height="148.63683mm"
   viewBox="0 0 144.67509 148.63683"
   version="1.1"
   id="svg1"
   inkscape:version="1.3 (0e150ed, 2023-07-21)"
   sodipodi:docname="pomegranate.svg"
   xmlns:inkscape="http://www.inkscape.org/namespaces/inkscape"
   xmlns:sodipodi="http://sodipodi.sourceforge.net/DTD/sodipodi-0.dtd"
   xmlns="http://www.w3.org/2000/svg"
   xmlns:svg="http://www.w3.org/2000/svg">
  <sodipodi:namedview
     id="namedview1"
     pagecolor="#ffffff"
     bordercolor="#000000"
     borderopacity="0.25"
     inkscape:showpageshadow="2"
     inkscape:pageopacity="0.0"
     inkscape:pagecheckerboard="0"
     inkscape:deskcolor="#d1d1d1"
     inkscape:document-units="mm"
     inkscape:zoom="0.2102413"
     inkscape:cx="273.49526"
     inkscape:cy="280.62992"
     inkscape:window-width="1312"
     inkscape:window-height="449"
     inkscape:window-x="0"
     inkscape:window-y="25"
     inkscape:window-maximized="0"
     inkscape:current-layer="layer1" />
  <defs
     id="defs1" />
  <g
     inkscape:label="Layer 1"
     inkscape:groupmode="layer"
     id="layer1"
     transform="translate(-32.808313,-74.083324)">
    <g
       id="g797"
       transform="matrix(0.26458333,0,0,0.26458333,-799.09371,-344.1268)">
      <path
         id="path214"
         d="m 3465.5599,1773.8267 c 0,0 -224.1066,16.1733 -305.64,-180.8533 0,0 159.16,-41.2267 305.64,180.8533"
         style="fill:#ffffff;fill-opacity:1;fill-rule:nonzero;stroke:none;stroke-width:0.133333" />
      <path
         id="path215"
         d="m 3468.2532,1761.1067 c -3.2933,0.027 -7.1066,-0.013 -11.3733,-0.12 -3.6133,-0.1067 -7.56,-0.2667 -11.7733,-0.5067 -64.7734,-3.9066 -197.4933,-28.5866 -263.2933,-160.88 -1.4534,-3 -2.9334,-6.0266 -4.32,-9.1333 -1.0134,-2.2267 -2.0267,-4.4933 -3.0267,-6.7867 0,0 7.5733,-2.08 21.0267,-3 l 0.2666,-0.013 c 17.1067,0.3333 39.2134,2.88 64.7334,10.5333 18.6933,5.6 40.52,14.4667 64.24,28.4 2.64,1.5867 5.2933,3.1867 7.9866,4.88 2.6,1.6267 5.1867,3.3067 7.8533,5.0534 0.84,0.5733 1.7067,1.1466 2.56,1.7466 15.5467,10.5067 31.72,23.2534 48.24,38.6667 5.7467,5.36 11.5334,11.0667 17.36,17.1333 3.3467,3.4267 6.68,7.0134 10,10.7067 3.3067,3.6133 6.6267,7.3467 9.9067,11.2267 13.2133,15.4133 26.4667,32.72 39.6133,52.0933"
         style="fill:#01982f;fill-opacity:1;fill-rule:nonzero;stroke:none;stroke-width:0.133333" />
      <path
         id="path216"
         d="m 3317.3333,1737.9867 c -4.0667,-1.6667 -8.0534,-3.4 -11.96,-5.2267 -3.1467,-1.4533 -6.24,-2.9466 -9.28,-4.5066 -3.0267,-1.5334 -6.0134,-3.08 -8.92,-4.72 -6.7067,-3.6934 -13.1734,-7.5734 -19.4267,-11.72 -3.3867,-2.2534 -6.76,-4.5867 -10,-6.9867 -3.1333,-2.2533 -6.2,-4.6133 -9.2,-7.0133 -3.12,-2.48 -6.16,-5.0267 -9.12,-7.6534 -27.7467,-24.3733 -49.8267,-54.3733 -66.1467,-89.8933 2.44,-0.2533 5.3067,-0.5067 8.5334,-0.6667 25.8666,-1.32 75.0933,2.1334 133.1466,35.9867 2.6667,1.5733 5.36,3.1867 8.0267,4.8933 2.6533,1.6 5.2933,3.32 7.9067,5.08 1.3733,0.8667 2.7199,1.7867 4.0666,2.72 8.88,6.08 17.8933,12.8934 27.0267,20.5067 5.76,4.8 11.56,9.92 17.4,15.4 3.4133,3.1867 6.84,6.52 10.24,9.9867 l 0.04,0.013 c 3.4266,3.3867 6.8266,6.9333 10.2266,10.5733 15.04,16.0534 30.1734,34.5067 45.2134,55.72 1.04,1.4 2.0133,2.8267 3.04,4.2534 -21.1334,-0.36 -59.92,-3.16 -102.6667,-16.5467 -9.72,-3.04 -19.12,-6.4267 -28.1466,-10.2 z m 150.9199,23.12 c -13.1466,-19.3733 -26.4,-36.68 -39.6133,-52.0933 -3.28,-3.88 -6.6,-7.6134 -9.9067,-11.2267 -3.32,-3.6933 -6.6533,-7.28 -10,-10.7067 -5.8266,-6.0666 -11.6133,-11.7733 -17.36,-17.1333 -16.52,-15.4133 -32.6933,-28.16 -48.24,-38.6667 -0.8533,-0.6 -1.72,-1.1733 -2.56,-1.7466 -2.6666,-1.7467 -5.2533,-3.4267 -7.8533,-5.0534 -2.6933,-1.6933 -5.3466,-3.2933 -7.9866,-4.88 -23.72,-13.9333 -45.5467,-22.8 -64.24,-28.4 -25.52,-7.6533 -47.6267,-10.2 -64.7334,-10.5333 l -0.2666,0.013 c -22.9867,-0.4666 -36.9334,3.0134 -37.92,3.2667 -2.6,0.6533 -4.8,2.44 -6,4.8667 -1.1867,2.4133 -1.3067,5.2133 -0.28,7.7066 17.88,43.2134 42.52,76.28 69.64,101.5867 2.4266,2.3067 4.9066,4.5067 7.3866,6.6533 2.72,2.3867 5.44,4.6667 8.2134,6.8934 2.92,2.3333 5.8533,4.6133 8.8,6.8 13.44,9.9866 27.1466,18.36 40.7066,25.4 3.1334,1.6133 6.2267,3.1733 9.3334,4.6666 3.2666,1.56 6.4933,3.0134 9.6933,4.44 4.6667,2.04 9.2533,3.92 13.7867,5.6934 7.4533,2.8533 14.7199,5.3733 21.6933,7.5333 43.9866,13.6667 83.2666,16.7733 105.8,17.2267 11.8666,0.2533 19.08,-0.24 19.8933,-0.2934 1.4133,-0.1066 2.7467,-0.52 3.9067,-1.1866 1.6,-0.9067 2.9466,-2.28 3.7866,-3.9867 0.52,-1.08 0.84,-2.2133 0.92,-3.3867 0.1734,-2.0533 -0.3466,-4.12 -1.52,-5.88 -1.68,-2.56 -3.3866,-5.08 -5.08,-7.5733"
         style="fill:#231f20;fill-opacity:1;fill-rule:nonzero;stroke:none;stroke-width:0.133333" />
      <path
         id="path217"
         d="m 3572.2132,1744.2 c 0,0 -211.4933,159.8934 -418.7066,17.1734 0,0 131.1067,-143 418.7066,-17.1734"
         style="fill:#ffffff;fill-opacity:1;fill-rule:nonzero;stroke:none;stroke-width:0.133333" />
      <path
         id="path218"
         d="m 3565.2532,1731.08 c -2.9066,1.8134 -6.2,3.8534 -9.8666,6 -3.1334,1.88 -6.5867,3.8667 -10.2934,5.8934 -66,36.6666 -214.1066,96.84 -363.4933,7.2666 -2.9066,-1.6933 -5.8,-3.48 -8.64,-5.3466 -2.8,-1.76 -5.5733,-3.5734 -8.32,-5.48 13.4534,-10.1467 34.5334,-23.48 63.68,-34.6534 3.2,-1.24 6.48,-2.44 9.8934,-3.5866 3.3333,-1.1734 6.7733,-2.28 10.3333,-3.36 1.2667,-0.4134 2.56,-0.7734 3.8533,-1.16 2.16,-0.64 4.3734,-1.2534 6.6667,-1.8667 10.5067,-2.8 22.1067,-5.3067 34.76,-7.28 3.3067,-0.5067 6.6533,-0.9733 10.1067,-1.3867 3.32,-0.4133 6.7333,-0.8 10.24,-1.12 2.8933,-0.3066 5.84,-0.5333 8.8666,-0.7466 17.2133,-1.24 36,-1.4267 56.3467,-0.067 4.84,0.3333 9.7733,0.72 14.8,1.2133 4.76,0.4934 9.6,1.0267 14.5466,1.68 5.68,0.7467 11.4934,1.5867 17.4267,2.6 41.2267,6.8267 87.6,19.7467 139.0933,41.4"
         style="fill:#01982f;fill-opacity:1;fill-rule:nonzero;stroke:none;stroke-width:0.133333" />
      <path
         id="path219"
         d="m 3438.0266,1797.32 c -36.0534,10.1334 -71.0934,14.8134 -105.0533,14.0934 -5.6667,-0.1067 -11.32,-0.3867 -16.96,-0.8134 -3.4267,-0.2533 -6.8534,-0.56 -10.2667,-0.92 -3.4267,-0.3866 -6.84,-0.8 -10.24,-1.3066 -44.4667,-6.36 -86.88,-22.4134 -126.9333,-48.1867 3.32,-2.7733 7.6666,-6.1867 13.0266,-9.9467 14.1067,-9.8533 35.2934,-22.0933 63.7334,-31.7866 3.52,-1.2 7.1333,-2.36 10.8933,-3.4667 0.8667,-0.2533 1.7733,-0.5333 2.6533,-0.7867 2.8534,-0.8266 5.8134,-1.6133 8.8667,-2.3866 3.7067,-0.9467 7.5733,-1.8267 11.56,-2.6934 3.2933,-0.7066 6.6533,-1.3466 10.1333,-1.9733 3.1734,-0.5333 6.4267,-1.08 9.7734,-1.5733 3.24,-0.4667 6.5866,-0.8934 10.0133,-1.3067 3.32,-0.36 6.7333,-0.7333 10.1867,-1.0133 23.5466,-2.0534 50.3733,-1.9734 80.4799,1.5066 4.72,0.5734 9.52,1.2 14.4134,1.92 4.6933,0.6934 9.4666,1.4667 14.3333,2.3334 5.7867,1.04 11.7067,2.1866 17.6933,3.48 30.2267,6.4933 63.1334,16.32 98.76,30.48 2.56,1.0133 5.12,2.0533 7.7067,3.12 -20.2533,12.9066 -61.5867,36.28 -114.7733,51.2266 z m 137.9066,-61.6666 c -3.5733,-1.56 -7.1466,-3.0934 -10.68,-4.5734 -51.4933,-21.6533 -97.8666,-34.5733 -139.0933,-41.4 -5.9333,-1.0133 -11.7467,-1.8533 -17.4267,-2.6 -4.9466,-0.6533 -9.7866,-1.1866 -14.5466,-1.68 -5.0267,-0.4933 -9.96,-0.88 -14.8,-1.2133 -20.3467,-1.36 -39.1334,-1.1733 -56.3467,0.067 -3.0266,0.2133 -5.9733,0.44 -8.8666,0.7466 -3.5067,0.32 -6.92,0.7067 -10.24,1.12 -3.4534,0.4134 -6.8,0.88 -10.1067,1.3867 -12.6533,1.9733 -24.2533,4.48 -34.76,7.28 -2.2933,0.6133 -4.5067,1.2267 -6.6667,1.8667 -1.2933,0.3866 -2.5866,0.7466 -3.8533,1.16 -3.56,1.08 -7,2.1866 -10.3333,3.36 -3.4134,1.1466 -6.6934,2.3466 -9.8934,3.5866 -29.1466,11.1734 -50.2266,24.5067 -63.68,34.6534 -11.52,8.68 -17.4266,15.0266 -17.9866,15.6666 -1.84,2 -2.6934,4.6667 -2.4,7.3334 0.2933,2.7066 1.7466,5.0933 3.96,6.64 52.6,36.2266 105.4666,53.1333 154.36,58.6133 3.5866,0.4 7.1066,0.7733 10.5866,1.0133 3.5867,0.2934 7.1467,0.5334 10.68,0.6934 6.0534,0.32 12.0667,0.44 17.9867,0.4 37.9333,-0.1334 72.44,-6.4134 101.2533,-14.4934 42.6,-11.96 77.5733,-28.88 101.2,-42.2533 20.5333,-11.6267 32.5333,-20.6133 33.56,-21.4 2.6267,-2 4,-5.24 3.6267,-8.5067 -0.3734,-3.3066 -2.4934,-6.1466 -5.5334,-7.4666"
         style="fill:#231f20;fill-opacity:1;fill-rule:nonzero;stroke:none;stroke-width:0.133333" />
      <path
         id="path220"
         d="m 3681.6799,1922.0534 c 0,112.5733 -93.5467,204.56 -211.36,210.7066 -4.1733,0.2267 -8.3733,0.3334 -12.6,0.3334 -123.7067,0 -223.9733,-94.48 -223.9733,-211.04 0,-89.9334 59.6933,-166.6934 143.7466,-197.1067 11.8934,-4.2933 22.2134,-12.3733 28.2934,-23.44 3.84,-7.0267 6.36,-15.64 4.8266,-25.4667 -0.5066,-3.3333 -1.68,-6.5333 -3.1466,-9.6 -3.6267,-7.6533 -11.7067,-30.2 3.6,-55.7466 0,0 3.1333,14.4933 10.9066,23.8266 l 0.027,0.027 c 1.5733,1.88 3.3333,3.56 5.3067,4.8667 1.5466,1.0266 3.2266,1.8133 5.0533,2.28 0.5867,0.1733 1.2,0.2933 1.8267,0.3733 0,0 4.6933,-4.4267 10.2666,-11.2133 4.5334,-5.52 9.6534,-12.6 13.2667,-20.16 0,0 8.36,8.3466 13.8533,17.7466 2.7067,4.5734 4.7067,9.4134 4.7067,13.6267 0,0 2.84,-2.3467 6.7067,-6.1867 l 0.2666,-0.2933 c 1.3867,-1.36 2.88,-2.9067 4.3867,-4.6133 l 0.067,-0.053 c 1.9866,-2.2133 4.04,-4.64 5.9733,-7.24 4.9333,-6.56 9.16,-14.1333 9.96,-21.4133 0,0 4.76,20.6 4.76,39.9333 v 0.1467 c 0,7.2133 -0.6933,14.2133 -2.5067,19.92 -1.0533,3.2533 -1.88,6.56 -2.4,9.92 v 0.04 c -0.5066,3.08 -0.7333,6.1867 -0.6533,9.3333 0.32,9.8134 2.5467,22.7734 10.8933,31.92 2.0267,2.2267 4.44,4.0134 7.1067,5.3734 l 0.1067,0.053 c 1.76,0.9333 3.6,1.6667 5.5066,2.2267 3.2934,1.0133 6.5467,2.08 9.76,3.2133 3.2934,0.4 5.64,1.32 7.24,2.68 81.1334,31.7067 138.2267,107.08 138.2267,195.0267"
         style="fill:#ffffff;fill-opacity:1;fill-rule:nonzero;stroke:none;stroke-width:0.133333" />
      <path
         id="path221"
         d="m 3690.9999,1922.0534 c 0,86.9066 -53.4267,162.6133 -131.56,198.3866 -23.88,8.2 -49.68,12.6667 -76.56,12.6667 -4.2267,0 -8.4133,-0.12 -12.5467,-0.36 -5.68,-0.2667 -11.24,-0.7733 -16.8,-1.4533 -24.48,-3.04 -47.6933,-9.76 -69.0133,-19.6 -74.3866,-34.3067 -125.5866,-106.32 -125.5866,-189.64 0,-1.0134 0,-2.0534 0.027,-3.0534 0.053,-3.4533 0.1734,-6.9066 0.4134,-10.2933 0.2133,-3.3867 0.5333,-6.7467 0.92,-10.0533 0.6266,-5.3734 1.4666,-10.7067 2.5333,-15.9334 2.52,-12.76 6.3067,-25.0933 11.1733,-36.9333 1.3067,-3.24 2.7334,-6.4133 4.2267,-9.5733 1.4533,-3.0934 3,-6.1467 4.64,-9.16 1.28,-2.4 2.6133,-4.8134 4.0133,-7.16 4.4934,-7.6667 9.48,-15.0134 14.92,-22.0267 2,-2.56 4.0134,-5.0933 6.16,-7.56 2.0534,-2.44 4.16,-4.84 6.36,-7.1867 3.2667,-3.5466 6.6934,-6.96 10.2267,-10.2933 5.6533,-5.3467 11.6266,-10.4 17.8666,-15.1333 2.56,-1.96 5.1467,-3.84 7.8,-5.68 2.52,-1.7467 5.08,-3.4534 7.6934,-5.08 2.4666,-1.5734 4.9733,-3.0934 7.4933,-4.5467 11.7467,-6.84 24.2,-12.7067 37.2533,-17.4267 3.4,-1.2266 6.64,-2.7733 9.6667,-4.5866 7.76,-4.5467 14.2667,-10.9334 18.64,-18.88 3.84,-7.0134 6.3333,-15.64 4.8133,-25.44 -0.4933,-3.3334 -1.6933,-6.5467 -3.1466,-9.6134 -1.52,-3.1466 -3.7734,-8.9466 -4.8134,-16.4133 l -0.027,-0.12 c -0.4534,-3.2 -0.6534,-6.7467 -0.48,-10.4933 0.027,-0.44 0.027,-0.8534 0.093,-1.3334 l 10.1067,-4.28 6.96,-2.9466 c 1.7466,2.7066 3.7733,5.2 6.1466,7.16 2.5334,2.12 5.4134,3.6 8.7467,4.0533 0,0 2.3733,-2.24 5.76,-5.9467 1.9067,-2.12 4.1733,-4.7333 6.4533,-7.68 0.7734,1.28 1.4667,2.6267 2.0934,3.9334 1.5733,3.32 2.6133,6.68 2.6133,9.6933 0,0 2.8533,-2.3467 6.72,-6.1867 l 0.1733,-0.1866 0.2934,-0.32 c 1.64,-1.84 2.9466,-3.1867 3.6666,-3.8934 l 0.2934,-0.3066 0.2133,-0.2 0.053,-0.067 c 1.9867,-2.2 4.04,-4.6267 5.9734,-7.2133 1.08,1.5333 2.1466,3.1466 3.0933,4.8133 2.68,4.5733 4.6667,9.36 4.6667,13.56 0,0 2.5866,-2.12 6.1866,-5.68 l 0.2134,-0.1867 0.5866,6.0134 v 0.12 c 0,0 -4.1333,13.64 -4.9333,29.8533 v 0.053 c -0.8,17.0134 2.08,36.8134 17.36,46.6267 l 0.093,0.053 c 4.1334,2.6534 9.1867,4.52 15.28,5.4134 0,0 18.1467,0.1733 43.36,9.72 68.68,39.5733 111.4267,110.1866 111.4267,188"
         style="fill:#f21626;fill-opacity:1;fill-rule:nonzero;stroke:none;stroke-width:0.133333" />
      <path
         id="path222"
         d="m 3690.9999,1922.0534 c 0,86.9066 -53.4267,162.6133 -131.56,198.3866 -23.88,8.2 -49.68,12.6667 -76.56,12.6667 -4.2267,0 -8.4133,-0.12 -12.5467,-0.36 -5.68,-0.2667 -11.24,-0.7733 -16.8,-1.4533 14.2667,-1.7067 38.4134,-5.84 64.6934,-15.68 60.1866,-22.5067 131.72,-75.04 122.2933,-197.24 -12.7867,-166.36 -167.72,-193.68 -228.2,-198 7.76,-4.5467 14.2667,-10.9334 18.64,-18.88 3.84,-7.0134 6.3333,-15.64 4.8133,-25.44 -0.4933,-3.3334 -1.6933,-6.5467 -3.1466,-9.6134 -1.52,-3.1466 -3.7734,-8.9466 -4.8134,-16.4133 l -0.027,-0.12 c -0.4534,-3.2 -0.6534,-6.7467 -0.48,-10.4933 0.027,-0.44 0.027,-0.8534 0.093,-1.3334 l 10.1067,-4.28 6.96,-2.9466 c 3.5866,5.5866 9.5333,-13.4934 15.96,-12.64 0,0 4.76,18.3733 11.1466,10.2266 0.7734,1.28 1.4667,2.6267 2.0934,3.9334 1.5733,3.32 2.6133,6.68 2.6133,9.6933 0,0 2.8533,-2.3467 6.72,-6.1867 l 0.1733,-0.1866 0.2934,-0.32 c 1.64,-1.84 2.9466,-3.1867 3.6666,-3.8934 l 0.2934,-0.3066 0.2133,-0.2 0.053,-0.067 c 1.9867,-2.2 4.04,-4.6267 5.9734,-7.2133 l 0.027,-0.04 h 0.04 c 12.52,-5.2934 10.4934,15.3733 13.88,12.7333 l 0.2134,-0.1867 0.5866,6.0134 v 0.12 c 0,0 -4.1333,13.64 -4.9333,29.8533 v 0.053 c -0.8,17.0134 2.08,36.8134 17.36,46.6267 l 0.093,0.053 c 4.1334,2.6534 9.1867,4.52 15.28,5.4134 0,0 18.1467,0.1733 43.36,9.72 68.68,39.5733 111.4267,110.1866 111.4267,188"
         style="fill:#cc1f1f;fill-opacity:1;fill-rule:nonzero;stroke:none;stroke-width:0.133333" />
      <path
         id="path223"
         d="m 3518.2266,2115.6134 c -15.4534,4.28 -31.6667,6.96 -48.4267,7.8266 -3.9067,0.24 -7.8533,0.32 -12.08,0.32 -25.68,0 -50.3333,-4.2533 -73.2,-12.0666 -82.4133,-28.1867 -141.44,-102.5467 -141.44,-189.64 0,-4.1067 0.1467,-8.2 0.4134,-12.28 0.2133,-3.44 0.5333,-6.8667 0.96,-10.2534 0.4133,-3.3333 0.8933,-6.6266 1.48,-9.9333 0.96,-5.4133 2.1466,-10.7867 3.5733,-16.08 3.6533,-13.68 8.8267,-26.9067 15.3067,-39.4533 1.6133,-3.0134 3.24,-5.9867 4.9733,-8.92 1.6533,-2.8934 3.4133,-5.72 5.2533,-8.5067 1.52,-2.3467 3.0934,-4.6667 4.7334,-6.9333 3.9466,-5.4934 8.1733,-10.8534 12.6666,-15.96 2.1734,-2.5067 4.4267,-4.9334 6.7467,-7.3467 2.2933,-2.3867 4.64,-4.6933 7.0533,-6.9867 3.56,-3.36 7.28,-6.6266 11.12,-9.76 7.1867,-5.9066 14.8267,-11.3466 22.8533,-16.32 2.68,-1.6933 5.4534,-3.2933 8.2134,-4.88 2.68,-1.48 5.3733,-2.9066 8.12,-4.3066 2.5466,-1.28 5.1333,-2.52 7.7866,-3.72 5.32,-2.4267 10.76,-4.6667 16.32,-6.68 14.5467,-5.2667 26.3734,-15.1067 33.3067,-27.7467 5.56,-10.1733 7.52,-20.72 5.88,-31.3333 -0.5867,-3.9334 -1.8933,-7.9067 -3.9467,-12.2 -2.1733,-4.5734 -5.6266,-14.12 -4.1733,-26.1334 0.8667,1.28 1.76,2.5334 2.7733,3.72 0.093,0.1467 0.2,0.2934 0.32,0.4534 l 0.16,0.1733 0.2667,0.2933 c 2.1333,2.5334 4.4533,4.6134 6.92,6.2134 1.84,1.2266 3.7733,2.2 5.6533,2.8533 l 0.2934,0.12 c 0.56,0.2133 1.1333,0.36 1.6933,0.5067 1.04,0.2933 2.12,0.5066 3.16,0.6533 2.7867,0.3867 5.5867,-0.5333 7.6,-2.44 0.16,-0.1467 2.8933,-2.76 6.6933,-6.9867 1.04,-1.16 2.1734,-2.4666 3.36,-3.8666 0.3334,-0.4134 0.6934,-0.8267 1.04,-1.24 2.8,-3.3867 5.2934,-6.7467 7.52,-10.0534 1.52,2.0267 3.0667,4.2267 4.3734,6.48 0.6266,1.0667 1.16,2.0534 1.5733,2.92 1.1333,2.3734 1.5867,4.0134 1.7333,4.9867 0.053,0.48 0.093,0.7733 0.093,0.96 0,3.6267 2.08,6.8933 5.3466,8.44 3.2667,1.5467 7.1334,1.0667 9.8934,-1.2533 0.16,-0.08 3.2133,-2.64 7.32,-6.68 0.1466,-0.1867 0.2666,-0.3334 0.4133,-0.48 h 0.027 l 0.24,-0.2667 c 1.4266,-1.3733 2.8,-2.8267 4.1066,-4.32 0.24,-0.2267 0.48,-0.4933 0.72,-0.7733 1.3067,-1.4534 2.5467,-2.9067 3.68,-4.3067 0.24,3.2667 0.3867,6.6 0.3867,9.9333 0,6.9334 -0.7067,12.8134 -2.08,17.04 -1.2133,3.8267 -2.1467,7.64 -2.7067,11.36 l -0.053,0.2667 c -0.5733,3.5867 -0.8133,7.2533 -0.72,10.8533 0.5067,15.7867 5.12,28.8934 13.32,37.9067 2.7067,2.9467 5.92,5.3733 9.5733,7.28 l 0.2134,0.093 c 2.2266,1.1867 4.6666,2.1734 7.1066,2.88 3.1734,0.9867 6.3334,2.0267 9.36,3.0934 0.6534,0.24 1.3067,0.3866 2,0.48 1.6267,0.1733 2.28,0.5066 2.32,0.5066 0.76,0.68 1.6534,1.2134 2.64,1.6 80.3734,31.4 132.3067,104.5467 132.3067,186.3334 0,91.2266 -64.6667,168.9733 -154.1333,193.56 z m 61.3466,-381.56 c -10,-5.76 -20.52,-10.8534 -31.52,-15.2267 -2.6133,-1.8133 -5.8,-3 -9.64,-3.5867 -3.0266,-1.04 -6.12,-2.0533 -9.3066,-3.04 -1.3067,-0.3866 -2.52,-0.8933 -3.6534,-1.4533 l -0.36,-0.2133 c -1.7466,-0.8934 -3.2666,-2.0134 -4.48,-3.32 -6.52,-7.1734 -8.1866,-18.0534 -8.4533,-25.9067 -0.053,-2.4667 0.12,-5.0267 0.5333,-7.5733 0.04,-0.12 0.04,-0.24 0.067,-0.3867 0.4133,-2.6533 1.0933,-5.4133 2.0133,-8.24 1.9734,-6.12 2.9467,-13.8 2.9467,-22.8933 0,-20.1867 -4.7867,-41.1467 -4.9867,-42.04 -1.0133,-4.44 -5.0533,-7.4934 -9.64,-7.2267 -4.5466,0.2933 -8.24,3.7733 -8.7066,8.2933 -0.5067,4.5734 -3.3334,10.4 -8.1734,16.8934 -1.52,1.9866 -3.1866,4.04 -5.1466,6.2133 l -0.12,0.1467 -0.2667,0.2933 -0.2667,0.2933 -0.04,-0.053 c -0.2666,-0.4133 -0.4666,-0.8667 -0.7333,-1.28 -6.04,-10.32 -14.96,-19.2667 -15.3467,-19.6533 -2.1333,-2.1467 -5.1733,-3.0934 -8.1733,-2.5867 -2.9733,0.5067 -5.5067,2.44 -6.8133,5.1733 -2.7334,5.68 -6.7734,11.84 -12.04,18.2534 -1.6934,2.0266 -3.2667,3.84 -4.64,5.36 -0.2934,0.32 -0.56,0.5866 -0.8267,0.88 -0.8667,-0.68 -1.76,-1.5334 -2.6533,-2.6134 l -0.12,-0.12 c -0.2667,-0.32 -0.5334,-0.6533 -0.8,-1 -4.5734,-6.2133 -7.3067,-15.4933 -8.0267,-18.7066 -0.8267,-3.7467 -3.84,-6.6 -7.6133,-7.2267 -3.7734,-0.6267 -7.5467,1.1067 -9.5067,4.4 -17.4533,29.1067 -8.6267,54.8267 -4.0267,64.5867 1.2534,2.6133 2.0267,4.8666 2.36,6.9866 1,6.5067 -0.2666,13.08 -3.8133,19.5334 -4.72,8.6533 -13.0267,15.4533 -23.28,19.1733 -6.6533,2.4133 -13.1467,5.08 -19.4667,8.0267 -2.44,1.1333 -4.8266,2.2933 -7.2,3.48 -2.7333,1.4 -5.4666,2.8266 -8.1466,4.3466 -2.7734,1.5067 -5.5334,3.12 -8.24,4.7467 -12.0667,7.3467 -23.3733,15.7333 -33.8,25.0667 -3.48,3.12 -6.8667,6.36 -10.1733,9.6933 -2.3734,2.3867 -4.6934,4.8533 -6.96,7.3467 -2.2267,2.4666 -4.4,5 -6.5334,7.5866 -1.6133,1.96 -3.1866,3.92 -4.7333,5.9467 -0.8267,1.0667 -1.64,2.1333 -2.44,3.2 -0.9733,1.32 -1.9333,2.6533 -2.88,3.9867 -1.96,2.7733 -3.84,5.56 -5.6267,8.3866 -1.8933,2.88 -3.68,5.8 -5.3733,8.7467 -8.1467,14.0933 -14.6,28.8933 -19.24,44.24 -1.6667,5.4667 -3.12,11 -4.3067,16.56 -0.72,3.3333 -1.3733,6.6667 -1.9333,10.0133 -0.5733,3.4 -1.04,6.8134 -1.4267,10.2667 -0.92,8 -1.4,16.08 -1.4,24.2267 0,121.4933 104.6267,220.36 233.28,220.36 4.5867,0 8.8667,-0.12 13.08,-0.3334 31.7333,-1.6666 61.6667,-9.28 88.64,-21.64 78.1333,-35.7733 131.56,-111.48 131.56,-198.3866 0,-77.8134 -42.7467,-148.4267 -111.4267,-188 z m -151.76,-84.0267 0.2934,0.12 -0.32,-0.24 z m 66.2134,-12.28 c -0.2667,0.3067 -1.72,1.7333 -3.72,3.9333 l -0.12,0.1467 c 1.4266,-1.3733 2.8,-2.8267 4.1066,-4.32 l -0.2666,0.24"
         style="fill:#231f20;fill-opacity:1;fill-rule:nonzero;stroke:none;stroke-width:0.133333" />
      <path
         id="path224"
         d="m 3458.3066,1683.1334 c -4.3067,0 -8.1867,-3.0267 -9.1067,-7.4134 -2.44,-11.56 -20.9467,-26.52 -32.0267,-33.2266 -4.4133,-2.6534 -5.8266,-8.3867 -3.16,-12.7867 2.6534,-4.4133 8.3734,-5.8267 12.7867,-3.1733 3.64,2.1866 35.76,22.12 40.64,45.3466 1.0667,5.04 -2.16,9.9867 -7.2,11.04 -0.64,0.1467 -1.2933,0.2134 -1.9333,0.2134"
         style="fill:#231f20;fill-opacity:1;fill-rule:nonzero;stroke:none;stroke-width:0.133333" />
      <path
         id="path225"
         d="m 3496.7599,1628.5067 c -0.3867,-1.5467 -1.1867,-3.04 -2.4,-4.2533 -0.2133,-0.2134 -0.4267,-0.3867 -0.6267,-0.6 h -0.04 c -3.6266,-3.0267 -9,-2.9067 -12.4533,0.5333 l -0.1733,0.16 -0.12,0.1467 c -0.1467,0.1466 -0.3334,0.32 -0.5734,0.5333 -0.8533,0.8933 -2.2,2.2933 -3.8,4.0667 -0.2666,0.2666 -0.5066,0.5066 -0.68,0.72 -0.72,0.7733 -1.4666,1.64 -2.2266,2.56 -2.12,2.4666 -4.4667,5.44 -6.8134,8.7333 -2.8266,3.9333 -5.6533,8.36 -8.12,13.12 -3.6266,6.96 -6.5066,14.6267 -7.5466,22.56 -0.16,1.08 -0.093,2.12 0.12,3.12 0.7733,3.7867 3.8533,6.8133 7.9066,7.3467 0.4134,0.027 0.8267,0.067 1.2134,0.067 4.6133,0 8.6266,-3.4266 9.2533,-8.12 1.9333,-14.8933 14.2133,-30.24 19.8267,-36.6266 0.1466,-0.1867 0.2666,-0.3334 0.4133,-0.48 h 0.027 l 0.24,-0.2667 0.12,-0.1467 c 2,-2.2 3.4533,-3.6266 3.72,-3.9333 l 0.2666,-0.24 c 0.24,-0.2267 0.48,-0.4933 0.72,-0.7733 1.8667,-2.3734 2.4667,-5.44 1.7467,-8.2267"
         style="fill:#231f20;fill-opacity:1;fill-rule:nonzero;stroke:none;stroke-width:0.133333" />
    </g>
  </g>
</svg>
