<?xml version="1.0" encoding="UTF-8" standalone="no"?>
<!-- Created with Inkscape (http://www.inkscape.org/) -->

<svg
   width="111.52313mm"
   height="158.88123mm"
   viewBox="0 0 111.52313 158.88123"
   version="1.1"
   id="svg1"
   inkscape:version="1.3 (0e150ed, 2023-07-21)"
   sodipodi:docname="strawberry.svg"
   xmlns:inkscape="http://www.inkscape.org/namespaces/inkscape"
   xmlns:sodipodi="http://sodipodi.sourceforge.net/DTD/sodipodi-0.dtd"
   xmlns="http://www.w3.org/2000/svg"
   xmlns:svg="http://www.w3.org/2000/svg">
  <sodipodi:namedview
     id="namedview1"
     pagecolor="#ffffff"
     bordercolor="#000000"
     borderopacity="0.25"
     inkscape:showpageshadow="2"
     inkscape:pageopacity="0.0"
     inkscape:pagecheckerboard="0"
     inkscape:deskcolor="#d1d1d1"
     inkscape:document-units="mm"
     inkscape:zoom="0.2102413"
     inkscape:cx="211.66155"
     inkscape:cy="299.65568"
     inkscape:window-width="1312"
     inkscape:window-height="449"
     inkscape:window-x="0"
     inkscape:window-y="25"
     inkscape:window-maximized="0"
     inkscape:current-layer="layer1" />
  <defs
     id="defs1" />
  <g
     inkscape:label="Layer 1"
     inkscape:groupmode="layer"
     id="layer1"
     transform="translate(-49.212498,-69.056244)">
    <g
       id="g797"
       transform="matrix(0.26458333,0,0,0.26458333,-401.17421,-140.21436)">
      <path
         id="path547"
         d="m 1913.0133,890.74672 c -110.72,0 -207.12,90.04 -200.4933,200.65328 8.1333,135.56 113.5066,290.12 200.4933,290.12 86.9867,0 192.3733,-154.56 200.4933,-290.12 6.6267,-110.61328 -89.76,-200.65328 -200.4933,-200.65328"
         style="fill:#ffffff;fill-opacity:1;fill-rule:nonzero;stroke:none;stroke-width:0.133333" />
      <path
         id="path548"
         d="m 2123.4133,1091.9734 c -8,133.6666 -105.08,279.6133 -192.72,297.6133 h -0.9867 c -1.28,-0.027 -2.52,-0.093 -3.7866,-0.1867 -0.2267,0 -0.4267,0 -0.64,-0.027 -1.1467,-0.093 -2.2667,-0.2 -3.4134,-0.36 -0.3466,-0.027 -0.7066,-0.093 -1.0266,-0.12 -1.1067,-0.16 -2.2534,-0.32 -3.3734,-0.5467 l -0.16,-0.027 c -1.08,-0.1866 -2.1333,-0.3866 -3.1866,-0.64 -0.3467,-0.067 -0.7334,-0.16 -1.08,-0.2533 -1.12,-0.2267 -2.2,-0.5067 -3.28,-0.8267 -1.6267,-0.4533 -3.2534,-0.9333 -4.88,-1.4666 -1.12,-0.3467 -2.2,-0.7334 -3.32,-1.1467 -1.08,-0.4133 -2.1334,-0.8 -3.1867,-1.24 -1.4933,-0.6133 -3.0267,-1.28 -4.52,-1.9467 -1.5067,-0.6666 -3.0267,-1.4 -4.5333,-2.1733 -1.08,-0.5333 -2.16,-1.1067 -3.24,-1.72 l -0.067,-0.027 c -5.0133,-2.68 -10.0133,-5.7733 -14.9867,-9.24 -1.4,-1 -2.8,-2.0133 -4.2,-3.04 -1.4666,-1.1066 -2.96,-2.2266 -4.4266,-3.4 -1.5067,-1.1866 -2.9734,-2.36 -4.44,-3.6 -13.3867,-11.16 -26.3867,-24.8933 -38.6534,-40.52 -45.8933,-58.44 -81.08,-143.48 -84.1733,-221.6 -1.88,-47.64 15.2,-91.0533 44.1467,-124.93328 2.6133,-3.05334 5.32,-6.02667 8.0933,-8.92 1.1467,-1.18667 2.2933,-2.33334 3.44,-3.44 2.84,-2.84 5.7733,-5.54667 8.76,-8.16 3.32,-2.90667 6.7333,-5.70667 10.2267,-8.38667 3.2266,-2.48 6.5066,-4.84 9.88,-7.10667 l 0.04,-0.0267 c 7.2666,-4.94667 14.92,-9.4 22.8133,-13.38667 9.9867,-5.04 20.44,-9.30666 31.2133,-12.69333 1.36,-0.44 2.76,-0.85333 4.1734,-1.26667 2.5466,-0.73333 5.12,-1.44 7.7066,-2.08 3.6,-0.92 7.2667,-1.72 10.9334,-2.45333 0.5733,-0.0933 1.1733,-0.21333 1.7466,-0.28 1.92,-0.38667 3.8667,-0.70667 5.8,-0.98667 l 0.16,-0.04 c 0.8,-0.12 1.6,-0.25333 2.4267,-0.37333 l 0.093,-0.04 0.2267,-0.0267 c 0.32,-0.0267 0.64,-0.0667 0.96,-0.13333 h 0.12 c 1.5333,-0.18667 3.0667,-0.37333 4.6,-0.57333 h 0.027 c 0.48,-0.0533 0.9866,-0.0933 1.4666,-0.16 0.8534,-0.0933 1.6934,-0.16 2.5467,-0.21334 l 0.2267,-0.04 h 0.16 c 0.5733,-0.0933 1.1466,-0.12 1.72,-0.16 l 0.2266,-0.0267 c 0.3734,-0.0267 0.7867,-0.0667 1.2,-0.0667 1.9867,-0.18667 3.9867,-0.32 6,-0.38667 0.16,-0.0267 0.32,-0.0267 0.48,0 2.2,-0.12 4.4267,-0.18666 6.6534,-0.18666 0.8666,-0.0267 1.76,-0.0267 2.6533,-0.0267 h 1.24 c 0.8,0 1.56,0 2.36,0.0267 1.9067,0.04 3.8267,0.0933 5.7333,0.18666 0.6667,0.04 1.3067,0.0667 1.9734,0.13334 1.8133,0.0933 3.6666,0.22666 5.48,0.41333 5.0133,0.38667 9.9466,1.02667 14.8533,1.81333 7.9067,1.25334 15.68,2.93334 23.3067,5.10667 1.04,0.28 2.0933,0.57333 3.12,0.89333 l 0.16,0.0667 c 17.6533,5.25333 34.3866,12.8 49.7733,22.33333 1.9866,1.21334 3.92,2.45334 5.84,3.73333 0.5466,0.34667 1.08,0.73334 1.6266,1.08 2.6134,1.78667 5.1867,3.64 7.7467,5.54667 h 0.027 c 1.44,1.05333 2.84,2.17333 4.24,3.28 1.12,0.86667 2.2666,1.78667 3.3733,2.70667 0.32,0.26666 0.64,0.52 0.96,0.8 0.5467,0.41333 1.08,0.89333 1.6,1.34666 h 0.027 l 0.28,0.25334 c 0.84,0.73333 1.6666,1.42666 2.4933,2.2 h 0.027 c 2.4933,2.73333 4.9066,5.54666 7.2666,8.37333 31.24,38.05333 46.7334,84.71996 43.8534,132.77336"
         style="fill:#f21626;fill-opacity:1;fill-rule:nonzero;stroke:none;stroke-width:0.133333" />
      <path
         id="path549"
         d="m 2072.0399,1044.8134 c -11.12,2.2666 -21.7066,3.56 -31.8,4.04 -23.56,2.4 -42.9066,0.36 -58.8133,-4.7734 -1.4266,-0.4133 -2.8666,-0.9333 -4.2266,-1.44 -6.8534,-2.52 -13.04,-5.64 -18.6134,-9.2666 -1.3466,-0.8667 -2.68,-1.76 -3.96,-2.72 -1.3733,-0.9467 -2.7066,-2 -4.0133,-3.0534 -9.44,18.32 -20.56,30.1867 -21.36,31.04 -1.8133,1.88 -4.2933,2.9334 -6.88,2.9334 -2.5733,0 -5.04,-1.0534 -6.8533,-2.9334 -0.8,-0.8533 -11.92,-12.68 -21.3467,-30.9733 1.1867,2.2933 -20.1467,14.1733 -22.3333,15.24 -18.76,9.0133 -40.1067,11.44 -60.68,10.0667 -9.9867,-0.6667 -48.0534,-2.0267 -46.2267,-18.4 0.12,-1.1467 0.4133,-2.2 0.8933,-3.1867 1.5334,-3.1867 4.8134,-5.3467 8.5334,-5.3467 0.2266,0 2.7466,-0.2 6.48,-2.0133 7.0666,-3.4667 18.4533,-12.7467 26.7733,-37.82665 0.027,-0.22667 0.16,-0.50667 0.2533,-0.8 l -0.32,-0.0933 c -3.1333,-0.8 -6.32,-1.81334 -9.5066,-3.06667 -5.5067,-2.13333 -14.2134,-6.8 -19.92,-10.36 3.0533,-3.73333 6.24,-7.36 9.6266,-10.86667 1.1734,-1.28 2.3867,-2.52 3.6267,-3.73333 2.88,-2.89333 5.8667,-5.70667 8.9333,-8.38667 3.4,-3.02666 10.0134,-4.06666 13.6134,-6.86666 0.7333,-0.57334 1.4933,-1.14667 2.2666,-1.72 7.1067,-5.32 14.6267,-10.22667 22.4267,-14.62667 9.28,-5.26666 19,-9.82666 29.0667,-13.58666 4.4,-1.65334 8.8666,-3.14667 13.3866,-4.52 1.3067,-0.38667 2.6534,-0.76 3.9867,-1.14667 4.1733,-1.18667 8.3867,-2.2 12.6533,-3.09333 0.16,-0.0267 0.2934,-0.0667 0.4534,-0.0933 1.9733,-0.41333 3.9466,-0.8 5.92,-1.14666 l 0.2266,-0.0667 c 0.8,-0.13333 1.56,-0.25333 2.36,-0.38667 l 0.1867,-0.0267 0.1867,-0.0267 c 1.6266,-0.29333 3.2533,-0.52 4.88,-0.73333 0.3466,-0.0667 0.7066,-0.13334 1.1466,-0.16 0.6134,-0.10667 1.1867,-0.16 1.7867,-0.22667 0.48,-0.0933 0.96,-0.16 1.44,-0.18667 0.16,-0.04 0.28,-0.04 0.4133,-0.0667 l 0.28,-0.04 c 0.6134,-0.0533 1.2134,-0.12 1.7867,-0.18667 0.6667,-0.0667 1.3067,-0.13333 1.9467,-0.18667 1.88,-0.2 3.7333,-0.32 5.6133,-0.45333 0.12,-0.0267 0.2533,-0.0267 0.4133,0 2.2267,-0.18667 4.4534,-0.28 6.72,-0.34667 0.8667,-0.0667 1.7467,-0.0667 2.64,-0.0667 0.3867,-0.0267 0.7734,-0.0267 1.1867,-0.0267 0.8,0 1.56,0 2.36,0.0267 1.9067,0.04 3.8267,0.0933 5.7333,0.18666 0.6667,0.04 1.3067,0.0667 1.9734,0.13334 1.8133,0.0933 3.6666,0.22666 5.48,0.41333 5.0133,0.38667 9.9466,1.02667 14.8533,1.81333 7.9067,1.25334 15.68,2.93334 23.3067,5.10667 1.04,0.28 2.0933,0.57333 3.12,0.89333 l 0.16,0.0667 c 17.6533,5.25333 34.3866,12.8 49.7733,22.33333 1.9866,1.21334 3.92,2.45334 5.84,3.73333 0.5466,0.34667 1.08,0.73334 1.6266,1.08 2.6134,1.78667 5.1867,3.64 7.7734,5.54667 1.44,1.05333 2.84,2.17333 4.24,3.28 1.12,0.86667 2.2666,1.78667 3.3733,2.70667 0.32,0.26666 0.64,0.52 0.96,0.8 0.5467,0.41333 1.08,0.89333 1.6267,1.34666 l 0.28,0.25334 c 0.84,0.73333 1.6666,1.42666 2.52,2.2 2.4933,2.73333 4.9066,5.54666 7.2666,8.37333 -2.5466,2.33333 -5.0933,4.46667 -7.6133,6.44 -0.2267,0.18667 -0.44,0.38667 -0.6667,0.54667 -2.4933,1.94666 -4.9466,3.72 -7.4,5.32 -9.2666,6.28 -18.36,10.52 -27.1466,13.09333 l -0.2934,0.10667 c 0.16,0.6 0.3467,1.10666 0.5067,1.49333 6.4133,19.34663 14.6667,29.31993 21.36,34.45333 1.0133,0.76 2.0133,1.4266 2.9333,1.9733 5.1334,3.16 8.8267,3.4133 9.1734,3.4133 1.1866,0 2.2933,0.2267 3.32,0.6 3.2533,1.2134 5.64,4.24 5.9866,7.9334 0.48,4.8533 -2.8933,9.28 -7.68,10.24"
         style="fill:#cc1f1f;fill-opacity:1;fill-rule:nonzero;stroke:none;stroke-width:0.133333" />
      <path
         id="path550"
         d="m 2123.4133,1091.9734 c -8,133.6666 -105.08,279.6133 -192.72,297.6133 h -0.9867 c -1.28,-0.027 -2.52,-0.093 -3.7866,-0.1867 -0.2267,0 -0.4267,0 -0.64,-0.027 -1.1467,-0.093 -2.2667,-0.2 -3.4134,-0.36 -0.3466,-0.027 -0.7066,-0.093 -1.0266,-0.12 -1.1067,-0.16 -2.2534,-0.32 -3.3734,-0.5467 l -0.16,-0.027 c -1.08,-0.1866 -2.1333,-0.3866 -3.1866,-0.64 -0.3467,-0.067 -0.7334,-0.16 -1.08,-0.2533 -1.12,-0.2267 -2.2,-0.5067 -3.28,-0.8267 -1.6267,-0.4533 -3.2534,-0.9333 -4.88,-1.4666 -1.12,-0.3467 -2.2,-0.7334 -3.32,-1.1467 -1.08,-0.4133 -2.1334,-0.8 -3.1867,-1.24 -1.4933,-0.6133 -3.0267,-1.28 -4.52,-1.9467 -1.5067,-0.6666 -3.0267,-1.4 -4.5333,-2.1733 -1.08,-0.5333 -2.16,-1.1067 -3.24,-1.72 l -0.067,-0.027 c -5.0133,-2.68 -10.0133,-5.7733 -14.9867,-9.24 -1.4,-1 -2.8,-2.0133 -4.2,-3.04 -1.4666,-1.1066 -2.96,-2.2266 -4.4266,-3.4 -1.5067,-1.1866 -2.9734,-2.36 -4.44,-3.6 4.6533,1.1467 9.28,1.9334 13.8933,2.32 1.6,0.1334 3.2267,0.2267 4.8533,0.2534 30.6267,0.64 63.8,-17.1734 94.72,-46.4934 2.1334,-1.9866 4.24,-4.0533 6.3467,-6.16 57.2933,-57.8133 105.4933,-154.32 112.6933,-243.5866 1.6533,-20.5867 -0.2,-40.5734 -4.9467,-59.4667 -3.3466,-13.33332 -8.16,-26.14665 -14.24,-38.27998 l -1.8133,-3.54667 c -1.88,-3.56 -3.8933,-7.06667 -6,-10.50667 -0.44,-0.73333 -0.8933,-1.46666 -1.3733,-2.2 -1.7467,-2.84 -3.6267,-5.64 -5.5334,-8.38666 -1.6266,-2.32 -3.32,-4.58667 -5.04,-6.85334 2.6134,1.78667 5.1867,3.64 7.7467,5.54667 h 0.027 c 1.44,1.05333 2.84,2.17333 4.24,3.28 1.12,0.86667 2.2666,1.78667 3.3733,2.70667 0.32,0.26666 0.64,0.52 0.96,0.8 0.5467,0.41333 1.08,0.89333 1.6,1.34666 h 0.027 l 0.28,0.25334 c 0.84,0.73333 1.6666,1.42666 2.4933,2.2 h 0.027 c 2.4933,2.73333 4.9066,5.54666 7.2666,8.37333 31.24,38.05333 46.7334,84.71995 43.8534,132.77335"
         style="fill:#cc1f1f;fill-opacity:1;fill-rule:nonzero;stroke:none;stroke-width:0.133333" />
      <path
         id="path551"
         d="m 2079.5599,959.20005 c -2.36,-2.82667 -4.7733,-5.64 -7.2666,-8.37333 h -0.027 c -0.8267,-0.77334 -1.6533,-1.46667 -2.4933,-2.2 l -0.28,-0.25334 h -0.027 c -0.52,-0.45333 -1.0533,-0.93333 -1.6,-1.34666 -0.32,-0.28 -0.64,-0.53334 -0.96,-0.8 -1.1067,-0.92 -2.2533,-1.84 -3.3733,-2.70667 -1.4,-1.10667 -2.8,-2.22667 -4.24,-3.28 h -0.027 c -2.56,-1.90667 -5.1333,-3.76 -7.7467,-5.54667 -0.5466,-0.34666 -1.08,-0.73333 -1.6266,-1.08 -1.92,-1.27999 -3.8534,-2.51999 -5.84,-3.73333 -15.3867,-9.53333 -32.12,-17.08 -49.7733,-22.33333 l -0.16,-0.0667 c -1.0267,-0.32 -2.08,-0.61333 -3.12,-0.89333 -7.6267,-2.17333 -15.4,-3.85333 -23.3067,-5.10667 -4.9067,-0.78666 -9.84,-1.42666 -14.8533,-1.81333 -1.8134,-0.18667 -3.6667,-0.32 -5.48,-0.41333 -0.6667,-0.0667 -1.3067,-0.0933 -1.9734,-0.13334 -1.9066,-0.0933 -3.8266,-0.14666 -5.7333,-0.18666 -0.8,-0.0267 -1.56,-0.0267 -2.36,-0.0267 0.92,-0.04 1.88,-0.04 2.8,-0.04 1.76,0 3.48,0.04 5.2,0.0667 1.08,0.04 2.2,0.0667 3.28,0.13333 1.3333,0.0267 2.68,0.0933 4.0133,0.21333 4.5334,0.26667 9.0534,0.68 13.52,1.25334 6.5334,0.85333 13.0267,2 19.4,3.44 1.1867,0.25333 2.3334,0.53333 3.5067,0.82666 14.1866,3.50667 27.8933,8.44 40.8266,14.69334 4.72,2.29333 9.3467,4.74666 13.8667,7.36 3.0267,1.76 6.0267,3.6 8.96,5.52 0.6667,0.41333 1.3067,0.85333 1.9733,1.30666 -0.5466,-0.52 -1.12,-0.98666 -1.6933,-1.44 -1.1733,-1.05333 -2.4133,-2.06666 -3.6267,-3.05333 h -0.04 c -23,-18.68 -49.6533,-32.38667 -78.0799,-40.36 -4.6134,-1.30667 -9.3067,-2.45333 -14.0267,-3.44 -7.6133,-1.58667 -15.32,-2.77333 -23.1067,-3.53333 -1.68,-0.18667 -3.4,-0.32 -5.12,-0.44 -2.2,-0.2 -4.4,-0.32 -6.64,-0.38667 l -1.8133,-0.0933 c -2.2933,-0.0667 -4.6133,-0.13334 -6.9467,-0.13334 H 1913 c -2.0667,0 -4.1334,0.0267 -6.1734,0.0933 -0.2933,0 -0.5733,0 -0.8666,0.04 -3.4667,0.0933 -6.9467,0.32 -10.4267,0.57333 -3.3733,0.28 -6.7467,0.62667 -10.0933,1.08 h -0.04 c -11.76,1.53333 -23.36,4.01333 -34.64,7.42667 -29.8934,9.01333 -57.72,24.41333 -81.2134,45.29333 -0.9466,0.78666 -1.84,1.61333 -2.7733,2.48 -2.5467,2.32 -5.0667,4.74666 -7.52,7.24 -0.3733,0.37333 -0.76,0.76 -1.1067,1.17333 -0.8,0.76 -1.5333,1.56 -2.2933,2.36 -37.48,39.8 -56.4133,90.77339 -53.2667,143.41339 8.5734,142.76 118.6934,299.4666 210.4134,299.4666 5.84,0 11.7333,-0.64 17.6933,-1.8533 87.64,-18 184.72,-163.9467 192.72,-297.6133 2.88,-48.0534 -12.6134,-94.72006 -43.8534,-132.77339 z m 24.04,131.59995 c -3.7333,62.1867 -29.52,133.5067 -68.9466,190.84 -38.7467,56.32 -84.2,89.9467 -121.6533,89.9467 -12.96,0 -26.8667,-4.0533 -41.1467,-11.6667 -17.36,-9.24 -35.28,-23.8133 -52.5467,-42.84 -9.56,-10.48 -18.9066,-22.3333 -27.92,-35.44 -39.4266,-57.3333 -65.2133,-128.6533 -68.9333,-190.84 -2.84,-47.1333 14.1733,-92.81328 47.8667,-128.59995 1.7866,-1.88 3.5733,-3.73333 5.4133,-5.52 0.8933,-0.89333 1.7867,-1.72 2.68,-2.57333 2.7467,-2.61334 5.5733,-5.10667 8.48,-7.52 3.0933,-2.61334 6.28,-5.10667 9.5333,-7.52 10.8934,-8.04 22.6267,-14.92 34.96,-20.53333 7.48,-3.44 15.2267,-6.4 23.1067,-8.89334 3.6933,-1.14666 7.4533,-2.2 11.2133,-3.12 6.9467,-1.74666 13.9867,-3.09333 21.1334,-4.04 0.7066,-0.13333 1.4,-0.2 2.1333,-0.29333 1.5333,-0.18667 3.12,-0.38667 4.68,-0.50667 1.7867,-0.2 3.5467,-0.36 5.36,-0.48 1.6933,-0.13333 3.3733,-0.22666 5.0933,-0.29333 l 0.2,-0.0267 c 0.8,-0.0267 1.5867,-0.0667 2.3867,-0.0667 l 0.093,-0.0267 h 0.2267 c 0.32,0 0.64,-0.04 0.96,-0.04 h 0.12 c 1.3067,-0.0267 2.6533,-0.0533 3.9867,-0.0533 h 0.92 0.067 c 0.7334,0 1.5067,0 2.24,0.0267 h 0.2534 1.1466 l 0.28,0.0267 h 1.28 c 0.16,0 0.32,0.04 0.48,0.04 1.1067,0.0267 2.2267,0.0667 3.3067,0.12 1.5333,0.0667 3.0267,0.16 4.5333,0.25333 h 0.053 l 0.32,0.04 c 2.84,0.18667 5.68,0.44 8.48,0.8 0.16,0 0.32,0.0267 0.48,0.0533 3.6,0.42666 7.2,0.93333 10.7733,1.56 0.3467,0.0667 0.6667,0.13333 1.0133,0.2 1.3467,0.22666 2.72,0.48 4.0534,0.76 1.5333,0.32 3.0933,0.64 4.6266,0.98666 1.4267,0.32 2.8267,0.68 4.2667,1.05334 8.0667,2.01333 15.9733,4.53333 23.68,7.56 7.9067,3.05333 15.5867,6.65333 23.04,10.77333 8.1333,4.4 15.9333,9.42666 23.36,15 3.32,2.46666 6.5733,5.04 9.72,7.74666 2.9066,2.45334 5.7466,5.04 8.48,7.68 0.96,0.93334 1.92,1.85334 2.8666,2.84 1.3067,1.28 2.6134,2.61334 3.8934,3.98667 2.8666,3.02667 5.6133,6.14667 8.1866,9.30667 8.5734,10.36 15.7867,21.38666 21.64,32.96002 13.5867,26.7067 19.8667,56.2133 18.08,86.3333"
         style="fill:#231f20;fill-opacity:1;fill-rule:nonzero;stroke:none;stroke-width:0.133333" />
      <path
         id="path552"
         d="m 1822.0533,1041.2 c 0,12.08 -6.4133,21.8667 -14.3467,21.8667 -7.92,0 -14.3333,-9.7867 -14.3333,-21.8667 0,-12.0933 6.4133,-21.88 14.3333,-21.88 7.9334,0 14.3467,9.7867 14.3467,21.88"
         style="fill:#cc1f1f;fill-opacity:1;fill-rule:nonzero;stroke:none;stroke-width:0.133333" />
      <path
         id="path553"
         d="m 1817.7733,1041.2 c 0,8.4667 -4.5067,15.3334 -10.0667,15.3334 -5.5466,0 -10.0533,-6.8667 -10.0533,-15.3334 0,-8.48 4.5067,-15.3466 10.0533,-15.3466 5.56,0 10.0667,6.8666 10.0667,15.3466"
         style="fill:#ffe700;fill-opacity:1;fill-rule:nonzero;stroke:none;stroke-width:0.133333" />
      <path
         id="path554"
         d="m 1904.3333,1071.5867 c 0,12.08 -6.4267,21.8667 -14.3467,21.8667 -7.92,0 -14.3466,-9.7867 -14.3466,-21.8667 0,-12.08 6.4266,-21.88 14.3466,-21.88 7.92,0 14.3467,9.8 14.3467,21.88"
         style="fill:#cc1f1f;fill-opacity:1;fill-rule:nonzero;stroke:none;stroke-width:0.133333" />
      <path
         id="path555"
         d="m 1900.04,1071.5867 c 0,8.4667 -4.4934,15.3333 -10.0534,15.3333 -5.5466,0 -10.0533,-6.8666 -10.0533,-15.3333 0,-8.4667 4.5067,-15.3333 10.0533,-15.3333 5.56,0 10.0534,6.8666 10.0534,15.3333"
         style="fill:#ffe700;fill-opacity:1;fill-rule:nonzero;stroke:none;stroke-width:0.133333" />
      <path
         id="path556"
         d="m 1981.5466,1041.2 c 0,12.08 -6.4266,21.8667 -14.3466,21.8667 -7.92,0 -14.3334,-9.7867 -14.3334,-21.8667 0,-12.0933 6.4134,-21.88 14.3334,-21.88 7.92,0 14.3466,9.7867 14.3466,21.88"
         style="fill:#cc1f1f;fill-opacity:1;fill-rule:nonzero;stroke:none;stroke-width:0.133333" />
      <path
         id="path557"
         d="m 1977.2533,1041.2 c 0,8.4667 -4.4933,15.3334 -10.0533,15.3334 -5.5467,0 -10.0534,-6.8667 -10.0534,-15.3334 0,-8.48 4.5067,-15.3466 10.0534,-15.3466 5.56,0 10.0533,6.8666 10.0533,15.3466"
         style="fill:#ffe700;fill-opacity:1;fill-rule:nonzero;stroke:none;stroke-width:0.133333" />
      <path
         id="path558"
         d="m 2065.5333,1083.4 c 0,12.08 -6.4134,21.8667 -14.3334,21.8667 -7.9333,0 -14.3466,-9.7867 -14.3466,-21.8667 0,-12.0933 6.4133,-21.88 14.3466,-21.88 7.92,0 14.3334,9.7867 14.3334,21.88"
         style="fill:#cc1f1f;fill-opacity:1;fill-rule:nonzero;stroke:none;stroke-width:0.133333" />
      <path
         id="path559"
         d="m 2061.2533,1083.4 c 0,8.4667 -4.5067,15.3334 -10.0534,15.3334 -5.56,0 -10.0666,-6.8667 -10.0666,-15.3334 0,-8.48 4.5066,-15.3466 10.0666,-15.3466 5.5467,0 10.0534,6.8666 10.0534,15.3466"
         style="fill:#ffe700;fill-opacity:1;fill-rule:nonzero;stroke:none;stroke-width:0.133333" />
      <path
         id="path560"
         d="m 1797.6666,1119.2267 c 0,12.08 -6.4133,21.88 -14.3333,21.88 -7.92,0 -14.3467,-9.8 -14.3467,-21.88 0,-12.08 6.4267,-21.8667 14.3467,-21.8667 7.92,0 14.3333,9.7867 14.3333,21.8667"
         style="fill:#cc1f1f;fill-opacity:1;fill-rule:nonzero;stroke:none;stroke-width:0.133333" />
      <path
         id="path561"
         d="m 1793.3866,1119.2267 c 0,8.48 -4.5066,15.3467 -10.0533,15.3467 -5.56,0 -10.0667,-6.8667 -10.0667,-15.3467 0,-8.4667 4.5067,-15.3333 10.0667,-15.3333 5.5467,0 10.0533,6.8666 10.0533,15.3333"
         style="fill:#ffe700;fill-opacity:1;fill-rule:nonzero;stroke:none;stroke-width:0.133333" />
      <path
         id="path562"
         d="m 1885.36,1155.0534 c 0,12.08 -6.4134,21.8666 -14.3334,21.8666 -7.92,0 -14.3466,-9.7866 -14.3466,-21.8666 0,-12.0934 6.4266,-21.88 14.3466,-21.88 7.92,0 14.3334,9.7866 14.3334,21.88"
         style="fill:#cc1f1f;fill-opacity:1;fill-rule:nonzero;stroke:none;stroke-width:0.133333" />
      <path
         id="path563"
         d="m 1881.08,1155.0534 c 0,8.4666 -4.5067,15.3333 -10.0534,15.3333 -5.56,0 -10.0666,-6.8667 -10.0666,-15.3333 0,-8.48 4.5066,-15.3467 10.0666,-15.3467 5.5467,0 10.0534,6.8667 10.0534,15.3467"
         style="fill:#ffe700;fill-opacity:1;fill-rule:nonzero;stroke:none;stroke-width:0.133333" />
      <path
         id="path564"
         d="m 1962.5866,1124.6534 c 0,12.08 -6.4266,21.88 -14.3466,21.88 -7.92,0 -14.3467,-9.8 -14.3467,-21.88 0,-12.08 6.4267,-21.8667 14.3467,-21.8667 7.92,0 14.3466,9.7867 14.3466,21.8667"
         style="fill:#cc1f1f;fill-opacity:1;fill-rule:nonzero;stroke:none;stroke-width:0.133333" />
      <path
         id="path565"
         d="m 1958.2933,1124.6534 c 0,8.4666 -4.5067,15.3333 -10.0533,15.3333 -5.56,0 -10.0534,-6.8667 -10.0534,-15.3333 0,-8.4667 4.4934,-15.3334 10.0534,-15.3334 5.5466,0 10.0533,6.8667 10.0533,15.3334"
         style="fill:#ffe700;fill-opacity:1;fill-rule:nonzero;stroke:none;stroke-width:0.133333" />
      <path
         id="path566"
         d="m 1846.6266,960.38672 c 0,12.08 -6.4266,21.88 -14.3466,21.88 -7.92,0 -14.3467,-9.8 -14.3467,-21.88 0,-12.08 6.4267,-21.86667 14.3467,-21.86667 7.92,0 14.3466,9.78667 14.3466,21.86667"
         style="fill:#cc1f1f;fill-opacity:1;fill-rule:nonzero;stroke:none;stroke-width:0.133333" />
      <path
         id="path567"
         d="m 1842.3333,960.38672 c 0,8.46666 -4.4933,15.33333 -10.0533,15.33333 -5.5467,0 -10.0534,-6.86667 -10.0534,-15.33333 0,-8.46667 4.5067,-15.33334 10.0534,-15.33334 5.56,0 10.0533,6.86667 10.0533,15.33334"
         style="fill:#ffe700;fill-opacity:1;fill-rule:nonzero;stroke:none;stroke-width:0.133333" />
      <path
         id="path568"
         d="m 2033.4933,975.72005 c 0,12.08 -6.4267,21.88 -14.3467,21.88 -7.92,0 -14.3467,-9.8 -14.3467,-21.88 0,-12.08 6.4267,-21.86667 14.3467,-21.86667 7.92,0 14.3467,9.78667 14.3467,21.86667"
         style="fill:#cc1f1f;fill-opacity:1;fill-rule:nonzero;stroke:none;stroke-width:0.133333" />
      <path
         id="path569"
         d="m 2029.1999,975.72005 c 0,8.48 -4.5066,15.33333 -10.0533,15.33333 -5.56,0 -10.0533,-6.85333 -10.0533,-15.33333 0,-8.46667 4.4933,-15.33333 10.0533,-15.33333 5.5467,0 10.0533,6.86666 10.0533,15.33333"
         style="fill:#ffe700;fill-opacity:1;fill-rule:nonzero;stroke:none;stroke-width:0.133333" />
      <path
         id="path570"
         d="m 1927.36,994.01338 c 0,12.08002 -6.4267,21.86662 -14.3467,21.86662 -7.92,0 -14.3333,-9.7866 -14.3333,-21.86662 0,-12.08 6.4133,-21.88 14.3333,-21.88 7.92,0 14.3467,9.8 14.3467,21.88"
         style="fill:#cc1f1f;fill-opacity:1;fill-rule:nonzero;stroke:none;stroke-width:0.133333" />
      <path
         id="path571"
         d="m 1923.0666,994.01338 c 0,8.46662 -4.4933,15.33332 -10.0533,15.33332 -5.5467,0 -10.0533,-6.8667 -10.0533,-15.33332 0,-8.46666 4.5066,-15.33333 10.0533,-15.33333 5.56,0 10.0533,6.86667 10.0533,15.33333"
         style="fill:#ffe700;fill-opacity:1;fill-rule:nonzero;stroke:none;stroke-width:0.133333" />
      <path
         id="path572"
         d="m 2038.4399,1150.5867 c 0,12.08 -6.4133,21.88 -14.3466,21.88 -7.92,0 -14.3334,-9.8 -14.3334,-21.88 0,-12.08 6.4134,-21.88 14.3334,-21.88 7.9333,0 14.3466,9.8 14.3466,21.88"
         style="fill:#cc1f1f;fill-opacity:1;fill-rule:nonzero;stroke:none;stroke-width:0.133333" />
      <path
         id="path573"
         d="m 2034.1599,1150.5867 c 0,8.4667 -4.5066,15.3333 -10.0666,15.3333 -5.5467,0 -10.0534,-6.8666 -10.0534,-15.3333 0,-8.4667 4.5067,-15.3333 10.0534,-15.3333 5.56,0 10.0666,6.8666 10.0666,15.3333"
         style="fill:#ffe700;fill-opacity:1;fill-rule:nonzero;stroke:none;stroke-width:0.133333" />
      <path
         id="path574"
         d="m 1832.8933,1209.2934 c 0,12.0933 -6.4267,21.88 -14.3467,21.88 -7.92,0 -14.3333,-9.7867 -14.3333,-21.88 0,-12.08 6.4133,-21.8667 14.3333,-21.8667 7.92,0 14.3467,9.7867 14.3467,21.8667"
         style="fill:#cc1f1f;fill-opacity:1;fill-rule:nonzero;stroke:none;stroke-width:0.133333" />
      <path
         id="path575"
         d="m 1828.6,1209.2934 c 0,8.48 -4.4934,15.3466 -10.0534,15.3466 -5.5466,0 -10.0533,-6.8666 -10.0533,-15.3466 0,-8.4667 4.5067,-15.3334 10.0533,-15.3334 5.56,0 10.0534,6.8667 10.0534,15.3334"
         style="fill:#ffe700;fill-opacity:1;fill-rule:nonzero;stroke:none;stroke-width:0.133333" />
      <path
         id="path576"
         d="m 1923.2933,1239.6934 c 0,12.08 -6.4133,21.8666 -14.3467,21.8666 -7.92,0 -14.3333,-9.7866 -14.3333,-21.8666 0,-12.08 6.4133,-21.88 14.3333,-21.88 7.9334,0 14.3467,9.8 14.3467,21.88"
         style="fill:#cc1f1f;fill-opacity:1;fill-rule:nonzero;stroke:none;stroke-width:0.133333" />
      <path
         id="path577"
         d="m 1919.0133,1239.6934 c 0,8.4666 -4.5067,15.3333 -10.0667,15.3333 -5.5466,0 -10.0533,-6.8667 -10.0533,-15.3333 0,-8.4667 4.5067,-15.3334 10.0533,-15.3334 5.56,0 10.0667,6.8667 10.0667,15.3334"
         style="fill:#ffe700;fill-opacity:1;fill-rule:nonzero;stroke:none;stroke-width:0.133333" />
      <path
         id="path578"
         d="m 2000.5066,1209.2934 c 0,12.0933 -6.4133,21.88 -14.3333,21.88 -7.92,0 -14.3467,-9.7867 -14.3467,-21.88 0,-12.08 6.4267,-21.8667 14.3467,-21.8667 7.92,0 14.3333,9.7867 14.3333,21.8667"
         style="fill:#cc1f1f;fill-opacity:1;fill-rule:nonzero;stroke:none;stroke-width:0.133333" />
      <path
         id="path579"
         d="m 1996.2266,1209.2934 c 0,8.48 -4.5066,15.3466 -10.0533,15.3466 -5.56,0 -10.0667,-6.8666 -10.0667,-15.3466 0,-8.4667 4.5067,-15.3334 10.0667,-15.3334 5.5467,0 10.0533,6.8667 10.0533,15.3334"
         style="fill:#ffe700;fill-opacity:1;fill-rule:nonzero;stroke:none;stroke-width:0.133333" />
      <path
         id="path580"
         d="m 1860.96,1281.0267 c 0,12.0933 -6.4134,21.88 -14.3334,21.88 -7.92,0 -14.3466,-9.7867 -14.3466,-21.88 0,-12.08 6.4266,-21.8667 14.3466,-21.8667 7.92,0 14.3334,9.7867 14.3334,21.8667"
         style="fill:#cc1f1f;fill-opacity:1;fill-rule:nonzero;stroke:none;stroke-width:0.133333" />
      <path
         id="path581"
         d="m 1856.68,1281.0267 c 0,8.48 -4.5067,15.3467 -10.0534,15.3467 -5.56,0 -10.0533,-6.8667 -10.0533,-15.3467 0,-8.4667 4.4933,-15.3333 10.0533,-15.3333 5.5467,0 10.0534,6.8666 10.0534,15.3333"
         style="fill:#ffe700;fill-opacity:1;fill-rule:nonzero;stroke:none;stroke-width:0.133333" />
      <path
         id="path582"
         d="m 1904.3333,1323.1467 c 0,12.0933 -6.4267,21.88 -14.3467,21.88 -7.92,0 -14.3466,-9.7867 -14.3466,-21.88 0,-12.0667 6.4266,-21.8667 14.3466,-21.8667 7.92,0 14.3467,9.8 14.3467,21.8667"
         style="fill:#cc1f1f;fill-opacity:1;fill-rule:nonzero;stroke:none;stroke-width:0.133333" />
      <path
         id="path583"
         d="m 1900.04,1323.1467 c 0,8.48 -4.4934,15.3467 -10.0534,15.3467 -5.5466,0 -10.0533,-6.8667 -10.0533,-15.3467 0,-8.4667 4.5067,-15.3333 10.0533,-15.3333 5.56,0 10.0534,6.8666 10.0534,15.3333"
         style="fill:#ffe700;fill-opacity:1;fill-rule:nonzero;stroke:none;stroke-width:0.133333" />
      <path
         id="path584"
         d="m 1981.5466,1292.76 c 0,12.08 -6.4266,21.88 -14.3466,21.88 -7.92,0 -14.3334,-9.8 -14.3334,-21.88 0,-12.08 6.4134,-21.8666 14.3334,-21.8666 7.92,0 14.3466,9.7866 14.3466,21.8666"
         style="fill:#cc1f1f;fill-opacity:1;fill-rule:nonzero;stroke:none;stroke-width:0.133333" />
      <path
         id="path585"
         d="m 1977.2533,1292.76 c 0,8.4667 -4.4933,15.3334 -10.0533,15.3334 -5.5467,0 -10.0534,-6.8667 -10.0534,-15.3334 0,-8.4666 4.5067,-15.3333 10.0534,-15.3333 5.56,0 10.0533,6.8667 10.0533,15.3333"
         style="fill:#ffe700;fill-opacity:1;fill-rule:nonzero;stroke:none;stroke-width:0.133333" />
      <path
         id="path586"
         d="m 1907.9866,909.28005 c -0.6533,-3.26666 -0.9866,-6.01333 -1.2666,-9.02666 -0.24,-2.94667 -0.4,-5.89334 -0.3867,-8.85334 -0.04,-5.90666 0.44,-11.85333 1.3867,-17.77333 1.88,-11.81333 5.7466,-23.57333 11.7333,-34.4 2.96,-5.42667 6.4133,-10.64 10.3333,-15.48 1.8934,-2.49333 4.04,-4.73333 6.12,-7.08 2.2134,-2.18667 4.36,-4.49333 6.72,-6.52 8.0667,-7.26667 17.0134,-13.46666 26.4134,-18.65333 2.24,-1.24 5.0533,-0.30667 6.0533,2.05333 l 9.0533,21.53333 c 0.9467,2.24 -0.16,4.84 -2.44,5.65334 -7.8933,2.81333 -15.4266,6.4 -22.4133,10.82666 -2.1067,1.25334 -4,2.74667 -6.0133,4.13334 -1.8667,1.53333 -3.8534,2.98666 -5.6134,4.65333 -3.6666,3.21333 -7.0133,6.8 -10.0533,10.66667 -6.1333,7.69333 -10.9067,16.68 -14.16,26.37333 -1.6267,4.85333 -2.9067,9.88 -3.72,15.01333 -0.44,2.56 -0.7333,5.14667 -0.9467,7.73334 -0.2,2.53333 -0.28,5.32 -0.2266,7.54666 l -10.5734,1.6"
         style="fill:#231f20;fill-opacity:1;fill-rule:nonzero;stroke:none;stroke-width:0.133333" />
      <path
         id="path587"
         d="m 1916.7733,890.17339 c 0,0 7.92,163.44001 -147.84,131.78661 0,0 26.8933,0 42.24,-46.33328 9.9733,-30.10667 43.0933,-91.81333 105.6,-85.45333"
         style="fill:#ffffff;fill-opacity:1;fill-rule:nonzero;stroke:none;stroke-width:0.133333" />
      <path
         id="path588"
         d="m 1926.5466,903.61339 c -0.027,0.86666 -0.093,1.76 -0.16,2.72 -0.16,2.41333 -0.3466,5.06666 -0.6666,7.86666 0,0.22667 -0.027,0.45334 -0.067,0.66667 -0.3733,3.57333 -0.8533,7.42667 -1.52,11.48 -0.2933,1.78667 -0.6133,3.6 -0.96,5.45333 -0.3467,1.84 -0.76,3.76 -1.2133,5.66667 -1.3067,5.96 -3,12.21333 -5.1334,18.52 -1.1066,3.28 -2.36,6.6 -3.72,9.90666 -0.96,2.24 -1.9466,4.49334 -3.04,6.73334 -1.3333,2.8 -2.8,5.57333 -4.36,8.34666 -1.8533,3.25334 -3.8533,6.44 -6.0266,9.56 -0.32,0.44 -0.64,0.89334 -0.9467,1.30667 -1.92,2.68 -3.9867,5.32 -6.1867,7.84 -2.3333,2.70665 -4.8133,5.29335 -7.4933,7.81335 -1.08,1.0133 -2.2267,2.04 -3.3733,3.0266 -16.3867,14.08 -36.5334,22.3334 -60.1734,24.6934 -1.4666,0.2 -2.9333,0.2933 -4.44,0.3866 -3.44,0.2534 -6.9466,0.3867 -10.5066,0.3867 -2.72,0 -5.4267,-0.067 -8.2267,-0.2 -1.4667,-0.093 -2.96,-0.1867 -4.4667,-0.28 -2.96,-0.2267 -5.96,-0.52 -9.0133,-0.8933 8.5067,-2.4534 25.9067,-11.5334 37.16,-45.41335 9.9067,-29.96 42.7067,-91.12 104.5333,-85.58666"
         style="fill:#01982f;fill-opacity:1;fill-rule:nonzero;stroke:none;stroke-width:0.133333" />
      <path
         id="path589"
         d="m 1926.7733,891.92005 v -0.48 l -0.027,-0.21333 c 0,-0.77333 0,-1.28 -0.04,-1.50667 v -0.0267 c -0.093,-1.78667 -0.6666,-3.44 -1.5866,-4.88 -0.7334,-1.21334 -1.7867,-2.22667 -3,-3.02667 -0.5067,-0.32 -1.0534,-0.6 -1.6267,-0.85333 -0.8533,-0.32 -1.7467,-0.54667 -2.7067,-0.64 -0.32,-0.04 -0.6,-0.0667 -0.92,-0.0933 -2.7466,-0.25333 -5.48,-0.38666 -8.1333,-0.41333 h -1.8133 c -4.6934,0.0533 -9.2134,0.44 -13.6134,1.17333 -2.68,0.41334 -5.2933,0.96 -7.8666,1.62667 h -0.04 c -5.5734,1.42667 -10.8934,3.37333 -16,5.77333 -6.7867,3.18667 -13.12,7.16 -19.0267,11.72 -0.3467,0.25334 -0.6667,0.50667 -0.9867,0.8 -3.3733,2.64 -6.56,5.50667 -9.6266,8.54667 -2.92,2.86667 -5.7334,5.92 -8.3734,9.10667 -4.28,5.04 -8.16,10.42666 -11.6666,15.97333 l -0.04,0.0267 c -1.2,1.92 -2.3867,3.82667 -3.4934,5.77334 l -1.0533,1.81333 c -1.76,3.16 -3.4133,6.34667 -4.9733,9.56 -1.5334,3.16 -2.9334,6.34667 -4.24,9.53333 -0.6667,1.65334 -1.3467,3.34667 -1.9734,5 -0.7733,2.10667 -1.5066,4.21334 -2.2,6.28 -1.1866,3.57334 -2.4266,6.78667 -3.7066,9.74667 -12.3867,28.50661 -28.5867,29.74661 -29.12,29.77331 -5.2267,-0.2534 -9.4667,3.5066 -10.1067,8.6666 -0.6,4.7867 2.48,9.24 7.0133,10.7067 0.3467,0.1333 0.7334,0.2533 1.1067,0.32 6.16,1.24 12.08,2.2 17.88,2.9067 h 0.04 c 3.0533,0.3733 6.0533,0.6666 9.0133,0.8933 1.5067,0.093 3,0.1867 4.4667,0.28 2.8,0.1333 5.5067,0.2 8.2267,0.2 3.56,0 7.0666,-0.1333 10.5066,-0.3867 1.5067,-0.093 2.9734,-0.1866 4.44,-0.3866 23.64,-2.36 43.7867,-10.6134 60.1734,-24.6934 1.1466,-0.9866 2.2933,-2.0133 3.3733,-3.0266 2.68,-2.52 5.16,-5.1067 7.4933,-7.81331 2.2,-2.52 4.2667,-5.16 6.1867,-7.84 0.3067,-0.41333 0.6267,-0.86667 0.9467,-1.30667 2.1733,-3.12 4.1733,-6.30666 6.0266,-9.56 1.56,-2.77333 3.0267,-5.54666 4.36,-8.34666 1.0934,-2.24 2.08,-4.49334 3.04,-6.73334 1.36,-3.30666 2.6134,-6.62666 3.72,-9.90666 2.1334,-6.30667 3.8267,-12.56 5.1334,-18.52 0.4533,-1.90667 0.8666,-3.82667 1.2133,-5.66667 0.3467,-1.85333 0.6667,-3.66666 0.96,-5.45333 0.6667,-4.05333 1.1467,-7.90667 1.52,-11.48 0.04,-0.21333 0.067,-0.44 0.067,-0.66667 0.32,-2.8 0.5066,-5.45333 0.6666,-7.86666 0.067,-0.96 0.1334,-1.85334 0.16,-2.72 0.067,-0.85334 0.093,-1.68 0.093,-2.45334 0.067,-0.62666 0.067,-1.24 0.1066,-1.81333 v -0.22667 c 0.027,-1.04 0.027,-2.04 0.027,-2.92 0.027,-0.45333 0.027,-0.89333 0.027,-1.30666 0,-1.18667 0,-2.17334 -0.027,-2.97334 z m -40.9867,83.57333 c -2.3866,3.78667 -5.04,7.42667 -8.0266,10.86667 -2.7467,3.25333 -5.7734,6.30667 -9.0934,9.14667 -15.4533,13.25328 -35.4933,20.10668 -59.7866,20.51998 -3,0.093 -6.0267,0.04 -9.1467,-0.093 7.52,-7.8667 15.08,-19.62668 20.88,-37.16002 0.2267,-0.73333 0.64,-1.90666 1.2133,-3.48 0.6,-1.58666 1.36,-3.6 2.36,-5.89333 0.1867,-0.48 0.4134,-0.96 0.6,-1.46667 0.8,-1.84 1.6934,-3.82666 2.7067,-5.96 1.56,-3.25333 3.4133,-6.81333 5.5467,-10.54666 0.96,-1.69334 1.9733,-3.44 3.0933,-5.2 0.9867,-1.61334 2.0667,-3.28 3.1867,-4.90667 0.2533,-0.41333 0.5466,-0.78667 0.8,-1.17333 7.0666,-10.2 16.1866,-20.42667 27.56,-28.05333 1.9466,-1.30667 3.96,-2.54667 6.0666,-3.66667 0.88,-0.50667 1.8134,-0.98667 2.7334,-1.42667 3.2133,-1.6 6.6266,-3 10.1733,-4.10666 0.76,-0.22667 1.52,-0.48 2.32,-0.70667 1.1867,-0.32 2.36,-0.6 3.5733,-0.86667 2.32,-0.50666 4.72,-0.92 7.1734,-1.17333 1.4266,-0.18667 2.9333,-0.32 4.4266,-0.38667 h 0.28 c 0.7334,-0.0667 1.5067,-0.0933 2.2667,-0.0933 h 0.067 c 0,0.18667 0,0.38667 -0.04,0.61333 0,0.14667 0,0.34667 -0.027,0.53334 v 0.13333 c 0,0.21333 0,0.48 -0.027,0.69333 -0.04,0.84 -0.067,1.66667 -0.1333,2.56 -0.067,1.08 -0.16,2.18667 -0.2533,3.34667 -0.027,0.34667 -0.067,0.69333 -0.093,1.08 -0.1333,1.58667 -0.2933,3.28 -0.48,5.02667 -0.067,0.48 -0.1333,0.93333 -0.16,1.41333 -0.28,2.32 -0.64,4.81333 -1.0133,7.36 -0.3867,2.22667 -0.7733,4.52 -1.2533,6.88 -0.5067,2.52 -1.0534,5.06666 -1.72,7.68 -1.6267,6.73333 -3.7867,13.70666 -6.6267,20.58666 -2.48,6.12 -5.5067,12.17334 -9.1467,17.92 z m 21.7067,-66.42666 c -0.3867,-0.48 -0.7067,-0.89333 -0.92,-1.14667 -0.1333,-0.16 -0.2267,-0.28 -0.2933,-0.37333 -0.027,0.34667 -0.067,0.69333 -0.093,1.08 -0.1333,1.58667 -0.2933,3.28 -0.48,5.02667 0.7067,-0.69334 1.3734,-1.36 2.0134,-2 0.3466,-0.38667 0.6933,-0.70667 1.0133,-1.05334 -0.48,-0.57333 -0.8933,-1.08 -1.24,-1.53333"
         style="fill:#231f20;fill-opacity:1;fill-rule:nonzero;stroke:none;stroke-width:0.133333" />
      <path
         id="path590"
         d="m 1916.6266,901.53339 c 0,0 -74.28,99.30661 -174.32,19.97333 0,0 19.9467,10.48 54.0534,-10.81333 22.1733,-13.84 77.0133,-37.26667 120.2666,-9.16"
         style="fill:#ffffff;fill-opacity:1;fill-rule:nonzero;stroke:none;stroke-width:0.133333" />
      <path
         id="path591"
         d="m 1913.7066,919.72005 c -1.3733,1.36 -2.8666,2.82667 -4.4933,4.36 -0.2533,0.2 -0.5067,0.45334 -0.76,0.70667 -1.12,0.98667 -2.2667,2.04 -3.48,3.05333 -0.5467,0.50667 -1.12,0.98667 -1.6933,1.46667 -1.7734,1.56 -3.6934,3.09333 -5.7334,4.62666 -3.4666,2.70667 -7.24,5.38667 -11.3066,7.96 -3.3467,2.17334 -6.8934,4.24 -10.6534,6.18667 -8.6666,4.56 -18.3866,8.48 -29,10.96 -1.4,0.38667 -2.8,0.70667 -4.24,0.96 -2.48,0.50667 -5,0.92 -7.5866,1.28 l -0.32,0.0267 c -2.32,0.29333 -4.6134,0.50666 -6.9467,0.66666 -1.72,0.0933 -3.44,0.2 -5.16,0.2 -0.64,0.0267 -1.24,0.0267 -1.88,0.0267 -0.8267,0 -1.6267,0 -2.4533,-0.0267 -0.5067,0 -1.0534,-0.04 -1.6,-0.0667 -3.5067,-0.0933 -7.0134,-0.41334 -10.48,-0.89334 -3.8267,-0.48 -7.6534,-1.18666 -11.44,-2.06666 -1.2134,-0.32 -2.4534,-0.64 -3.6667,-0.96 -4.1467,-1.12 -8.2933,-2.49334 -12.4,-4.08 -3.32,-1.24 -6.6,-2.68 -9.88,-4.28 -3.0933,-1.45334 -6.1867,-3.05334 -9.28,-4.8 -4.7733,-2.74667 -9.5867,-5.77334 -14.3333,-9.18667 l -0.2,-0.12 c -0.9467,-0.86667 -1.9334,-1.72 -2.8934,-2.61333 1.24,0.69333 20.1734,10.8 54.76,-8 22.5867,-12.24 76.68,-31.97333 117.12,-5.38667"
         style="fill:#01982f;fill-opacity:1;fill-rule:nonzero;stroke:none;stroke-width:0.133333" />
      <path
         id="path592"
         d="m 1926.4266,899.80005 c -0.04,-0.16 -0.067,-0.32 -0.093,-0.45333 l -0.067,-0.22667 c -0.2933,-1.2 -0.8,-2.32 -1.5333,-3.30666 l -0.027,-0.0667 c -0.3866,-0.53333 -0.8,-1.01333 -1.28,-1.49333 -0.4133,-0.38667 -0.8933,-0.73334 -1.3733,-1.05334 -0.7333,-0.48 -1.4933,-0.96 -2.2267,-1.4 -0.5466,-0.36 -1.12,-0.68 -1.6533,-0.98666 -0.3867,-0.22667 -0.8,-0.45334 -1.1867,-0.64 -0.5066,-0.32 -1.0133,-0.61334 -1.56,-0.86667 -0.4133,-0.25333 -0.8533,-0.48 -1.3066,-0.66667 -2.04,-1.08 -4.08,-2.04 -6.12,-2.89333 -0.5067,-0.22667 -0.9867,-0.42667 -1.4934,-0.64 -1.56,-0.61333 -3.12,-1.21333 -4.6933,-1.72 -2.0933,-0.70667 -4.2,-1.34667 -6.28,-1.88 -0.76,-0.2 -1.4933,-0.38667 -2.2267,-0.54667 -47.9066,-11.21333 -95.9333,17.37334 -102.2133,21.29334 -28.08,17.52 -43.72,10.64 -44.1733,10.45333 -4.52,-2.4 -10.1334,-0.93333 -12.9334,3.37333 -2.8,4.30667 -1.88,10.01334 2.1334,13.2 2.8666,2.26667 5.7333,4.42667 8.6,6.44 l 0.2,0.12 c 4.7466,3.41333 9.56,6.44 14.3333,9.18667 3.0933,1.74666 6.1867,3.34666 9.28,4.8 3.28,1.6 6.56,3.04 9.88,4.28 4.1067,1.58666 8.2533,2.96 12.4,4.08 1.2133,0.32 2.4533,0.64 3.6667,0.96 3.7866,0.88 7.6133,1.58666 11.44,2.06666 3.4666,0.48 6.9733,0.8 10.48,0.89334 0.5466,0.0267 1.0933,0.0667 1.6,0.0667 0.8266,0.0267 1.6266,0.0267 2.4533,0.0267 0.64,0 1.24,0 1.88,-0.0267 1.72,0 3.44,-0.10666 5.16,-0.2 2.3333,-0.16 4.6267,-0.37333 6.9467,-0.66666 l 0.32,-0.0267 c 2.5866,-0.36 5.1066,-0.77333 7.5866,-1.28 1.44,-0.25333 2.84,-0.57333 4.24,-0.96 10.6134,-2.48 20.3334,-6.4 29,-10.96 3.76,-1.94667 7.3067,-4.01333 10.6534,-6.18667 4.0666,-2.57333 7.84,-5.25333 11.3066,-7.96 2.04,-1.53333 3.96,-3.06666 5.7334,-4.62666 0.5733,-0.48 1.1466,-0.96 1.6933,-1.46667 1.2133,-1.01333 2.36,-2.06666 3.48,-3.05333 0.2533,-0.25333 0.5067,-0.50667 0.76,-0.70667 1.6267,-1.53333 3.12,-3 4.4933,-4.36 0.5467,-0.54666 1.0534,-1.05333 1.4934,-1.57333 l 0.2266,-0.18667 c 0.96,-0.98666 1.8534,-1.94666 2.68,-2.84 1.6267,-1.77333 2.96,-3.30666 3.9867,-4.54666 1.4667,-1.72 2.2933,-2.84 2.48,-3.09334 0.48,-0.64 0.8933,-1.34666 1.2133,-2.08 0.2534,-0.57333 0.44,-1.17333 0.5734,-1.78666 0.16,-0.78667 0.2266,-1.61334 0.2266,-2.45334 -0.04,-0.44 -0.093,-0.92 -0.16,-1.36 z m -32.4133,11.18667 c -3.9867,3.62667 -8.7733,7.52 -14.2133,11.30667 -8.0667,5.61333 -17.6267,10.93333 -28.4667,14.69333 -3.6,1.24 -7.3333,2.33333 -11.2133,3.16 -0.6134,0.16 -1.2534,0.28 -1.8534,0.38666 -2.0133,0.41334 -4.0133,0.76 -6.0933,1.01334 -1.72,0.22666 -3.44,0.41333 -5.1867,0.50666 -0.8933,0.0667 -1.7866,0.13334 -2.68,0.16 -3.0533,0.13334 -6.12,0.0933 -9.1733,-0.0933 -0.4133,-0.0267 -0.8,-0.0667 -1.2133,-0.0933 -1.3734,-0.0933 -2.7467,-0.22667 -4.12,-0.38667 -4.4534,-0.53333 -8.92,-1.4 -13.3734,-2.57333 -3.8,-1.02667 -7.6266,-2.26667 -11.4133,-3.73334 -1.9733,-0.8 -3.96,-1.62666 -5.9333,-2.54666 -1.1467,-0.50667 -2.32,-1.05333 -3.4667,-1.62667 7.68,-2.26666 16.3733,-6.02666 26.04,-12.05333 3.6267,-2.26667 23.7733,-14.30667 48.72,-19.02667 1.1467,-0.22666 2.2933,-0.41333 3.48,-0.6 5.8267,-0.93333 11.8933,-1.4 18.04,-1.24 5.32,0.0933 10.7333,0.69334 16.12,1.93334 1.5067,0.32 3.0267,0.70666 4.5333,1.14666 0.3734,0.10667 0.7334,0.22667 1.1067,0.36 1,0.28 1.9467,0.6 2.9067,0.94667 0.44,0.16 0.8666,0.32 1.28,0.52 0.12,0 0.2133,0.0267 0.32,0.0933 0.92,0.34667 1.84,0.73334 2.76,1.10667 l -1.1467,1.16 -0.027,0.0267 c -1.56,1.58666 -3.3466,3.32 -5.32,5.09333 -0.1333,0.13333 -0.2533,0.26667 -0.4133,0.36 z m -53.8933,29.16 c -0.6134,0.16 -1.2534,0.28 -1.8534,0.38666 0.3867,0.25334 0.7067,0.50667 1.0534,0.78667 1.6533,1.44 3.0933,3.34667 4.24,5.61333 2.3866,-3.37333 5,-6.72 7.7733,-9.94666 -3.6,1.24 -7.3333,2.33333 -11.2133,3.16"
         style="fill:#231f20;fill-opacity:1;fill-rule:nonzero;stroke:none;stroke-width:0.133333" />
      <path
         id="path593"
         d="m 1916.9066,890.17339 c 0,0 -7.92,163.44001 147.8533,131.78661 0,0 -26.8933,0 -42.2533,-46.33328 -9.9733,-30.10667 -43.0933,-91.81333 -105.6,-85.45333"
         style="fill:#ffffff;fill-opacity:1;fill-rule:nonzero;stroke:none;stroke-width:0.133333" />
      <path
         id="path594"
         d="m 2044.8266,1034.1067 c -6.1467,0.92 -12.0533,1.52 -17.6933,1.88 -18.2934,0 -34.7333,-3.1333 -49.24,-9.3733 -4.6133,-1.9467 -9.0533,-4.2667 -13.2933,-6.92 -3.56,-2.16 -7.0134,-4.6134 -10.2934,-7.2934 -0.76,-0.6133 -1.52,-1.24 -2.2933,-1.88 -1.1067,-0.96 -2.16,-1.92 -3.2133,-2.8666 -2.68,-2.52 -5.16,-5.1067 -7.4934,-7.78668 -2.5866,-2.96 -4.9733,-6.01334 -7.1733,-9.14667 -6.24,-8.89333 -11.0533,-18.38667 -14.7867,-27.92 -0.8933,-2.25333 -1.72,-4.54667 -2.52,-6.81333 -2.1333,-6.30667 -3.8266,-12.53334 -5.1333,-18.49334 v -0.0267 c -0.6,-2.68 -1.1467,-5.32 -1.5867,-7.90667 -0.3466,-1.84 -0.64,-3.69333 -0.8933,-5.48 -0.093,-0.48 -0.16,-0.92 -0.2267,-1.37333 -0.32,-2.16 -0.5733,-4.26667 -0.8,-6.28 -0.1866,-1.65333 -0.3466,-3.24 -0.4666,-4.77333 -0.1067,-0.89334 -0.16,-1.76 -0.2267,-2.58667 -0.067,-0.78667 -0.1333,-1.58667 -0.1867,-2.36 -0.04,-0.69333 -0.067,-1.4 -0.1066,-2.04 -0.027,-0.18667 -0.027,-0.37333 -0.053,-0.57333 -0.04,-0.88 -0.067,-1.72 -0.1066,-2.50667 -0.027,-0.26667 -0.027,-0.48 -0.027,-0.70667 v -0.0933 c -0.067,-1.72 -0.093,-3.25333 -0.1333,-4.62667 v -1.90666 c 13.5866,-0.29334 25.56,2.57333 36.08,7.52 h 0.04 c 36.8666,17.30666 55.84,60.19999 62.2133,83.71999 3.6666,13.52 8.5066,23.26663 13.5066,30.32003 12.4667,17.52 26.1067,18.2933 26.1067,18.2933"
         style="fill:#01982f;fill-opacity:1;fill-rule:nonzero;stroke:none;stroke-width:0.133333" />
      <path
         id="path595"
         d="m 2010.3733,962.20005 c -0.8267,0 -1.6267,0 -2.4534,-0.0267 -0.5466,0 -1.12,-0.04 -1.6533,-0.0667 0.28,0.6 0.5733,1.21333 0.8267,1.78666 0.6666,1.42667 1.2666,2.8 1.8133,4.08 0.32,0.73334 0.6,1.46667 0.8933,2.13334 0.1867,-0.77334 0.4134,-1.49334 0.6934,-2.17334 0.96,-2.48 2.3333,-4.49333 4.0266,-5.82666 -1.4133,0.0667 -2.7733,0.0933 -4.1466,0.0933 z m -82.7333,-51.76 c 0,1.05334 -0.04,2.26667 -0.1067,3.57334 0.16,-0.0933 0.2933,-0.16 0.4533,-0.2 -0.1333,-1.14667 -0.2533,-2.29334 -0.3466,-3.37334 z m 37.3733,85.06667 c -0.7867,-0.66667 -1.56,-1.37334 -2.2933,-2.08 -2.36,-2.16 -4.5867,-4.45334 -6.6267,-6.84 -2.96,-3.45334 -5.64,-7.08 -8,-10.84 -3.6267,-5.64 -6.6,-11.57334 -9.08,-17.56 -2.5467,-6.12 -4.5867,-12.33334 -6.1467,-18.36 l -0.04,-0.0267 c -0.6933,-2.58667 -1.3066,-5.17333 -1.84,-7.65333 -1.1866,-5.45333 -2.04,-10.65333 -2.6133,-15.42667 -0.16,-0.98666 -0.2933,-1.94666 -0.3867,-2.90666 -0.1333,-1.14667 -0.2533,-2.29334 -0.3466,-3.37334 -0.1067,-0.85333 -0.16,-1.65333 -0.2267,-2.45333 -0.1333,-1.53333 -0.2267,-2.93333 -0.32,-4.30667 -0.027,-0.85333 -0.093,-1.68 -0.1333,-2.48 -0.027,-0.54666 -0.027,-1.05333 -0.053,-1.53333 2.5067,0.0267 4.96,0.18667 7.36,0.50667 1.7867,0.2 3.5334,0.48 5.2267,0.8 1.1733,0.22666 2.32,0.48 3.4667,0.8 h 0.04 c 1.4666,0.34666 2.8933,0.76 4.3333,1.21333 1.4933,0.48 2.96,1.01333 4.4267,1.58667 1.72,0.66666 3.4133,1.44 5.04,2.24 l 0.2133,0.12 c 15.9733,7.81333 28.1467,20.94666 37.04,33.90666 2.5467,3.70667 4.8133,7.4 6.8266,10.93333 2.0667,3.64 3.8534,7.14667 5.3867,10.33334 0.28,0.6 0.5733,1.21333 0.8267,1.78666 0.6666,1.42667 1.2666,2.8 1.8133,4.08 0.32,0.73334 0.6,1.46667 0.8933,2.13334 1.7467,4.2 2.8,7.26666 3.28,8.66666 1.4667,4.4 3.0267,8.41334 4.68,12.14667 1.0267,2.29333 2.08,4.45333 3.16,6.49333 4.08,7.81335 8.5734,13.84005 13,18.52005 -5.2533,0.2266 -10.32,0.1866 -15.2,-0.12 -21.5466,-1.4134 -39.5466,-8.2267 -53.7066,-20.30671 z m 109.9866,25.17328 c -0.6666,-5.16 -4.8666,-8.9866 -10,-8.6666 -0.7333,-0.027 -16.0266,-1.1734 -28.2666,-27.41335 -1.1467,-2.41333 -2.24,-5.02667 -3.2934,-7.89333 -0.5066,-1.34667 -1.0133,-2.74667 -1.4933,-4.21334 -0.7333,-2.26666 -1.56,-4.52 -2.4133,-6.78666 -0.6134,-1.62667 -1.2534,-3.25334 -1.92,-4.88 -0.64,-1.53334 -1.3067,-3.05334 -1.9734,-4.58667 -0.7333,-1.62667 -1.5066,-3.25333 -2.2666,-4.88 -1.56,-3.18667 -3.2134,-6.33333 -4.9734,-9.46667 -3.28,-5.82666 -6.9466,-11.53333 -11.0266,-16.94666 -3.8534,-5.2 -8.0667,-10.13333 -12.6133,-14.69333 -1.2534,-1.24 -2.4934,-2.49334 -3.76,-3.66667 -0.32,-0.25333 -0.6134,-0.54667 -0.8934,-0.8 -0.36,-0.34667 -0.7333,-0.66667 -1.0933,-0.98667 -1.52,-1.33333 -3.0933,-2.68 -4.7067,-3.92 -6.12,-4.90666 -12.7866,-9.12 -19.8933,-12.46666 -2.36,-1.10667 -4.7867,-2.13334 -7.24,-3.02667 -5.8267,-2.16 -11.9733,-3.76 -18.4133,-4.68 -4.3734,-0.64 -8.8934,-0.96 -13.5467,-0.92 -0.8267,0 -1.6533,0.0267 -2.52,0.0533 -1.9067,0.0667 -3.8533,0.16 -5.8267,0.36 -0.32,0.0267 -0.64,0.0533 -0.96,0.0933 -0.8266,0.0667 -1.6266,0.25333 -2.36,0.50666 -2.4533,0.89334 -4.4266,2.68 -5.5466,4.94667 -0.6,1.2 -0.96,2.54667 -1.0134,3.94667 v 0.0267 c 0,0.16 -0.04,0.54667 -0.067,1.12 v 1.28 c -0.04,0.6 -0.04,1.33334 -0.04,2.13334 v 1.90666 c 0.04,1.37334 0.067,2.90667 0.1333,4.62667 v 0.0933 c 0,0.22667 0,0.44 0.027,0.70667 0.04,0.78667 0.067,1.62667 0.1066,2.50667 0.027,0.2 0.027,0.38666 0.053,0.57333 0.04,0.64 0.067,1.34667 0.1066,2.04 0.053,0.77333 0.12,1.57333 0.1867,2.36 0.067,0.82667 0.12,1.69333 0.2267,2.58667 0.12,1.53333 0.28,3.12 0.4666,4.77333 0.2267,2.01333 0.48,4.12 0.8,6.28 0.067,0.45333 0.1334,0.89333 0.2267,1.37333 0.2533,1.78667 0.5467,3.64 0.8933,5.48 0.44,2.58667 0.9867,5.22667 1.5867,7.90667 v 0.0267 c 1.3067,5.96 3,12.18667 5.1333,18.49334 0.8,2.26666 1.6267,4.56 2.52,6.81333 3.7334,9.53333 8.5467,19.02667 14.7867,27.92 2.2,3.13333 4.5867,6.18667 7.1733,9.14667 2.3334,2.68 4.8134,5.2667 7.4934,7.7867 1.0533,0.9466 2.1066,1.9066 3.2133,2.8666 0.7733,0.64 1.5333,1.2667 2.2933,1.88 3.28,2.68 6.7334,5.1334 10.2934,7.2934 4.24,2.6533 8.68,4.9733 13.2933,6.92 14.5067,6.24 30.9466,9.3733 49.24,9.3733 12.3733,0 25.56,-1.44 39.5866,-4.28 3.0267,-0.6 5.5734,-2.52 7.0134,-5.0667 1.0533,-1.7466 1.56,-3.8266 1.2666,-5.96"
         style="fill:#231f20;fill-opacity:1;fill-rule:nonzero;stroke:none;stroke-width:0.133333" />
      <path
         id="path596"
         d="m 1914.2133,901.53339 c 0,0 74.28,99.30661 174.32,19.97333 0,0 -19.9467,10.48 -54.0534,-10.81333 -22.1733,-13.84 -77.0133,-37.26667 -120.2666,-9.16"
         style="fill:#ffffff;fill-opacity:1;fill-rule:nonzero;stroke:none;stroke-width:0.133333" />
      <path
         id="path597"
         d="m 2089.0266,933.10672 c -0.8533,0.82666 -1.7467,1.58666 -2.6133,2.34666 l -0.32,0.26667 c -5.12,3.65333 -10.2534,6.90667 -15.4267,9.77333 -0.76,0.45334 -1.4933,0.84 -2.2267,1.25334 -0.1866,0.0933 -0.3866,0.18666 -0.5733,0.28 -1.9067,1.02666 -3.8533,2.01333 -5.7733,2.90666 -1.0134,0.50667 -2.04,0.98667 -3.0534,1.42667 -3.3466,1.50667 -6.72,2.84 -10.1066,4.01333 -6.4667,2.33334 -12.9734,4.02667 -19.5067,5.17334 -0.6,0.0933 -1.2,0.18666 -1.8133,0.28 -1.56,0.25333 -3.16,0.48 -4.7467,0.66666 -1.88,0.2 -3.76,0.38667 -5.64,0.48 -0.8933,0.0667 -1.8133,0.0933 -2.7067,0.13334 -1.4133,0.0667 -2.7733,0.0933 -4.1466,0.0933 -0.8267,0 -1.6267,0 -2.4534,-0.0267 -0.5466,0 -1.12,-0.04 -1.6533,-0.0667 -3.2933,-0.0933 -6.6,-0.38667 -9.88,-0.8 l -0.2933,-0.0267 c -10.2,-1.34667 -19.6933,-3.98667 -28.4,-7.42667 -3.1867,-1.28 -6.28,-2.68 -9.24,-4.14666 -3.6933,-1.78667 -7.2,-3.73334 -10.5467,-5.73334 -3.92,-2.36 -7.5866,-4.81333 -11,-7.33333 -2.0666,-1.46667 -4.04,-2.96 -5.92,-4.49333 -1.6,-1.28 -3.0933,-2.52 -4.5333,-3.8 -0.8,-0.62667 -1.56,-1.33333 -2.32,-2 -1.8533,-1.65333 -3.5733,-3.25333 -5.1733,-4.81333 -0.6267,-0.61334 -1.2667,-1.24 -1.84,-1.81334 40.4666,-26.58666 94.5199,-6.85333 117.1199,5.38667 34.5867,18.8 53.5467,8.69333 54.7867,8"
         style="fill:#01982f;fill-opacity:1;fill-rule:nonzero;stroke:none;stroke-width:0.133333" />
      <path
         id="path598"
         d="m 2096.9599,916.01339 c -2.8,-4.29334 -8.3066,-5.8 -12.84,-3.4 -0.6666,0.28 -16.28,7.16 -44.4,-10.36 -6.2133,-3.89334 -53.5066,-32 -100.9599,-21.54667 -1.56,0.32 -3.12,0.70667 -4.6934,1.14667 -0.9466,0.25333 -1.9333,0.54666 -2.9333,0.82666 -2,0.64 -4.0133,1.33334 -6.0133,2.13334 -1.4,0.54666 -2.84,1.14666 -4.24,1.78666 -1.2134,0.54667 -2.3867,1.12 -3.6,1.76 -0.6134,0.25334 -1.2534,0.57334 -1.8534,0.94667 -0.4133,0.2 -0.8,0.38667 -1.2133,0.64 -0.48,0.25333 -0.92,0.50667 -1.4,0.8 -1.3333,0.76 -2.68,1.58667 -4.0133,2.45333 -0.48,0.32 -0.92,0.66667 -1.3467,1.05334 l -0.5733,0.57333 c -0.16,0.18667 -0.3067,0.38667 -0.4667,0.57333 -0.1067,0.12 -0.2267,0.25334 -0.2933,0.41334 -0.8534,1.17333 -1.4267,2.52 -1.6934,3.94666 v 0.04 c -0.053,0.34667 -0.093,0.73334 -0.12,1.08 -0.04,0.16 -0.04,0.32 -0.04,0.44 0,0.26667 0,0.48 0.04,0.70667 0.027,0.82667 0.16,1.65333 0.44,2.45333 0.2934,1.08 0.8,2.06667 1.5067,3 l 0.027,0.0667 c 0.067,0.0933 0.16,0.21333 0.2933,0.37333 0.2133,0.25334 0.5333,0.66667 0.92,1.14667 0.3467,0.45333 0.76,0.96 1.24,1.53333 0.8267,0.98667 1.8533,2.17334 3.0267,3.50667 1.0533,1.12 2.2,2.36 3.5066,3.69333 l 0.16,0.16 c 0.5067,0.57334 1.08,1.14667 1.6934,1.76 0.5733,0.57334 1.2133,1.2 1.84,1.81334 1.6,1.56 3.32,3.16 5.1733,4.81333 0.76,0.66667 1.52,1.37333 2.32,2 1.44,1.28 2.9333,2.52 4.5333,3.8 1.88,1.53333 3.8534,3.02666 5.92,4.49333 3.4134,2.52 7.08,4.97333 11,7.33333 3.3467,2 6.8534,3.94667 10.5467,5.73334 2.96,1.46666 6.0533,2.86666 9.24,4.14666 8.7067,3.44 18.2,6.08 28.4,7.42667 l 0.2933,0.0267 c 3.28,0.41333 6.5867,0.70666 9.88,0.8 0.5333,0.0267 1.1067,0.0667 1.6533,0.0667 0.8267,0.0267 1.6267,0.0267 2.4534,0.0267 1.3733,0 2.7333,-0.0267 4.1466,-0.0933 0.8934,-0.04 1.8134,-0.0667 2.7067,-0.13334 1.88,-0.0933 3.76,-0.28 5.64,-0.48 1.5867,-0.18666 3.1867,-0.41333 4.7467,-0.66666 0.6133,-0.0933 1.2133,-0.18667 1.8133,-0.28 6.5333,-1.14667 13.04,-2.84 19.5067,-5.17334 3.3866,-1.17333 6.76,-2.50666 10.1066,-4.01333 1.0134,-0.44 2.04,-0.92 3.0534,-1.42667 1.92,-0.89333 3.8666,-1.88 5.7733,-2.90666 0.1867,-0.0933 0.3867,-0.18667 0.5733,-0.28 0.7334,-0.41334 1.4667,-0.8 2.2267,-1.25334 5.1733,-2.86666 10.3067,-6.12 15.4267,-9.77333 l 0.32,-0.26667 c 2.7733,-1.90666 5.52,-4.01333 8.2933,-6.17333 4.0133,-3.18666 5.0667,-8.96 2.2533,-13.26666 z m -54.4,20.49333 c -3.9466,1.41333 -7.8666,2.56 -11.8266,3.44 -4.1067,0.93333 -8.2134,1.6 -12.3334,1.94666 -3.8533,0.38667 -7.7066,0.48 -11.56,0.32 -2.68,-0.0933 -5.36,-0.28 -8.0399,-0.64 -1.5867,-0.18666 -3.1867,-0.44 -4.7467,-0.73333 -3.6,-0.66667 -7.1067,-1.52 -10.52,-2.54667 -6.72,-2 -13,-4.68 -18.7733,-7.70666 -3.5334,-1.85333 -6.88,-3.82667 -10.04,-5.86667 -4.9067,-3.18666 -9.36,-6.53333 -13.2534,-9.76 -1.7866,-1.46666 -3.44,-2.92 -5,-4.36 -2.4933,-2.22666 -4.6533,-4.36 -6.5333,-6.28 1.84,-0.8 3.72,-1.53333 5.6,-2.13333 0.1333,-0.0667 0.2533,-0.0933 0.3867,-0.13333 1.1866,-0.41334 2.36,-0.76 3.5733,-1.08 0.3467,-0.12 0.7333,-0.22667 1.08,-0.28 1.6933,-0.45334 3.3467,-0.84 5.04,-1.14667 0.5733,-0.10667 1.1733,-0.2 1.7467,-0.29333 0.4133,-0.0667 0.8,-0.13334 1.2133,-0.18667 1.1733,-0.2 2.36,-0.32 3.5333,-0.41333 3.2267,-0.36 6.44,-0.52 9.6267,-0.48 2.36,0.0267 4.72,0.12 7.04,0.32 5.3333,0.44 10.56,1.26666 15.5333,2.38666 23.16,5.16 41.4267,16.09334 44.9067,18.22667 0.2133,0.13333 0.44,0.25333 0.6266,0.38667 4.88,3.02666 9.5067,5.45333 13.8667,7.36 1.92,0.86666 3.76,1.62666 5.5733,2.33333 h 0.04 c 2.04,0.76 3.9867,1.4 5.8934,1.97333 -0.76,0.38667 -1.5334,0.73334 -2.2667,1.08 l -0.28,0.13334 c -0.32,0.16 -0.64,0.32 -0.92,0.41333 -0.64,0.32 -1.2533,0.57333 -1.8533,0.82666 -2.4534,1.08 -4.88,2.04 -7.3334,2.89334"
         style="fill:#231f20;fill-opacity:1;fill-rule:nonzero;stroke:none;stroke-width:0.133333" />
      <path
         id="path599"
         d="m 1949.0266,963.42672 c 0,41.47998 -32.0666,75.09328 -32.0666,75.09328 0,0 -32.0667,-33.6133 -32.0667,-75.09328 0,-41.46667 14.36,-75.09333 32.0667,-75.09333 17.72,0 32.0666,33.62666 32.0666,75.09333"
         style="fill:#ffffff;fill-opacity:1;fill-rule:nonzero;stroke:none;stroke-width:0.133333" />
      <path
         id="path600"
         d="m 1958.96,963.44005 c 0,8.06667 -1.08,15.84 -2.8667,23.14667 -0.8933,3.82666 -2.04,7.52 -3.28,11.08 -1.2133,3.47998 -2.5867,6.79998 -4.0133,9.98668 -1.0267,2.32 -2.1067,4.5466 -3.2534,6.72 -4.2666,8.32 -8.92,15.2933 -12.7866,20.52 -8.0934,-9.72 -28.9067,-38.05335 -28.9067,-71.45335 0,-41.49333 14.3733,-75.12 32.0667,-75.12 0.64,0 1.28,0.04 1.92,0.13334 0.6933,0.73333 1.36,1.46666 1.9333,2.25333 0.1333,0.10667 0.2,0.16 0.2267,0.26667 0.48,0.57333 0.92,1.14666 1.3333,1.74666 1.4133,1.90667 2.72,3.98667 3.96,6.21334 l 0.093,0.18666 c 0.067,0.13334 0.16,0.29334 0.2267,0.42667 0.6,1.10667 1.1733,2.25333 1.72,3.44 0.16,0.25333 0.28,0.53333 0.3733,0.82667 0.1067,0.16 0.16,0.32 0.2267,0.48 0.5067,1.08 0.9867,2.2 1.44,3.34666 2.1333,5.22667 3.92,10.98667 5.3467,17.08 0.9866,4.2 1.7866,8.6 2.4533,13.09333 0.5467,3.89334 1,7.88 1.28,11.89334 0.16,2.06666 0.2933,4.14666 0.3467,6.24 0.093,2.49333 0.16,4.97333 0.16,7.49333"
         style="fill:#01982f;fill-opacity:1;fill-rule:nonzero;stroke:none;stroke-width:0.133333" />
      <path
         id="path601"
         d="m 1958.8,955.94672 c -0.053,-2.09334 -0.1867,-4.17334 -0.3467,-6.24 -0.28,-4.01334 -0.7333,-8 -1.28,-11.89334 -0.6667,-4.49333 -1.4667,-8.89333 -2.4533,-13.09333 -1.4267,-6.09333 -3.2134,-11.85333 -5.3467,-17.08 -0.4533,-1.14666 -0.9333,-2.26666 -1.44,-3.34666 -0.067,-0.16 -0.12,-0.32 -0.2267,-0.48 -0.093,-0.29334 -0.2133,-0.57334 -0.3733,-0.82667 -0.5467,-1.18667 -1.12,-2.33333 -1.72,-3.44 -0.067,-0.13333 -0.16,-0.29333 -0.2267,-0.42667 l -0.093,-0.18666 c -1.24,-2.22667 -2.5467,-4.30667 -3.96,-6.21334 -0.4133,-0.6 -0.8533,-1.17333 -1.3333,-1.74666 -0.027,-0.10667 -0.093,-0.16 -0.2267,-0.26667 -0.5733,-0.78667 -1.24,-1.52 -1.9333,-2.25333 -2.0534,-2.26667 -4.3067,-4.21334 -6.7067,-5.77334 -0.6933,-0.44 -1.4267,-0.89333 -2.1867,-1.26666 -1.2133,-0.64 -2.4533,-1.18667 -3.7333,-1.62667 -0.7333,-0.26667 -1.4933,-0.48 -2.2933,-0.68 -1.92,-0.44 -3.8934,-0.69333 -5.96,-0.69333 -2.9067,0 -5.64,0.48 -8.2267,1.37333 -0.64,0.21333 -1.28,0.44 -1.88,0.73333 -0.28,0.12 -0.6,0.25334 -0.8933,0.41334 -1.4267,0.66666 -2.8,1.46666 -4.1467,2.45333 -2.8267,1.93333 -5.48,4.52 -7.8667,7.54667 -0.1333,0.13333 -0.2266,0.29333 -0.32,0.41333 -0.093,0.13333 -0.1866,0.22667 -0.28,0.34667 -1.9466,2.52 -3.7066,5.36 -5.3333,8.48 -0.4133,0.73333 -0.7867,1.50666 -1.1733,2.30666 -0.067,0.12 -0.1334,0.25334 -0.1867,0.41334 -0.36,0.69333 -0.7067,1.45333 -1.0267,2.18666 -0.1866,0.45334 -0.3866,0.89334 -0.5733,1.34667 -0.2533,0.54667 -0.48,1.12 -0.7067,1.69333 v 0.0267 c -0.4666,1.14667 -0.88,2.29333 -1.3066,3.46667 -1.24,3.41333 -2.2934,6.98666 -3.24,10.68 -1.12,4.37333 -2.0134,8.89333 -2.7467,13.58666 -0.64,3.97333 -1.12,8.05333 -1.4667,12.2 -0.16,2.06667 -0.32,4.17333 -0.4133,6.30667 -0.16,3 -0.2267,6.02666 -0.2267,9.05333 0,8 1.0534,15.68 2.8134,22.92 0.92,3.85333 2.04,7.58667 3.3066,11.14667 1.1867,3.47995 2.5467,6.79995 3.9867,9.98665 1.0533,2.4133 2.2,4.7066 3.3467,6.9466 9.44,18.2534 20.56,30.08 21.3866,30.9467 1.8534,1.9733 4.4667,3.0933 7.1734,3.0933 2.7333,0 5.32,-1.12 7.2,-3.0933 0.4533,-0.4533 3.9466,-4.2133 8.6,-10.4933 3.8666,-5.2267 8.52,-12.2 12.7866,-20.52 1.1467,-2.1734 2.2267,-4.4 3.2534,-6.72 1.4266,-3.1867 2.8,-6.5067 4.0133,-9.98665 1.24,-3.56 2.3867,-7.25334 3.28,-11.08 1.7867,-7.30667 2.8667,-15.08 2.8667,-23.14667 0,-2.52 -0.067,-5 -0.16,-7.49333 z m -19.7867,2.24 c 0.027,1.72 0.067,3.46666 0.067,5.25333 0,4.90667 -0.52,9.72 -1.44,14.34667 -0.8267,4.49333 -2.04,8.82666 -3.5067,12.93333 -1.0133,2.97333 -2.16,5.8 -3.4133,8.52 -3.12,7.06665 -6.7867,13.31995 -10.16,18.38665 -1.24,1.88 -2.4934,3.6 -3.6,5.16 -1.5067,-2.04 -3.12,-4.3733 -4.7867,-6.9733 -2.2,-3.4134 -4.4933,-7.2667 -6.6,-11.5067 -0.3733,-0.68 -0.6933,-1.3467 -1.0133,-2.04 -0.7067,-1.3733 -1.3334,-2.77332 -1.9467,-4.23998 -1.0533,-2.42667 -2.04,-4.90667 -2.9333,-7.49334 -0.2134,-0.57333 -0.4134,-1.17333 -0.6,-1.76 -1.1867,-3.62666 -2.1734,-7.36 -2.9067,-11.24 -0.8533,-4.56 -1.3333,-9.28 -1.3333,-14.09333 0,-2 0.027,-3.94667 0.093,-5.86667 0.1867,-5.92 0.7067,-11.44 1.4,-16.53333 0.36,-2.49333 0.7733,-4.85333 1.2133,-7.10667 1.28,-6.57333 2.96,-12.30666 4.8134,-17.09333 0.3866,-0.94666 0.7333,-1.88 1.12,-2.73333 0.1866,-0.45333 0.3733,-0.86667 0.5733,-1.28 0.6933,-1.52 1.4,-2.93333 2.1333,-4.2 0.12,-0.25333 0.2534,-0.48 0.3867,-0.70667 0.2533,-0.41333 0.5067,-0.82666 0.7333,-1.21333 l 0.1867,-0.25333 c 0.5733,-0.98667 1.2133,-1.84 1.8133,-2.64 0.8934,-1.18667 1.7867,-2.17334 2.6134,-2.96 l 0.16,-0.16 c 0.2266,-0.16 0.4133,-0.36 0.6133,-0.52 h 0.027 c 0.2533,-0.21334 0.5066,-0.41334 0.76,-0.57334 1.1866,-0.85333 2.2933,-1.26666 3.28,-1.30666 l 0.16,-0.0267 h 0.04 c 0.6,0 1.24,0.16 1.9466,0.44 l 0.027,0.04 c 0.16,0.0667 0.3467,0.12 0.5467,0.25333 0.2533,0.12 0.5066,0.28 0.7866,0.50667 0.16,0.0667 0.2934,0.16 0.4534,0.29333 0.44,0.32 0.8933,0.69334 1.3333,1.10667 0.7733,0.70667 1.5333,1.57333 2.2933,2.56 0.48,0.6 0.96,1.24 1.44,1.93333 0.1867,0.29334 0.4134,0.61334 0.6,0.93334 0.36,0.53333 0.68,1.08 1.0267,1.65333 0.067,0.16 0.16,0.29333 0.2533,0.44 0.76,1.37333 1.5334,2.88 2.2934,4.53333 1.0533,2.36 2.0666,5 3.0266,7.90667 1.5334,4.58667 2.8667,9.84 3.92,15.77333 0.3867,2.2 0.7067,4.49333 0.9867,6.88 0.5733,4.56 0.96,9.46667 1.12,14.66667"
         style="fill:#231f20;fill-opacity:1;fill-rule:nonzero;stroke:none;stroke-width:0.133333" />
    </g>
  </g>
</svg>
