<?xml version="1.0" encoding="UTF-8" standalone="no"?>
<!-- Created with Inkscape (http://www.inkscape.org/) -->

<svg
   width="138.49715mm"
   height="139.92842mm"
   viewBox="0 0 138.49715 139.92842"
   version="1.1"
   id="svg1"
   inkscape:version="1.3 (0e150ed, 2023-07-21)"
   sodipodi:docname="watermelon.svg"
   xmlns:inkscape="http://www.inkscape.org/namespaces/inkscape"
   xmlns:sodipodi="http://sodipodi.sourceforge.net/DTD/sodipodi-0.dtd"
   xmlns="http://www.w3.org/2000/svg"
   xmlns:svg="http://www.w3.org/2000/svg">
  <sodipodi:namedview
     id="namedview1"
     pagecolor="#ffffff"
     bordercolor="#000000"
     borderopacity="0.25"
     inkscape:showpageshadow="2"
     inkscape:pageopacity="0.0"
     inkscape:pagecheckerboard="0"
     inkscape:deskcolor="#d1d1d1"
     inkscape:document-units="mm"
     inkscape:zoom="0.2102413"
     inkscape:cx="263.98238"
     inkscape:cy="266.3606"
     inkscape:window-width="1312"
     inkscape:window-height="449"
     inkscape:window-x="0"
     inkscape:window-y="25"
     inkscape:window-maximized="0"
     inkscape:current-layer="layer1" />
  <defs
     id="defs1" />
  <g
     inkscape:label="Layer 1"
     inkscape:groupmode="layer"
     id="layer1"
     transform="translate(-35.718712,-78.58125)">
    <g
       id="g797"
       transform="matrix(0.26458333,0,0,0.26458333,-1204.8772,47.888681)">
      <path
         id="path638"
         d="m 5202.6265,383.16007 c 0,80.03999 -37.32,151.34666 -95.48,197.50666 h -0.027 c -6,4.77333 -12.24,9.29333 -18.68,13.49333 -11.3334,7.42667 -23.3334,13.96 -35.84,19.48 -0.36,0.16 -0.68,0.29333 -1.04,0.46667 -21.3334,9.36 -44.2267,15.84 -68.16,18.92 -3.08,0.41333 -6.1734,0.77333 -9.28,1.04 -7.76,0.77333 -15.6,1.12 -23.5467,1.12 -7.9467,0 -15.7867,-0.34667 -23.5467,-1.12 -3.12,-0.26667 -6.2,-0.62667 -9.2933,-1.04 -23.9333,-3.10667 -46.7867,-9.58667 -68.16,-18.92 -0.3467,-0.17334 -0.68,-0.30667 -1.0267,-0.46667 -12.52,-5.52 -24.48,-12.08 -35.8133,-19.48 -6.4533,-4.2 -12.68,-8.72 -18.6933,-13.49333 h -0.027 c -58.16,-46.16 -95.4667,-117.46667 -95.4667,-197.50666 0,-81.97334 39.12,-156.65333 99.7067,-204.24 h 0.027 c 6.2266,-4.86667 12.6133,-9.45333 19.2533,-13.74667 11.5867,-7.48 23.7733,-14.01333 36.4933,-19.50666 0.2534,-0.10667 0.52,-0.21334 0.7734,-0.32 21.36,-9.16 44.2,-15.36 68.04,-18.09333 3.1466,-0.34667 6.3066,-0.65334 9.48,-0.89334 6.04,-0.46666 12.1066,-0.68 18.2533,-0.68 6.1467,0 12.24,0.21334 18.2667,0.68 3.1733,0.24 6.3466,0.54667 9.48,0.89334 23.8533,2.73333 46.6933,8.93333 68.0533,18.09333 0.24,0.10666 0.52,0.21333 0.76,0.32 12.7333,5.49333 24.92,12.02666 36.4933,19.50666 6.64,4.29334 13.0934,8.88 19.2934,13.74667 60.5866,47.58667 99.7066,122.26666 99.7066,204.24"
         style="fill:#ffffff;fill-opacity:1;fill-rule:nonzero;stroke:none;stroke-width:0.133333" />
      <path
         id="path639"
         d="m 5212.3199,383.16007 c 0,80.31999 -36.1334,155.07999 -99.16,205.10666 l -2.6934,2.09333 c -5.4666,4.2 -11.08,8.21333 -16.7333,11.92 -11.8,7.72 -24.3333,14.52 -37.2133,20.22667 l -0.8534,0.37333 c -22.7333,9.97333 -46.5733,16.61333 -71.0266,19.76 -2.48,0.34667 -4.7867,0.58667 -7.0134,0.84 -7.72,-0.04 -15.4133,-0.37333 -22.9466,-1.08 -3.12,-0.28 -6.1734,-0.65333 -9.2934,-1.05333 -18.5333,-2.44 -36.44,-6.85334 -53.48,-13.06667 -4.9733,-1.81333 -9.8533,-3.76 -14.6666,-5.86667 -0.3467,-0.18666 -0.68,-0.30666 -1.0534,-0.49333 -5.7466,-2.49333 -11.36,-5.28 -16.8666,-8.24 -6.48,-3.46667 -12.7734,-7.2 -18.92,-11.21333 -6.4534,-4.22667 -12.6667,-8.73334 -18.6934,-13.52 h -0.027 c -1.0534,-0.84 -2.0667,-1.64 -3.08,-2.53334 -6.8267,-5.53333 -13.3734,-11.49333 -19.5867,-17.78666 -8.3333,-8.42667 -16.08,-17.45334 -23.16,-26.98667 -1.1733,-1.58667 -2.3467,-3.18667 -3.48,-4.82667 -1.1467,-1.6 -2.2667,-3.24 -3.3733,-4.87999 -2.2267,-3.26667 -4.3467,-6.64 -6.4267,-10.02667 -0.8267,-1.36 -1.6267,-2.76 -2.44,-4.14667 -2.1867,-3.76 -4.28,-7.58666 -6.2667,-11.48 -0.7066,-1.36 -1.4133,-2.74666 -2.0933,-4.17333 -1.08,-2.18667 -2.1067,-4.38667 -3.12,-6.61333 -0.84,-1.81334 -1.64,-3.64 -2.4133,-5.49334 -12.9067,-30.25333 -20.04,-63.57333 -20.04,-98.53333 0,-68.82666 27.5733,-132.50666 72.2933,-179.31999 v -0.0267 c 8.5467,-8.96 17.72,-17.26667 27.4133,-24.92 h 0.04 c 6.24,-4.85333 12.6267,-9.42667 19.2667,-13.72 3.8933,-2.49333 7.88,-4.93333 11.92,-7.25333 7.9333,-4.54667 16.12,-8.61334 24.5867,-12.25334 0.24,-0.0933 0.52,-0.22666 0.76,-0.32 10.5333,-4.50666 21.44,-8.30666 32.64,-11.33333 0.9333,-0.24 1.8933,-0.49333 2.8133,-0.73333 10.6,-2.74667 21.4667,-4.78667 32.5867,-6.02667 0.5466,-0.0533 1.1066,-0.12 1.6666,-0.18667 2.56,-0.28 5.1867,-0.49333 7.7734,-0.70666 6.0933,-0.46667 12.1333,-0.68 18.28,-0.68 h 1.5466 c 0.9334,0 1.8267,0 2.7467,0.0267 4.6933,0.0667 9.3333,0.28 13.9867,0.65334 3.16,0.25333 6.3333,0.52 9.48,0.89333 9.52,1.08 18.88,2.72 28.04,4.90667 l 0.1333,0.04 h 0.027 c 1.9066,0.42666 3.8266,0.92 5.7066,1.41333 11.7067,3.06667 23.1067,7.01333 34.1334,11.73333 0.24,0.0933 0.52,0.22667 0.76,0.32 0.4666,0.21334 0.9333,0.4 1.4,0.61334 5.8666,2.56 11.64,5.37333 17.2933,8.4 1.32,0.70666 2.68,1.45333 4.0133,2.18666 4.6934,2.62667 9.2934,5.37334 13.8,8.30667 0.56,0.37333 1.1067,0.74667 1.6667,1.12 62.28,50.92 99.3467,128.48 99.3467,208.56"
         style="fill:#50c42b;fill-opacity:1;fill-rule:nonzero;stroke:none;stroke-width:0.133333" />
      <path
         id="path640"
         d="m 4977.6265,643.48006 c -7.72,-0.04 -15.4133,-0.37333 -22.9466,-1.08 -3.12,-0.28 -6.1734,-0.65333 -9.2934,-1.05333 -18.5333,-2.44 -36.44,-6.85334 -53.48,-13.06667 -4.9733,-1.81333 -9.8533,-3.76 -14.6666,-5.86667 -0.3467,-0.18666 -0.68,-0.30666 -1.0534,-0.49333 -5.7466,-2.49333 -11.36,-5.28 -16.8666,-8.24 -6.48,-3.46667 -12.7734,-7.2 -18.92,-11.21333 -6.4534,-4.22667 -12.6667,-8.73334 -18.6934,-13.52 h -0.027 c -1.0534,-0.84 -2.0667,-1.64 -3.08,-2.53334 -6.8267,-5.53333 -13.3734,-11.49333 -19.5867,-17.78666 -8.3333,-8.42667 -16.08,-17.45334 -23.16,-26.98667 -1.1733,-1.58667 -2.3467,-3.18667 -3.48,-4.82667 -1.1467,-1.6 -2.2667,-3.24 -3.3733,-4.87999 -2.2267,-3.26667 -4.3467,-6.64 -6.4267,-10.02667 -0.8267,-1.36 -1.6267,-2.76 -2.44,-4.14667 -2.1867,-3.76 -4.28,-7.58666 -6.2667,-11.48 -0.7066,-1.36 -1.4133,-2.74666 -2.0933,-4.17333 -1.08,-2.18667 -2.1067,-4.38667 -3.12,-6.61333 -0.84,-1.81334 -1.64,-3.64 -2.4133,-5.49334 7.1333,9.92 15.04,19.21334 23.6,27.89334 3.64,3.66666 7.3733,7.25333 11.2666,10.68 3.2667,2.90666 6.64,5.74666 10.0667,8.45333 h 0.027 c 5.6533,4.52 11.52,8.74666 17.5733,12.69333 5.7733,3.77333 11.7333,7.29333 17.8133,10.56 2.8134,1.52 5.6534,3 8.5334,4.38667 2.44,1.17333 4.88,2.32 7.3466,3.4 0.3334,0.12 0.68,0.28 0.9867,0.42666 20.1067,8.77334 41.6267,14.86667 64.1333,17.8 0.8934,0.12 1.8267,0.24 2.72,0.33334 2.0134,0.28 4.0134,0.49333 6.0267,0.68 7.32,0.68 14.6933,1.05333 22.1733,1.05333 7.4667,0 14.8534,-0.37333 22.16,-1.05333 2.9467,-0.25334 5.84,-0.61334 8.7467,-1.01334 7.6,-1 15.0933,-2.32 22.4533,-4.01333 14.4534,-3.30667 28.3734,-7.94667 41.68,-13.78667 0.3467,-0.14666 0.6534,-0.30666 0.9867,-0.42666 11,-4.85334 21.6267,-10.53334 31.6533,-16.98667 0.68,-0.45333 1.4,-0.89333 2.0667,-1.36 6.0933,-3.94667 11.96,-8.17333 17.5733,-12.69333 h 0.04 c 26.1467,-20.77333 47.8267,-46.90667 63.3334,-76.82667 16.9466,-32.64 26.52,-69.71999 26.52,-109.06666 0,-36.89333 -8.4,-72.2 -23.44,-103.88 -10.96,-23.21333 -25.5067,-44.52 -42.92,-63.08 -8.4934,-9.12 -17.6934,-17.57333 -27.48,-25.26666 -1.88,-1.48 -3.7734,-2.90667 -5.68,-4.32 5.8666,2.56 11.64,5.37333 17.2933,8.4 1.32,0.70666 2.68,1.45333 4.0133,2.18666 4.6934,2.62667 9.2934,5.37334 13.8,8.30667 0.56,0.37333 1.1067,0.74667 1.6667,1.12 62.28,50.92 99.3467,128.48 99.3467,208.56 0,80.31999 -36.1334,155.07999 -99.16,205.10666 l -2.6934,2.09333 c -5.4666,4.2 -11.08,8.21333 -16.7333,11.92 -11.8,7.72 -24.3333,14.52 -37.2133,20.22667 l -0.8534,0.37333 c -22.7333,9.97333 -46.5733,16.61333 -71.0266,19.76 -2.48,0.34667 -4.7867,0.58667 -7.0134,0.84"
         style="fill:#38ac22;fill-opacity:1;fill-rule:nonzero;stroke:none;stroke-width:0.133333" />
      <path
         id="path641"
         d="m 4859.3199,613.69339 c -6.48,-3.45333 -12.7867,-7.22666 -18.9334,-11.24 -6.44,-4.2 -12.6666,-8.70666 -18.6666,-13.49333 h -0.027 c -7.9733,-6.30667 -15.5467,-13.12 -22.6667,-20.34667 -2.32,-8.68 -4.6133,-17.33333 -8.6,-25.36 -8.9066,-17.79999 -27.2266,-33.75999 -33.2,-51.38666 -5.8933,-17.21333 0.8534,-35.46667 -2.16,-53.2 -2.9333,-17.26667 -15.9066,-34.17333 -15.9066,-51.28 0,-17.89333 13.08,-35.49333 16.32,-53.64 3.2933,-18.52 -3.0667,-37.74666 3.3466,-55.86666 6.4134,-18.42667 25.2934,-35.10667 34.8667,-53.78667 1.88,-3.65333 3.4267,-7.44 4.8133,-11.32 v -0.0267 c 8.5467,-9.08 17.7067,-17.52 27.4134,-25.26667 h 0.027 c 6.2267,-4.92 12.6267,-9.53333 19.2667,-13.88 3.8933,-2.57333 7.88,-5.04 11.92,-7.36 -7.16,12.30667 -14.7467,24.57333 -18.0667,36.98667 -5.6133,21.12 1.2667,43.08 -2.6533,64.35999 -3.88,21.08 -18.68,41.50667 -20.6667,62.25334 -2,20.50666 8.8,41.48 8.8267,62.56 -0.027,19.47999 -10.9867,38.62666 -9.2533,57.49333 1.7466,19.17333 16.1333,38.16 19.5066,57.58666 3.4134,19.61334 -4.12,39.77333 0.7467,59.17333 3.96,15.69334 15.8933,31.32 23.7467,47.04"
         style="fill:#009845;fill-opacity:1;fill-rule:nonzero;stroke:none;stroke-width:0.133333" />
      <path
         id="path642"
         d="m 5147.3199,493.56006 c -6.3067,18.36 -25.68,35.02667 -35.08,53.56 -4.8134,9.53333 -7.28,19.96 -10.1467,30.33333 l -0.027,0.0133 c -6.8666,5.96 -14,11.72 -21.4,17.2 -13.0266,9.68 -26.8933,18.54666 -41.44,26.22666 8.3334,-16.49333 21.0667,-32.88 25.2667,-49.37333 5.1733,-20.22667 -2.7867,-41.21333 0.8133,-61.72 3.5734,-20.21333 18.7867,-39.98666 20.6267,-59.97333 1.8267,-19.68 -9.76,-39.65333 -9.76,-59.94666 0,-22 11.4267,-43.84 9.32,-65.21334 -2.12,-21.64 -17.7467,-42.92 -21.8533,-64.87999 -4.1334,-22.17334 3.12,-45.10667 -2.8134,-67.08 -4.9466,-18.30667 -18.88,-36.30667 -27.9466,-54.50667 14.8133,7.61333 28.92,16.45333 42.2533,26.2 7.64,5.58667 15.04,11.45333 22.12,17.52 3.3733,11.09333 6.2533,22.32 11.5333,32.52 10.1067,19.44 30.0534,36.85333 36.88,56.05333 6.7334,18.90667 0.027,38.96 3.4934,58.25333 3.44,18.92 17.2666,37.25334 17.2533,55.90667 0.013,17.84 -13.6933,35.45333 -16.8,53.44 -3.2133,18.46666 3.9467,37.50666 -2.2933,55.46666"
         style="fill:#009845;fill-opacity:1;fill-rule:nonzero;stroke:none;stroke-width:0.133333" />
      <path
         id="path643"
         d="m 4913.9865,634.32006 c -2.0933,-16.90667 -0.2133,-34.84 -4.4933,-51.26667 -5.5467,-21.29333 -22.12,-41.37333 -25.84,-63.06666 -3.6667,-21.38667 5.5733,-43.81333 3.7067,-65.66667 -1.8267,-21.52 -14.8534,-42.89333 -14.8534,-64.61333 0,-23.28 13.1467,-46.14666 15.2667,-69.30666 2.16,-23.42667 -6.6667,-47.57334 -2.4533,-70.56 4.24,-23.26667 21.4266,-44.72 27.76,-67.58667 4.9466,-17.93333 3.52,-37.53333 6.6,-55.95999 20.5866,-0.82667 41.2266,-0.82667 61.8133,0 3.0667,18.42666 1.64,38.02666 6.6,55.95999 6.3333,22.86667 23.52,44.32 27.7467,67.58667 4.2133,22.97333 -4.6,47.13333 -2.4534,70.56 2.1067,23.16 15.28,46.02666 15.2667,69.30666 0.013,21.72 -13.0133,43.09333 -14.8667,64.61333 -1.8533,21.85334 7.4,44.28 3.6934,65.66667 -3.72,21.69333 -20.2934,41.77333 -25.8267,63.06666 -4.2933,16.42667 -2.4,34.36 -4.5067,51.26667 -24.36,1.16 -48.8,1.16 -73.16,0"
         style="fill:#009845;fill-opacity:1;fill-rule:nonzero;stroke:none;stroke-width:0.133333" />
      <path
         id="path644"
         d="m 5103.5865,571.09339 -2.5066,2.01334 c -5.8,4.6 -11.8267,8.94666 -17.9334,12.96 -10.9333,7.13333 -22.52,13.44 -34.5866,18.77333 l -0.3734,0.16 -0.52,0.25333 c -19.0266,8.33334 -39.04,14.17334 -59.6,17.32 -1.9733,0.30667 -3.96,0.61334 -5.9333,0.86667 -3.2133,0.42667 -6.1067,0.73333 -8.96,0.98667 -14.44,1.41333 -30.6533,1.45333 -45.2933,0 -2.7734,-0.25334 -5.6534,-0.56 -8.8934,-0.98667 -1.9733,-0.25333 -3.96,-0.56 -5.9333,-0.86667 -19.9467,-3.09333 -39.4667,-8.70666 -57.8933,-16.61333 -0.4934,-0.21333 -0.9867,-0.44 -1.48,-0.65333 l -1.24,-0.52 c -11.5467,-5.09334 -22.9467,-11.28 -33.84,-18.37334 -0.1867,-0.12 -0.4134,-0.25333 -0.5867,-0.37333 -6.0933,-3.98667 -12.1467,-8.33333 -17.9467,-12.93333 l -1.64,-1.30667 c -57.3466,-46.32 -90.2,-114.93333 -90.2,-188.63999 0,-75.16 35.2,-147.97333 94.2534,-195.22667 l 1.76,-1.38666 c 6.2666,-4.88 12.3466,-9.24 18.56,-13.25334 11.1733,-7.18666 22.9733,-13.52 35.08,-18.73333 l 0.7333,-0.32 c 19.12,-8.21333 39.16,-13.77333 59.6667,-16.61333 1.88,-0.26667 3.76,-0.52 5.64,-0.73334 3.0266,-0.34666 6.0933,-0.65333 9.1466,-0.86666 6.1734,-0.49334 12.6667,-0.70667 19.12,-0.65334 5.3734,0.04 10.7734,0.25334 15.8934,0.65334 3.0666,0.21333 6.12,0.52 9.1466,0.86666 1.88,0.21334 3.76,0.46667 5.6534,0.73334 20.16,2.78666 39.8933,8.25333 58.6666,16.18666 0.3067,0.12 0.5867,0.24 0.8934,0.37334 l 0.8666,0.37333 c 12.1067,5.21333 23.9067,11.54667 35.08,18.73333 6.3867,4.14667 12.6267,8.58667 18.56,13.25334 0.7467,0.58666 1.48,1.17333 2.2267,1.78666 20.8667,16.77334 38.7467,36.74667 53.1067,58.92 26.1333,40.21333 40.6666,87.57333 40.6666,135.90667 0,73.18666 -32.4133,141.37333 -89.0266,187.65332 -0.12,0.0933 -0.2134,0.18667 -0.3334,0.28 z m 9.3867,-396.49332 c -1.36,-1.14667 -2.72,-2.22667 -4.08,-3.30667 -6.3867,-5 -13.12,-9.78666 -20,-14.24 -12.08,-7.81333 -24.84,-14.64 -37.84,-20.22666 l -0.8533,-0.4 c -22.64,-9.66667 -46.4534,-16 -70.7867,-18.8 -3.2667,-0.34667 -6.5467,-0.68 -9.8133,-0.93333 -12.2934,-0.92 -25.72,-0.92 -38.0134,0 -3.3066,0.25333 -6.5866,0.58666 -9.8533,0.96 -24.3333,2.77333 -48.1467,9.10666 -70.7467,18.77333 l -0.8,0.33333 c -13.0666,5.65333 -25.8533,12.48 -37.8933,20.29333 -5.84,3.73334 -11.52,7.74667 -17.32,12.17334 l -2.6933,2.06666 c -64.7467,50.85334 -103.4134,130.06667 -103.4134,211.86667 0,80.31999 36.1334,155.07999 99.12,205.10666 l 2.6934,2.09333 h 0.027 c 5.44,4.2 11.0534,8.21333 16.7334,11.92 11.96,7.78667 24.4666,14.61333 37.0266,20.13333 l 1.24,0.56 c 22.5734,9.88 46.3867,16.49334 70.7467,19.66667 3.4933,0.46667 6.6667,0.8 9.64,1.05333 7.84,0.8 16.08,1.17334 24.48,1.17334 8.4,0 16.6533,-0.37334 24.4,-1.14667 0.8667,-0.0933 1.76,-0.14667 2.6533,-0.24 2.2267,-0.25333 4.5334,-0.49333 7.0134,-0.84 24.4533,-3.14667 48.2933,-9.78667 71.0266,-19.76 l 0.8534,-0.37333 c 12.88,-5.70667 25.4133,-12.50667 37.2133,-20.22667 5.6533,-3.70667 11.2667,-7.72 16.7333,-11.92 l 2.6934,-2.09333 c 63.0266,-50.02667 99.16,-124.78667 99.16,-205.10666 0,-80.08 -37.0667,-157.64 -99.3467,-208.56"
         style="fill:#231f20;fill-opacity:1;fill-rule:nonzero;stroke:none;stroke-width:0.133333" />
    </g>
  </g>
</svg>
