<?xml version="1.0" encoding="UTF-8" standalone="no"?>
<!-- Created with Inkscape (http://www.inkscape.org/) -->

<svg
   width="140.73535mm"
   height="155.6609mm"
   viewBox="0 0 140.73535 155.6609"
   version="1.1"
   id="svg1"
   inkscape:version="1.3 (0e150ed, 2023-07-21)"
   sodipodi:docname="watermelon2.svg"
   xmlns:inkscape="http://www.inkscape.org/namespaces/inkscape"
   xmlns:sodipodi="http://sodipodi.sourceforge.net/DTD/sodipodi-0.dtd"
   xmlns="http://www.w3.org/2000/svg"
   xmlns:svg="http://www.w3.org/2000/svg">
  <sodipodi:namedview
     id="namedview1"
     pagecolor="#ffffff"
     bordercolor="#000000"
     borderopacity="0.25"
     inkscape:showpageshadow="2"
     inkscape:pageopacity="0.0"
     inkscape:pagecheckerboard="0"
     inkscape:deskcolor="#d1d1d1"
     inkscape:document-units="mm"
     inkscape:zoom="0.2102413"
     inkscape:cx="263.98238"
     inkscape:cy="294.89924"
     inkscape:window-width="1312"
     inkscape:window-height="449"
     inkscape:window-x="0"
     inkscape:window-y="25"
     inkscape:window-maximized="0"
     inkscape:current-layer="layer1" />
  <defs
     id="defs1" />
  <g
     inkscape:label="Layer 1"
     inkscape:groupmode="layer"
     id="layer1"
     transform="translate(-34.660423,-70.643743)">
    <g
       id="g797"
       transform="matrix(0.26458333,0,0,0.26458333,-600.55654,-149.13568)">
      <path
         id="path523"
         d="m 2922.1733,1245.8667 c 0,1.5733 -0.067,3.1467 -0.2,4.7067 -0.093,1.5733 -0.2934,3.1466 -0.52,4.68 -0.2667,1.5733 -0.56,3.12 -0.92,4.6533 -0.36,1.5467 -0.7867,3.08 -1.2534,4.5867 -1.8933,6.0533 -4.7733,11.88 -8.5333,17.2533 -16.5067,23.44 -36.28,44.36 -58.7067,62.1467 h -0.04 c -7.1066,5.6666 -14.4666,11 -22.0933,15.9733 -13.4267,8.8133 -27.6,16.5333 -42.4,23.0533 -0.4267,0.2 -0.8267,0.36 -1.2533,0.56 -2.52,1.1067 -5.0667,2.1867 -7.6534,3.2 l -0.067,0.04 c -2.56,1.04 -5.1467,2.0667 -7.76,3.0134 -5.2134,1.96 -10.52,3.76 -15.88,5.4266 -2.5867,0.7867 -5.1734,1.5467 -7.8,2.2934 -2.0534,0.56 -4.0934,1.12 -6.1467,1.6133 -1.28,0.36 -2.5867,0.68 -3.9067,0.9733 l -0.12,0.04 c -2.2,0.52 -4.3866,1.04 -6.5866,1.5067 -2.36,0.52 -4.72,1.0133 -7.1067,1.44 -3.3733,0.6533 -6.7467,1.24 -10.1733,1.76 -2.4667,0.4 -4.9467,0.76 -7.44,1.08 -3.6667,0.4933 -7.2934,0.92 -11,1.2533 -9.1734,0.88 -18.4667,1.3067 -27.8667,1.3067 -9.3867,0 -18.6933,-0.4267 -27.8533,-1.3067 -3.7067,-0.3333 -7.3467,-0.76 -11.0134,-1.2533 -28.32,-3.6933 -55.36,-11.36 -80.64,-22.3867 -0.4266,-0.2 -0.8133,-0.36 -1.24,-0.56 -14.8,-6.52 -28.9466,-14.28 -42.3733,-23.0533 -1.8933,-1.24 -3.8,-2.52 -5.6533,-3.8 l -0.067,-0.067 c -5.6,-3.8266 -11.0667,-7.88 -16.3733,-12.1066 h -0.04 c -18.8534,-14.9334 -35.8134,-32.12 -50.5467,-51.1467 -2.8133,-3.6 -5.5333,-7.2933 -8.16,-11.0267 -0.6133,-0.8933 -1.24,-1.8 -1.8,-2.76 -2.0533,-3.2 -3.7333,-6.5466 -5.1333,-10.0133 -0.5867,-1.48 -1.12,-2.9867 -1.6134,-4.4933 -0.4533,-1.5067 -0.88,-3.04 -1.24,-4.5734 -0.16,-0.7866 -0.36,-1.5466 -0.4933,-2.3333 -0.2933,-1.5333 -0.52,-3.1067 -0.72,-4.64 -0.093,-0.7867 -0.16,-1.5733 -0.2267,-2.36 -0.2,-2.52 -0.2266,-5.08 -0.093,-7.6267 0.027,-0.6933 0.067,-1.3733 0.16,-2.1066 0.027,-0.8134 0.093,-1.6267 0.2267,-2.4534 0.1066,-0.9466 0.2666,-1.8666 0.4266,-2.8133 0,-0.2267 0.067,-0.4933 0.1067,-0.72 0.053,-0.3867 0.12,-0.8133 0.2267,-1.2133 0.16,-0.8134 0.36,-1.6667 0.5466,-2.48 0.3067,-1.1867 0.6267,-2.36 0.9867,-3.5467 l 0.04,-0.067 c 0.32,-1.0133 0.6533,-2.0533 1.04,-3.0666 0.093,-0.2667 0.2,-0.5334 0.2933,-0.7867 0.4267,-1.08 0.8534,-2.1333 1.3467,-3.1733 0.3867,-0.8534 0.8133,-1.7467 1.24,-2.5867 0.1333,-0.2667 0.2667,-0.56 0.4267,-0.8267 0.52,-0.9733 1.08,-1.9333 1.64,-2.88 l 27.44,-45.48 186.52,-309.17328 c 4.4266,-7.26667 10.68,-12.38667 17.6933,-15.33333 9.2533,-3.89334 19.8,-4.02667 29.16,-0.29334 7.3067,2.89334 13.8533,8.09334 18.4133,15.65334 l 186.52,309.18661 27.44,45.44 c 0.4934,0.8134 0.9867,1.6667 1.44,2.52 0.6267,1.1467 1.2134,2.2934 1.7334,3.4667 0.4933,1.0533 0.9466,2.1333 1.3733,3.2133 0.36,0.9867 0.72,1.9334 1.0533,2.92 0.16,0.4267 0.2934,0.84 0.4267,1.2667 0.067,0.1733 0.093,0.3333 0.1333,0.4933 0.027,0.1334 0.067,0.2267 0.093,0.36 0.2933,0.8534 0.52,1.68 0.72,2.52 0.2,0.8267 0.4,1.64 0.56,2.4534 l 0.027,0.2 c 0.1334,0.6 0.2267,1.1866 0.3334,1.7733 0.2,1.08 0.36,2.16 0.4933,3.2667 0.1333,1.0266 0.2267,2.04 0.2933,3.0533 0,0.36 0.027,0.7467 0.067,1.1467 0.027,1.0133 0.067,2 0.067,3.0133"
         style="fill:#50c42b;fill-opacity:1;fill-rule:nonzero;stroke:none;stroke-width:0.133333" />
      <path
         id="path524"
         d="m 2922.1733,1245.8667 c 0,1.5733 -0.067,3.1467 -0.2,4.7067 -0.093,1.5733 -0.2934,3.1466 -0.52,4.68 -0.24,1.5733 -0.56,3.12 -0.92,4.6533 -0.3334,1.5467 -0.76,3.08 -1.2534,4.5867 -1.8933,6.0533 -4.7733,11.88 -8.5333,17.2533 -16.5067,23.44 -36.28,44.36 -58.7067,62.1467 h -0.04 c -7.1066,5.6666 -14.4666,11 -22.0933,15.9733 -13.4267,8.8133 -27.6,16.5333 -42.4,23.0533 -0.4267,0.2 -0.8267,0.36 -1.2533,0.56 -2.52,1.1067 -5.0667,2.1867 -7.6534,3.2 l -0.067,0.04 c -2.56,1.04 -5.1467,2.0667 -7.76,3.0134 -5.2134,1.96 -10.52,3.76 -15.88,5.4266 -2.5867,0.7867 -5.1734,1.5467 -7.8,2.2934 -2.0534,0.56 -4.0934,1.12 -6.1467,1.6133 -1.28,0.36 -2.5867,0.68 -3.9067,0.9733 l -0.12,0.04 c -2.2,0.52 -4.3866,1.04 -6.5866,1.5067 -2.36,0.52 -4.72,1.0133 -7.1067,1.44 -3.3733,0.6533 -6.7467,1.24 -10.1733,1.76 -2.4667,0.4 -4.9467,0.76 -7.44,1.08 -3.6667,0.4933 -7.2934,0.92 -11,1.2533 -9.1734,0.88 -18.4667,1.3067 -27.8667,1.3067 -9.3867,0 -18.6933,-0.4267 -27.8533,-1.3067 -3.7067,-0.3333 -7.3467,-0.76 -11.0134,-1.2533 -28.32,-3.6933 -55.36,-11.36 -80.64,-22.3867 -0.4266,-0.2 -0.8133,-0.36 -1.24,-0.56 -14.8,-6.52 -28.9466,-14.28 -42.3733,-23.0533 -1.8933,-1.24 -3.8,-2.52 -5.6533,-3.8 l -0.067,-0.067 c -5.6,-3.8266 -11.0667,-7.88 -16.3733,-12.1066 h -0.04 c -18.8534,-14.9334 -35.8134,-32.12 -50.5467,-51.1467 -2.8133,-3.6 -5.5333,-7.2933 -8.16,-11.0267 -0.6133,-0.8933 -1.24,-1.8 -1.8,-2.76 -2.0533,-3.2 -3.7333,-6.5466 -5.1333,-10.0133 -0.5867,-1.48 -1.12,-2.9867 -1.6134,-4.4933 -0.4533,-1.5067 -0.88,-3.04 -1.24,-4.5734 -0.16,-0.7866 -0.36,-1.5466 -0.4933,-2.3333 -0.2933,-1.5333 -0.52,-3.1067 -0.72,-4.64 -0.093,-0.7867 -0.16,-1.5733 -0.2267,-2.36 -0.2,-2.52 -0.2266,-5.08 -0.093,-7.6267 0.027,-0.6933 0.067,-1.3733 0.16,-2.1066 0.027,-0.8134 0.093,-1.6267 0.2267,-2.4534 0.1066,-0.9466 0.2666,-1.8666 0.4266,-2.8133 0,-0.2267 0.067,-0.4933 0.1067,-0.72 0.053,-0.3867 0.12,-0.8133 0.2267,-1.2133 0.16,-0.8134 0.36,-1.6667 0.5466,-2.48 0.3067,-1.1867 0.6267,-2.36 0.9867,-3.5467 l 0.04,-0.067 c 0.32,-1.0133 0.6533,-2.0533 1.04,-3.0666 0.093,-0.2667 0.2,-0.5334 0.2933,-0.7867 0.4267,-1.08 0.8534,-2.1333 1.3467,-3.1733 0.3867,-0.8534 0.8133,-1.7467 1.24,-2.5867 0.1333,-0.2667 0.2667,-0.56 0.4267,-0.8267 5.64,14.3467 11.92,28.2667 18.8933,40.7067 1.7733,3.2667 3.6667,6.44 5.5733,9.4933 13.9734,22.2267 33.2534,40.6934 53.8267,57 h 0.027 c 6.52,5.2 13.2933,10.08 20.2666,14.6667 12.3067,8.0267 25.3067,15.16 38.8667,21.12 0.3867,0.2 0.7467,0.32 1.1467,0.52 17.32,7.56 35.56,13.4 54.48,17.2933 6.4133,1.3067 12.9333,2.3867 19.48,3.24 3.3733,0.4534 6.72,0.8534 10.08,1.1467 8.4266,0.8133 16.96,1.2133 25.5733,1.2133 8.6133,0 17.16,-0.4 25.5733,-1.2133 3.3734,-0.2933 6.72,-0.6933 10.08,-1.1467 25.9734,-3.3466 50.8267,-10.3733 73.9734,-20.5333 0.3866,-0.2 0.7466,-0.32 1.1466,-0.52 13.5467,-5.96 26.5467,-13.0667 38.8934,-21.12 6.9733,-4.5867 13.7466,-9.4667 20.2666,-14.6667 h 0.027 c 20.56,-16.3066 38.7067,-35.4933 53.8267,-57 0,0 13.92,-18.76 24.2666,-50.56 0.6267,1.1467 1.2134,2.2934 1.7334,3.4667 0.4933,1.0533 0.9466,2.1333 1.3733,3.2133 0.36,0.9867 0.72,1.9334 1.0533,2.92 0.16,0.4267 0.2934,0.84 0.4267,1.2667 0.067,0.1733 0.093,0.3333 0.1333,0.4933 0.027,0.1334 0.067,0.2267 0.093,0.36 0.2933,0.8534 0.52,1.68 0.72,2.52 0.2,0.8267 0.4,1.64 0.56,2.4534 l 0.027,0.2 c 0.1334,0.6 0.2267,1.1866 0.3334,1.7733 0.2,1.08 0.36,2.16 0.4933,3.2667 0.1333,1.0266 0.2267,2.04 0.2933,3.0533 0,0.36 0.027,0.7467 0.067,1.1467 0.027,1.0133 0.067,2 0.067,3.0133"
         style="fill:#009845;fill-opacity:1;fill-rule:nonzero;stroke:none;stroke-width:0.133333" />
      <path
         id="path525"
         d="m 2885.9199,1168.76 c -4.16,15.36 -9.88,30.0267 -16.9866,43.9067 -1.1867,2.2933 -2.3867,4.5733 -3.64,6.8133 -13.4534,24.32 -31.2934,45.8667 -52.4134,63.6134 -1.6666,1.44 -3.3733,2.8133 -5.1066,4.1866 h -0.04 c -5.4,4.32 -11,8.3867 -16.8267,12.1467 -10.2133,6.72 -20.9867,12.6133 -32.2533,17.5467 -0.32,0.1733 -0.6134,0.2666 -0.9467,0.4266 -19.2133,8.4134 -39.8133,14.24 -61.3867,17.0667 -2.7866,0.36 -5.5333,0.68 -8.36,0.9067 -6.9733,0.6933 -14.04,1.0266 -21.2133,1.0266 -7.1333,0 -14.2133,-0.3333 -21.2133,-1.0266 -2.8134,-0.2267 -5.56,-0.5467 -8.3467,-0.9067 -21.5733,-2.8267 -42.1467,-8.68 -61.4,-17.0667 -0.32,-0.16 -0.6133,-0.2533 -0.9467,-0.4266 -11.2533,-4.9334 -22,-10.8667 -32.2133,-17.5467 -5.8267,-3.76 -11.4267,-7.8267 -16.8267,-12.1467 h -0.04 c -25.3733,-20.1333 -46.32,-45.5466 -61.16,-74.6533 -1.44,-2.8133 -2.84,-5.6667 -4.16,-8.5467 -5.24,-11.32 -9.52,-23.1066 -12.8266,-35.36 l 186.52,-309.17328 c 4.4266,-7.26667 10.68,-12.38667 17.6933,-15.33333 9.2533,-3.89334 19.8,-4.02667 29.16,-0.29334 7.3067,2.89334 13.8533,8.09334 18.4133,15.65334 l 186.52,309.18661"
         style="fill:#ec1c24;fill-opacity:1;fill-rule:nonzero;stroke:none;stroke-width:0.133333" />
      <path
         id="path526"
         d="m 2580.1866,1307.8 c 18.7333,8.1334 38.3733,13.5734 58.36,16.1867 2.6133,0.3333 5.2,0.6533 7.8533,0.8667 13.4134,1.3066 27.5867,1.2933 40.5334,0.013 2.8266,-0.2267 5.4133,-0.5467 8.0266,-0.88 20.12,-2.6267 39.76,-8.0667 58.3334,-16.1867 0.2666,-0.12 0.52,-0.24 0.7866,-0.3466 l 0.3334,-0.1467 c 10.52,-4.6267 20.8533,-10.24 30.6933,-16.7067 5.4267,-3.5066 10.8,-7.3866 16.0267,-11.5733 l 2.9066,-2.3067 c 0.6534,-0.5333 1.2934,-1.08 1.9334,-1.6266 20.48,-17.2 37.28,-37.6134 50.08,-60.7334 1.2,-2.16 2.36,-4.3466 3.48,-6.52 6.1733,-12.0533 11.2,-24.6666 14.9733,-37.5466 l -184.16,-305.25335 c -3.1333,-5.21333 -7.6933,-9.10666 -13.2267,-11.28 -6.7733,-2.70666 -14.4933,-2.62666 -21.2,0.2 -5.2933,2.22667 -9.6933,6.05334 -12.76,11.08 l -184.1466,305.22665 c 2.96,10.0667 6.6533,19.9333 11.0266,29.3733 1.1067,2.4667 2.36,5.04 3.9734,8.1734 13.5466,26.6 32.9733,50.6 56.2933,69.56 l 2.0933,1.6533 c 5.2267,4.1867 10.6,8.0667 15.96,11.52 10.0934,6.6 20.4134,12.2267 30.7334,16.76 l 0.5066,0.24 c 0.1334,0.04 0.3467,0.1333 0.5867,0.2533 m 86.56,39.16 c -7.56,0 -15.04,-0.36 -22.24,-1.0666 -3.0533,-0.2534 -6.1067,-0.6267 -8.68,-0.96 -22.0267,-2.8667 -43.64,-8.88 -64.2533,-17.84 l -0.5334,-0.2534 c -0.1466,-0.053 -0.36,-0.1466 -0.6133,-0.2666 -11.3333,-4.9867 -22.6267,-11.1467 -33.5867,-18.3067 -4.9066,-3.1733 -9.8533,-6.68 -14.6933,-10.4267 h -0.027 l -2.92,-2.28 c -26.5733,-21.0933 -48.7066,-48.1066 -64.0133,-78.1333 -1.7467,-3.4133 -3.1333,-6.28 -4.36,-8.9733 -5.4533,-11.8 -9.9867,-24.2667 -13.4133,-36.9734 l -1.1734,-4.36 188.8534,-313.03995 c 5.4,-8.86666 13.2266,-15.64 22.64,-19.6 11.7733,-4.96 25.32,-5.09333 37.1733,-0.36 9.8533,3.88 18,10.8 23.5333,20.01334 l 188.8534,313.02661 -1.1734,4.36 c -4.28,15.7867 -10.2533,31.2534 -17.7866,45.96 -1.24,2.4134 -2.52,4.8134 -3.8134,7.1467 -14.0266,25.36 -32.4933,47.76 -54.8533,66.5467 -1.6667,1.4533 -3.4933,2.92 -5.3467,4.3866 l -2.9333,2.28 c -4.8533,3.76 -9.8,7.2667 -14.7467,10.4667 -10.7066,7.0267 -22.0133,13.1867 -33.56,18.2667 -0.2666,0.12 -0.5333,0.24 -0.8,0.3466 l -0.3333,0.16 c -20.4667,8.96 -42.08,14.96 -64.2667,17.8534 -2.5733,0.3333 -5.6266,0.7066 -8.8533,0.9733 -7,0.6933 -14.48,1.0533 -22.08,1.0533"
         style="fill:#231f20;fill-opacity:1;fill-rule:nonzero;stroke:none;stroke-width:0.133333" />
      <path
         id="path527"
         d="m 2580.1866,1307.8 c 18.7333,8.1334 38.3733,13.5734 58.36,16.1867 2.6133,0.3333 5.2,0.6533 7.8533,0.8667 13.4134,1.3066 27.5867,1.2933 40.5334,0.013 2.8266,-0.2267 5.4133,-0.5467 8.0266,-0.88 20.12,-2.6267 39.76,-8.0667 58.3334,-16.1867 0.2666,-0.12 0.52,-0.24 0.7866,-0.3466 l 0.3334,-0.1467 c 10.52,-4.6267 20.8533,-10.24 30.6933,-16.7067 5.4267,-3.5066 10.8,-7.3866 16.0267,-11.5733 l 2.9066,-2.3067 c 0.6534,-0.5333 1.2934,-1.08 1.9334,-1.6266 20.48,-17.2 37.28,-37.6134 50.08,-60.7334 1.2,-2.16 2.36,-4.3466 3.48,-6.52 6.1733,-12.0533 11.2,-24.6666 14.9733,-37.5466 l -184.16,-305.25335 c -3.1333,-5.21333 -7.6933,-9.10666 -13.2267,-11.28 -6.7733,-2.70666 -14.4933,-2.62666 -21.2,0.2 -5.2933,2.22667 -9.6933,6.05334 -12.76,11.08 l -184.1466,305.22665 c 2.96,10.0667 6.6533,19.9333 11.0266,29.3733 1.1067,2.4667 2.36,5.04 3.9734,8.1734 13.5466,26.6 32.9733,50.6 56.2933,69.56 l 2.0933,1.6533 c 5.2267,4.1867 10.6,8.0667 15.96,11.52 10.0934,6.6 20.4134,12.2267 30.7334,16.76 l 0.5066,0.24 c 0.1334,0.04 0.3467,0.1333 0.5867,0.2533 m 86.56,39.16 c -7.56,0 -15.04,-0.36 -22.24,-1.0666 -3.0533,-0.2534 -6.1067,-0.6267 -8.68,-0.96 -22.0267,-2.8667 -43.64,-8.88 -64.2533,-17.84 l -0.5334,-0.2534 c -0.1466,-0.053 -0.36,-0.1466 -0.6133,-0.2666 -11.3333,-4.9867 -22.6267,-11.1467 -33.5867,-18.3067 -4.9066,-3.1733 -9.8533,-6.68 -14.6933,-10.4267 h -0.027 l -2.92,-2.28 c -26.5733,-21.0933 -48.7066,-48.1066 -64.0133,-78.1333 -1.7467,-3.4133 -3.1333,-6.28 -4.36,-8.9733 -5.4533,-11.8 -9.9867,-24.2667 -13.4133,-36.9734 l -1.1734,-4.36 188.8534,-313.03995 c 5.4,-8.86666 13.2266,-15.64 22.64,-19.6 11.7733,-4.96 25.32,-5.09333 37.1733,-0.36 9.8533,3.88 18,10.8 23.5333,20.01334 l 188.8534,313.02661 -1.1734,4.36 c -4.28,15.7867 -10.2533,31.2534 -17.7866,45.96 -1.24,2.4134 -2.52,4.8134 -3.8134,7.1467 -14.0266,25.36 -32.4933,47.76 -54.8533,66.5467 -1.6667,1.4533 -3.4933,2.92 -5.3467,4.3866 l -2.9333,2.28 c -4.8533,3.76 -9.8,7.2667 -14.7467,10.4667 -10.7066,7.0267 -22.0133,13.1867 -33.56,18.2667 -0.2666,0.12 -0.5333,0.24 -0.8,0.3466 l -0.3333,0.16 c -20.4667,8.96 -42.08,14.96 -64.2667,17.8534 -2.5733,0.3333 -5.6266,0.7066 -8.8533,0.9733 -7,0.6933 -14.48,1.0533 -22.08,1.0533"
         style="fill:#231f20;fill-opacity:1;fill-rule:nonzero;stroke:none;stroke-width:0.133333" />
      <path
         id="path528"
         d="m 2580.1866,1307.8 c 18.7333,8.1334 38.3733,13.5734 58.36,16.1867 2.6133,0.3333 5.2,0.6533 7.8533,0.8667 13.4134,1.3066 27.5867,1.2933 40.5334,0.013 2.8266,-0.2267 5.4133,-0.5467 8.0266,-0.88 20.12,-2.6267 39.76,-8.0667 58.3334,-16.1867 0.2666,-0.12 0.52,-0.24 0.7866,-0.3466 l 0.3334,-0.1467 c 10.52,-4.6267 20.8533,-10.24 30.6933,-16.7067 5.4267,-3.5066 10.8,-7.3866 16.0267,-11.5733 l 2.9066,-2.3067 c 0.6534,-0.5333 1.2934,-1.08 1.9334,-1.6266 20.48,-17.2 37.28,-37.6134 50.08,-60.7334 1.2,-2.16 2.36,-4.3466 3.48,-6.52 6.1733,-12.0533 11.2,-24.6666 14.9733,-37.5466 l -184.16,-305.25335 c -3.1333,-5.21333 -7.6933,-9.10666 -13.2267,-11.28 -6.7733,-2.70666 -14.4933,-2.62666 -21.2,0.2 -5.2933,2.22667 -9.6933,6.05334 -12.76,11.08 l -184.1466,305.22665 c 2.96,10.0667 6.6533,19.9333 11.0266,29.3733 1.1067,2.4667 2.36,5.04 3.9734,8.1734 13.5466,26.6 32.9733,50.6 56.2933,69.56 l 2.0933,1.6533 c 5.2267,4.1867 10.6,8.0667 15.96,11.52 10.0934,6.6 20.4134,12.2267 30.7334,16.76 l 0.5066,0.24 c 0.1334,0.04 0.3467,0.1333 0.5867,0.2533 m 86.56,39.16 c -7.56,0 -15.04,-0.36 -22.24,-1.0666 -3.0533,-0.2534 -6.1067,-0.6267 -8.68,-0.96 -22.0267,-2.8667 -43.64,-8.88 -64.2533,-17.84 l -0.5334,-0.2534 c -0.1466,-0.053 -0.36,-0.1466 -0.6133,-0.2666 -11.3333,-4.9867 -22.6267,-11.1467 -33.5867,-18.3067 -4.9066,-3.1733 -9.8533,-6.68 -14.6933,-10.4267 h -0.027 l -2.92,-2.28 c -26.5733,-21.0933 -48.7066,-48.1066 -64.0133,-78.1333 -1.7467,-3.4133 -3.1333,-6.28 -4.36,-8.9733 -5.4533,-11.8 -9.9867,-24.2667 -13.4133,-36.9734 l -1.1734,-4.36 188.8534,-313.03995 c 5.4,-8.86666 13.2266,-15.64 22.64,-19.6 11.7733,-4.96 25.32,-5.09333 37.1733,-0.36 9.8533,3.88 18,10.8 23.5333,20.01334 l 188.8534,313.02661 -1.1734,4.36 c -4.28,15.7867 -10.2533,31.2534 -17.7866,45.96 -1.24,2.4134 -2.52,4.8134 -3.8134,7.1467 -14.0266,25.36 -32.4933,47.76 -54.8533,66.5467 -1.6667,1.4533 -3.4933,2.92 -5.3467,4.3866 l -2.9333,2.28 c -4.8533,3.76 -9.8,7.2667 -14.7467,10.4667 -10.7066,7.0267 -22.0133,13.1867 -33.56,18.2667 -0.2666,0.12 -0.5333,0.24 -0.8,0.3466 l -0.3333,0.16 c -20.4667,8.96 -42.08,14.96 -64.2667,17.8534 -2.5733,0.3333 -5.6266,0.7066 -8.8533,0.9733 -7,0.6933 -14.48,1.0533 -22.08,1.0533"
         style="fill:#231f20;fill-opacity:1;fill-rule:nonzero;stroke:none;stroke-width:0.133333" />
      <path
         id="path529"
         d="m 2666.7466,1383.48 c -8.6133,0 -17.1467,-0.4 -25.5733,-1.2133 -3.36,-0.2933 -6.7067,-0.6933 -10.08,-1.1467 -6.5467,-0.8533 -13.0667,-1.9333 -19.48,-3.24 8.84,-0.067 17.6133,-0.4933 26.2533,-1.3066 3.7067,-0.3334 7.3333,-0.76 11,-1.2534 28.3333,-3.6666 55.4,-11.32 80.6533,-22.3866 0.4267,-0.2 0.8134,-0.36 1.24,-0.56 6.5467,-2.88 13,-6.0267 19.28,-9.4 12.9067,-8.84 24.08,-17.8134 33.7467,-26.8134 4.36,-2.48 8.6533,-5.1066 12.8533,-7.8533 4.9467,-3.2 9.8934,-6.7067 14.7467,-10.4667 l 2.9333,-2.28 c 1.8534,-1.4666 3.68,-2.9333 5.3467,-4.3866 22.36,-18.7867 40.8267,-41.1867 54.8533,-66.5467 1.2934,-2.3333 2.5734,-4.7333 3.8134,-7.1467 3.92,-7.6533 7.4133,-15.52 10.48,-23.52 l 15.4933,25.68 c 0.4133,0.68 0.8133,1.3867 1.2133,2.12 0.48,0.9067 0.96,1.8 1.4534,2.9067 0.3866,0.8533 0.76,1.7333 1.0266,2.3733 l 0.2267,0.64 c 0.2533,0.6667 0.4933,1.3334 0.72,2 l 0.1467,0.4 c 0.053,0.1467 0.093,0.2934 0.1466,0.44 l 0.24,0.8267 c -9.24,22.84 -18.9466,35.9333 -18.9466,35.9333 -15.12,21.5067 -33.2667,40.6934 -53.8267,57 h -0.027 c -6.52,5.2 -13.2933,10.08 -20.2666,14.6667 -12.3467,8.0533 -25.3467,15.16 -38.8934,21.12 -0.4,0.2 -0.76,0.32 -1.1466,0.52 -23.1467,10.16 -48,17.1867 -73.9734,20.5333 -3.36,0.4534 -6.7066,0.8534 -10.08,1.1467 -8.4133,0.8133 -16.96,1.2133 -25.5733,1.2133"
         style="fill:#44a725;fill-opacity:1;fill-rule:nonzero;stroke:none;stroke-width:0.133333" />
      <path
         id="path530"
         d="m 2666.7733,1397.8534 c -9.0934,0 -18.2134,-0.4134 -26.96,-1.2667 -3.2267,-0.28 -6.5867,-0.6533 -10.56,-1.1867 -26.8,-3.5066 -52.9734,-10.7733 -77.56,-21.5066 l -1.44,-0.64 c -1.96,-0.8667 -3.92,-1.76 -5.88,-2.68 8.7866,1.9733 17.72,3.56 26.7733,4.7466 3.6667,0.4934 7.2933,0.92 11,1.2534 9.16,0.88 18.4667,1.3066 27.8667,1.3066 h 1.6 v 0 c 6.4133,1.3067 12.9333,2.3867 19.48,3.24 3.3733,0.4534 6.72,0.8534 10.08,1.1467 8.4266,0.8133 16.96,1.2133 25.5733,1.2133 8.6133,0 17.16,-0.4 25.5733,-1.2133 3.3734,-0.2933 6.72,-0.6933 10.08,-1.1467 25.9734,-3.3466 50.8267,-10.3733 73.9734,-20.5333 0.3866,-0.2 0.7466,-0.32 1.1466,-0.52 13.5467,-5.96 26.5467,-13.0667 38.8934,-21.12 6.9733,-4.5867 13.7466,-9.4667 20.2666,-14.6667 h 0.027 c 20.56,-16.3066 38.7067,-35.4933 53.8267,-57 0,0 9.7066,-13.0933 18.9466,-35.9333 l 0.1467,0.5467 c 0.1733,0.4933 0.3067,0.96 0.44,1.5466 0.093,0.4134 0.2,0.84 0.2933,1.2534 l 0.2534,1.1866 c 0.08,0.4134 0.1466,0.8267 0.2533,1.4134 0.1467,0.8533 0.28,1.72 0.4,2.7066 0.093,0.72 0.16,1.44 0.2133,2.16 0.013,0.4134 0.04,0.84 0.067,1.28 0.027,0.8134 0.053,1.6 0.053,2.4267 0,1.28 -0.053,2.56 -0.1733,4.04 -0.08,1.2667 -0.24,2.5467 -0.4,3.6133 -0.2267,1.3467 -0.4667,2.6667 -0.7867,3.9867 -0.3066,1.32 -0.6666,2.6267 -1.04,3.8267 -1.5733,5.04 -3.9733,9.88 -7.1066,14.3333 -15.2,21.6 -33.28,40.9867 -53.7734,57.6533 l -2.9066,2.3067 c -6.8667,5.4933 -14.04,10.6667 -21.3067,15.4133 -12.9733,8.5067 -26.7333,15.9867 -41.04,22.2934 l -1.0667,0.48 c -1.8266,0.8 -3.6666,1.5866 -5.52,2.3333 l -1.4933,0.6 -0.24,0.1067 -2.0667,0.8 -0.053,0.053 c -1.8,0.7333 -3.6533,1.44 -5.5867,2.1333 -4.7866,1.8134 -9.92,3.5734 -15.2266,5.2134 -2.5334,0.7733 -5.0667,1.5066 -7.4667,2.2 l -0.6933,0.1866 c -1.72,0.4667 -3.4134,0.9334 -5.1467,1.3467 l -0.4267,0.1067 c -0.7866,0.2133 -1.5866,0.4266 -2.4,0.6133 l -0.5466,0.1333 c -0.1467,0.04 -0.28,0.067 -0.4134,0.093 l -3.2266,0.7333 -0.04,0.04 c -1.12,0.2667 -2.24,0.52 -3.4,0.76 -2.2134,0.4933 -4.4267,0.96 -6.84,1.3867 -3.3467,0.6533 -6.5334,1.2 -9.8267,1.7066 -2.36,0.3734 -4.76,0.72 -7.1733,1.04 -3.9467,0.5334 -7.2934,0.9067 -10.6134,1.2 -8.6666,0.84 -17.7333,1.2534 -26.8266,1.2534"
         style="fill:#00813b;fill-opacity:1;fill-rule:nonzero;stroke:none;stroke-width:0.133333" />
      <path
         id="path531"
         d="M 2830.2399,1251.2534 C 2860.0266,1177.04 2814.2133,1114.64 2814.2133,1114.64 l 0.6266,-0.24 -152.9333,-253.47995 -4.5467,-7.52 c 3.0267,-1.08 6.2134,-1.61333 9.4134,-1.61333 3.52,0 7.04,0.65333 10.3466,1.97333 5.5334,2.17334 10.0934,6.06667 13.2267,11.28 v 0 l 184.16,305.25335 c -3.7733,12.88 -8.8,25.4933 -14.9733,37.5466 -1.12,2.1734 -2.28,4.36 -3.48,6.52 -7.32,13.2134 -15.9467,25.5467 -25.8134,36.8934"
         style="fill:#c9181f;fill-opacity:1;fill-rule:nonzero;stroke:none;stroke-width:0.133333" />
      <path
         id="path532"
         d="m 2783.7866,1316.16 c 11.84,-11.0266 21.4133,-22.0933 29.0933,-33.0666 7.5067,-10.7467 13.1734,-21.4134 17.36,-31.84 9.8667,-11.3467 18.4934,-23.68 25.8134,-36.8934 1.2,-2.16 2.36,-4.3466 3.48,-6.52 6.1733,-12.0533 11.2,-24.6666 14.9733,-37.5466 v 0 l -184.16,-305.25335 198.4667,328.91995 c -3.0667,8 -6.56,15.8667 -10.48,23.52 -1.24,2.4134 -2.52,4.8134 -3.8134,7.1467 -14.0266,25.36 -32.4933,47.76 -54.8533,66.5467 -1.6667,1.4533 -3.4933,2.92 -5.3467,4.3866 l -2.9333,2.28 c -4.8533,3.76 -9.8,7.2667 -14.7467,10.4667 -4.2,2.7467 -8.4933,5.3733 -12.8533,7.8533"
         style="fill:#1e1a1b;fill-opacity:1;fill-rule:nonzero;stroke:none;stroke-width:0.133333" />
      <path
         id="path533"
         d="m 2680.9999,843.92005 c -8.5466,4.36 -15.4933,9.96 -19.0933,17 -0.16,0.26667 -0.2667,0.49334 -0.4,0.74667 l -198.3467,338.15998 c 0,0 -1.0133,1.48 -2.72,4.2533 -4.9733,8.2267 -15.8133,27.8667 -23.0133,53.7067 -3.0133,10.7067 -5.4,22.4933 -6.48,34.96 -2.8133,-3.6 -5.5333,-7.2933 -8.16,-11.0267 -0.6133,-0.8933 -1.24,-1.8 -1.8,-2.76 -2.0533,-3.2 -3.7333,-6.5466 -5.1333,-10.0133 -0.5867,-1.48 -1.12,-2.9867 -1.6134,-4.4933 -0.4533,-1.5067 -0.88,-3.04 -1.24,-4.5734 -0.16,-0.7866 -0.36,-1.5466 -0.4933,-2.3333 -0.2933,-1.5333 -0.52,-3.1067 -0.72,-4.64 -0.093,-0.7867 -0.16,-1.5733 -0.2267,-2.36 -0.2,-2.52 -0.2266,-5.08 -0.093,-7.6267 0.027,-0.6933 0.067,-1.3733 0.16,-2.1066 0.027,-0.8134 0.093,-1.6267 0.2267,-2.4534 0.1066,-0.9466 0.2666,-1.8666 0.4266,-2.8133 0,-0.2267 0.067,-0.4933 0.1067,-0.72 0.053,-0.3867 0.12,-0.8133 0.2267,-1.2133 0.16,-0.8134 0.36,-1.6667 0.5466,-2.48 0.3067,-1.1867 0.6267,-2.36 0.9867,-3.5467 l 0.04,-0.053 c 0.32,-1.0267 0.6533,-2.0667 1.04,-3.08 0.1067,-0.2667 0.2,-0.5334 0.2933,-0.7867 0.4267,-1.08 0.8534,-2.1333 1.3467,-3.1733 0.3867,-0.8534 0.8133,-1.7467 1.24,-2.5867 0.1333,-0.2667 0.2667,-0.56 0.4267,-0.8267 0.52,-0.9733 1.08,-1.9333 1.64,-2.88 l 27.44,-45.48 186.52,-309.17328 c 4.4266,-7.26667 10.68,-12.38667 17.6933,-15.32 9.2533,-3.90667 19.8,-4.04 29.1733,-0.30667"
         style="fill:#ffffff;fill-opacity:1;fill-rule:nonzero;stroke:none;stroke-width:0.133333" />
      <path
         id="path534"
         d="m 2422.7466,1236.8534 -0.013,0.08 0.013,-0.08 m 81.9867,111.0533 c 1.5466,1.0533 3.12,2.0933 4.68,3.1333 13.1733,8.6 26.92,16.08 40.84,22.2134 l 1.44,0.64 c 24.5866,10.7333 50.76,18 77.56,21.5066 3.9733,0.5334 7.3333,0.9067 10.56,1.1867 17.5066,1.6933 36.4533,1.68 53.7866,0.013 3.32,-0.2933 6.6667,-0.6666 10.6134,-1.2 2.4133,-0.32 4.8133,-0.6666 7.1733,-1.04 3.2933,-0.5066 6.48,-1.0533 9.8267,-1.7066 2.4133,-0.4267 4.6266,-0.8934 6.84,-1.3867 1.16,-0.24 2.28,-0.4933 3.4,-0.76 l 0.04,-0.04 3.2266,-0.7333 c 0.1334,-0.027 0.2667,-0.053 0.4134,-0.093 l 0.5466,-0.1333 c 0.8134,-0.1867 1.6134,-0.4 2.4,-0.6133 l 0.4267,-0.1067 c 1.7333,-0.4133 3.4267,-0.88 5.1467,-1.3467 l 0.6933,-0.1866 c 2.4,-0.6934 4.9333,-1.4267 7.4667,-2.2 5.3066,-1.64 10.44,-3.4 15.2266,-5.2134 1.9334,-0.6933 3.7867,-1.4 5.5867,-2.1333 l 0.053,-0.053 2.0667,-0.8 0.24,-0.1067 1.4933,-0.6 c 1.8534,-0.7467 3.6934,-1.5333 5.52,-2.3333 l 1.0667,-0.48 c 14.3067,-6.3067 28.0667,-13.7867 41.04,-22.2934 7.2667,-4.7466 14.44,-9.92 21.3067,-15.4133 l 2.9066,-2.3067 c 20.4934,-16.6666 38.5734,-36.0533 53.7734,-57.6533 3.1333,-4.4533 5.5333,-9.2933 7.1066,-14.3333 0.3734,-1.2 0.7334,-2.5067 1.04,-3.8267 0.32,-1.32 0.56,-2.64 0.7867,-3.9867 0.16,-1.0666 0.32,-2.3466 0.4,-3.6133 0.12,-1.48 0.1733,-2.76 0.1733,-4.04 0,-0.8267 -0.027,-1.6133 -0.053,-2.4267 -0.027,-0.44 -0.053,-0.8666 -0.067,-1.28 -0.053,-0.72 -0.12,-1.44 -0.2133,-2.16 -0.12,-0.9866 -0.2533,-1.8533 -0.4,-2.7066 -0.1067,-0.5867 -0.1733,-1 -0.2533,-1.4134 l -0.2534,-1.1866 c -0.093,-0.4134 -0.2,-0.84 -0.2933,-1.2534 -0.1333,-0.5866 -0.2667,-1.0533 -0.44,-1.5466 l -0.3867,-1.3734 c -0.053,-0.1466 -0.093,-0.2933 -0.1466,-0.44 l -0.1467,-0.4 c -0.2267,-0.6666 -0.4667,-1.3333 -0.72,-2 l -0.2267,-0.64 c -0.2666,-0.64 -0.64,-1.52 -1.0266,-2.3733 -0.4934,-1.1067 -0.9734,-2 -1.4534,-2.9067 -0.4,-0.7333 -0.8,-1.44 -1.2133,-2.12 l -213.96,-354.59995 c -3.1333,-5.21333 -7.6933,-9.10666 -13.2267,-11.28 -6.7733,-2.70666 -14.4933,-2.62666 -21.2,0.2 -5.2933,2.22667 -9.6933,6.05334 -12.76,11.08 L 2429.213,1219.6538 c -0.4134,0.72 -0.9067,1.5466 -1.36,2.4 l -0.2934,0.5733 c -0.3733,0.7467 -0.7466,1.5333 -1.0933,2.28 -0.44,0.92 -0.7733,1.7733 -1.12,2.64 l -0.2267,0.6267 c -0.32,0.8 -0.5466,1.5333 -0.7733,2.24 l -0.28,0.8666 c -0.24,0.8134 -0.4533,1.6134 -0.6533,2.4134 -0.1467,0.5866 -0.3067,1.3066 -0.44,1.9866 l -0.28,1.6534 c -0.1467,0.8666 -0.2667,1.48 -0.3334,2.1066 l -0.08,0.6 c -0.053,0.4 -0.08,0.8 -0.093,1.2 l -0.093,1 c -0.053,0.4 -0.053,0.7867 -0.08,1.1734 -0.1067,2.1466 -0.08,4.2533 0.08,6.3066 0.053,0.6 0.1066,1.24 0.1866,1.8934 0.16,1.2666 0.3467,2.6266 0.6,3.9466 0.1067,0.56 0.1734,0.8534 0.24,1.16 l 0.2267,1.0134 c 0.2533,1.0533 0.6133,2.36 1,3.6533 0.36,1.08 0.8133,2.3733 1.3067,3.64 1.24,3.0267 2.6133,5.7333 4.2266,8.2267 l 0.2267,0.36 c 0.4,0.7066 0.8667,1.3733 1.32,2.0266 2.6667,3.7867 5.2933,7.3467 7.84,10.6 13.72,17.72 29.4133,33.7334 46.6667,47.68 l 2.1733,1.7067 c 5.2,4.1467 10.5067,8.0667 15.76,11.6667 l 0.8667,0.6133 m 162.0133,71.08 c -9.8267,0 -19.5333,-0.4533 -28.8667,-1.36 -3.4266,-0.2933 -7.1866,-0.72 -11.3866,-1.28 -28.7467,-3.76 -56.84,-11.56 -83.48,-23.1867 l -1.4534,-0.6533 c -14.8,-6.52 -29.56,-14.5467 -43.7066,-23.8 -1.9734,-1.28 -3.92,-2.6 -5.8534,-3.92 l -0.88,-0.6267 c -4.4266,-3.04 -8.8666,-6.3066 -13.24,-9.7066 h -0.027 l -2.9067,-2.28 c -19.44,-15.3867 -37.0533,-33.2 -52.36,-52.96 -2.7333,-3.4934 -5.5867,-7.36 -8.44,-11.4267 -0.7333,-1.0533 -1.48,-2.1467 -2.1467,-3.28 -2.28,-3.56 -4.2266,-7.36 -5.9333,-11.5867 -0.6933,-1.7333 -1.3067,-3.4533 -1.8667,-5.1733 -0.5866,-1.9333 -1.0666,-3.6933 -1.48,-5.4533 l -0.2,-0.92 c -0.16,-0.6934 -0.3066,-1.3734 -0.4266,-2.08 -0.2934,-1.5067 -0.56,-3.2934 -0.7867,-5.04 -0.12,-0.9867 -0.2,-1.9067 -0.28,-2.84 -0.2267,-3 -0.2667,-6.0267 -0.12,-9.04 0.04,-0.7867 0.093,-1.5867 0.1867,-2.44 0.053,-1.04 0.1466,-2.0134 0.28,-2.9467 0.1066,-0.9333 0.2533,-1.84 0.4133,-2.7733 0.04,-0.3867 0.1067,-0.72 0.16,-1.0267 0.1067,-0.6933 0.2133,-1.2933 0.3467,-1.8267 0.1733,-0.8933 0.3866,-1.8133 0.6,-2.6933 0.2266,-0.8933 0.4533,-1.76 0.6933,-2.6 v -2.8533 l 1.3467,-1.36 c 0.1333,-0.4 0.2933,-0.8267 0.4533,-1.2267 l 0.2533,-0.68 c 0.5734,-1.4533 1.08,-2.7067 1.6667,-3.96 0.4,-0.8667 0.88,-1.8533 1.36,-2.8133 0.2133,-0.4534 0.4267,-0.8667 0.6533,-1.2534 0.56,-1.04 1.1467,-2.0533 1.7467,-3.0666 l 214.0267,-354.77335 c 5.4,-8.86666 13.2266,-15.64 22.64,-19.6 11.7733,-4.96 25.32,-5.09333 37.1733,-0.36 9.8533,3.88 18,10.8 23.5333,20.01334 l 213.96,354.61331 c 0.5867,0.9733 1.16,1.96 1.6934,2.96 0.7466,1.3733 1.4533,2.76 2.0933,4.1867 0.5067,1.0666 1.0533,2.36 1.56,3.64 l 0.3067,0.84 c 0.2933,0.8 0.5866,1.5866 0.8666,2.4 0.1734,0.4933 0.3467,1 0.4934,1.5066 0.1466,0.4267 0.2533,0.8134 0.3333,1.16 0.3467,1.0534 0.64,2.08 0.88,3.1334 0.1067,0.4533 0.2133,0.92 0.3333,1.4 l 0.4934,1.0533 0.013,1.48 c 0.08,0.3867 0.1467,0.7733 0.2,1.16 0.2133,1.1067 0.4133,2.4133 0.56,3.7467 0.16,1.1466 0.28,2.3733 0.36,3.6266 l 0.08,1.48 c 0.027,1.1867 0.067,2.2534 0.067,3.3467 0,1.8533 -0.08,3.7333 -0.2267,5.5867 -0.093,1.4933 -0.2933,3.2666 -0.6133,5.3733 -0.32,1.9733 -0.6667,3.7333 -1.08,5.4933 -0.4134,1.76 -0.8934,3.52 -1.4134,5.24 -2.2666,7.2267 -5.6266,14 -10.0133,20.2534 -17.08,24.28 -37.5333,45.92 -60.7867,64.36 l -2.9333,2.28 c -6.5067,5.0533 -13.2133,9.84 -20,14.2666 -13.92,9.1334 -28.7067,17.1734 -43.9067,23.8667 l -1.08,0.48 c -2.0933,0.9333 -4.12,1.8 -6.1466,2.6267 l -1.56,1.56 -2.3467,0.013 c -2.0667,0.8267 -4.1467,1.6267 -6.2533,2.4 -5.04,1.8933 -10.5867,3.8 -16.3467,5.5867 -2.6933,0.8133 -5.3333,1.5866 -8,2.36 l -0.8533,0.2266 c -1.8667,0.5067 -3.7067,1 -5.5734,1.4534 -0.32,0.08 -0.6133,0.16 -0.9333,0.24 l -0.9733,1.08 -3.4934,0.013 c -1.9066,0.4533 -3.8,0.8933 -5.6933,1.2933 -2.3867,0.5334 -4.8933,1.0534 -7.4267,1.5067 -3.4666,0.6667 -6.9333,1.2667 -10.44,1.8133 -2.48,0.3867 -5.0666,0.76 -7.6533,1.1067 -4.1867,0.56 -7.9333,0.9867 -11.44,1.2933 -9.2533,0.8934 -18.9733,1.3467 -28.8,1.3467"
         style="fill:#231f20;fill-opacity:1;fill-rule:nonzero;stroke:none;stroke-width:0.133333" />
      <path
         id="path535"
         d="m 2670.4533,1167.5867 c -7.4267,0 -13.9734,-3.6933 -17.9067,-9.36 -2.4933,-3.5333 -3.96,-7.8267 -3.96,-12.5067 0,-8.3466 10.5067,-24.4266 16.96,-33.4933 1.1867,-1.68 3.0133,-2.52 4.84,-2.52 0.6,0 1.2,0.08 1.7733,0.2533 1.24,0.3334 2.3867,1.0934 3.2,2.2667 6.4534,9.0667 16.9334,25.1467 16.9334,33.4933 0,12.08 -9.7867,21.8667 -21.84,21.8667"
         style="fill:#b00306;fill-opacity:1;fill-rule:nonzero;stroke:none;stroke-width:0.133333" />
      <path
         id="path536"
         d="m 2689.0133,1142.44 c 0,12.0934 -9.7867,21.88 -21.8267,21.88 -7.44,0 -13.9867,-3.7066 -17.92,-9.3733 -2.48,-3.5333 -3.96,-7.8133 -3.96,-12.5067 0,-8.3466 10.5067,-24.4133 16.96,-33.4933 1.5733,-2.2267 4.2533,-2.9733 6.6133,-2.2533 1.2534,0.32 2.4,1.08 3.2134,2.2533 6.4533,9.08 16.92,25.1467 16.92,33.4933"
         style="fill:#231f20;fill-opacity:1;fill-rule:nonzero;stroke:none;stroke-width:0.133333" />
      <path
         id="path537"
         d="m 2683.5866,1137.04 c 0,12.0534 -9.76,21.84 -21.84,21.84 -4.6533,0 -8.9467,-1.44 -12.48,-3.9333 -2.48,-3.5333 -3.96,-7.8133 -3.96,-12.5067 0,-8.3466 10.5067,-24.4133 16.96,-33.4933 1.5733,-2.2267 4.2533,-2.9733 6.6133,-2.2533 6.36,9.2933 14.7067,22.88 14.7067,30.3466"
         style="fill:#333333;fill-opacity:1;fill-rule:nonzero;stroke:none;stroke-width:0.133333" />
      <path
         id="path538"
         d="m 2670.4533,1023.5334 c -7.4267,0 -13.9734,-3.7067 -17.9067,-9.3734 -2.4933,-3.5333 -3.96,-7.8266 -3.96,-12.5066 0,-8.34668 10.5067,-24.42668 16.96,-33.49335 1.1867,-1.68 3,-2.52 4.84,-2.52 0.6,0 1.2,0.08 1.7733,0.26667 1.24,0.32 2.3867,1.08 3.2,2.25333 6.4534,9.06667 16.9334,25.14667 16.9334,33.49335 0,12.08 -9.7867,21.88 -21.84,21.88"
         style="fill:#b00306;fill-opacity:1;fill-rule:nonzero;stroke:none;stroke-width:0.133333" />
      <path
         id="path539"
         d="m 2689.0133,998.38672 c 0,12.07998 -9.7867,21.86668 -21.8267,21.86668 -7.44,0 -13.9867,-3.6934 -17.92,-9.36 -2.48,-3.5334 -3.96,-7.8267 -3.96,-12.50668 0,-8.36 10.5067,-24.42667 16.96,-33.49334 1.5733,-2.22666 4.2533,-2.98666 6.6133,-2.26666 1.2534,0.33333 2.4,1.08 3.2134,2.26666 6.4533,9.06667 16.92,25.13334 16.92,33.49334"
         style="fill:#231f20;fill-opacity:1;fill-rule:nonzero;stroke:none;stroke-width:0.133333" />
      <path
         id="path540"
         d="m 2683.5866,992.97338 c 0,12.05332 -9.76,21.84002 -21.84,21.84002 -4.6533,0 -8.9467,-1.44 -12.48,-3.92 -2.48,-3.5334 -3.96,-7.8267 -3.96,-12.50668 0,-8.36 10.5067,-24.42667 16.96,-33.49334 1.5733,-2.22666 4.2533,-2.98666 6.6133,-2.26666 6.36,9.29333 14.7067,22.89333 14.7067,30.34666"
         style="fill:#333333;fill-opacity:1;fill-rule:nonzero;stroke:none;stroke-width:0.133333" />
      <path
         id="path541"
         d="m 2586.1199,1104.4267 c -7.4266,0 -13.9733,-3.6933 -17.9066,-9.36 -2.4934,-3.5333 -3.96,-7.8267 -3.96,-12.5067 0,-8.3466 10.5066,-24.4266 16.96,-33.4933 1.1866,-1.68 3.0133,-2.52 4.84,-2.52 0.6,0 1.2,0.08 1.7733,0.2667 1.24,0.32 2.3867,1.08 3.2,2.2533 6.4533,9.0667 16.9333,25.1467 16.9333,33.4933 0,12.08 -9.7866,21.8667 -21.84,21.8667"
         style="fill:#b00306;fill-opacity:1;fill-rule:nonzero;stroke:none;stroke-width:0.133333" />
      <path
         id="path542"
         d="m 2604.6933,1079.28 c 0,12.0934 -9.8,21.88 -21.84,21.88 -7.44,0 -13.9867,-3.7066 -17.92,-9.36 -2.48,-3.5466 -3.96,-7.8266 -3.96,-12.52 0,-8.3466 10.5066,-24.4133 16.96,-33.4933 1.5733,-2.2267 4.2666,-2.9733 6.6133,-2.2533 1.2533,0.3333 2.4,1.08 3.2133,2.2533 6.4534,9.08 16.9334,25.1467 16.9334,33.4933"
         style="fill:#231f20;fill-opacity:1;fill-rule:nonzero;stroke:none;stroke-width:0.133333" />
      <path
         id="path543"
         d="m 2599.2533,1073.88 c 0,12.0534 -9.76,21.84 -21.84,21.84 -4.6534,0 -8.9334,-1.44 -12.48,-3.92 -2.48,-3.5466 -3.96,-7.8266 -3.96,-12.52 0,-8.3466 10.5066,-24.4133 16.96,-33.4933 1.5733,-2.2267 4.2666,-2.9733 6.6133,-2.2533 6.36,9.2933 14.7067,22.88 14.7067,30.3466"
         style="fill:#333333;fill-opacity:1;fill-rule:nonzero;stroke:none;stroke-width:0.133333" />
      <path
         id="path544"
         d="m 2753.8533,1104.4267 c -7.44,0 -13.9867,-3.6933 -17.92,-9.36 -2.48,-3.5333 -3.96,-7.8267 -3.96,-12.5067 0,-8.3466 10.52,-24.4266 16.96,-33.4933 1.1866,-1.68 3.0133,-2.52 4.8533,-2.52 0.6,0 1.1867,0.08 1.7733,0.2667 1.24,0.32 2.3867,1.08 3.2,2.2533 6.4534,9.0667 16.9334,25.1467 16.9334,33.4933 0,12.08 -9.8,21.8667 -21.84,21.8667"
         style="fill:#b00306;fill-opacity:1;fill-rule:nonzero;stroke:none;stroke-width:0.133333" />
      <path
         id="path545"
         d="m 2772.4133,1079.28 c 0,12.0934 -9.7867,21.88 -21.84,21.88 -7.4267,0 -13.9734,-3.7066 -17.9067,-9.36 -2.4933,-3.5466 -3.96,-7.8266 -3.96,-12.52 0,-8.3466 10.5067,-24.4133 16.96,-33.4933 1.5733,-2.2267 4.2533,-2.9733 6.6133,-2.2533 1.24,0.3333 2.3867,1.08 3.2134,2.2533 6.44,9.08 16.92,25.1467 16.92,33.4933"
         style="fill:#231f20;fill-opacity:1;fill-rule:nonzero;stroke:none;stroke-width:0.133333" />
      <path
         id="path546"
         d="m 2766.9866,1073.88 c 0,12.0534 -9.76,21.84 -21.84,21.84 -4.6533,0 -8.9467,-1.44 -12.48,-3.92 -2.4933,-3.5466 -3.96,-7.8266 -3.96,-12.52 0,-8.3466 10.5067,-24.4133 16.96,-33.4933 1.5733,-2.2267 4.2533,-2.9733 6.6133,-2.2533 6.3467,9.2933 14.7067,22.88 14.7067,30.3466"
         style="fill:#333333;fill-opacity:1;fill-rule:nonzero;stroke:none;stroke-width:0.133333" />
    </g>
  </g>
</svg>
